G04 #@! TF.GenerationSoftware,KiCad,Pcbnew,(5.1.5)-2*
G04 #@! TF.CreationDate,2020-03-14T15:43:03-06:00*
G04 #@! TF.ProjectId,AS3935,41533339-3335-42e6-9b69-6361645f7063,rev?*
G04 #@! TF.SameCoordinates,Original*
G04 #@! TF.FileFunction,Soldermask,Bot*
G04 #@! TF.FilePolarity,Negative*
%FSLAX46Y46*%
G04 Gerber Fmt 4.6, Leading zero omitted, Abs format (unit mm)*
G04 Created by KiCad (PCBNEW (5.1.5)-2) date 2020-03-14 15:43:03*
%MOMM*%
%LPD*%
G04 APERTURE LIST*
%ADD10C,0.100000*%
G04 APERTURE END LIST*
D10*
G36*
X130161512Y-85717927D02*
G01*
X130310812Y-85747624D01*
X130474784Y-85815544D01*
X130622354Y-85914147D01*
X130747853Y-86039646D01*
X130846456Y-86187216D01*
X130914376Y-86351188D01*
X130949000Y-86525259D01*
X130949000Y-86702741D01*
X130914376Y-86876812D01*
X130846456Y-87040784D01*
X130747853Y-87188354D01*
X130622354Y-87313853D01*
X130474784Y-87412456D01*
X130310812Y-87480376D01*
X130161512Y-87510073D01*
X130136742Y-87515000D01*
X129959258Y-87515000D01*
X129934488Y-87510073D01*
X129785188Y-87480376D01*
X129621216Y-87412456D01*
X129473646Y-87313853D01*
X129348147Y-87188354D01*
X129249544Y-87040784D01*
X129181624Y-86876812D01*
X129147000Y-86702741D01*
X129147000Y-86525259D01*
X129181624Y-86351188D01*
X129249544Y-86187216D01*
X129348147Y-86039646D01*
X129473646Y-85914147D01*
X129621216Y-85815544D01*
X129785188Y-85747624D01*
X129934488Y-85717927D01*
X129959258Y-85713000D01*
X130136742Y-85713000D01*
X130161512Y-85717927D01*
G37*
G36*
X125869000Y-87515000D02*
G01*
X124067000Y-87515000D01*
X124067000Y-85713000D01*
X125869000Y-85713000D01*
X125869000Y-87515000D01*
G37*
G36*
X117233000Y-87515000D02*
G01*
X115431000Y-87515000D01*
X115431000Y-85713000D01*
X117233000Y-85713000D01*
X117233000Y-87515000D01*
G37*
G36*
X127621512Y-85717927D02*
G01*
X127770812Y-85747624D01*
X127934784Y-85815544D01*
X128082354Y-85914147D01*
X128207853Y-86039646D01*
X128306456Y-86187216D01*
X128374376Y-86351188D01*
X128409000Y-86525259D01*
X128409000Y-86702741D01*
X128374376Y-86876812D01*
X128306456Y-87040784D01*
X128207853Y-87188354D01*
X128082354Y-87313853D01*
X127934784Y-87412456D01*
X127770812Y-87480376D01*
X127621512Y-87510073D01*
X127596742Y-87515000D01*
X127419258Y-87515000D01*
X127394488Y-87510073D01*
X127245188Y-87480376D01*
X127081216Y-87412456D01*
X126933646Y-87313853D01*
X126808147Y-87188354D01*
X126709544Y-87040784D01*
X126641624Y-86876812D01*
X126607000Y-86702741D01*
X126607000Y-86525259D01*
X126641624Y-86351188D01*
X126709544Y-86187216D01*
X126808147Y-86039646D01*
X126933646Y-85914147D01*
X127081216Y-85815544D01*
X127245188Y-85747624D01*
X127394488Y-85717927D01*
X127419258Y-85713000D01*
X127596742Y-85713000D01*
X127621512Y-85717927D01*
G37*
G36*
X116445512Y-83177927D02*
G01*
X116594812Y-83207624D01*
X116758784Y-83275544D01*
X116906354Y-83374147D01*
X117031853Y-83499646D01*
X117130456Y-83647216D01*
X117198376Y-83811188D01*
X117233000Y-83985259D01*
X117233000Y-84162741D01*
X117198376Y-84336812D01*
X117130456Y-84500784D01*
X117031853Y-84648354D01*
X116906354Y-84773853D01*
X116758784Y-84872456D01*
X116594812Y-84940376D01*
X116445512Y-84970073D01*
X116420742Y-84975000D01*
X116243258Y-84975000D01*
X116218488Y-84970073D01*
X116069188Y-84940376D01*
X115905216Y-84872456D01*
X115757646Y-84773853D01*
X115632147Y-84648354D01*
X115533544Y-84500784D01*
X115465624Y-84336812D01*
X115431000Y-84162741D01*
X115431000Y-83985259D01*
X115465624Y-83811188D01*
X115533544Y-83647216D01*
X115632147Y-83499646D01*
X115757646Y-83374147D01*
X115905216Y-83275544D01*
X116069188Y-83207624D01*
X116218488Y-83177927D01*
X116243258Y-83173000D01*
X116420742Y-83173000D01*
X116445512Y-83177927D01*
G37*
G36*
X142099512Y-79367927D02*
G01*
X142248812Y-79397624D01*
X142412784Y-79465544D01*
X142560354Y-79564147D01*
X142685853Y-79689646D01*
X142784456Y-79837216D01*
X142852376Y-80001188D01*
X142887000Y-80175259D01*
X142887000Y-80352741D01*
X142852376Y-80526812D01*
X142784456Y-80690784D01*
X142685853Y-80838354D01*
X142560354Y-80963853D01*
X142412784Y-81062456D01*
X142248812Y-81130376D01*
X142099512Y-81160073D01*
X142074742Y-81165000D01*
X141897258Y-81165000D01*
X141872488Y-81160073D01*
X141723188Y-81130376D01*
X141559216Y-81062456D01*
X141411646Y-80963853D01*
X141286147Y-80838354D01*
X141187544Y-80690784D01*
X141119624Y-80526812D01*
X141085000Y-80352741D01*
X141085000Y-80175259D01*
X141119624Y-80001188D01*
X141187544Y-79837216D01*
X141286147Y-79689646D01*
X141411646Y-79564147D01*
X141559216Y-79465544D01*
X141723188Y-79397624D01*
X141872488Y-79367927D01*
X141897258Y-79363000D01*
X142074742Y-79363000D01*
X142099512Y-79367927D01*
G37*
G36*
X142099512Y-76827927D02*
G01*
X142248812Y-76857624D01*
X142412784Y-76925544D01*
X142560354Y-77024147D01*
X142685853Y-77149646D01*
X142784456Y-77297216D01*
X142852376Y-77461188D01*
X142887000Y-77635259D01*
X142887000Y-77812741D01*
X142852376Y-77986812D01*
X142784456Y-78150784D01*
X142685853Y-78298354D01*
X142560354Y-78423853D01*
X142412784Y-78522456D01*
X142248812Y-78590376D01*
X142099512Y-78620073D01*
X142074742Y-78625000D01*
X141897258Y-78625000D01*
X141872488Y-78620073D01*
X141723188Y-78590376D01*
X141559216Y-78522456D01*
X141411646Y-78423853D01*
X141286147Y-78298354D01*
X141187544Y-78150784D01*
X141119624Y-77986812D01*
X141085000Y-77812741D01*
X141085000Y-77635259D01*
X141119624Y-77461188D01*
X141187544Y-77297216D01*
X141286147Y-77149646D01*
X141411646Y-77024147D01*
X141559216Y-76925544D01*
X141723188Y-76857624D01*
X141872488Y-76827927D01*
X141897258Y-76823000D01*
X142074742Y-76823000D01*
X142099512Y-76827927D01*
G37*
G36*
X142099512Y-74287927D02*
G01*
X142248812Y-74317624D01*
X142412784Y-74385544D01*
X142560354Y-74484147D01*
X142685853Y-74609646D01*
X142784456Y-74757216D01*
X142852376Y-74921188D01*
X142887000Y-75095259D01*
X142887000Y-75272741D01*
X142852376Y-75446812D01*
X142784456Y-75610784D01*
X142685853Y-75758354D01*
X142560354Y-75883853D01*
X142412784Y-75982456D01*
X142248812Y-76050376D01*
X142099512Y-76080073D01*
X142074742Y-76085000D01*
X141897258Y-76085000D01*
X141872488Y-76080073D01*
X141723188Y-76050376D01*
X141559216Y-75982456D01*
X141411646Y-75883853D01*
X141286147Y-75758354D01*
X141187544Y-75610784D01*
X141119624Y-75446812D01*
X141085000Y-75272741D01*
X141085000Y-75095259D01*
X141119624Y-74921188D01*
X141187544Y-74757216D01*
X141286147Y-74609646D01*
X141411646Y-74484147D01*
X141559216Y-74385544D01*
X141723188Y-74317624D01*
X141872488Y-74287927D01*
X141897258Y-74283000D01*
X142074742Y-74283000D01*
X142099512Y-74287927D01*
G37*
G36*
X142099512Y-71747927D02*
G01*
X142248812Y-71777624D01*
X142412784Y-71845544D01*
X142560354Y-71944147D01*
X142685853Y-72069646D01*
X142784456Y-72217216D01*
X142852376Y-72381188D01*
X142887000Y-72555259D01*
X142887000Y-72732741D01*
X142852376Y-72906812D01*
X142784456Y-73070784D01*
X142685853Y-73218354D01*
X142560354Y-73343853D01*
X142412784Y-73442456D01*
X142248812Y-73510376D01*
X142099512Y-73540073D01*
X142074742Y-73545000D01*
X141897258Y-73545000D01*
X141872488Y-73540073D01*
X141723188Y-73510376D01*
X141559216Y-73442456D01*
X141411646Y-73343853D01*
X141286147Y-73218354D01*
X141187544Y-73070784D01*
X141119624Y-72906812D01*
X141085000Y-72732741D01*
X141085000Y-72555259D01*
X141119624Y-72381188D01*
X141187544Y-72217216D01*
X141286147Y-72069646D01*
X141411646Y-71944147D01*
X141559216Y-71845544D01*
X141723188Y-71777624D01*
X141872488Y-71747927D01*
X141897258Y-71743000D01*
X142074742Y-71743000D01*
X142099512Y-71747927D01*
G37*
G36*
X142887000Y-71005000D02*
G01*
X141085000Y-71005000D01*
X141085000Y-69203000D01*
X142887000Y-69203000D01*
X142887000Y-71005000D01*
G37*
G36*
X131431512Y-63111927D02*
G01*
X131580812Y-63141624D01*
X131744784Y-63209544D01*
X131892354Y-63308147D01*
X132017853Y-63433646D01*
X132116456Y-63581216D01*
X132184376Y-63745188D01*
X132219000Y-63919259D01*
X132219000Y-64096741D01*
X132184376Y-64270812D01*
X132116456Y-64434784D01*
X132017853Y-64582354D01*
X131892354Y-64707853D01*
X131744784Y-64806456D01*
X131580812Y-64874376D01*
X131431512Y-64904073D01*
X131406742Y-64909000D01*
X131229258Y-64909000D01*
X131204488Y-64904073D01*
X131055188Y-64874376D01*
X130891216Y-64806456D01*
X130743646Y-64707853D01*
X130618147Y-64582354D01*
X130519544Y-64434784D01*
X130451624Y-64270812D01*
X130417000Y-64096741D01*
X130417000Y-63919259D01*
X130451624Y-63745188D01*
X130519544Y-63581216D01*
X130618147Y-63433646D01*
X130743646Y-63308147D01*
X130891216Y-63209544D01*
X131055188Y-63141624D01*
X131204488Y-63111927D01*
X131229258Y-63107000D01*
X131406742Y-63107000D01*
X131431512Y-63111927D01*
G37*
G36*
X134759000Y-64909000D02*
G01*
X132957000Y-64909000D01*
X132957000Y-63107000D01*
X134759000Y-63107000D01*
X134759000Y-64909000D01*
G37*
G36*
X142099512Y-60571927D02*
G01*
X142248812Y-60601624D01*
X142412784Y-60669544D01*
X142560354Y-60768147D01*
X142685853Y-60893646D01*
X142784456Y-61041216D01*
X142852376Y-61205188D01*
X142887000Y-61379259D01*
X142887000Y-61556741D01*
X142852376Y-61730812D01*
X142784456Y-61894784D01*
X142685853Y-62042354D01*
X142560354Y-62167853D01*
X142412784Y-62266456D01*
X142248812Y-62334376D01*
X142099512Y-62364073D01*
X142074742Y-62369000D01*
X141897258Y-62369000D01*
X141872488Y-62364073D01*
X141723188Y-62334376D01*
X141559216Y-62266456D01*
X141411646Y-62167853D01*
X141286147Y-62042354D01*
X141187544Y-61894784D01*
X141119624Y-61730812D01*
X141085000Y-61556741D01*
X141085000Y-61379259D01*
X141119624Y-61205188D01*
X141187544Y-61041216D01*
X141286147Y-60893646D01*
X141411646Y-60768147D01*
X141559216Y-60669544D01*
X141723188Y-60601624D01*
X141872488Y-60571927D01*
X141897258Y-60567000D01*
X142074742Y-60567000D01*
X142099512Y-60571927D01*
G37*
G36*
X115201000Y-60347000D02*
G01*
X113399000Y-60347000D01*
X113399000Y-58545000D01*
X115201000Y-58545000D01*
X115201000Y-60347000D01*
G37*
G36*
X121297000Y-60347000D02*
G01*
X119495000Y-60347000D01*
X119495000Y-58545000D01*
X121297000Y-58545000D01*
X121297000Y-60347000D01*
G37*
G36*
X128891512Y-58539927D02*
G01*
X129040812Y-58569624D01*
X129204784Y-58637544D01*
X129352354Y-58736147D01*
X129477853Y-58861646D01*
X129576456Y-59009216D01*
X129644376Y-59173188D01*
X129679000Y-59347259D01*
X129679000Y-59524741D01*
X129644376Y-59698812D01*
X129576456Y-59862784D01*
X129477853Y-60010354D01*
X129352354Y-60135853D01*
X129204784Y-60234456D01*
X129040812Y-60302376D01*
X128891512Y-60332073D01*
X128866742Y-60337000D01*
X128689258Y-60337000D01*
X128664488Y-60332073D01*
X128515188Y-60302376D01*
X128351216Y-60234456D01*
X128203646Y-60135853D01*
X128078147Y-60010354D01*
X127979544Y-59862784D01*
X127911624Y-59698812D01*
X127877000Y-59524741D01*
X127877000Y-59347259D01*
X127911624Y-59173188D01*
X127979544Y-59009216D01*
X128078147Y-58861646D01*
X128203646Y-58736147D01*
X128351216Y-58637544D01*
X128515188Y-58569624D01*
X128664488Y-58539927D01*
X128689258Y-58535000D01*
X128866742Y-58535000D01*
X128891512Y-58539927D01*
G37*
G36*
X142887000Y-59829000D02*
G01*
X141085000Y-59829000D01*
X141085000Y-58027000D01*
X142887000Y-58027000D01*
X142887000Y-59829000D01*
G37*
G36*
X120509512Y-56009927D02*
G01*
X120658812Y-56039624D01*
X120822784Y-56107544D01*
X120970354Y-56206147D01*
X121095853Y-56331646D01*
X121194456Y-56479216D01*
X121262376Y-56643188D01*
X121297000Y-56817259D01*
X121297000Y-56994741D01*
X121262376Y-57168812D01*
X121194456Y-57332784D01*
X121095853Y-57480354D01*
X120970354Y-57605853D01*
X120822784Y-57704456D01*
X120658812Y-57772376D01*
X120509512Y-57802073D01*
X120484742Y-57807000D01*
X120307258Y-57807000D01*
X120282488Y-57802073D01*
X120133188Y-57772376D01*
X119969216Y-57704456D01*
X119821646Y-57605853D01*
X119696147Y-57480354D01*
X119597544Y-57332784D01*
X119529624Y-57168812D01*
X119495000Y-56994741D01*
X119495000Y-56817259D01*
X119529624Y-56643188D01*
X119597544Y-56479216D01*
X119696147Y-56331646D01*
X119821646Y-56206147D01*
X119969216Y-56107544D01*
X120133188Y-56039624D01*
X120282488Y-56009927D01*
X120307258Y-56005000D01*
X120484742Y-56005000D01*
X120509512Y-56009927D01*
G37*
G36*
X114413512Y-56009927D02*
G01*
X114562812Y-56039624D01*
X114726784Y-56107544D01*
X114874354Y-56206147D01*
X114999853Y-56331646D01*
X115098456Y-56479216D01*
X115166376Y-56643188D01*
X115201000Y-56817259D01*
X115201000Y-56994741D01*
X115166376Y-57168812D01*
X115098456Y-57332784D01*
X114999853Y-57480354D01*
X114874354Y-57605853D01*
X114726784Y-57704456D01*
X114562812Y-57772376D01*
X114413512Y-57802073D01*
X114388742Y-57807000D01*
X114211258Y-57807000D01*
X114186488Y-57802073D01*
X114037188Y-57772376D01*
X113873216Y-57704456D01*
X113725646Y-57605853D01*
X113600147Y-57480354D01*
X113501544Y-57332784D01*
X113433624Y-57168812D01*
X113399000Y-56994741D01*
X113399000Y-56817259D01*
X113433624Y-56643188D01*
X113501544Y-56479216D01*
X113600147Y-56331646D01*
X113725646Y-56206147D01*
X113873216Y-56107544D01*
X114037188Y-56039624D01*
X114186488Y-56009927D01*
X114211258Y-56005000D01*
X114388742Y-56005000D01*
X114413512Y-56009927D01*
G37*
G36*
X129679000Y-57797000D02*
G01*
X127877000Y-57797000D01*
X127877000Y-55995000D01*
X129679000Y-55995000D01*
X129679000Y-57797000D01*
G37*
G36*
X120509512Y-53469927D02*
G01*
X120658812Y-53499624D01*
X120822784Y-53567544D01*
X120970354Y-53666147D01*
X121095853Y-53791646D01*
X121194456Y-53939216D01*
X121262376Y-54103188D01*
X121297000Y-54277259D01*
X121297000Y-54454741D01*
X121262376Y-54628812D01*
X121194456Y-54792784D01*
X121095853Y-54940354D01*
X120970354Y-55065853D01*
X120822784Y-55164456D01*
X120658812Y-55232376D01*
X120509512Y-55262073D01*
X120484742Y-55267000D01*
X120307258Y-55267000D01*
X120282488Y-55262073D01*
X120133188Y-55232376D01*
X119969216Y-55164456D01*
X119821646Y-55065853D01*
X119696147Y-54940354D01*
X119597544Y-54792784D01*
X119529624Y-54628812D01*
X119495000Y-54454741D01*
X119495000Y-54277259D01*
X119529624Y-54103188D01*
X119597544Y-53939216D01*
X119696147Y-53791646D01*
X119821646Y-53666147D01*
X119969216Y-53567544D01*
X120133188Y-53499624D01*
X120282488Y-53469927D01*
X120307258Y-53465000D01*
X120484742Y-53465000D01*
X120509512Y-53469927D01*
G37*
G36*
X114413512Y-53469927D02*
G01*
X114562812Y-53499624D01*
X114726784Y-53567544D01*
X114874354Y-53666147D01*
X114999853Y-53791646D01*
X115098456Y-53939216D01*
X115166376Y-54103188D01*
X115201000Y-54277259D01*
X115201000Y-54454741D01*
X115166376Y-54628812D01*
X115098456Y-54792784D01*
X114999853Y-54940354D01*
X114874354Y-55065853D01*
X114726784Y-55164456D01*
X114562812Y-55232376D01*
X114413512Y-55262073D01*
X114388742Y-55267000D01*
X114211258Y-55267000D01*
X114186488Y-55262073D01*
X114037188Y-55232376D01*
X113873216Y-55164456D01*
X113725646Y-55065853D01*
X113600147Y-54940354D01*
X113501544Y-54792784D01*
X113433624Y-54628812D01*
X113399000Y-54454741D01*
X113399000Y-54277259D01*
X113433624Y-54103188D01*
X113501544Y-53939216D01*
X113600147Y-53791646D01*
X113725646Y-53666147D01*
X113873216Y-53567544D01*
X114037188Y-53499624D01*
X114186488Y-53469927D01*
X114211258Y-53465000D01*
X114388742Y-53465000D01*
X114413512Y-53469927D01*
G37*
M02*
