G04 #@! TF.GenerationSoftware,KiCad,Pcbnew,(5.1.5)-2*
G04 #@! TF.CreationDate,2020-03-14T15:43:03-06:00*
G04 #@! TF.ProjectId,AS3935,41533339-3335-42e6-9b69-6361645f7063,rev?*
G04 #@! TF.SameCoordinates,Original*
G04 #@! TF.FileFunction,Legend,Top*
G04 #@! TF.FilePolarity,Positive*
%FSLAX46Y46*%
G04 Gerber Fmt 4.6, Leading zero omitted, Abs format (unit mm)*
G04 Created by KiCad (PCBNEW (5.1.5)-2) date 2020-03-14 15:43:03*
%MOMM*%
%LPD*%
G04 APERTURE LIST*
%ADD10C,0.250000*%
%ADD11C,0.120000*%
%ADD12C,0.325000*%
%ADD13C,0.400000*%
%ADD14C,0.200000*%
%ADD15C,0.150000*%
%ADD16C,0.254000*%
%ADD17C,0.100000*%
%ADD18R,1.002000X0.902000*%
%ADD19O,1.802000X1.802000*%
%ADD20R,1.802000X1.802000*%
%ADD21R,2.902000X2.902000*%
%ADD22R,0.452000X0.902000*%
%ADD23R,0.902000X0.452000*%
%ADD24R,3.302000X1.402000*%
G04 APERTURE END LIST*
D10*
X126289714Y-64940571D02*
X125575428Y-64940571D01*
X125575428Y-63440571D01*
X126789714Y-64154857D02*
X127289714Y-64154857D01*
X127504000Y-64940571D02*
X126789714Y-64940571D01*
X126789714Y-63440571D01*
X127504000Y-63440571D01*
X128146857Y-64940571D02*
X128146857Y-63440571D01*
X128504000Y-63440571D01*
X128718285Y-63512000D01*
X128861142Y-63654857D01*
X128932571Y-63797714D01*
X129004000Y-64083428D01*
X129004000Y-64297714D01*
X128932571Y-64583428D01*
X128861142Y-64726285D01*
X128718285Y-64869142D01*
X128504000Y-64940571D01*
X128146857Y-64940571D01*
X136449714Y-60972000D02*
X136306857Y-60900571D01*
X136092571Y-60900571D01*
X135878285Y-60972000D01*
X135735428Y-61114857D01*
X135664000Y-61257714D01*
X135592571Y-61543428D01*
X135592571Y-61757714D01*
X135664000Y-62043428D01*
X135735428Y-62186285D01*
X135878285Y-62329142D01*
X136092571Y-62400571D01*
X136235428Y-62400571D01*
X136449714Y-62329142D01*
X136521142Y-62257714D01*
X136521142Y-61757714D01*
X136235428Y-61757714D01*
X137164000Y-61400571D02*
X137164000Y-62400571D01*
X137164000Y-61543428D02*
X137235428Y-61472000D01*
X137378285Y-61400571D01*
X137592571Y-61400571D01*
X137735428Y-61472000D01*
X137806857Y-61614857D01*
X137806857Y-62400571D01*
X139164000Y-62400571D02*
X139164000Y-60900571D01*
X139164000Y-62329142D02*
X139021142Y-62400571D01*
X138735428Y-62400571D01*
X138592571Y-62329142D01*
X138521142Y-62257714D01*
X138449714Y-62114857D01*
X138449714Y-61686285D01*
X138521142Y-61543428D01*
X138592571Y-61472000D01*
X138735428Y-61400571D01*
X139021142Y-61400571D01*
X139164000Y-61472000D01*
X136064857Y-57852571D02*
X136564857Y-59352571D01*
X137064857Y-57852571D01*
X138207714Y-59352571D02*
X138207714Y-57852571D01*
X138207714Y-59281142D02*
X138064857Y-59352571D01*
X137779142Y-59352571D01*
X137636285Y-59281142D01*
X137564857Y-59209714D01*
X137493428Y-59066857D01*
X137493428Y-58638285D01*
X137564857Y-58495428D01*
X137636285Y-58424000D01*
X137779142Y-58352571D01*
X138064857Y-58352571D01*
X138207714Y-58424000D01*
X139564857Y-59352571D02*
X139564857Y-57852571D01*
X139564857Y-59281142D02*
X139422000Y-59352571D01*
X139136285Y-59352571D01*
X138993428Y-59281142D01*
X138922000Y-59209714D01*
X138850571Y-59066857D01*
X138850571Y-58638285D01*
X138922000Y-58495428D01*
X138993428Y-58424000D01*
X139136285Y-58352571D01*
X139422000Y-58352571D01*
X139564857Y-58424000D01*
X136834286Y-81083476D02*
X136834286Y-79833476D01*
X138143809Y-81083476D02*
X137727143Y-80488238D01*
X137429524Y-81083476D02*
X137429524Y-79833476D01*
X137905714Y-79833476D01*
X138024762Y-79893000D01*
X138084286Y-79952523D01*
X138143809Y-80071571D01*
X138143809Y-80250142D01*
X138084286Y-80369190D01*
X138024762Y-80428714D01*
X137905714Y-80488238D01*
X137429524Y-80488238D01*
X139512857Y-81202523D02*
X139393809Y-81143000D01*
X139274762Y-81023952D01*
X139096190Y-80845380D01*
X138977143Y-80785857D01*
X138858095Y-80785857D01*
X138917619Y-81083476D02*
X138798571Y-81023952D01*
X138679524Y-80904904D01*
X138620000Y-80666809D01*
X138620000Y-80250142D01*
X138679524Y-80012047D01*
X138798571Y-79893000D01*
X138917619Y-79833476D01*
X139155714Y-79833476D01*
X139274762Y-79893000D01*
X139393809Y-80012047D01*
X139453333Y-80250142D01*
X139453333Y-80666809D01*
X139393809Y-80904904D01*
X139274762Y-81023952D01*
X139155714Y-81083476D01*
X138917619Y-81083476D01*
X137977143Y-78585214D02*
X137905714Y-78656642D01*
X137691428Y-78728071D01*
X137548571Y-78728071D01*
X137334285Y-78656642D01*
X137191428Y-78513785D01*
X137120000Y-78370928D01*
X137048571Y-78085214D01*
X137048571Y-77870928D01*
X137120000Y-77585214D01*
X137191428Y-77442357D01*
X137334285Y-77299500D01*
X137548571Y-77228071D01*
X137691428Y-77228071D01*
X137905714Y-77299500D01*
X137977143Y-77370928D01*
X138548571Y-78656642D02*
X138762857Y-78728071D01*
X139120000Y-78728071D01*
X139262857Y-78656642D01*
X139334285Y-78585214D01*
X139405714Y-78442357D01*
X139405714Y-78299500D01*
X139334285Y-78156642D01*
X139262857Y-78085214D01*
X139120000Y-78013785D01*
X138834285Y-77942357D01*
X138691428Y-77870928D01*
X138620000Y-77799500D01*
X138548571Y-77656642D01*
X138548571Y-77513785D01*
X138620000Y-77370928D01*
X138691428Y-77299500D01*
X138834285Y-77228071D01*
X139191428Y-77228071D01*
X139405714Y-77299500D01*
X129834285Y-76008142D02*
X130048571Y-76079571D01*
X130405714Y-76079571D01*
X130548571Y-76008142D01*
X130620000Y-75936714D01*
X130691428Y-75793857D01*
X130691428Y-75651000D01*
X130620000Y-75508142D01*
X130548571Y-75436714D01*
X130405714Y-75365285D01*
X130120000Y-75293857D01*
X129977142Y-75222428D01*
X129905714Y-75151000D01*
X129834285Y-75008142D01*
X129834285Y-74865285D01*
X129905714Y-74722428D01*
X129977142Y-74651000D01*
X130120000Y-74579571D01*
X130477142Y-74579571D01*
X130691428Y-74651000D01*
X132191428Y-75936714D02*
X132120000Y-76008142D01*
X131905714Y-76079571D01*
X131762857Y-76079571D01*
X131548571Y-76008142D01*
X131405714Y-75865285D01*
X131334285Y-75722428D01*
X131262857Y-75436714D01*
X131262857Y-75222428D01*
X131334285Y-74936714D01*
X131405714Y-74793857D01*
X131548571Y-74651000D01*
X131762857Y-74579571D01*
X131905714Y-74579571D01*
X132120000Y-74651000D01*
X132191428Y-74722428D01*
X133548571Y-76079571D02*
X132834285Y-76079571D01*
X132834285Y-74579571D01*
X135120000Y-74508142D02*
X133834285Y-76436714D01*
X135548571Y-76008142D02*
X135762857Y-76079571D01*
X136120000Y-76079571D01*
X136262857Y-76008142D01*
X136334285Y-75936714D01*
X136405714Y-75793857D01*
X136405714Y-75651000D01*
X136334285Y-75508142D01*
X136262857Y-75436714D01*
X136120000Y-75365285D01*
X135834285Y-75293857D01*
X135691428Y-75222428D01*
X135620000Y-75151000D01*
X135548571Y-75008142D01*
X135548571Y-74865285D01*
X135620000Y-74722428D01*
X135691428Y-74651000D01*
X135834285Y-74579571D01*
X136191428Y-74579571D01*
X136405714Y-74651000D01*
X137905714Y-75936714D02*
X137834285Y-76008142D01*
X137620000Y-76079571D01*
X137477142Y-76079571D01*
X137262857Y-76008142D01*
X137120000Y-75865285D01*
X137048571Y-75722428D01*
X136977142Y-75436714D01*
X136977142Y-75222428D01*
X137048571Y-74936714D01*
X137120000Y-74793857D01*
X137262857Y-74651000D01*
X137477142Y-74579571D01*
X137620000Y-74579571D01*
X137834285Y-74651000D01*
X137905714Y-74722428D01*
X138548571Y-76079571D02*
X138548571Y-74579571D01*
X139405714Y-76079571D02*
X138762857Y-75222428D01*
X139405714Y-74579571D02*
X138548571Y-75436714D01*
X134620000Y-73431071D02*
X134620000Y-71931071D01*
X135120000Y-73002500D01*
X135620000Y-71931071D01*
X135620000Y-73431071D01*
X136334285Y-73431071D02*
X136334285Y-71931071D01*
X136977143Y-73359642D02*
X137191428Y-73431071D01*
X137548571Y-73431071D01*
X137691428Y-73359642D01*
X137762857Y-73288214D01*
X137834285Y-73145357D01*
X137834285Y-73002500D01*
X137762857Y-72859642D01*
X137691428Y-72788214D01*
X137548571Y-72716785D01*
X137262857Y-72645357D01*
X137120000Y-72573928D01*
X137048571Y-72502500D01*
X136977143Y-72359642D01*
X136977143Y-72216785D01*
X137048571Y-72073928D01*
X137120000Y-72002500D01*
X137262857Y-71931071D01*
X137620000Y-71931071D01*
X137834285Y-72002500D01*
X138762857Y-71931071D02*
X139048571Y-71931071D01*
X139191428Y-72002500D01*
X139334285Y-72145357D01*
X139405714Y-72431071D01*
X139405714Y-72931071D01*
X139334285Y-73216785D01*
X139191428Y-73359642D01*
X139048571Y-73431071D01*
X138762857Y-73431071D01*
X138620000Y-73359642D01*
X138477143Y-73216785D01*
X138405714Y-72931071D01*
X138405714Y-72431071D01*
X138477143Y-72145357D01*
X138620000Y-72002500D01*
X138762857Y-71931071D01*
X135762857Y-70711142D02*
X135977143Y-70782571D01*
X136334286Y-70782571D01*
X136477143Y-70711142D01*
X136548571Y-70639714D01*
X136620000Y-70496857D01*
X136620000Y-70354000D01*
X136548571Y-70211142D01*
X136477143Y-70139714D01*
X136334286Y-70068285D01*
X136048571Y-69996857D01*
X135905714Y-69925428D01*
X135834286Y-69854000D01*
X135762857Y-69711142D01*
X135762857Y-69568285D01*
X135834286Y-69425428D01*
X135905714Y-69354000D01*
X136048571Y-69282571D01*
X136405714Y-69282571D01*
X136620000Y-69354000D01*
X137262857Y-70782571D02*
X137262857Y-69282571D01*
X137620000Y-69282571D01*
X137834286Y-69354000D01*
X137977143Y-69496857D01*
X138048571Y-69639714D01*
X138120000Y-69925428D01*
X138120000Y-70139714D01*
X138048571Y-70425428D01*
X137977143Y-70568285D01*
X137834286Y-70711142D01*
X137620000Y-70782571D01*
X137262857Y-70782571D01*
X138691428Y-70354000D02*
X139405714Y-70354000D01*
X138548571Y-70782571D02*
X139048571Y-69282571D01*
X139548571Y-70782571D01*
X111172571Y-60368571D02*
X110315428Y-60368571D01*
X110744000Y-60368571D02*
X110744000Y-58868571D01*
X110601142Y-59082857D01*
X110458285Y-59225714D01*
X110315428Y-59297142D01*
X110672571Y-53534571D02*
X110815428Y-53534571D01*
X110958285Y-53606000D01*
X111029714Y-53677428D01*
X111101142Y-53820285D01*
X111172571Y-54106000D01*
X111172571Y-54463142D01*
X111101142Y-54748857D01*
X111029714Y-54891714D01*
X110958285Y-54963142D01*
X110815428Y-55034571D01*
X110672571Y-55034571D01*
X110529714Y-54963142D01*
X110458285Y-54891714D01*
X110386857Y-54748857D01*
X110315428Y-54463142D01*
X110315428Y-54106000D01*
X110386857Y-53820285D01*
X110458285Y-53677428D01*
X110529714Y-53606000D01*
X110672571Y-53534571D01*
X119578571Y-50796000D02*
X120292857Y-50796000D01*
X119435714Y-51224571D02*
X119935714Y-49724571D01*
X120435714Y-51224571D01*
X121721428Y-51224571D02*
X120864285Y-51224571D01*
X121292857Y-51224571D02*
X121292857Y-49724571D01*
X121150000Y-49938857D01*
X121007142Y-50081714D01*
X120864285Y-50153142D01*
X113228571Y-50796000D02*
X113942857Y-50796000D01*
X113085714Y-51224571D02*
X113585714Y-49724571D01*
X114085714Y-51224571D01*
X114871428Y-49724571D02*
X115014285Y-49724571D01*
X115157142Y-49796000D01*
X115228571Y-49867428D01*
X115300000Y-50010285D01*
X115371428Y-50296000D01*
X115371428Y-50653142D01*
X115300000Y-50938857D01*
X115228571Y-51081714D01*
X115157142Y-51153142D01*
X115014285Y-51224571D01*
X114871428Y-51224571D01*
X114728571Y-51153142D01*
X114657142Y-51081714D01*
X114585714Y-50938857D01*
X114514285Y-50653142D01*
X114514285Y-50296000D01*
X114585714Y-50010285D01*
X114657142Y-49867428D01*
X114728571Y-49796000D01*
X114871428Y-49724571D01*
X126325714Y-53256571D02*
X126325714Y-51756571D01*
X126897142Y-51756571D01*
X127040000Y-51828000D01*
X127111428Y-51899428D01*
X127182857Y-52042285D01*
X127182857Y-52256571D01*
X127111428Y-52399428D01*
X127040000Y-52470857D01*
X126897142Y-52542285D01*
X126325714Y-52542285D01*
X128468571Y-52256571D02*
X128468571Y-53256571D01*
X127825714Y-52256571D02*
X127825714Y-53042285D01*
X127897142Y-53185142D01*
X128040000Y-53256571D01*
X128254285Y-53256571D01*
X128397142Y-53185142D01*
X128468571Y-53113714D01*
X129397142Y-53256571D02*
X129254285Y-53185142D01*
X129182857Y-53042285D01*
X129182857Y-51756571D01*
X130182857Y-53256571D02*
X130040000Y-53185142D01*
X129968571Y-53042285D01*
X129968571Y-51756571D01*
X131397142Y-52256571D02*
X131397142Y-53256571D01*
X130754285Y-52256571D02*
X130754285Y-53042285D01*
X130825714Y-53185142D01*
X130968571Y-53256571D01*
X131182857Y-53256571D01*
X131325714Y-53185142D01*
X131397142Y-53113714D01*
X132111428Y-52256571D02*
X132111428Y-53756571D01*
X132111428Y-52328000D02*
X132254285Y-52256571D01*
X132540000Y-52256571D01*
X132682857Y-52328000D01*
X132754285Y-52399428D01*
X132825714Y-52542285D01*
X132825714Y-52970857D01*
X132754285Y-53113714D01*
X132682857Y-53185142D01*
X132540000Y-53256571D01*
X132254285Y-53256571D01*
X132111428Y-53185142D01*
X130909142Y-83831714D02*
X130980571Y-83617428D01*
X130980571Y-83260285D01*
X130909142Y-83117428D01*
X130837714Y-83046000D01*
X130694857Y-82974571D01*
X130552000Y-82974571D01*
X130409142Y-83046000D01*
X130337714Y-83117428D01*
X130266285Y-83260285D01*
X130194857Y-83546000D01*
X130123428Y-83688857D01*
X130052000Y-83760285D01*
X129909142Y-83831714D01*
X129766285Y-83831714D01*
X129623428Y-83760285D01*
X129552000Y-83688857D01*
X129480571Y-83546000D01*
X129480571Y-83188857D01*
X129552000Y-82974571D01*
X130980571Y-82331714D02*
X129480571Y-82331714D01*
X129480571Y-81760285D01*
X129552000Y-81617428D01*
X129623428Y-81546000D01*
X129766285Y-81474571D01*
X129980571Y-81474571D01*
X130123428Y-81546000D01*
X130194857Y-81617428D01*
X130266285Y-81760285D01*
X130266285Y-82331714D01*
X130980571Y-80831714D02*
X129480571Y-80831714D01*
X125646571Y-83760285D02*
X124146571Y-83760285D01*
X124289428Y-83117428D02*
X124218000Y-83046000D01*
X124146571Y-82903142D01*
X124146571Y-82546000D01*
X124218000Y-82403142D01*
X124289428Y-82331714D01*
X124432285Y-82260285D01*
X124575142Y-82260285D01*
X124789428Y-82331714D01*
X125646571Y-83188857D01*
X125646571Y-82260285D01*
X125503714Y-80760285D02*
X125575142Y-80831714D01*
X125646571Y-81046000D01*
X125646571Y-81188857D01*
X125575142Y-81403142D01*
X125432285Y-81546000D01*
X125289428Y-81617428D01*
X125003714Y-81688857D01*
X124789428Y-81688857D01*
X124503714Y-81617428D01*
X124360857Y-81546000D01*
X124218000Y-81403142D01*
X124146571Y-81188857D01*
X124146571Y-81046000D01*
X124218000Y-80831714D01*
X124289428Y-80760285D01*
X113057714Y-88526571D02*
X113129142Y-88598000D01*
X113200571Y-88812285D01*
X113200571Y-88955142D01*
X113129142Y-89169428D01*
X112986285Y-89312285D01*
X112843428Y-89383714D01*
X112557714Y-89455142D01*
X112343428Y-89455142D01*
X112057714Y-89383714D01*
X111914857Y-89312285D01*
X111772000Y-89169428D01*
X111700571Y-88955142D01*
X111700571Y-88812285D01*
X111772000Y-88598000D01*
X111843428Y-88526571D01*
X113129142Y-87955142D02*
X113200571Y-87740857D01*
X113200571Y-87383714D01*
X113129142Y-87240857D01*
X113057714Y-87169428D01*
X112914857Y-87098000D01*
X112772000Y-87098000D01*
X112629142Y-87169428D01*
X112557714Y-87240857D01*
X112486285Y-87383714D01*
X112414857Y-87669428D01*
X112343428Y-87812285D01*
X112272000Y-87883714D01*
X112129142Y-87955142D01*
X111986285Y-87955142D01*
X111843428Y-87883714D01*
X111772000Y-87812285D01*
X111700571Y-87669428D01*
X111700571Y-87312285D01*
X111772000Y-87098000D01*
X111772000Y-84526571D02*
X111700571Y-84669428D01*
X111700571Y-84883714D01*
X111772000Y-85098000D01*
X111914857Y-85240857D01*
X112057714Y-85312285D01*
X112343428Y-85383714D01*
X112557714Y-85383714D01*
X112843428Y-85312285D01*
X112986285Y-85240857D01*
X113129142Y-85098000D01*
X113200571Y-84883714D01*
X113200571Y-84740857D01*
X113129142Y-84526571D01*
X113057714Y-84455142D01*
X112557714Y-84455142D01*
X112557714Y-84740857D01*
X112200571Y-83812285D02*
X113200571Y-83812285D01*
X112343428Y-83812285D02*
X112272000Y-83740857D01*
X112200571Y-83598000D01*
X112200571Y-83383714D01*
X112272000Y-83240857D01*
X112414857Y-83169428D01*
X113200571Y-83169428D01*
X113200571Y-81812285D02*
X111700571Y-81812285D01*
X113129142Y-81812285D02*
X113200571Y-81955142D01*
X113200571Y-82240857D01*
X113129142Y-82383714D01*
X113057714Y-82455142D01*
X112914857Y-82526571D01*
X112486285Y-82526571D01*
X112343428Y-82455142D01*
X112272000Y-82383714D01*
X112200571Y-82240857D01*
X112200571Y-81955142D01*
X112272000Y-81812285D01*
D11*
X124458000Y-78069221D02*
X124458000Y-78394779D01*
X125478000Y-78069221D02*
X125478000Y-78394779D01*
X134939721Y-67566000D02*
X135265279Y-67566000D01*
X134939721Y-66546000D02*
X135265279Y-66546000D01*
X129030000Y-79812000D02*
X127570000Y-79812000D01*
X129030000Y-76652000D02*
X126870000Y-76652000D01*
X129030000Y-76652000D02*
X129030000Y-77582000D01*
X129030000Y-79812000D02*
X129030000Y-78882000D01*
X135188000Y-62678000D02*
X135188000Y-64008000D01*
X133858000Y-62678000D02*
X135188000Y-62678000D01*
X132588000Y-62678000D02*
X132588000Y-65338000D01*
X132588000Y-65338000D02*
X129988000Y-65338000D01*
X132588000Y-62678000D02*
X129988000Y-62678000D01*
X129988000Y-62678000D02*
X129988000Y-65338000D01*
X134513000Y-85746000D02*
X137398000Y-85746000D01*
X134513000Y-83926000D02*
X134513000Y-85746000D01*
X137398000Y-83926000D02*
X134513000Y-83926000D01*
X127760000Y-73243221D02*
X127760000Y-73568779D01*
X128780000Y-73243221D02*
X128780000Y-73568779D01*
X107948000Y-71719221D02*
X107948000Y-72044779D01*
X108968000Y-71719221D02*
X108968000Y-72044779D01*
X113536000Y-79085221D02*
X113536000Y-79410779D01*
X114556000Y-79085221D02*
X114556000Y-79410779D01*
X111254000Y-70546279D02*
X111254000Y-70220721D01*
X110234000Y-70546279D02*
X110234000Y-70220721D01*
X105789000Y-71719221D02*
X105789000Y-72044779D01*
X106809000Y-71719221D02*
X106809000Y-72044779D01*
X103630000Y-71719221D02*
X103630000Y-72044779D01*
X104650000Y-71719221D02*
X104650000Y-72044779D01*
X112405279Y-75436000D02*
X112079721Y-75436000D01*
X112405279Y-76456000D02*
X112079721Y-76456000D01*
X140656000Y-68774000D02*
X141986000Y-68774000D01*
X140656000Y-70104000D02*
X140656000Y-68774000D01*
X140656000Y-71374000D02*
X143316000Y-71374000D01*
X143316000Y-71374000D02*
X143316000Y-81594000D01*
X140656000Y-71374000D02*
X140656000Y-81594000D01*
X140656000Y-81594000D02*
X143316000Y-81594000D01*
X127448000Y-55566000D02*
X128778000Y-55566000D01*
X127448000Y-56896000D02*
X127448000Y-55566000D01*
X127448000Y-58166000D02*
X130108000Y-58166000D01*
X130108000Y-58166000D02*
X130108000Y-60766000D01*
X127448000Y-58166000D02*
X127448000Y-60766000D01*
X127448000Y-60766000D02*
X130108000Y-60766000D01*
X123638000Y-87944000D02*
X123638000Y-86614000D01*
X124968000Y-87944000D02*
X123638000Y-87944000D01*
X126238000Y-87944000D02*
X126238000Y-85284000D01*
X126238000Y-85284000D02*
X131378000Y-85284000D01*
X126238000Y-87944000D02*
X131378000Y-87944000D01*
X131378000Y-87944000D02*
X131378000Y-85284000D01*
X117662000Y-87944000D02*
X116332000Y-87944000D01*
X117662000Y-86614000D02*
X117662000Y-87944000D01*
X117662000Y-85344000D02*
X115002000Y-85344000D01*
X115002000Y-85344000D02*
X115002000Y-82744000D01*
X117662000Y-85344000D02*
X117662000Y-82744000D01*
X117662000Y-82744000D02*
X115002000Y-82744000D01*
X121726000Y-60776000D02*
X120396000Y-60776000D01*
X121726000Y-59446000D02*
X121726000Y-60776000D01*
X121726000Y-58176000D02*
X119066000Y-58176000D01*
X119066000Y-58176000D02*
X119066000Y-53036000D01*
X121726000Y-58176000D02*
X121726000Y-53036000D01*
X121726000Y-53036000D02*
X119066000Y-53036000D01*
X115630000Y-60776000D02*
X114300000Y-60776000D01*
X115630000Y-59446000D02*
X115630000Y-60776000D01*
X115630000Y-58176000D02*
X112970000Y-58176000D01*
X112970000Y-58176000D02*
X112970000Y-53036000D01*
X115630000Y-58176000D02*
X115630000Y-53036000D01*
X115630000Y-53036000D02*
X112970000Y-53036000D01*
X140656000Y-57598000D02*
X141986000Y-57598000D01*
X140656000Y-58928000D02*
X140656000Y-57598000D01*
X140656000Y-60198000D02*
X143316000Y-60198000D01*
X143316000Y-60198000D02*
X143316000Y-62798000D01*
X140656000Y-60198000D02*
X140656000Y-62798000D01*
X140656000Y-62798000D02*
X143316000Y-62798000D01*
D12*
X112316000Y-70186000D02*
G75*
G03X112316000Y-70186000I-162500J0D01*
G01*
D13*
X99142690Y-78885000D02*
G75*
G03X99142690Y-78885000I-141690J0D01*
G01*
D14*
X97310000Y-66540000D02*
X97310000Y-78240000D01*
X100810000Y-66540000D02*
X97310000Y-66540000D01*
X100810000Y-78240000D02*
X100810000Y-66540000D01*
X97310000Y-78240000D02*
X100810000Y-78240000D01*
D15*
X123896380Y-78398666D02*
X123420190Y-78732000D01*
X123896380Y-78970095D02*
X122896380Y-78970095D01*
X122896380Y-78589142D01*
X122944000Y-78493904D01*
X122991619Y-78446285D01*
X123086857Y-78398666D01*
X123229714Y-78398666D01*
X123324952Y-78446285D01*
X123372571Y-78493904D01*
X123420190Y-78589142D01*
X123420190Y-78970095D01*
X123229714Y-77541523D02*
X123896380Y-77541523D01*
X122848761Y-77779619D02*
X123563047Y-78017714D01*
X123563047Y-77398666D01*
X132421333Y-68270380D02*
X132088000Y-67794190D01*
X131849904Y-68270380D02*
X131849904Y-67270380D01*
X132230857Y-67270380D01*
X132326095Y-67318000D01*
X132373714Y-67365619D01*
X132421333Y-67460857D01*
X132421333Y-67603714D01*
X132373714Y-67698952D01*
X132326095Y-67746571D01*
X132230857Y-67794190D01*
X131849904Y-67794190D01*
X132754666Y-67270380D02*
X133373714Y-67270380D01*
X133040380Y-67651333D01*
X133183238Y-67651333D01*
X133278476Y-67698952D01*
X133326095Y-67746571D01*
X133373714Y-67841809D01*
X133373714Y-68079904D01*
X133326095Y-68175142D01*
X133278476Y-68222761D01*
X133183238Y-68270380D01*
X132897523Y-68270380D01*
X132802285Y-68222761D01*
X132754666Y-68175142D01*
X131222761Y-78779619D02*
X131127523Y-78732000D01*
X131032285Y-78636761D01*
X130889428Y-78493904D01*
X130794190Y-78446285D01*
X130698952Y-78446285D01*
X130746571Y-78684380D02*
X130651333Y-78636761D01*
X130556095Y-78541523D01*
X130508476Y-78351047D01*
X130508476Y-78017714D01*
X130556095Y-77827238D01*
X130651333Y-77732000D01*
X130746571Y-77684380D01*
X130937047Y-77684380D01*
X131032285Y-77732000D01*
X131127523Y-77827238D01*
X131175142Y-78017714D01*
X131175142Y-78351047D01*
X131127523Y-78541523D01*
X131032285Y-78636761D01*
X130937047Y-78684380D01*
X130746571Y-78684380D01*
X132127523Y-78684380D02*
X131556095Y-78684380D01*
X131841809Y-78684380D02*
X131841809Y-77684380D01*
X131746571Y-77827238D01*
X131651333Y-77922476D01*
X131556095Y-77970095D01*
X135640380Y-64341333D02*
X136354666Y-64341333D01*
X136497523Y-64388952D01*
X136592761Y-64484190D01*
X136640380Y-64627047D01*
X136640380Y-64722285D01*
X136068952Y-63722285D02*
X136021333Y-63817523D01*
X135973714Y-63865142D01*
X135878476Y-63912761D01*
X135830857Y-63912761D01*
X135735619Y-63865142D01*
X135688000Y-63817523D01*
X135640380Y-63722285D01*
X135640380Y-63531809D01*
X135688000Y-63436571D01*
X135735619Y-63388952D01*
X135830857Y-63341333D01*
X135878476Y-63341333D01*
X135973714Y-63388952D01*
X136021333Y-63436571D01*
X136068952Y-63531809D01*
X136068952Y-63722285D01*
X136116571Y-63817523D01*
X136164190Y-63865142D01*
X136259428Y-63912761D01*
X136449904Y-63912761D01*
X136545142Y-63865142D01*
X136592761Y-63817523D01*
X136640380Y-63722285D01*
X136640380Y-63531809D01*
X136592761Y-63436571D01*
X136545142Y-63388952D01*
X136449904Y-63341333D01*
X136259428Y-63341333D01*
X136164190Y-63388952D01*
X136116571Y-63436571D01*
X136068952Y-63531809D01*
X135659904Y-83688380D02*
X135659904Y-82688380D01*
X135898000Y-82688380D01*
X136040857Y-82736000D01*
X136136095Y-82831238D01*
X136183714Y-82926476D01*
X136231333Y-83116952D01*
X136231333Y-83259809D01*
X136183714Y-83450285D01*
X136136095Y-83545523D01*
X136040857Y-83640761D01*
X135898000Y-83688380D01*
X135659904Y-83688380D01*
X137183714Y-83688380D02*
X136612285Y-83688380D01*
X136898000Y-83688380D02*
X136898000Y-82688380D01*
X136802761Y-82831238D01*
X136707523Y-82926476D01*
X136612285Y-82974095D01*
X127198380Y-73572666D02*
X126722190Y-73906000D01*
X127198380Y-74144095D02*
X126198380Y-74144095D01*
X126198380Y-73763142D01*
X126246000Y-73667904D01*
X126293619Y-73620285D01*
X126388857Y-73572666D01*
X126531714Y-73572666D01*
X126626952Y-73620285D01*
X126674571Y-73667904D01*
X126722190Y-73763142D01*
X126722190Y-74144095D01*
X126293619Y-73191714D02*
X126246000Y-73144095D01*
X126198380Y-73048857D01*
X126198380Y-72810761D01*
X126246000Y-72715523D01*
X126293619Y-72667904D01*
X126388857Y-72620285D01*
X126484095Y-72620285D01*
X126626952Y-72667904D01*
X127198380Y-73239333D01*
X127198380Y-72620285D01*
X108291333Y-74620380D02*
X107958000Y-74144190D01*
X107719904Y-74620380D02*
X107719904Y-73620380D01*
X108100857Y-73620380D01*
X108196095Y-73668000D01*
X108243714Y-73715619D01*
X108291333Y-73810857D01*
X108291333Y-73953714D01*
X108243714Y-74048952D01*
X108196095Y-74096571D01*
X108100857Y-74144190D01*
X107719904Y-74144190D01*
X109243714Y-74620380D02*
X108672285Y-74620380D01*
X108958000Y-74620380D02*
X108958000Y-73620380D01*
X108862761Y-73763238D01*
X108767523Y-73858476D01*
X108672285Y-73906095D01*
X115927142Y-79160666D02*
X115974761Y-79208285D01*
X116022380Y-79351142D01*
X116022380Y-79446380D01*
X115974761Y-79589238D01*
X115879523Y-79684476D01*
X115784285Y-79732095D01*
X115593809Y-79779714D01*
X115450952Y-79779714D01*
X115260476Y-79732095D01*
X115165238Y-79684476D01*
X115070000Y-79589238D01*
X115022380Y-79446380D01*
X115022380Y-79351142D01*
X115070000Y-79208285D01*
X115117619Y-79160666D01*
X115022380Y-78255904D02*
X115022380Y-78732095D01*
X115498571Y-78779714D01*
X115450952Y-78732095D01*
X115403333Y-78636857D01*
X115403333Y-78398761D01*
X115450952Y-78303523D01*
X115498571Y-78255904D01*
X115593809Y-78208285D01*
X115831904Y-78208285D01*
X115927142Y-78255904D01*
X115974761Y-78303523D01*
X116022380Y-78398761D01*
X116022380Y-78636857D01*
X115974761Y-78732095D01*
X115927142Y-78779714D01*
X110577333Y-68683142D02*
X110529714Y-68730761D01*
X110386857Y-68778380D01*
X110291619Y-68778380D01*
X110148761Y-68730761D01*
X110053523Y-68635523D01*
X110005904Y-68540285D01*
X109958285Y-68349809D01*
X109958285Y-68206952D01*
X110005904Y-68016476D01*
X110053523Y-67921238D01*
X110148761Y-67826000D01*
X110291619Y-67778380D01*
X110386857Y-67778380D01*
X110529714Y-67826000D01*
X110577333Y-67873619D01*
X111434476Y-68111714D02*
X111434476Y-68778380D01*
X111196380Y-67730761D02*
X110958285Y-68445047D01*
X111577333Y-68445047D01*
X106259333Y-69953142D02*
X106211714Y-70000761D01*
X106068857Y-70048380D01*
X105973619Y-70048380D01*
X105830761Y-70000761D01*
X105735523Y-69905523D01*
X105687904Y-69810285D01*
X105640285Y-69619809D01*
X105640285Y-69476952D01*
X105687904Y-69286476D01*
X105735523Y-69191238D01*
X105830761Y-69096000D01*
X105973619Y-69048380D01*
X106068857Y-69048380D01*
X106211714Y-69096000D01*
X106259333Y-69143619D01*
X106592666Y-69048380D02*
X107211714Y-69048380D01*
X106878380Y-69429333D01*
X107021238Y-69429333D01*
X107116476Y-69476952D01*
X107164095Y-69524571D01*
X107211714Y-69619809D01*
X107211714Y-69857904D01*
X107164095Y-69953142D01*
X107116476Y-70000761D01*
X107021238Y-70048380D01*
X106735523Y-70048380D01*
X106640285Y-70000761D01*
X106592666Y-69953142D01*
X103973333Y-74525142D02*
X103925714Y-74572761D01*
X103782857Y-74620380D01*
X103687619Y-74620380D01*
X103544761Y-74572761D01*
X103449523Y-74477523D01*
X103401904Y-74382285D01*
X103354285Y-74191809D01*
X103354285Y-74048952D01*
X103401904Y-73858476D01*
X103449523Y-73763238D01*
X103544761Y-73668000D01*
X103687619Y-73620380D01*
X103782857Y-73620380D01*
X103925714Y-73668000D01*
X103973333Y-73715619D01*
X104354285Y-73715619D02*
X104401904Y-73668000D01*
X104497142Y-73620380D01*
X104735238Y-73620380D01*
X104830476Y-73668000D01*
X104878095Y-73715619D01*
X104925714Y-73810857D01*
X104925714Y-73906095D01*
X104878095Y-74048952D01*
X104306666Y-74620380D01*
X104925714Y-74620380D01*
X111847333Y-77827142D02*
X111799714Y-77874761D01*
X111656857Y-77922380D01*
X111561619Y-77922380D01*
X111418761Y-77874761D01*
X111323523Y-77779523D01*
X111275904Y-77684285D01*
X111228285Y-77493809D01*
X111228285Y-77350952D01*
X111275904Y-77160476D01*
X111323523Y-77065238D01*
X111418761Y-76970000D01*
X111561619Y-76922380D01*
X111656857Y-76922380D01*
X111799714Y-76970000D01*
X111847333Y-77017619D01*
X112799714Y-77922380D02*
X112228285Y-77922380D01*
X112514000Y-77922380D02*
X112514000Y-76922380D01*
X112418761Y-77065238D01*
X112323523Y-77160476D01*
X112228285Y-77208095D01*
X141652666Y-67226380D02*
X141652666Y-67940666D01*
X141605047Y-68083523D01*
X141509809Y-68178761D01*
X141366952Y-68226380D01*
X141271714Y-68226380D01*
X142033619Y-67226380D02*
X142700285Y-67226380D01*
X142271714Y-68226380D01*
X128444666Y-54018380D02*
X128444666Y-54732666D01*
X128397047Y-54875523D01*
X128301809Y-54970761D01*
X128158952Y-55018380D01*
X128063714Y-55018380D01*
X129349428Y-54018380D02*
X129158952Y-54018380D01*
X129063714Y-54066000D01*
X129016095Y-54113619D01*
X128920857Y-54256476D01*
X128873238Y-54446952D01*
X128873238Y-54827904D01*
X128920857Y-54923142D01*
X128968476Y-54970761D01*
X129063714Y-55018380D01*
X129254190Y-55018380D01*
X129349428Y-54970761D01*
X129397047Y-54923142D01*
X129444666Y-54827904D01*
X129444666Y-54589809D01*
X129397047Y-54494571D01*
X129349428Y-54446952D01*
X129254190Y-54399333D01*
X129063714Y-54399333D01*
X128968476Y-54446952D01*
X128920857Y-54494571D01*
X128873238Y-54589809D01*
X122090380Y-86947333D02*
X122804666Y-86947333D01*
X122947523Y-86994952D01*
X123042761Y-87090190D01*
X123090380Y-87233047D01*
X123090380Y-87328285D01*
X122090380Y-85994952D02*
X122090380Y-86471142D01*
X122566571Y-86518761D01*
X122518952Y-86471142D01*
X122471333Y-86375904D01*
X122471333Y-86137809D01*
X122518952Y-86042571D01*
X122566571Y-85994952D01*
X122661809Y-85947333D01*
X122899904Y-85947333D01*
X122995142Y-85994952D01*
X123042761Y-86042571D01*
X123090380Y-86137809D01*
X123090380Y-86375904D01*
X123042761Y-86471142D01*
X122995142Y-86518761D01*
X115998666Y-88396380D02*
X115998666Y-89110666D01*
X115951047Y-89253523D01*
X115855809Y-89348761D01*
X115712952Y-89396380D01*
X115617714Y-89396380D01*
X116903428Y-88729714D02*
X116903428Y-89396380D01*
X116665333Y-88348761D02*
X116427238Y-89063047D01*
X117046285Y-89063047D01*
X120062666Y-61228380D02*
X120062666Y-61942666D01*
X120015047Y-62085523D01*
X119919809Y-62180761D01*
X119776952Y-62228380D01*
X119681714Y-62228380D01*
X120443619Y-61228380D02*
X121062666Y-61228380D01*
X120729333Y-61609333D01*
X120872190Y-61609333D01*
X120967428Y-61656952D01*
X121015047Y-61704571D01*
X121062666Y-61799809D01*
X121062666Y-62037904D01*
X121015047Y-62133142D01*
X120967428Y-62180761D01*
X120872190Y-62228380D01*
X120586476Y-62228380D01*
X120491238Y-62180761D01*
X120443619Y-62133142D01*
X113966666Y-61228380D02*
X113966666Y-61942666D01*
X113919047Y-62085523D01*
X113823809Y-62180761D01*
X113680952Y-62228380D01*
X113585714Y-62228380D01*
X114395238Y-61323619D02*
X114442857Y-61276000D01*
X114538095Y-61228380D01*
X114776190Y-61228380D01*
X114871428Y-61276000D01*
X114919047Y-61323619D01*
X114966666Y-61418857D01*
X114966666Y-61514095D01*
X114919047Y-61656952D01*
X114347619Y-62228380D01*
X114966666Y-62228380D01*
X141906666Y-55586380D02*
X141906666Y-56300666D01*
X141859047Y-56443523D01*
X141763809Y-56538761D01*
X141620952Y-56586380D01*
X141525714Y-56586380D01*
X142906666Y-56586380D02*
X142335238Y-56586380D01*
X142620952Y-56586380D02*
X142620952Y-55586380D01*
X142525714Y-55729238D01*
X142430476Y-55824476D01*
X142335238Y-55872095D01*
X113323809Y-68524380D02*
X113323809Y-67524380D01*
X114371428Y-68429142D02*
X114323809Y-68476761D01*
X114180952Y-68524380D01*
X114085714Y-68524380D01*
X113942857Y-68476761D01*
X113847619Y-68381523D01*
X113800000Y-68286285D01*
X113752380Y-68095809D01*
X113752380Y-67952952D01*
X113800000Y-67762476D01*
X113847619Y-67667238D01*
X113942857Y-67572000D01*
X114085714Y-67524380D01*
X114180952Y-67524380D01*
X114323809Y-67572000D01*
X114371428Y-67619619D01*
X115323809Y-68524380D02*
X114752380Y-68524380D01*
X115038095Y-68524380D02*
X115038095Y-67524380D01*
X114942857Y-67667238D01*
X114847619Y-67762476D01*
X114752380Y-67810095D01*
D16*
X99209446Y-74800010D02*
X99209446Y-74195248D01*
X99572303Y-74920962D02*
X98302303Y-74497629D01*
X99572303Y-74074296D01*
X99572303Y-73650962D02*
X98302303Y-73650962D01*
X99572303Y-72925248D01*
X98302303Y-72925248D01*
X98302303Y-72501915D02*
X98302303Y-71776200D01*
X99572303Y-72139058D02*
X98302303Y-72139058D01*
X99572303Y-70687629D02*
X99572303Y-71413343D01*
X99572303Y-71050486D02*
X98302303Y-71050486D01*
X98483732Y-71171439D01*
X98604684Y-71292391D01*
X98665160Y-71413343D01*
%LPC*%
D17*
G36*
X125273691Y-78532176D02*
G01*
X125297401Y-78535693D01*
X125320652Y-78541517D01*
X125343220Y-78549592D01*
X125364889Y-78559841D01*
X125385448Y-78572164D01*
X125404701Y-78586442D01*
X125422461Y-78602539D01*
X125438558Y-78620299D01*
X125452836Y-78639552D01*
X125465159Y-78660111D01*
X125475408Y-78681780D01*
X125483483Y-78704348D01*
X125489307Y-78727599D01*
X125492824Y-78751309D01*
X125494000Y-78775250D01*
X125494000Y-79263750D01*
X125492824Y-79287691D01*
X125489307Y-79311401D01*
X125483483Y-79334652D01*
X125475408Y-79357220D01*
X125465159Y-79378889D01*
X125452836Y-79399448D01*
X125438558Y-79418701D01*
X125422461Y-79436461D01*
X125404701Y-79452558D01*
X125385448Y-79466836D01*
X125364889Y-79479159D01*
X125343220Y-79489408D01*
X125320652Y-79497483D01*
X125297401Y-79503307D01*
X125273691Y-79506824D01*
X125249750Y-79508000D01*
X124686250Y-79508000D01*
X124662309Y-79506824D01*
X124638599Y-79503307D01*
X124615348Y-79497483D01*
X124592780Y-79489408D01*
X124571111Y-79479159D01*
X124550552Y-79466836D01*
X124531299Y-79452558D01*
X124513539Y-79436461D01*
X124497442Y-79418701D01*
X124483164Y-79399448D01*
X124470841Y-79378889D01*
X124460592Y-79357220D01*
X124452517Y-79334652D01*
X124446693Y-79311401D01*
X124443176Y-79287691D01*
X124442000Y-79263750D01*
X124442000Y-78775250D01*
X124443176Y-78751309D01*
X124446693Y-78727599D01*
X124452517Y-78704348D01*
X124460592Y-78681780D01*
X124470841Y-78660111D01*
X124483164Y-78639552D01*
X124497442Y-78620299D01*
X124513539Y-78602539D01*
X124531299Y-78586442D01*
X124550552Y-78572164D01*
X124571111Y-78559841D01*
X124592780Y-78549592D01*
X124615348Y-78541517D01*
X124638599Y-78535693D01*
X124662309Y-78532176D01*
X124686250Y-78531000D01*
X125249750Y-78531000D01*
X125273691Y-78532176D01*
G37*
G36*
X125273691Y-76957176D02*
G01*
X125297401Y-76960693D01*
X125320652Y-76966517D01*
X125343220Y-76974592D01*
X125364889Y-76984841D01*
X125385448Y-76997164D01*
X125404701Y-77011442D01*
X125422461Y-77027539D01*
X125438558Y-77045299D01*
X125452836Y-77064552D01*
X125465159Y-77085111D01*
X125475408Y-77106780D01*
X125483483Y-77129348D01*
X125489307Y-77152599D01*
X125492824Y-77176309D01*
X125494000Y-77200250D01*
X125494000Y-77688750D01*
X125492824Y-77712691D01*
X125489307Y-77736401D01*
X125483483Y-77759652D01*
X125475408Y-77782220D01*
X125465159Y-77803889D01*
X125452836Y-77824448D01*
X125438558Y-77843701D01*
X125422461Y-77861461D01*
X125404701Y-77877558D01*
X125385448Y-77891836D01*
X125364889Y-77904159D01*
X125343220Y-77914408D01*
X125320652Y-77922483D01*
X125297401Y-77928307D01*
X125273691Y-77931824D01*
X125249750Y-77933000D01*
X124686250Y-77933000D01*
X124662309Y-77931824D01*
X124638599Y-77928307D01*
X124615348Y-77922483D01*
X124592780Y-77914408D01*
X124571111Y-77904159D01*
X124550552Y-77891836D01*
X124531299Y-77877558D01*
X124513539Y-77861461D01*
X124497442Y-77843701D01*
X124483164Y-77824448D01*
X124470841Y-77803889D01*
X124460592Y-77782220D01*
X124452517Y-77759652D01*
X124446693Y-77736401D01*
X124443176Y-77712691D01*
X124442000Y-77688750D01*
X124442000Y-77200250D01*
X124443176Y-77176309D01*
X124446693Y-77152599D01*
X124452517Y-77129348D01*
X124460592Y-77106780D01*
X124470841Y-77085111D01*
X124483164Y-77064552D01*
X124497442Y-77045299D01*
X124513539Y-77027539D01*
X124531299Y-77011442D01*
X124550552Y-76997164D01*
X124571111Y-76984841D01*
X124592780Y-76974592D01*
X124615348Y-76966517D01*
X124638599Y-76960693D01*
X124662309Y-76957176D01*
X124686250Y-76956000D01*
X125249750Y-76956000D01*
X125273691Y-76957176D01*
G37*
G36*
X136158191Y-66531176D02*
G01*
X136181901Y-66534693D01*
X136205152Y-66540517D01*
X136227720Y-66548592D01*
X136249389Y-66558841D01*
X136269948Y-66571164D01*
X136289201Y-66585442D01*
X136306961Y-66601539D01*
X136323058Y-66619299D01*
X136337336Y-66638552D01*
X136349659Y-66659111D01*
X136359908Y-66680780D01*
X136367983Y-66703348D01*
X136373807Y-66726599D01*
X136377324Y-66750309D01*
X136378500Y-66774250D01*
X136378500Y-67337750D01*
X136377324Y-67361691D01*
X136373807Y-67385401D01*
X136367983Y-67408652D01*
X136359908Y-67431220D01*
X136349659Y-67452889D01*
X136337336Y-67473448D01*
X136323058Y-67492701D01*
X136306961Y-67510461D01*
X136289201Y-67526558D01*
X136269948Y-67540836D01*
X136249389Y-67553159D01*
X136227720Y-67563408D01*
X136205152Y-67571483D01*
X136181901Y-67577307D01*
X136158191Y-67580824D01*
X136134250Y-67582000D01*
X135645750Y-67582000D01*
X135621809Y-67580824D01*
X135598099Y-67577307D01*
X135574848Y-67571483D01*
X135552280Y-67563408D01*
X135530611Y-67553159D01*
X135510052Y-67540836D01*
X135490799Y-67526558D01*
X135473039Y-67510461D01*
X135456942Y-67492701D01*
X135442664Y-67473448D01*
X135430341Y-67452889D01*
X135420092Y-67431220D01*
X135412017Y-67408652D01*
X135406193Y-67385401D01*
X135402676Y-67361691D01*
X135401500Y-67337750D01*
X135401500Y-66774250D01*
X135402676Y-66750309D01*
X135406193Y-66726599D01*
X135412017Y-66703348D01*
X135420092Y-66680780D01*
X135430341Y-66659111D01*
X135442664Y-66638552D01*
X135456942Y-66619299D01*
X135473039Y-66601539D01*
X135490799Y-66585442D01*
X135510052Y-66571164D01*
X135530611Y-66558841D01*
X135552280Y-66548592D01*
X135574848Y-66540517D01*
X135598099Y-66534693D01*
X135621809Y-66531176D01*
X135645750Y-66530000D01*
X136134250Y-66530000D01*
X136158191Y-66531176D01*
G37*
G36*
X134583191Y-66531176D02*
G01*
X134606901Y-66534693D01*
X134630152Y-66540517D01*
X134652720Y-66548592D01*
X134674389Y-66558841D01*
X134694948Y-66571164D01*
X134714201Y-66585442D01*
X134731961Y-66601539D01*
X134748058Y-66619299D01*
X134762336Y-66638552D01*
X134774659Y-66659111D01*
X134784908Y-66680780D01*
X134792983Y-66703348D01*
X134798807Y-66726599D01*
X134802324Y-66750309D01*
X134803500Y-66774250D01*
X134803500Y-67337750D01*
X134802324Y-67361691D01*
X134798807Y-67385401D01*
X134792983Y-67408652D01*
X134784908Y-67431220D01*
X134774659Y-67452889D01*
X134762336Y-67473448D01*
X134748058Y-67492701D01*
X134731961Y-67510461D01*
X134714201Y-67526558D01*
X134694948Y-67540836D01*
X134674389Y-67553159D01*
X134652720Y-67563408D01*
X134630152Y-67571483D01*
X134606901Y-67577307D01*
X134583191Y-67580824D01*
X134559250Y-67582000D01*
X134070750Y-67582000D01*
X134046809Y-67580824D01*
X134023099Y-67577307D01*
X133999848Y-67571483D01*
X133977280Y-67563408D01*
X133955611Y-67553159D01*
X133935052Y-67540836D01*
X133915799Y-67526558D01*
X133898039Y-67510461D01*
X133881942Y-67492701D01*
X133867664Y-67473448D01*
X133855341Y-67452889D01*
X133845092Y-67431220D01*
X133837017Y-67408652D01*
X133831193Y-67385401D01*
X133827676Y-67361691D01*
X133826500Y-67337750D01*
X133826500Y-66774250D01*
X133827676Y-66750309D01*
X133831193Y-66726599D01*
X133837017Y-66703348D01*
X133845092Y-66680780D01*
X133855341Y-66659111D01*
X133867664Y-66638552D01*
X133881942Y-66619299D01*
X133898039Y-66601539D01*
X133915799Y-66585442D01*
X133935052Y-66571164D01*
X133955611Y-66558841D01*
X133977280Y-66548592D01*
X133999848Y-66540517D01*
X134023099Y-66534693D01*
X134046809Y-66531176D01*
X134070750Y-66530000D01*
X134559250Y-66530000D01*
X134583191Y-66531176D01*
G37*
D18*
X129270000Y-78232000D03*
X127270000Y-79182000D03*
X127270000Y-77282000D03*
D19*
X131318000Y-64008000D03*
D20*
X133858000Y-64008000D03*
D17*
G36*
X137830812Y-84136298D02*
G01*
X137856984Y-84140181D01*
X137882650Y-84146610D01*
X137907562Y-84155523D01*
X137931481Y-84166836D01*
X137954175Y-84180438D01*
X137975427Y-84196200D01*
X137995032Y-84213968D01*
X138012800Y-84233573D01*
X138028562Y-84254825D01*
X138042164Y-84277519D01*
X138053477Y-84301438D01*
X138062390Y-84326350D01*
X138068819Y-84352016D01*
X138072702Y-84378188D01*
X138074000Y-84404615D01*
X138074000Y-85267385D01*
X138072702Y-85293812D01*
X138068819Y-85319984D01*
X138062390Y-85345650D01*
X138053477Y-85370562D01*
X138042164Y-85394481D01*
X138028562Y-85417175D01*
X138012800Y-85438427D01*
X137995032Y-85458032D01*
X137975427Y-85475800D01*
X137954175Y-85491562D01*
X137931481Y-85505164D01*
X137907562Y-85516477D01*
X137882650Y-85525390D01*
X137856984Y-85531819D01*
X137830812Y-85535702D01*
X137804385Y-85537000D01*
X136916615Y-85537000D01*
X136890188Y-85535702D01*
X136864016Y-85531819D01*
X136838350Y-85525390D01*
X136813438Y-85516477D01*
X136789519Y-85505164D01*
X136766825Y-85491562D01*
X136745573Y-85475800D01*
X136725968Y-85458032D01*
X136708200Y-85438427D01*
X136692438Y-85417175D01*
X136678836Y-85394481D01*
X136667523Y-85370562D01*
X136658610Y-85345650D01*
X136652181Y-85319984D01*
X136648298Y-85293812D01*
X136647000Y-85267385D01*
X136647000Y-84404615D01*
X136648298Y-84378188D01*
X136652181Y-84352016D01*
X136658610Y-84326350D01*
X136667523Y-84301438D01*
X136678836Y-84277519D01*
X136692438Y-84254825D01*
X136708200Y-84233573D01*
X136725968Y-84213968D01*
X136745573Y-84196200D01*
X136766825Y-84180438D01*
X136789519Y-84166836D01*
X136813438Y-84155523D01*
X136838350Y-84146610D01*
X136864016Y-84140181D01*
X136890188Y-84136298D01*
X136916615Y-84135000D01*
X137804385Y-84135000D01*
X137830812Y-84136298D01*
G37*
G36*
X135905812Y-84136298D02*
G01*
X135931984Y-84140181D01*
X135957650Y-84146610D01*
X135982562Y-84155523D01*
X136006481Y-84166836D01*
X136029175Y-84180438D01*
X136050427Y-84196200D01*
X136070032Y-84213968D01*
X136087800Y-84233573D01*
X136103562Y-84254825D01*
X136117164Y-84277519D01*
X136128477Y-84301438D01*
X136137390Y-84326350D01*
X136143819Y-84352016D01*
X136147702Y-84378188D01*
X136149000Y-84404615D01*
X136149000Y-85267385D01*
X136147702Y-85293812D01*
X136143819Y-85319984D01*
X136137390Y-85345650D01*
X136128477Y-85370562D01*
X136117164Y-85394481D01*
X136103562Y-85417175D01*
X136087800Y-85438427D01*
X136070032Y-85458032D01*
X136050427Y-85475800D01*
X136029175Y-85491562D01*
X136006481Y-85505164D01*
X135982562Y-85516477D01*
X135957650Y-85525390D01*
X135931984Y-85531819D01*
X135905812Y-85535702D01*
X135879385Y-85537000D01*
X134991615Y-85537000D01*
X134965188Y-85535702D01*
X134939016Y-85531819D01*
X134913350Y-85525390D01*
X134888438Y-85516477D01*
X134864519Y-85505164D01*
X134841825Y-85491562D01*
X134820573Y-85475800D01*
X134800968Y-85458032D01*
X134783200Y-85438427D01*
X134767438Y-85417175D01*
X134753836Y-85394481D01*
X134742523Y-85370562D01*
X134733610Y-85345650D01*
X134727181Y-85319984D01*
X134723298Y-85293812D01*
X134722000Y-85267385D01*
X134722000Y-84404615D01*
X134723298Y-84378188D01*
X134727181Y-84352016D01*
X134733610Y-84326350D01*
X134742523Y-84301438D01*
X134753836Y-84277519D01*
X134767438Y-84254825D01*
X134783200Y-84233573D01*
X134800968Y-84213968D01*
X134820573Y-84196200D01*
X134841825Y-84180438D01*
X134864519Y-84166836D01*
X134888438Y-84155523D01*
X134913350Y-84146610D01*
X134939016Y-84140181D01*
X134965188Y-84136298D01*
X134991615Y-84135000D01*
X135879385Y-84135000D01*
X135905812Y-84136298D01*
G37*
G36*
X128575691Y-73706176D02*
G01*
X128599401Y-73709693D01*
X128622652Y-73715517D01*
X128645220Y-73723592D01*
X128666889Y-73733841D01*
X128687448Y-73746164D01*
X128706701Y-73760442D01*
X128724461Y-73776539D01*
X128740558Y-73794299D01*
X128754836Y-73813552D01*
X128767159Y-73834111D01*
X128777408Y-73855780D01*
X128785483Y-73878348D01*
X128791307Y-73901599D01*
X128794824Y-73925309D01*
X128796000Y-73949250D01*
X128796000Y-74437750D01*
X128794824Y-74461691D01*
X128791307Y-74485401D01*
X128785483Y-74508652D01*
X128777408Y-74531220D01*
X128767159Y-74552889D01*
X128754836Y-74573448D01*
X128740558Y-74592701D01*
X128724461Y-74610461D01*
X128706701Y-74626558D01*
X128687448Y-74640836D01*
X128666889Y-74653159D01*
X128645220Y-74663408D01*
X128622652Y-74671483D01*
X128599401Y-74677307D01*
X128575691Y-74680824D01*
X128551750Y-74682000D01*
X127988250Y-74682000D01*
X127964309Y-74680824D01*
X127940599Y-74677307D01*
X127917348Y-74671483D01*
X127894780Y-74663408D01*
X127873111Y-74653159D01*
X127852552Y-74640836D01*
X127833299Y-74626558D01*
X127815539Y-74610461D01*
X127799442Y-74592701D01*
X127785164Y-74573448D01*
X127772841Y-74552889D01*
X127762592Y-74531220D01*
X127754517Y-74508652D01*
X127748693Y-74485401D01*
X127745176Y-74461691D01*
X127744000Y-74437750D01*
X127744000Y-73949250D01*
X127745176Y-73925309D01*
X127748693Y-73901599D01*
X127754517Y-73878348D01*
X127762592Y-73855780D01*
X127772841Y-73834111D01*
X127785164Y-73813552D01*
X127799442Y-73794299D01*
X127815539Y-73776539D01*
X127833299Y-73760442D01*
X127852552Y-73746164D01*
X127873111Y-73733841D01*
X127894780Y-73723592D01*
X127917348Y-73715517D01*
X127940599Y-73709693D01*
X127964309Y-73706176D01*
X127988250Y-73705000D01*
X128551750Y-73705000D01*
X128575691Y-73706176D01*
G37*
G36*
X128575691Y-72131176D02*
G01*
X128599401Y-72134693D01*
X128622652Y-72140517D01*
X128645220Y-72148592D01*
X128666889Y-72158841D01*
X128687448Y-72171164D01*
X128706701Y-72185442D01*
X128724461Y-72201539D01*
X128740558Y-72219299D01*
X128754836Y-72238552D01*
X128767159Y-72259111D01*
X128777408Y-72280780D01*
X128785483Y-72303348D01*
X128791307Y-72326599D01*
X128794824Y-72350309D01*
X128796000Y-72374250D01*
X128796000Y-72862750D01*
X128794824Y-72886691D01*
X128791307Y-72910401D01*
X128785483Y-72933652D01*
X128777408Y-72956220D01*
X128767159Y-72977889D01*
X128754836Y-72998448D01*
X128740558Y-73017701D01*
X128724461Y-73035461D01*
X128706701Y-73051558D01*
X128687448Y-73065836D01*
X128666889Y-73078159D01*
X128645220Y-73088408D01*
X128622652Y-73096483D01*
X128599401Y-73102307D01*
X128575691Y-73105824D01*
X128551750Y-73107000D01*
X127988250Y-73107000D01*
X127964309Y-73105824D01*
X127940599Y-73102307D01*
X127917348Y-73096483D01*
X127894780Y-73088408D01*
X127873111Y-73078159D01*
X127852552Y-73065836D01*
X127833299Y-73051558D01*
X127815539Y-73035461D01*
X127799442Y-73017701D01*
X127785164Y-72998448D01*
X127772841Y-72977889D01*
X127762592Y-72956220D01*
X127754517Y-72933652D01*
X127748693Y-72910401D01*
X127745176Y-72886691D01*
X127744000Y-72862750D01*
X127744000Y-72374250D01*
X127745176Y-72350309D01*
X127748693Y-72326599D01*
X127754517Y-72303348D01*
X127762592Y-72280780D01*
X127772841Y-72259111D01*
X127785164Y-72238552D01*
X127799442Y-72219299D01*
X127815539Y-72201539D01*
X127833299Y-72185442D01*
X127852552Y-72171164D01*
X127873111Y-72158841D01*
X127894780Y-72148592D01*
X127917348Y-72140517D01*
X127940599Y-72134693D01*
X127964309Y-72131176D01*
X127988250Y-72130000D01*
X128551750Y-72130000D01*
X128575691Y-72131176D01*
G37*
G36*
X108763691Y-72182176D02*
G01*
X108787401Y-72185693D01*
X108810652Y-72191517D01*
X108833220Y-72199592D01*
X108854889Y-72209841D01*
X108875448Y-72222164D01*
X108894701Y-72236442D01*
X108912461Y-72252539D01*
X108928558Y-72270299D01*
X108942836Y-72289552D01*
X108955159Y-72310111D01*
X108965408Y-72331780D01*
X108973483Y-72354348D01*
X108979307Y-72377599D01*
X108982824Y-72401309D01*
X108984000Y-72425250D01*
X108984000Y-72913750D01*
X108982824Y-72937691D01*
X108979307Y-72961401D01*
X108973483Y-72984652D01*
X108965408Y-73007220D01*
X108955159Y-73028889D01*
X108942836Y-73049448D01*
X108928558Y-73068701D01*
X108912461Y-73086461D01*
X108894701Y-73102558D01*
X108875448Y-73116836D01*
X108854889Y-73129159D01*
X108833220Y-73139408D01*
X108810652Y-73147483D01*
X108787401Y-73153307D01*
X108763691Y-73156824D01*
X108739750Y-73158000D01*
X108176250Y-73158000D01*
X108152309Y-73156824D01*
X108128599Y-73153307D01*
X108105348Y-73147483D01*
X108082780Y-73139408D01*
X108061111Y-73129159D01*
X108040552Y-73116836D01*
X108021299Y-73102558D01*
X108003539Y-73086461D01*
X107987442Y-73068701D01*
X107973164Y-73049448D01*
X107960841Y-73028889D01*
X107950592Y-73007220D01*
X107942517Y-72984652D01*
X107936693Y-72961401D01*
X107933176Y-72937691D01*
X107932000Y-72913750D01*
X107932000Y-72425250D01*
X107933176Y-72401309D01*
X107936693Y-72377599D01*
X107942517Y-72354348D01*
X107950592Y-72331780D01*
X107960841Y-72310111D01*
X107973164Y-72289552D01*
X107987442Y-72270299D01*
X108003539Y-72252539D01*
X108021299Y-72236442D01*
X108040552Y-72222164D01*
X108061111Y-72209841D01*
X108082780Y-72199592D01*
X108105348Y-72191517D01*
X108128599Y-72185693D01*
X108152309Y-72182176D01*
X108176250Y-72181000D01*
X108739750Y-72181000D01*
X108763691Y-72182176D01*
G37*
G36*
X108763691Y-70607176D02*
G01*
X108787401Y-70610693D01*
X108810652Y-70616517D01*
X108833220Y-70624592D01*
X108854889Y-70634841D01*
X108875448Y-70647164D01*
X108894701Y-70661442D01*
X108912461Y-70677539D01*
X108928558Y-70695299D01*
X108942836Y-70714552D01*
X108955159Y-70735111D01*
X108965408Y-70756780D01*
X108973483Y-70779348D01*
X108979307Y-70802599D01*
X108982824Y-70826309D01*
X108984000Y-70850250D01*
X108984000Y-71338750D01*
X108982824Y-71362691D01*
X108979307Y-71386401D01*
X108973483Y-71409652D01*
X108965408Y-71432220D01*
X108955159Y-71453889D01*
X108942836Y-71474448D01*
X108928558Y-71493701D01*
X108912461Y-71511461D01*
X108894701Y-71527558D01*
X108875448Y-71541836D01*
X108854889Y-71554159D01*
X108833220Y-71564408D01*
X108810652Y-71572483D01*
X108787401Y-71578307D01*
X108763691Y-71581824D01*
X108739750Y-71583000D01*
X108176250Y-71583000D01*
X108152309Y-71581824D01*
X108128599Y-71578307D01*
X108105348Y-71572483D01*
X108082780Y-71564408D01*
X108061111Y-71554159D01*
X108040552Y-71541836D01*
X108021299Y-71527558D01*
X108003539Y-71511461D01*
X107987442Y-71493701D01*
X107973164Y-71474448D01*
X107960841Y-71453889D01*
X107950592Y-71432220D01*
X107942517Y-71409652D01*
X107936693Y-71386401D01*
X107933176Y-71362691D01*
X107932000Y-71338750D01*
X107932000Y-70850250D01*
X107933176Y-70826309D01*
X107936693Y-70802599D01*
X107942517Y-70779348D01*
X107950592Y-70756780D01*
X107960841Y-70735111D01*
X107973164Y-70714552D01*
X107987442Y-70695299D01*
X108003539Y-70677539D01*
X108021299Y-70661442D01*
X108040552Y-70647164D01*
X108061111Y-70634841D01*
X108082780Y-70624592D01*
X108105348Y-70616517D01*
X108128599Y-70610693D01*
X108152309Y-70607176D01*
X108176250Y-70606000D01*
X108739750Y-70606000D01*
X108763691Y-70607176D01*
G37*
G36*
X114351691Y-79548176D02*
G01*
X114375401Y-79551693D01*
X114398652Y-79557517D01*
X114421220Y-79565592D01*
X114442889Y-79575841D01*
X114463448Y-79588164D01*
X114482701Y-79602442D01*
X114500461Y-79618539D01*
X114516558Y-79636299D01*
X114530836Y-79655552D01*
X114543159Y-79676111D01*
X114553408Y-79697780D01*
X114561483Y-79720348D01*
X114567307Y-79743599D01*
X114570824Y-79767309D01*
X114572000Y-79791250D01*
X114572000Y-80279750D01*
X114570824Y-80303691D01*
X114567307Y-80327401D01*
X114561483Y-80350652D01*
X114553408Y-80373220D01*
X114543159Y-80394889D01*
X114530836Y-80415448D01*
X114516558Y-80434701D01*
X114500461Y-80452461D01*
X114482701Y-80468558D01*
X114463448Y-80482836D01*
X114442889Y-80495159D01*
X114421220Y-80505408D01*
X114398652Y-80513483D01*
X114375401Y-80519307D01*
X114351691Y-80522824D01*
X114327750Y-80524000D01*
X113764250Y-80524000D01*
X113740309Y-80522824D01*
X113716599Y-80519307D01*
X113693348Y-80513483D01*
X113670780Y-80505408D01*
X113649111Y-80495159D01*
X113628552Y-80482836D01*
X113609299Y-80468558D01*
X113591539Y-80452461D01*
X113575442Y-80434701D01*
X113561164Y-80415448D01*
X113548841Y-80394889D01*
X113538592Y-80373220D01*
X113530517Y-80350652D01*
X113524693Y-80327401D01*
X113521176Y-80303691D01*
X113520000Y-80279750D01*
X113520000Y-79791250D01*
X113521176Y-79767309D01*
X113524693Y-79743599D01*
X113530517Y-79720348D01*
X113538592Y-79697780D01*
X113548841Y-79676111D01*
X113561164Y-79655552D01*
X113575442Y-79636299D01*
X113591539Y-79618539D01*
X113609299Y-79602442D01*
X113628552Y-79588164D01*
X113649111Y-79575841D01*
X113670780Y-79565592D01*
X113693348Y-79557517D01*
X113716599Y-79551693D01*
X113740309Y-79548176D01*
X113764250Y-79547000D01*
X114327750Y-79547000D01*
X114351691Y-79548176D01*
G37*
G36*
X114351691Y-77973176D02*
G01*
X114375401Y-77976693D01*
X114398652Y-77982517D01*
X114421220Y-77990592D01*
X114442889Y-78000841D01*
X114463448Y-78013164D01*
X114482701Y-78027442D01*
X114500461Y-78043539D01*
X114516558Y-78061299D01*
X114530836Y-78080552D01*
X114543159Y-78101111D01*
X114553408Y-78122780D01*
X114561483Y-78145348D01*
X114567307Y-78168599D01*
X114570824Y-78192309D01*
X114572000Y-78216250D01*
X114572000Y-78704750D01*
X114570824Y-78728691D01*
X114567307Y-78752401D01*
X114561483Y-78775652D01*
X114553408Y-78798220D01*
X114543159Y-78819889D01*
X114530836Y-78840448D01*
X114516558Y-78859701D01*
X114500461Y-78877461D01*
X114482701Y-78893558D01*
X114463448Y-78907836D01*
X114442889Y-78920159D01*
X114421220Y-78930408D01*
X114398652Y-78938483D01*
X114375401Y-78944307D01*
X114351691Y-78947824D01*
X114327750Y-78949000D01*
X113764250Y-78949000D01*
X113740309Y-78947824D01*
X113716599Y-78944307D01*
X113693348Y-78938483D01*
X113670780Y-78930408D01*
X113649111Y-78920159D01*
X113628552Y-78907836D01*
X113609299Y-78893558D01*
X113591539Y-78877461D01*
X113575442Y-78859701D01*
X113561164Y-78840448D01*
X113548841Y-78819889D01*
X113538592Y-78798220D01*
X113530517Y-78775652D01*
X113524693Y-78752401D01*
X113521176Y-78728691D01*
X113520000Y-78704750D01*
X113520000Y-78216250D01*
X113521176Y-78192309D01*
X113524693Y-78168599D01*
X113530517Y-78145348D01*
X113538592Y-78122780D01*
X113548841Y-78101111D01*
X113561164Y-78080552D01*
X113575442Y-78061299D01*
X113591539Y-78043539D01*
X113609299Y-78027442D01*
X113628552Y-78013164D01*
X113649111Y-78000841D01*
X113670780Y-77990592D01*
X113693348Y-77982517D01*
X113716599Y-77976693D01*
X113740309Y-77973176D01*
X113764250Y-77972000D01*
X114327750Y-77972000D01*
X114351691Y-77973176D01*
G37*
G36*
X111049691Y-69108676D02*
G01*
X111073401Y-69112193D01*
X111096652Y-69118017D01*
X111119220Y-69126092D01*
X111140889Y-69136341D01*
X111161448Y-69148664D01*
X111180701Y-69162942D01*
X111198461Y-69179039D01*
X111214558Y-69196799D01*
X111228836Y-69216052D01*
X111241159Y-69236611D01*
X111251408Y-69258280D01*
X111259483Y-69280848D01*
X111265307Y-69304099D01*
X111268824Y-69327809D01*
X111270000Y-69351750D01*
X111270000Y-69840250D01*
X111268824Y-69864191D01*
X111265307Y-69887901D01*
X111259483Y-69911152D01*
X111251408Y-69933720D01*
X111241159Y-69955389D01*
X111228836Y-69975948D01*
X111214558Y-69995201D01*
X111198461Y-70012961D01*
X111180701Y-70029058D01*
X111161448Y-70043336D01*
X111140889Y-70055659D01*
X111119220Y-70065908D01*
X111096652Y-70073983D01*
X111073401Y-70079807D01*
X111049691Y-70083324D01*
X111025750Y-70084500D01*
X110462250Y-70084500D01*
X110438309Y-70083324D01*
X110414599Y-70079807D01*
X110391348Y-70073983D01*
X110368780Y-70065908D01*
X110347111Y-70055659D01*
X110326552Y-70043336D01*
X110307299Y-70029058D01*
X110289539Y-70012961D01*
X110273442Y-69995201D01*
X110259164Y-69975948D01*
X110246841Y-69955389D01*
X110236592Y-69933720D01*
X110228517Y-69911152D01*
X110222693Y-69887901D01*
X110219176Y-69864191D01*
X110218000Y-69840250D01*
X110218000Y-69351750D01*
X110219176Y-69327809D01*
X110222693Y-69304099D01*
X110228517Y-69280848D01*
X110236592Y-69258280D01*
X110246841Y-69236611D01*
X110259164Y-69216052D01*
X110273442Y-69196799D01*
X110289539Y-69179039D01*
X110307299Y-69162942D01*
X110326552Y-69148664D01*
X110347111Y-69136341D01*
X110368780Y-69126092D01*
X110391348Y-69118017D01*
X110414599Y-69112193D01*
X110438309Y-69108676D01*
X110462250Y-69107500D01*
X111025750Y-69107500D01*
X111049691Y-69108676D01*
G37*
G36*
X111049691Y-70683676D02*
G01*
X111073401Y-70687193D01*
X111096652Y-70693017D01*
X111119220Y-70701092D01*
X111140889Y-70711341D01*
X111161448Y-70723664D01*
X111180701Y-70737942D01*
X111198461Y-70754039D01*
X111214558Y-70771799D01*
X111228836Y-70791052D01*
X111241159Y-70811611D01*
X111251408Y-70833280D01*
X111259483Y-70855848D01*
X111265307Y-70879099D01*
X111268824Y-70902809D01*
X111270000Y-70926750D01*
X111270000Y-71415250D01*
X111268824Y-71439191D01*
X111265307Y-71462901D01*
X111259483Y-71486152D01*
X111251408Y-71508720D01*
X111241159Y-71530389D01*
X111228836Y-71550948D01*
X111214558Y-71570201D01*
X111198461Y-71587961D01*
X111180701Y-71604058D01*
X111161448Y-71618336D01*
X111140889Y-71630659D01*
X111119220Y-71640908D01*
X111096652Y-71648983D01*
X111073401Y-71654807D01*
X111049691Y-71658324D01*
X111025750Y-71659500D01*
X110462250Y-71659500D01*
X110438309Y-71658324D01*
X110414599Y-71654807D01*
X110391348Y-71648983D01*
X110368780Y-71640908D01*
X110347111Y-71630659D01*
X110326552Y-71618336D01*
X110307299Y-71604058D01*
X110289539Y-71587961D01*
X110273442Y-71570201D01*
X110259164Y-71550948D01*
X110246841Y-71530389D01*
X110236592Y-71508720D01*
X110228517Y-71486152D01*
X110222693Y-71462901D01*
X110219176Y-71439191D01*
X110218000Y-71415250D01*
X110218000Y-70926750D01*
X110219176Y-70902809D01*
X110222693Y-70879099D01*
X110228517Y-70855848D01*
X110236592Y-70833280D01*
X110246841Y-70811611D01*
X110259164Y-70791052D01*
X110273442Y-70771799D01*
X110289539Y-70754039D01*
X110307299Y-70737942D01*
X110326552Y-70723664D01*
X110347111Y-70711341D01*
X110368780Y-70701092D01*
X110391348Y-70693017D01*
X110414599Y-70687193D01*
X110438309Y-70683676D01*
X110462250Y-70682500D01*
X111025750Y-70682500D01*
X111049691Y-70683676D01*
G37*
G36*
X106604691Y-72182176D02*
G01*
X106628401Y-72185693D01*
X106651652Y-72191517D01*
X106674220Y-72199592D01*
X106695889Y-72209841D01*
X106716448Y-72222164D01*
X106735701Y-72236442D01*
X106753461Y-72252539D01*
X106769558Y-72270299D01*
X106783836Y-72289552D01*
X106796159Y-72310111D01*
X106806408Y-72331780D01*
X106814483Y-72354348D01*
X106820307Y-72377599D01*
X106823824Y-72401309D01*
X106825000Y-72425250D01*
X106825000Y-72913750D01*
X106823824Y-72937691D01*
X106820307Y-72961401D01*
X106814483Y-72984652D01*
X106806408Y-73007220D01*
X106796159Y-73028889D01*
X106783836Y-73049448D01*
X106769558Y-73068701D01*
X106753461Y-73086461D01*
X106735701Y-73102558D01*
X106716448Y-73116836D01*
X106695889Y-73129159D01*
X106674220Y-73139408D01*
X106651652Y-73147483D01*
X106628401Y-73153307D01*
X106604691Y-73156824D01*
X106580750Y-73158000D01*
X106017250Y-73158000D01*
X105993309Y-73156824D01*
X105969599Y-73153307D01*
X105946348Y-73147483D01*
X105923780Y-73139408D01*
X105902111Y-73129159D01*
X105881552Y-73116836D01*
X105862299Y-73102558D01*
X105844539Y-73086461D01*
X105828442Y-73068701D01*
X105814164Y-73049448D01*
X105801841Y-73028889D01*
X105791592Y-73007220D01*
X105783517Y-72984652D01*
X105777693Y-72961401D01*
X105774176Y-72937691D01*
X105773000Y-72913750D01*
X105773000Y-72425250D01*
X105774176Y-72401309D01*
X105777693Y-72377599D01*
X105783517Y-72354348D01*
X105791592Y-72331780D01*
X105801841Y-72310111D01*
X105814164Y-72289552D01*
X105828442Y-72270299D01*
X105844539Y-72252539D01*
X105862299Y-72236442D01*
X105881552Y-72222164D01*
X105902111Y-72209841D01*
X105923780Y-72199592D01*
X105946348Y-72191517D01*
X105969599Y-72185693D01*
X105993309Y-72182176D01*
X106017250Y-72181000D01*
X106580750Y-72181000D01*
X106604691Y-72182176D01*
G37*
G36*
X106604691Y-70607176D02*
G01*
X106628401Y-70610693D01*
X106651652Y-70616517D01*
X106674220Y-70624592D01*
X106695889Y-70634841D01*
X106716448Y-70647164D01*
X106735701Y-70661442D01*
X106753461Y-70677539D01*
X106769558Y-70695299D01*
X106783836Y-70714552D01*
X106796159Y-70735111D01*
X106806408Y-70756780D01*
X106814483Y-70779348D01*
X106820307Y-70802599D01*
X106823824Y-70826309D01*
X106825000Y-70850250D01*
X106825000Y-71338750D01*
X106823824Y-71362691D01*
X106820307Y-71386401D01*
X106814483Y-71409652D01*
X106806408Y-71432220D01*
X106796159Y-71453889D01*
X106783836Y-71474448D01*
X106769558Y-71493701D01*
X106753461Y-71511461D01*
X106735701Y-71527558D01*
X106716448Y-71541836D01*
X106695889Y-71554159D01*
X106674220Y-71564408D01*
X106651652Y-71572483D01*
X106628401Y-71578307D01*
X106604691Y-71581824D01*
X106580750Y-71583000D01*
X106017250Y-71583000D01*
X105993309Y-71581824D01*
X105969599Y-71578307D01*
X105946348Y-71572483D01*
X105923780Y-71564408D01*
X105902111Y-71554159D01*
X105881552Y-71541836D01*
X105862299Y-71527558D01*
X105844539Y-71511461D01*
X105828442Y-71493701D01*
X105814164Y-71474448D01*
X105801841Y-71453889D01*
X105791592Y-71432220D01*
X105783517Y-71409652D01*
X105777693Y-71386401D01*
X105774176Y-71362691D01*
X105773000Y-71338750D01*
X105773000Y-70850250D01*
X105774176Y-70826309D01*
X105777693Y-70802599D01*
X105783517Y-70779348D01*
X105791592Y-70756780D01*
X105801841Y-70735111D01*
X105814164Y-70714552D01*
X105828442Y-70695299D01*
X105844539Y-70677539D01*
X105862299Y-70661442D01*
X105881552Y-70647164D01*
X105902111Y-70634841D01*
X105923780Y-70624592D01*
X105946348Y-70616517D01*
X105969599Y-70610693D01*
X105993309Y-70607176D01*
X106017250Y-70606000D01*
X106580750Y-70606000D01*
X106604691Y-70607176D01*
G37*
G36*
X104445691Y-72182176D02*
G01*
X104469401Y-72185693D01*
X104492652Y-72191517D01*
X104515220Y-72199592D01*
X104536889Y-72209841D01*
X104557448Y-72222164D01*
X104576701Y-72236442D01*
X104594461Y-72252539D01*
X104610558Y-72270299D01*
X104624836Y-72289552D01*
X104637159Y-72310111D01*
X104647408Y-72331780D01*
X104655483Y-72354348D01*
X104661307Y-72377599D01*
X104664824Y-72401309D01*
X104666000Y-72425250D01*
X104666000Y-72913750D01*
X104664824Y-72937691D01*
X104661307Y-72961401D01*
X104655483Y-72984652D01*
X104647408Y-73007220D01*
X104637159Y-73028889D01*
X104624836Y-73049448D01*
X104610558Y-73068701D01*
X104594461Y-73086461D01*
X104576701Y-73102558D01*
X104557448Y-73116836D01*
X104536889Y-73129159D01*
X104515220Y-73139408D01*
X104492652Y-73147483D01*
X104469401Y-73153307D01*
X104445691Y-73156824D01*
X104421750Y-73158000D01*
X103858250Y-73158000D01*
X103834309Y-73156824D01*
X103810599Y-73153307D01*
X103787348Y-73147483D01*
X103764780Y-73139408D01*
X103743111Y-73129159D01*
X103722552Y-73116836D01*
X103703299Y-73102558D01*
X103685539Y-73086461D01*
X103669442Y-73068701D01*
X103655164Y-73049448D01*
X103642841Y-73028889D01*
X103632592Y-73007220D01*
X103624517Y-72984652D01*
X103618693Y-72961401D01*
X103615176Y-72937691D01*
X103614000Y-72913750D01*
X103614000Y-72425250D01*
X103615176Y-72401309D01*
X103618693Y-72377599D01*
X103624517Y-72354348D01*
X103632592Y-72331780D01*
X103642841Y-72310111D01*
X103655164Y-72289552D01*
X103669442Y-72270299D01*
X103685539Y-72252539D01*
X103703299Y-72236442D01*
X103722552Y-72222164D01*
X103743111Y-72209841D01*
X103764780Y-72199592D01*
X103787348Y-72191517D01*
X103810599Y-72185693D01*
X103834309Y-72182176D01*
X103858250Y-72181000D01*
X104421750Y-72181000D01*
X104445691Y-72182176D01*
G37*
G36*
X104445691Y-70607176D02*
G01*
X104469401Y-70610693D01*
X104492652Y-70616517D01*
X104515220Y-70624592D01*
X104536889Y-70634841D01*
X104557448Y-70647164D01*
X104576701Y-70661442D01*
X104594461Y-70677539D01*
X104610558Y-70695299D01*
X104624836Y-70714552D01*
X104637159Y-70735111D01*
X104647408Y-70756780D01*
X104655483Y-70779348D01*
X104661307Y-70802599D01*
X104664824Y-70826309D01*
X104666000Y-70850250D01*
X104666000Y-71338750D01*
X104664824Y-71362691D01*
X104661307Y-71386401D01*
X104655483Y-71409652D01*
X104647408Y-71432220D01*
X104637159Y-71453889D01*
X104624836Y-71474448D01*
X104610558Y-71493701D01*
X104594461Y-71511461D01*
X104576701Y-71527558D01*
X104557448Y-71541836D01*
X104536889Y-71554159D01*
X104515220Y-71564408D01*
X104492652Y-71572483D01*
X104469401Y-71578307D01*
X104445691Y-71581824D01*
X104421750Y-71583000D01*
X103858250Y-71583000D01*
X103834309Y-71581824D01*
X103810599Y-71578307D01*
X103787348Y-71572483D01*
X103764780Y-71564408D01*
X103743111Y-71554159D01*
X103722552Y-71541836D01*
X103703299Y-71527558D01*
X103685539Y-71511461D01*
X103669442Y-71493701D01*
X103655164Y-71474448D01*
X103642841Y-71453889D01*
X103632592Y-71432220D01*
X103624517Y-71409652D01*
X103618693Y-71386401D01*
X103615176Y-71362691D01*
X103614000Y-71338750D01*
X103614000Y-70850250D01*
X103615176Y-70826309D01*
X103618693Y-70802599D01*
X103624517Y-70779348D01*
X103632592Y-70756780D01*
X103642841Y-70735111D01*
X103655164Y-70714552D01*
X103669442Y-70695299D01*
X103685539Y-70677539D01*
X103703299Y-70661442D01*
X103722552Y-70647164D01*
X103743111Y-70634841D01*
X103764780Y-70624592D01*
X103787348Y-70616517D01*
X103810599Y-70610693D01*
X103834309Y-70607176D01*
X103858250Y-70606000D01*
X104421750Y-70606000D01*
X104445691Y-70607176D01*
G37*
G36*
X111723191Y-75421176D02*
G01*
X111746901Y-75424693D01*
X111770152Y-75430517D01*
X111792720Y-75438592D01*
X111814389Y-75448841D01*
X111834948Y-75461164D01*
X111854201Y-75475442D01*
X111871961Y-75491539D01*
X111888058Y-75509299D01*
X111902336Y-75528552D01*
X111914659Y-75549111D01*
X111924908Y-75570780D01*
X111932983Y-75593348D01*
X111938807Y-75616599D01*
X111942324Y-75640309D01*
X111943500Y-75664250D01*
X111943500Y-76227750D01*
X111942324Y-76251691D01*
X111938807Y-76275401D01*
X111932983Y-76298652D01*
X111924908Y-76321220D01*
X111914659Y-76342889D01*
X111902336Y-76363448D01*
X111888058Y-76382701D01*
X111871961Y-76400461D01*
X111854201Y-76416558D01*
X111834948Y-76430836D01*
X111814389Y-76443159D01*
X111792720Y-76453408D01*
X111770152Y-76461483D01*
X111746901Y-76467307D01*
X111723191Y-76470824D01*
X111699250Y-76472000D01*
X111210750Y-76472000D01*
X111186809Y-76470824D01*
X111163099Y-76467307D01*
X111139848Y-76461483D01*
X111117280Y-76453408D01*
X111095611Y-76443159D01*
X111075052Y-76430836D01*
X111055799Y-76416558D01*
X111038039Y-76400461D01*
X111021942Y-76382701D01*
X111007664Y-76363448D01*
X110995341Y-76342889D01*
X110985092Y-76321220D01*
X110977017Y-76298652D01*
X110971193Y-76275401D01*
X110967676Y-76251691D01*
X110966500Y-76227750D01*
X110966500Y-75664250D01*
X110967676Y-75640309D01*
X110971193Y-75616599D01*
X110977017Y-75593348D01*
X110985092Y-75570780D01*
X110995341Y-75549111D01*
X111007664Y-75528552D01*
X111021942Y-75509299D01*
X111038039Y-75491539D01*
X111055799Y-75475442D01*
X111075052Y-75461164D01*
X111095611Y-75448841D01*
X111117280Y-75438592D01*
X111139848Y-75430517D01*
X111163099Y-75424693D01*
X111186809Y-75421176D01*
X111210750Y-75420000D01*
X111699250Y-75420000D01*
X111723191Y-75421176D01*
G37*
G36*
X113298191Y-75421176D02*
G01*
X113321901Y-75424693D01*
X113345152Y-75430517D01*
X113367720Y-75438592D01*
X113389389Y-75448841D01*
X113409948Y-75461164D01*
X113429201Y-75475442D01*
X113446961Y-75491539D01*
X113463058Y-75509299D01*
X113477336Y-75528552D01*
X113489659Y-75549111D01*
X113499908Y-75570780D01*
X113507983Y-75593348D01*
X113513807Y-75616599D01*
X113517324Y-75640309D01*
X113518500Y-75664250D01*
X113518500Y-76227750D01*
X113517324Y-76251691D01*
X113513807Y-76275401D01*
X113507983Y-76298652D01*
X113499908Y-76321220D01*
X113489659Y-76342889D01*
X113477336Y-76363448D01*
X113463058Y-76382701D01*
X113446961Y-76400461D01*
X113429201Y-76416558D01*
X113409948Y-76430836D01*
X113389389Y-76443159D01*
X113367720Y-76453408D01*
X113345152Y-76461483D01*
X113321901Y-76467307D01*
X113298191Y-76470824D01*
X113274250Y-76472000D01*
X112785750Y-76472000D01*
X112761809Y-76470824D01*
X112738099Y-76467307D01*
X112714848Y-76461483D01*
X112692280Y-76453408D01*
X112670611Y-76443159D01*
X112650052Y-76430836D01*
X112630799Y-76416558D01*
X112613039Y-76400461D01*
X112596942Y-76382701D01*
X112582664Y-76363448D01*
X112570341Y-76342889D01*
X112560092Y-76321220D01*
X112552017Y-76298652D01*
X112546193Y-76275401D01*
X112542676Y-76251691D01*
X112541500Y-76227750D01*
X112541500Y-75664250D01*
X112542676Y-75640309D01*
X112546193Y-75616599D01*
X112552017Y-75593348D01*
X112560092Y-75570780D01*
X112570341Y-75549111D01*
X112582664Y-75528552D01*
X112596942Y-75509299D01*
X112613039Y-75491539D01*
X112630799Y-75475442D01*
X112650052Y-75461164D01*
X112670611Y-75448841D01*
X112692280Y-75438592D01*
X112714848Y-75430517D01*
X112738099Y-75424693D01*
X112761809Y-75421176D01*
X112785750Y-75420000D01*
X113274250Y-75420000D01*
X113298191Y-75421176D01*
G37*
D19*
X141986000Y-80264000D03*
X141986000Y-77724000D03*
X141986000Y-75184000D03*
X141986000Y-72644000D03*
D20*
X141986000Y-70104000D03*
D19*
X128778000Y-59436000D03*
D20*
X128778000Y-56896000D03*
D19*
X130048000Y-86614000D03*
X127508000Y-86614000D03*
D20*
X124968000Y-86614000D03*
D19*
X116332000Y-84074000D03*
D20*
X116332000Y-86614000D03*
D19*
X120396000Y-54366000D03*
X120396000Y-56906000D03*
D20*
X120396000Y-59446000D03*
D19*
X114300000Y-54366000D03*
X114300000Y-56906000D03*
D20*
X114300000Y-59446000D03*
D19*
X141986000Y-61468000D03*
D20*
X141986000Y-58928000D03*
D21*
X114554000Y-72136000D03*
D22*
X113579000Y-70136000D03*
X114229000Y-70136000D03*
X114879000Y-70136000D03*
X115529000Y-70136000D03*
D23*
X116554000Y-71161000D03*
X116554000Y-71811000D03*
X116554000Y-72461000D03*
X116554000Y-73111000D03*
D22*
X115529000Y-74136000D03*
X114879000Y-74136000D03*
X114229000Y-74136000D03*
X113579000Y-74136000D03*
D23*
X112554000Y-73111000D03*
X112554000Y-72461000D03*
X112554000Y-71811000D03*
X112554000Y-71161000D03*
D24*
X99060000Y-67740000D03*
X99060000Y-77040000D03*
M02*
