G04 #@! TF.GenerationSoftware,KiCad,Pcbnew,(5.1.8)-1*
G04 #@! TF.CreationDate,2021-02-17T15:43:10-07:00*
G04 #@! TF.ProjectId,AS3935,41533339-3335-42e6-9b69-6361645f7063,rev?*
G04 #@! TF.SameCoordinates,Original*
G04 #@! TF.FileFunction,Soldermask,Bot*
G04 #@! TF.FilePolarity,Negative*
%FSLAX46Y46*%
G04 Gerber Fmt 4.6, Leading zero omitted, Abs format (unit mm)*
G04 Created by KiCad (PCBNEW (5.1.8)-1) date 2021-02-17 15:43:10*
%MOMM*%
%LPD*%
G01*
G04 APERTURE LIST*
%ADD10O,1.800000X1.800000*%
G04 APERTURE END LIST*
D10*
X131318000Y-64008000D03*
G36*
G01*
X133008000Y-63108000D02*
X134708000Y-63108000D01*
G75*
G02*
X134758000Y-63158000I0J-50000D01*
G01*
X134758000Y-64858000D01*
G75*
G02*
X134708000Y-64908000I-50000J0D01*
G01*
X133008000Y-64908000D01*
G75*
G02*
X132958000Y-64858000I0J50000D01*
G01*
X132958000Y-63158000D01*
G75*
G02*
X133008000Y-63108000I50000J0D01*
G01*
G37*
X141986000Y-80264000D03*
X141986000Y-77724000D03*
X141986000Y-75184000D03*
X141986000Y-72644000D03*
G36*
G01*
X141086000Y-70954000D02*
X141086000Y-69254000D01*
G75*
G02*
X141136000Y-69204000I50000J0D01*
G01*
X142836000Y-69204000D01*
G75*
G02*
X142886000Y-69254000I0J-50000D01*
G01*
X142886000Y-70954000D01*
G75*
G02*
X142836000Y-71004000I-50000J0D01*
G01*
X141136000Y-71004000D01*
G75*
G02*
X141086000Y-70954000I0J50000D01*
G01*
G37*
X128778000Y-59436000D03*
G36*
G01*
X127878000Y-57746000D02*
X127878000Y-56046000D01*
G75*
G02*
X127928000Y-55996000I50000J0D01*
G01*
X129628000Y-55996000D01*
G75*
G02*
X129678000Y-56046000I0J-50000D01*
G01*
X129678000Y-57746000D01*
G75*
G02*
X129628000Y-57796000I-50000J0D01*
G01*
X127928000Y-57796000D01*
G75*
G02*
X127878000Y-57746000I0J50000D01*
G01*
G37*
X130048000Y-86614000D03*
X127508000Y-86614000D03*
G36*
G01*
X125818000Y-87514000D02*
X124118000Y-87514000D01*
G75*
G02*
X124068000Y-87464000I0J50000D01*
G01*
X124068000Y-85764000D01*
G75*
G02*
X124118000Y-85714000I50000J0D01*
G01*
X125818000Y-85714000D01*
G75*
G02*
X125868000Y-85764000I0J-50000D01*
G01*
X125868000Y-87464000D01*
G75*
G02*
X125818000Y-87514000I-50000J0D01*
G01*
G37*
X116332000Y-84074000D03*
G36*
G01*
X117232000Y-85764000D02*
X117232000Y-87464000D01*
G75*
G02*
X117182000Y-87514000I-50000J0D01*
G01*
X115482000Y-87514000D01*
G75*
G02*
X115432000Y-87464000I0J50000D01*
G01*
X115432000Y-85764000D01*
G75*
G02*
X115482000Y-85714000I50000J0D01*
G01*
X117182000Y-85714000D01*
G75*
G02*
X117232000Y-85764000I0J-50000D01*
G01*
G37*
X120396000Y-54366000D03*
X120396000Y-56906000D03*
G36*
G01*
X121296000Y-58596000D02*
X121296000Y-60296000D01*
G75*
G02*
X121246000Y-60346000I-50000J0D01*
G01*
X119546000Y-60346000D01*
G75*
G02*
X119496000Y-60296000I0J50000D01*
G01*
X119496000Y-58596000D01*
G75*
G02*
X119546000Y-58546000I50000J0D01*
G01*
X121246000Y-58546000D01*
G75*
G02*
X121296000Y-58596000I0J-50000D01*
G01*
G37*
X114300000Y-54366000D03*
X114300000Y-56906000D03*
G36*
G01*
X115200000Y-58596000D02*
X115200000Y-60296000D01*
G75*
G02*
X115150000Y-60346000I-50000J0D01*
G01*
X113450000Y-60346000D01*
G75*
G02*
X113400000Y-60296000I0J50000D01*
G01*
X113400000Y-58596000D01*
G75*
G02*
X113450000Y-58546000I50000J0D01*
G01*
X115150000Y-58546000D01*
G75*
G02*
X115200000Y-58596000I0J-50000D01*
G01*
G37*
X141986000Y-61468000D03*
G36*
G01*
X141086000Y-59778000D02*
X141086000Y-58078000D01*
G75*
G02*
X141136000Y-58028000I50000J0D01*
G01*
X142836000Y-58028000D01*
G75*
G02*
X142886000Y-58078000I0J-50000D01*
G01*
X142886000Y-59778000D01*
G75*
G02*
X142836000Y-59828000I-50000J0D01*
G01*
X141136000Y-59828000D01*
G75*
G02*
X141086000Y-59778000I0J50000D01*
G01*
G37*
M02*
