M48
; DRILL file {KiCad (5.1.5)-2} date 3/12/2020 11:07:31 PM
; FORMAT={-:-/ absolute / inch / decimal}
; #@! TF.CreationDate,2020-03-12T23:07:31-06:00
; #@! TF.GenerationSoftware,Kicad,Pcbnew,(5.1.5)-2
FMAT,2
INCH
T1C0.0157
T2C0.0394
%
G90
G05
T1
X4.43Y-3.19
X4.48Y-2.81
X4.49Y-3.03
X4.5Y-3.21
X4.54Y-2.87
X4.73Y-3.12
X4.83Y-3.24
X4.93Y-2.85
X5.05Y-2.8
X5.25Y-2.84
X5.3Y-3.05
T2
X4.92Y-3.41
X5.02Y-3.41
X5.12Y-3.41
X4.5Y-2.1404
X4.5Y-2.2404
X4.5Y-2.3404
X4.58Y-3.31
X4.58Y-3.41
X5.59Y-2.76
X5.59Y-2.86
X5.59Y-2.96
X5.59Y-3.06
X5.59Y-3.16
X5.07Y-2.24
X5.07Y-2.34
X5.59Y-2.32
X5.59Y-2.42
X4.74Y-2.1404
X4.74Y-2.2404
X4.74Y-2.3404
T0
M30
