G04 #@! TF.GenerationSoftware,KiCad,Pcbnew,(5.1.8)-1*
G04 #@! TF.CreationDate,2021-02-15T13:06:31-07:00*
G04 #@! TF.ProjectId,AS3935,41533339-3335-42e6-9b69-6361645f7063,rev?*
G04 #@! TF.SameCoordinates,Original*
G04 #@! TF.FileFunction,Copper,L2,Bot*
G04 #@! TF.FilePolarity,Positive*
%FSLAX46Y46*%
G04 Gerber Fmt 4.6, Leading zero omitted, Abs format (unit mm)*
G04 Created by KiCad (PCBNEW (5.1.8)-1) date 2021-02-15 13:06:31*
%MOMM*%
%LPD*%
G01*
G04 APERTURE LIST*
G04 #@! TA.AperFunction,ComponentPad*
%ADD10O,1.700000X1.700000*%
G04 #@! TD*
G04 #@! TA.AperFunction,ComponentPad*
%ADD11R,1.700000X1.700000*%
G04 #@! TD*
G04 #@! TA.AperFunction,ViaPad*
%ADD12C,0.800000*%
G04 #@! TD*
G04 #@! TA.AperFunction,Conductor*
%ADD13C,0.250000*%
G04 #@! TD*
G04 #@! TA.AperFunction,Conductor*
%ADD14C,0.254000*%
G04 #@! TD*
G04 #@! TA.AperFunction,Conductor*
%ADD15C,0.100000*%
G04 #@! TD*
G04 APERTURE END LIST*
D10*
X131318000Y-64008000D03*
D11*
X133858000Y-64008000D03*
D10*
X141986000Y-80264000D03*
X141986000Y-77724000D03*
X141986000Y-75184000D03*
X141986000Y-72644000D03*
D11*
X141986000Y-70104000D03*
D10*
X128778000Y-59436000D03*
D11*
X128778000Y-56896000D03*
D10*
X130048000Y-86614000D03*
X127508000Y-86614000D03*
D11*
X124968000Y-86614000D03*
D10*
X116332000Y-84074000D03*
D11*
X116332000Y-86614000D03*
D10*
X120396000Y-54366000D03*
X120396000Y-56906000D03*
D11*
X120396000Y-59446000D03*
D10*
X114300000Y-54366000D03*
X114300000Y-56906000D03*
D11*
X114300000Y-59446000D03*
D10*
X141986000Y-61468000D03*
D11*
X141986000Y-58928000D03*
D12*
X126746000Y-80772000D03*
X114300000Y-81534000D03*
X115316000Y-72898000D03*
X113792000Y-71374000D03*
X133350000Y-72136000D03*
X123698000Y-75692000D03*
X121920000Y-82296000D03*
X124968000Y-72390000D03*
X112522000Y-81026000D03*
X120142000Y-79248000D03*
X128270000Y-71120000D03*
X114046000Y-76962000D03*
X137668000Y-67056000D03*
X137668000Y-82296000D03*
D13*
X129878000Y-56896000D02*
X131318000Y-58336000D01*
X128778000Y-56896000D02*
X129878000Y-56896000D01*
X131318000Y-79164000D02*
X124968000Y-85514000D01*
X131318000Y-58336000D02*
X131318000Y-79164000D01*
X124968000Y-85514000D02*
X124968000Y-86614000D01*
X112522000Y-87630000D02*
X112522000Y-81026000D01*
X114554000Y-89662000D02*
X112522000Y-87630000D01*
X124968000Y-87714000D02*
X123020000Y-89662000D01*
X123020000Y-89662000D02*
X114554000Y-89662000D01*
X124968000Y-86614000D02*
X124968000Y-87714000D01*
X120142000Y-80264000D02*
X116332000Y-84074000D01*
X120142000Y-79248000D02*
X120142000Y-80264000D01*
X128524000Y-59690000D02*
X128778000Y-59436000D01*
X128270000Y-59944000D02*
X128778000Y-59436000D01*
X128270000Y-71120000D02*
X128270000Y-59944000D01*
X114300000Y-59446000D02*
X120396000Y-59446000D01*
X114046000Y-76962000D02*
X118872000Y-76962000D01*
X120396000Y-75438000D02*
X120396000Y-59446000D01*
X118872000Y-76962000D02*
X120396000Y-75438000D01*
X137668000Y-67056000D02*
X137668000Y-82296000D01*
X137668000Y-82296000D02*
X137668000Y-82296000D01*
D14*
X147005955Y-48945923D02*
X147082976Y-49005024D01*
X147142077Y-49082045D01*
X147168001Y-49144631D01*
X147168000Y-93603371D01*
X147142077Y-93665955D01*
X147082976Y-93742976D01*
X147005955Y-93802077D01*
X146943371Y-93828000D01*
X110612629Y-93828000D01*
X110550045Y-93802077D01*
X110473024Y-93742976D01*
X110413923Y-93665955D01*
X110376769Y-93576257D01*
X110363000Y-93471672D01*
X110363000Y-80924061D01*
X111487000Y-80924061D01*
X111487000Y-81127939D01*
X111526774Y-81327898D01*
X111604795Y-81516256D01*
X111718063Y-81685774D01*
X111762001Y-81729712D01*
X111762000Y-87592677D01*
X111758324Y-87630000D01*
X111762000Y-87667322D01*
X111762000Y-87667332D01*
X111772997Y-87778985D01*
X111784982Y-87818494D01*
X111816454Y-87922246D01*
X111887026Y-88054276D01*
X111926252Y-88102072D01*
X111981999Y-88170001D01*
X112011003Y-88193804D01*
X113990201Y-90173003D01*
X114013999Y-90202001D01*
X114042997Y-90225799D01*
X114129723Y-90296974D01*
X114261753Y-90367546D01*
X114405014Y-90411003D01*
X114516667Y-90422000D01*
X114516677Y-90422000D01*
X114554000Y-90425676D01*
X114591323Y-90422000D01*
X122982678Y-90422000D01*
X123020000Y-90425676D01*
X123057322Y-90422000D01*
X123057333Y-90422000D01*
X123168986Y-90411003D01*
X123312247Y-90367546D01*
X123444276Y-90296974D01*
X123560001Y-90202001D01*
X123583804Y-90172997D01*
X125479003Y-88277799D01*
X125508001Y-88254001D01*
X125576938Y-88170001D01*
X125602974Y-88138277D01*
X125622326Y-88102072D01*
X125818000Y-88102072D01*
X125942482Y-88089812D01*
X126062180Y-88053502D01*
X126172494Y-87994537D01*
X126269185Y-87915185D01*
X126348537Y-87818494D01*
X126407502Y-87708180D01*
X126429513Y-87635620D01*
X126561368Y-87767475D01*
X126804589Y-87929990D01*
X127074842Y-88041932D01*
X127361740Y-88099000D01*
X127654260Y-88099000D01*
X127941158Y-88041932D01*
X128211411Y-87929990D01*
X128454632Y-87767475D01*
X128661475Y-87560632D01*
X128783195Y-87378466D01*
X128852822Y-87495355D01*
X129047731Y-87711588D01*
X129281080Y-87885641D01*
X129543901Y-88010825D01*
X129691110Y-88055476D01*
X129921000Y-87934155D01*
X129921000Y-86741000D01*
X130175000Y-86741000D01*
X130175000Y-87934155D01*
X130404890Y-88055476D01*
X130552099Y-88010825D01*
X130814920Y-87885641D01*
X131048269Y-87711588D01*
X131243178Y-87495355D01*
X131392157Y-87245252D01*
X131489481Y-86970891D01*
X131368814Y-86741000D01*
X130175000Y-86741000D01*
X129921000Y-86741000D01*
X129901000Y-86741000D01*
X129901000Y-86487000D01*
X129921000Y-86487000D01*
X129921000Y-85293845D01*
X130175000Y-85293845D01*
X130175000Y-86487000D01*
X131368814Y-86487000D01*
X131489481Y-86257109D01*
X131392157Y-85982748D01*
X131243178Y-85732645D01*
X131048269Y-85516412D01*
X130814920Y-85342359D01*
X130552099Y-85217175D01*
X130404890Y-85172524D01*
X130175000Y-85293845D01*
X129921000Y-85293845D01*
X129691110Y-85172524D01*
X129543901Y-85217175D01*
X129281080Y-85342359D01*
X129047731Y-85516412D01*
X128852822Y-85732645D01*
X128783195Y-85849534D01*
X128661475Y-85667368D01*
X128454632Y-85460525D01*
X128211411Y-85298010D01*
X127941158Y-85186068D01*
X127654260Y-85129000D01*
X127361740Y-85129000D01*
X127074842Y-85186068D01*
X126804589Y-85298010D01*
X126561368Y-85460525D01*
X126429513Y-85592380D01*
X126407502Y-85519820D01*
X126348537Y-85409506D01*
X126269185Y-85312815D01*
X126255345Y-85301457D01*
X131829003Y-79727799D01*
X131858001Y-79704001D01*
X131884332Y-79671917D01*
X131952974Y-79588277D01*
X132023546Y-79456247D01*
X132067003Y-79312986D01*
X132078000Y-79201333D01*
X132078000Y-79201324D01*
X132081676Y-79164001D01*
X132078000Y-79126678D01*
X132078000Y-66954061D01*
X136633000Y-66954061D01*
X136633000Y-67157939D01*
X136672774Y-67357898D01*
X136750795Y-67546256D01*
X136864063Y-67715774D01*
X136908000Y-67759711D01*
X136908001Y-81592288D01*
X136864063Y-81636226D01*
X136750795Y-81805744D01*
X136672774Y-81994102D01*
X136633000Y-82194061D01*
X136633000Y-82397939D01*
X136672774Y-82597898D01*
X136750795Y-82786256D01*
X136864063Y-82955774D01*
X137008226Y-83099937D01*
X137177744Y-83213205D01*
X137366102Y-83291226D01*
X137566061Y-83331000D01*
X137769939Y-83331000D01*
X137969898Y-83291226D01*
X138158256Y-83213205D01*
X138327774Y-83099937D01*
X138471937Y-82955774D01*
X138585205Y-82786256D01*
X138663226Y-82597898D01*
X138703000Y-82397939D01*
X138703000Y-82194061D01*
X138663226Y-81994102D01*
X138585205Y-81805744D01*
X138471937Y-81636226D01*
X138428000Y-81592289D01*
X138428000Y-69254000D01*
X140497928Y-69254000D01*
X140497928Y-70954000D01*
X140510188Y-71078482D01*
X140546498Y-71198180D01*
X140605463Y-71308494D01*
X140684815Y-71405185D01*
X140781506Y-71484537D01*
X140891820Y-71543502D01*
X140964380Y-71565513D01*
X140832525Y-71697368D01*
X140670010Y-71940589D01*
X140558068Y-72210842D01*
X140501000Y-72497740D01*
X140501000Y-72790260D01*
X140558068Y-73077158D01*
X140670010Y-73347411D01*
X140832525Y-73590632D01*
X141039368Y-73797475D01*
X141213760Y-73914000D01*
X141039368Y-74030525D01*
X140832525Y-74237368D01*
X140670010Y-74480589D01*
X140558068Y-74750842D01*
X140501000Y-75037740D01*
X140501000Y-75330260D01*
X140558068Y-75617158D01*
X140670010Y-75887411D01*
X140832525Y-76130632D01*
X141039368Y-76337475D01*
X141213760Y-76454000D01*
X141039368Y-76570525D01*
X140832525Y-76777368D01*
X140670010Y-77020589D01*
X140558068Y-77290842D01*
X140501000Y-77577740D01*
X140501000Y-77870260D01*
X140558068Y-78157158D01*
X140670010Y-78427411D01*
X140832525Y-78670632D01*
X141039368Y-78877475D01*
X141213760Y-78994000D01*
X141039368Y-79110525D01*
X140832525Y-79317368D01*
X140670010Y-79560589D01*
X140558068Y-79830842D01*
X140501000Y-80117740D01*
X140501000Y-80410260D01*
X140558068Y-80697158D01*
X140670010Y-80967411D01*
X140832525Y-81210632D01*
X141039368Y-81417475D01*
X141282589Y-81579990D01*
X141552842Y-81691932D01*
X141839740Y-81749000D01*
X142132260Y-81749000D01*
X142419158Y-81691932D01*
X142689411Y-81579990D01*
X142932632Y-81417475D01*
X143139475Y-81210632D01*
X143301990Y-80967411D01*
X143413932Y-80697158D01*
X143471000Y-80410260D01*
X143471000Y-80117740D01*
X143413932Y-79830842D01*
X143301990Y-79560589D01*
X143139475Y-79317368D01*
X142932632Y-79110525D01*
X142758240Y-78994000D01*
X142932632Y-78877475D01*
X143139475Y-78670632D01*
X143301990Y-78427411D01*
X143413932Y-78157158D01*
X143471000Y-77870260D01*
X143471000Y-77577740D01*
X143413932Y-77290842D01*
X143301990Y-77020589D01*
X143139475Y-76777368D01*
X142932632Y-76570525D01*
X142758240Y-76454000D01*
X142932632Y-76337475D01*
X143139475Y-76130632D01*
X143301990Y-75887411D01*
X143413932Y-75617158D01*
X143471000Y-75330260D01*
X143471000Y-75037740D01*
X143413932Y-74750842D01*
X143301990Y-74480589D01*
X143139475Y-74237368D01*
X142932632Y-74030525D01*
X142758240Y-73914000D01*
X142932632Y-73797475D01*
X143139475Y-73590632D01*
X143301990Y-73347411D01*
X143413932Y-73077158D01*
X143471000Y-72790260D01*
X143471000Y-72497740D01*
X143413932Y-72210842D01*
X143301990Y-71940589D01*
X143139475Y-71697368D01*
X143007620Y-71565513D01*
X143080180Y-71543502D01*
X143190494Y-71484537D01*
X143287185Y-71405185D01*
X143366537Y-71308494D01*
X143425502Y-71198180D01*
X143461812Y-71078482D01*
X143474072Y-70954000D01*
X143474072Y-69254000D01*
X143461812Y-69129518D01*
X143425502Y-69009820D01*
X143366537Y-68899506D01*
X143287185Y-68802815D01*
X143190494Y-68723463D01*
X143080180Y-68664498D01*
X142960482Y-68628188D01*
X142836000Y-68615928D01*
X141136000Y-68615928D01*
X141011518Y-68628188D01*
X140891820Y-68664498D01*
X140781506Y-68723463D01*
X140684815Y-68802815D01*
X140605463Y-68899506D01*
X140546498Y-69009820D01*
X140510188Y-69129518D01*
X140497928Y-69254000D01*
X138428000Y-69254000D01*
X138428000Y-67759711D01*
X138471937Y-67715774D01*
X138585205Y-67546256D01*
X138663226Y-67357898D01*
X138703000Y-67157939D01*
X138703000Y-66954061D01*
X138663226Y-66754102D01*
X138585205Y-66565744D01*
X138471937Y-66396226D01*
X138327774Y-66252063D01*
X138158256Y-66138795D01*
X137969898Y-66060774D01*
X137769939Y-66021000D01*
X137566061Y-66021000D01*
X137366102Y-66060774D01*
X137177744Y-66138795D01*
X137008226Y-66252063D01*
X136864063Y-66396226D01*
X136750795Y-66565744D01*
X136672774Y-66754102D01*
X136633000Y-66954061D01*
X132078000Y-66954061D01*
X132078000Y-65286178D01*
X132264632Y-65161475D01*
X132396487Y-65029620D01*
X132418498Y-65102180D01*
X132477463Y-65212494D01*
X132556815Y-65309185D01*
X132653506Y-65388537D01*
X132763820Y-65447502D01*
X132883518Y-65483812D01*
X133008000Y-65496072D01*
X134708000Y-65496072D01*
X134832482Y-65483812D01*
X134952180Y-65447502D01*
X135062494Y-65388537D01*
X135159185Y-65309185D01*
X135238537Y-65212494D01*
X135297502Y-65102180D01*
X135333812Y-64982482D01*
X135346072Y-64858000D01*
X135346072Y-63158000D01*
X135333812Y-63033518D01*
X135297502Y-62913820D01*
X135238537Y-62803506D01*
X135159185Y-62706815D01*
X135062494Y-62627463D01*
X134952180Y-62568498D01*
X134832482Y-62532188D01*
X134708000Y-62519928D01*
X133008000Y-62519928D01*
X132883518Y-62532188D01*
X132763820Y-62568498D01*
X132653506Y-62627463D01*
X132556815Y-62706815D01*
X132477463Y-62803506D01*
X132418498Y-62913820D01*
X132396487Y-62986380D01*
X132264632Y-62854525D01*
X132078000Y-62729822D01*
X132078000Y-61824890D01*
X140544524Y-61824890D01*
X140589175Y-61972099D01*
X140714359Y-62234920D01*
X140888412Y-62468269D01*
X141104645Y-62663178D01*
X141354748Y-62812157D01*
X141629109Y-62909481D01*
X141859000Y-62788814D01*
X141859000Y-61595000D01*
X142113000Y-61595000D01*
X142113000Y-62788814D01*
X142342891Y-62909481D01*
X142617252Y-62812157D01*
X142867355Y-62663178D01*
X143083588Y-62468269D01*
X143257641Y-62234920D01*
X143382825Y-61972099D01*
X143427476Y-61824890D01*
X143306155Y-61595000D01*
X142113000Y-61595000D01*
X141859000Y-61595000D01*
X140665845Y-61595000D01*
X140544524Y-61824890D01*
X132078000Y-61824890D01*
X132078000Y-58373333D01*
X132081677Y-58336000D01*
X132067003Y-58187014D01*
X132033935Y-58078000D01*
X140497928Y-58078000D01*
X140497928Y-59778000D01*
X140510188Y-59902482D01*
X140546498Y-60022180D01*
X140605463Y-60132494D01*
X140684815Y-60229185D01*
X140781506Y-60308537D01*
X140891820Y-60367502D01*
X140972466Y-60391966D01*
X140888412Y-60467731D01*
X140714359Y-60701080D01*
X140589175Y-60963901D01*
X140544524Y-61111110D01*
X140665845Y-61341000D01*
X141859000Y-61341000D01*
X141859000Y-61321000D01*
X142113000Y-61321000D01*
X142113000Y-61341000D01*
X143306155Y-61341000D01*
X143427476Y-61111110D01*
X143382825Y-60963901D01*
X143257641Y-60701080D01*
X143083588Y-60467731D01*
X142999534Y-60391966D01*
X143080180Y-60367502D01*
X143190494Y-60308537D01*
X143287185Y-60229185D01*
X143366537Y-60132494D01*
X143425502Y-60022180D01*
X143461812Y-59902482D01*
X143474072Y-59778000D01*
X143474072Y-58078000D01*
X143461812Y-57953518D01*
X143425502Y-57833820D01*
X143366537Y-57723506D01*
X143287185Y-57626815D01*
X143190494Y-57547463D01*
X143080180Y-57488498D01*
X142960482Y-57452188D01*
X142836000Y-57439928D01*
X141136000Y-57439928D01*
X141011518Y-57452188D01*
X140891820Y-57488498D01*
X140781506Y-57547463D01*
X140684815Y-57626815D01*
X140605463Y-57723506D01*
X140546498Y-57833820D01*
X140510188Y-57953518D01*
X140497928Y-58078000D01*
X132033935Y-58078000D01*
X132023546Y-58043753D01*
X131952974Y-57911724D01*
X131881799Y-57824997D01*
X131858001Y-57795999D01*
X131829004Y-57772202D01*
X130441804Y-56385003D01*
X130418001Y-56355999D01*
X130302276Y-56261026D01*
X130266072Y-56241674D01*
X130266072Y-56046000D01*
X130253812Y-55921518D01*
X130217502Y-55801820D01*
X130158537Y-55691506D01*
X130079185Y-55594815D01*
X129982494Y-55515463D01*
X129872180Y-55456498D01*
X129752482Y-55420188D01*
X129628000Y-55407928D01*
X127928000Y-55407928D01*
X127803518Y-55420188D01*
X127683820Y-55456498D01*
X127573506Y-55515463D01*
X127476815Y-55594815D01*
X127397463Y-55691506D01*
X127338498Y-55801820D01*
X127302188Y-55921518D01*
X127289928Y-56046000D01*
X127289928Y-57746000D01*
X127302188Y-57870482D01*
X127338498Y-57990180D01*
X127397463Y-58100494D01*
X127476815Y-58197185D01*
X127573506Y-58276537D01*
X127683820Y-58335502D01*
X127756380Y-58357513D01*
X127624525Y-58489368D01*
X127462010Y-58732589D01*
X127350068Y-59002842D01*
X127293000Y-59289740D01*
X127293000Y-59582260D01*
X127350068Y-59869158D01*
X127462010Y-60139411D01*
X127510001Y-60211235D01*
X127510000Y-70416289D01*
X127466063Y-70460226D01*
X127352795Y-70629744D01*
X127274774Y-70818102D01*
X127235000Y-71018061D01*
X127235000Y-71221939D01*
X127274774Y-71421898D01*
X127352795Y-71610256D01*
X127466063Y-71779774D01*
X127610226Y-71923937D01*
X127779744Y-72037205D01*
X127968102Y-72115226D01*
X128168061Y-72155000D01*
X128371939Y-72155000D01*
X128571898Y-72115226D01*
X128760256Y-72037205D01*
X128929774Y-71923937D01*
X129073937Y-71779774D01*
X129187205Y-71610256D01*
X129265226Y-71421898D01*
X129305000Y-71221939D01*
X129305000Y-71018061D01*
X129265226Y-70818102D01*
X129187205Y-70629744D01*
X129073937Y-70460226D01*
X129030000Y-70416289D01*
X129030000Y-60899967D01*
X129211158Y-60863932D01*
X129481411Y-60751990D01*
X129724632Y-60589475D01*
X129931475Y-60382632D01*
X130093990Y-60139411D01*
X130205932Y-59869158D01*
X130263000Y-59582260D01*
X130263000Y-59289740D01*
X130205932Y-59002842D01*
X130093990Y-58732589D01*
X129931475Y-58489368D01*
X129799620Y-58357513D01*
X129872180Y-58335502D01*
X129982494Y-58276537D01*
X130079185Y-58197185D01*
X130090543Y-58183345D01*
X130558000Y-58650802D01*
X130558000Y-62729821D01*
X130371368Y-62854525D01*
X130164525Y-63061368D01*
X130002010Y-63304589D01*
X129890068Y-63574842D01*
X129833000Y-63861740D01*
X129833000Y-64154260D01*
X129890068Y-64441158D01*
X130002010Y-64711411D01*
X130164525Y-64954632D01*
X130371368Y-65161475D01*
X130558000Y-65286179D01*
X130558001Y-78849197D01*
X124457003Y-84950196D01*
X124427999Y-84973999D01*
X124389729Y-85020632D01*
X124333026Y-85089724D01*
X124313674Y-85125928D01*
X124118000Y-85125928D01*
X123993518Y-85138188D01*
X123873820Y-85174498D01*
X123763506Y-85233463D01*
X123666815Y-85312815D01*
X123587463Y-85409506D01*
X123528498Y-85519820D01*
X123492188Y-85639518D01*
X123479928Y-85764000D01*
X123479928Y-87464000D01*
X123492188Y-87588482D01*
X123528498Y-87708180D01*
X123587463Y-87818494D01*
X123666815Y-87915185D01*
X123680655Y-87926543D01*
X122705199Y-88902000D01*
X114868802Y-88902000D01*
X113430802Y-87464000D01*
X114843928Y-87464000D01*
X114856188Y-87588482D01*
X114892498Y-87708180D01*
X114951463Y-87818494D01*
X115030815Y-87915185D01*
X115127506Y-87994537D01*
X115237820Y-88053502D01*
X115357518Y-88089812D01*
X115482000Y-88102072D01*
X116046250Y-88099000D01*
X116205000Y-87940250D01*
X116205000Y-86741000D01*
X116459000Y-86741000D01*
X116459000Y-87940250D01*
X116617750Y-88099000D01*
X117182000Y-88102072D01*
X117306482Y-88089812D01*
X117426180Y-88053502D01*
X117536494Y-87994537D01*
X117633185Y-87915185D01*
X117712537Y-87818494D01*
X117771502Y-87708180D01*
X117807812Y-87588482D01*
X117820072Y-87464000D01*
X117817000Y-86899750D01*
X117658250Y-86741000D01*
X116459000Y-86741000D01*
X116205000Y-86741000D01*
X115005750Y-86741000D01*
X114847000Y-86899750D01*
X114843928Y-87464000D01*
X113430802Y-87464000D01*
X113282000Y-87315199D01*
X113282000Y-85764000D01*
X114843928Y-85764000D01*
X114847000Y-86328250D01*
X115005750Y-86487000D01*
X116205000Y-86487000D01*
X116205000Y-86467000D01*
X116459000Y-86467000D01*
X116459000Y-86487000D01*
X117658250Y-86487000D01*
X117817000Y-86328250D01*
X117820072Y-85764000D01*
X117807812Y-85639518D01*
X117771502Y-85519820D01*
X117712537Y-85409506D01*
X117633185Y-85312815D01*
X117536494Y-85233463D01*
X117426180Y-85174498D01*
X117353620Y-85152487D01*
X117485475Y-85020632D01*
X117647990Y-84777411D01*
X117759932Y-84507158D01*
X117817000Y-84220260D01*
X117817000Y-83927740D01*
X117773209Y-83707592D01*
X120653003Y-80827799D01*
X120682001Y-80804001D01*
X120776974Y-80688276D01*
X120847546Y-80556247D01*
X120891003Y-80412986D01*
X120902000Y-80301333D01*
X120902000Y-80301325D01*
X120905676Y-80264000D01*
X120902000Y-80226675D01*
X120902000Y-79951711D01*
X120945937Y-79907774D01*
X121059205Y-79738256D01*
X121137226Y-79549898D01*
X121177000Y-79349939D01*
X121177000Y-79146061D01*
X121137226Y-78946102D01*
X121059205Y-78757744D01*
X120945937Y-78588226D01*
X120801774Y-78444063D01*
X120632256Y-78330795D01*
X120443898Y-78252774D01*
X120243939Y-78213000D01*
X120040061Y-78213000D01*
X119840102Y-78252774D01*
X119651744Y-78330795D01*
X119482226Y-78444063D01*
X119338063Y-78588226D01*
X119224795Y-78757744D01*
X119146774Y-78946102D01*
X119107000Y-79146061D01*
X119107000Y-79349939D01*
X119146774Y-79549898D01*
X119224795Y-79738256D01*
X119338063Y-79907774D01*
X119380744Y-79950455D01*
X116698408Y-82632791D01*
X116478260Y-82589000D01*
X116185740Y-82589000D01*
X115898842Y-82646068D01*
X115628589Y-82758010D01*
X115385368Y-82920525D01*
X115178525Y-83127368D01*
X115016010Y-83370589D01*
X114904068Y-83640842D01*
X114847000Y-83927740D01*
X114847000Y-84220260D01*
X114904068Y-84507158D01*
X115016010Y-84777411D01*
X115178525Y-85020632D01*
X115310380Y-85152487D01*
X115237820Y-85174498D01*
X115127506Y-85233463D01*
X115030815Y-85312815D01*
X114951463Y-85409506D01*
X114892498Y-85519820D01*
X114856188Y-85639518D01*
X114843928Y-85764000D01*
X113282000Y-85764000D01*
X113282000Y-81729711D01*
X113325937Y-81685774D01*
X113439205Y-81516256D01*
X113517226Y-81327898D01*
X113557000Y-81127939D01*
X113557000Y-80924061D01*
X113517226Y-80724102D01*
X113439205Y-80535744D01*
X113325937Y-80366226D01*
X113181774Y-80222063D01*
X113012256Y-80108795D01*
X112823898Y-80030774D01*
X112623939Y-79991000D01*
X112420061Y-79991000D01*
X112220102Y-80030774D01*
X112031744Y-80108795D01*
X111862226Y-80222063D01*
X111718063Y-80366226D01*
X111604795Y-80535744D01*
X111526774Y-80724102D01*
X111487000Y-80924061D01*
X110363000Y-80924061D01*
X110363000Y-58596000D01*
X112811928Y-58596000D01*
X112811928Y-60296000D01*
X112824188Y-60420482D01*
X112860498Y-60540180D01*
X112919463Y-60650494D01*
X112998815Y-60747185D01*
X113095506Y-60826537D01*
X113205820Y-60885502D01*
X113325518Y-60921812D01*
X113450000Y-60934072D01*
X115150000Y-60934072D01*
X115274482Y-60921812D01*
X115394180Y-60885502D01*
X115504494Y-60826537D01*
X115601185Y-60747185D01*
X115680537Y-60650494D01*
X115739502Y-60540180D01*
X115775812Y-60420482D01*
X115788072Y-60296000D01*
X115788072Y-60206000D01*
X118907928Y-60206000D01*
X118907928Y-60296000D01*
X118920188Y-60420482D01*
X118956498Y-60540180D01*
X119015463Y-60650494D01*
X119094815Y-60747185D01*
X119191506Y-60826537D01*
X119301820Y-60885502D01*
X119421518Y-60921812D01*
X119546000Y-60934072D01*
X119636001Y-60934072D01*
X119636000Y-75123197D01*
X118557199Y-76202000D01*
X114749711Y-76202000D01*
X114705774Y-76158063D01*
X114536256Y-76044795D01*
X114347898Y-75966774D01*
X114147939Y-75927000D01*
X113944061Y-75927000D01*
X113744102Y-75966774D01*
X113555744Y-76044795D01*
X113386226Y-76158063D01*
X113242063Y-76302226D01*
X113128795Y-76471744D01*
X113050774Y-76660102D01*
X113011000Y-76860061D01*
X113011000Y-77063939D01*
X113050774Y-77263898D01*
X113128795Y-77452256D01*
X113242063Y-77621774D01*
X113386226Y-77765937D01*
X113555744Y-77879205D01*
X113744102Y-77957226D01*
X113944061Y-77997000D01*
X114147939Y-77997000D01*
X114347898Y-77957226D01*
X114536256Y-77879205D01*
X114705774Y-77765937D01*
X114749711Y-77722000D01*
X118834678Y-77722000D01*
X118872000Y-77725676D01*
X118909322Y-77722000D01*
X118909333Y-77722000D01*
X119020986Y-77711003D01*
X119164247Y-77667546D01*
X119296276Y-77596974D01*
X119412001Y-77502001D01*
X119435803Y-77472998D01*
X120907009Y-76001794D01*
X120936001Y-75978001D01*
X120959795Y-75949008D01*
X120959799Y-75949004D01*
X121030973Y-75862277D01*
X121030974Y-75862276D01*
X121101546Y-75730247D01*
X121145003Y-75586986D01*
X121156000Y-75475333D01*
X121156000Y-75475324D01*
X121159676Y-75438001D01*
X121156000Y-75400678D01*
X121156000Y-60934072D01*
X121246000Y-60934072D01*
X121370482Y-60921812D01*
X121490180Y-60885502D01*
X121600494Y-60826537D01*
X121697185Y-60747185D01*
X121776537Y-60650494D01*
X121835502Y-60540180D01*
X121871812Y-60420482D01*
X121884072Y-60296000D01*
X121884072Y-58596000D01*
X121871812Y-58471518D01*
X121835502Y-58351820D01*
X121776537Y-58241506D01*
X121697185Y-58144815D01*
X121600494Y-58065463D01*
X121490180Y-58006498D01*
X121417620Y-57984487D01*
X121549475Y-57852632D01*
X121711990Y-57609411D01*
X121823932Y-57339158D01*
X121881000Y-57052260D01*
X121881000Y-56759740D01*
X121823932Y-56472842D01*
X121711990Y-56202589D01*
X121549475Y-55959368D01*
X121342632Y-55752525D01*
X121160466Y-55630805D01*
X121277355Y-55561178D01*
X121493588Y-55366269D01*
X121667641Y-55132920D01*
X121792825Y-54870099D01*
X121837476Y-54722890D01*
X121716155Y-54493000D01*
X120523000Y-54493000D01*
X120523000Y-54513000D01*
X120269000Y-54513000D01*
X120269000Y-54493000D01*
X119075845Y-54493000D01*
X118954524Y-54722890D01*
X118999175Y-54870099D01*
X119124359Y-55132920D01*
X119298412Y-55366269D01*
X119514645Y-55561178D01*
X119631534Y-55630805D01*
X119449368Y-55752525D01*
X119242525Y-55959368D01*
X119080010Y-56202589D01*
X118968068Y-56472842D01*
X118911000Y-56759740D01*
X118911000Y-57052260D01*
X118968068Y-57339158D01*
X119080010Y-57609411D01*
X119242525Y-57852632D01*
X119374380Y-57984487D01*
X119301820Y-58006498D01*
X119191506Y-58065463D01*
X119094815Y-58144815D01*
X119015463Y-58241506D01*
X118956498Y-58351820D01*
X118920188Y-58471518D01*
X118907928Y-58596000D01*
X118907928Y-58686000D01*
X115788072Y-58686000D01*
X115788072Y-58596000D01*
X115775812Y-58471518D01*
X115739502Y-58351820D01*
X115680537Y-58241506D01*
X115601185Y-58144815D01*
X115504494Y-58065463D01*
X115394180Y-58006498D01*
X115321620Y-57984487D01*
X115453475Y-57852632D01*
X115615990Y-57609411D01*
X115727932Y-57339158D01*
X115785000Y-57052260D01*
X115785000Y-56759740D01*
X115727932Y-56472842D01*
X115615990Y-56202589D01*
X115453475Y-55959368D01*
X115246632Y-55752525D01*
X115064466Y-55630805D01*
X115181355Y-55561178D01*
X115397588Y-55366269D01*
X115571641Y-55132920D01*
X115696825Y-54870099D01*
X115741476Y-54722890D01*
X115620155Y-54493000D01*
X114427000Y-54493000D01*
X114427000Y-54513000D01*
X114173000Y-54513000D01*
X114173000Y-54493000D01*
X112979845Y-54493000D01*
X112858524Y-54722890D01*
X112903175Y-54870099D01*
X113028359Y-55132920D01*
X113202412Y-55366269D01*
X113418645Y-55561178D01*
X113535534Y-55630805D01*
X113353368Y-55752525D01*
X113146525Y-55959368D01*
X112984010Y-56202589D01*
X112872068Y-56472842D01*
X112815000Y-56759740D01*
X112815000Y-57052260D01*
X112872068Y-57339158D01*
X112984010Y-57609411D01*
X113146525Y-57852632D01*
X113278380Y-57984487D01*
X113205820Y-58006498D01*
X113095506Y-58065463D01*
X112998815Y-58144815D01*
X112919463Y-58241506D01*
X112860498Y-58351820D01*
X112824188Y-58471518D01*
X112811928Y-58596000D01*
X110363000Y-58596000D01*
X110363000Y-54009110D01*
X112858524Y-54009110D01*
X112979845Y-54239000D01*
X114173000Y-54239000D01*
X114173000Y-53045186D01*
X114427000Y-53045186D01*
X114427000Y-54239000D01*
X115620155Y-54239000D01*
X115741476Y-54009110D01*
X118954524Y-54009110D01*
X119075845Y-54239000D01*
X120269000Y-54239000D01*
X120269000Y-53045186D01*
X120523000Y-53045186D01*
X120523000Y-54239000D01*
X121716155Y-54239000D01*
X121837476Y-54009110D01*
X121792825Y-53861901D01*
X121667641Y-53599080D01*
X121493588Y-53365731D01*
X121277355Y-53170822D01*
X121027252Y-53021843D01*
X120752891Y-52924519D01*
X120523000Y-53045186D01*
X120269000Y-53045186D01*
X120039109Y-52924519D01*
X119764748Y-53021843D01*
X119514645Y-53170822D01*
X119298412Y-53365731D01*
X119124359Y-53599080D01*
X118999175Y-53861901D01*
X118954524Y-54009110D01*
X115741476Y-54009110D01*
X115696825Y-53861901D01*
X115571641Y-53599080D01*
X115397588Y-53365731D01*
X115181355Y-53170822D01*
X114931252Y-53021843D01*
X114656891Y-52924519D01*
X114427000Y-53045186D01*
X114173000Y-53045186D01*
X113943109Y-52924519D01*
X113668748Y-53021843D01*
X113418645Y-53170822D01*
X113202412Y-53365731D01*
X113028359Y-53599080D01*
X112903175Y-53861901D01*
X112858524Y-54009110D01*
X110363000Y-54009110D01*
X110363000Y-49276328D01*
X110376769Y-49171743D01*
X110413923Y-49082045D01*
X110473024Y-49005024D01*
X110550045Y-48945923D01*
X110612629Y-48920000D01*
X146943371Y-48920000D01*
X147005955Y-48945923D01*
G04 #@! TA.AperFunction,Conductor*
D15*
G36*
X147005955Y-48945923D02*
G01*
X147082976Y-49005024D01*
X147142077Y-49082045D01*
X147168001Y-49144631D01*
X147168000Y-93603371D01*
X147142077Y-93665955D01*
X147082976Y-93742976D01*
X147005955Y-93802077D01*
X146943371Y-93828000D01*
X110612629Y-93828000D01*
X110550045Y-93802077D01*
X110473024Y-93742976D01*
X110413923Y-93665955D01*
X110376769Y-93576257D01*
X110363000Y-93471672D01*
X110363000Y-80924061D01*
X111487000Y-80924061D01*
X111487000Y-81127939D01*
X111526774Y-81327898D01*
X111604795Y-81516256D01*
X111718063Y-81685774D01*
X111762001Y-81729712D01*
X111762000Y-87592677D01*
X111758324Y-87630000D01*
X111762000Y-87667322D01*
X111762000Y-87667332D01*
X111772997Y-87778985D01*
X111784982Y-87818494D01*
X111816454Y-87922246D01*
X111887026Y-88054276D01*
X111926252Y-88102072D01*
X111981999Y-88170001D01*
X112011003Y-88193804D01*
X113990201Y-90173003D01*
X114013999Y-90202001D01*
X114042997Y-90225799D01*
X114129723Y-90296974D01*
X114261753Y-90367546D01*
X114405014Y-90411003D01*
X114516667Y-90422000D01*
X114516677Y-90422000D01*
X114554000Y-90425676D01*
X114591323Y-90422000D01*
X122982678Y-90422000D01*
X123020000Y-90425676D01*
X123057322Y-90422000D01*
X123057333Y-90422000D01*
X123168986Y-90411003D01*
X123312247Y-90367546D01*
X123444276Y-90296974D01*
X123560001Y-90202001D01*
X123583804Y-90172997D01*
X125479003Y-88277799D01*
X125508001Y-88254001D01*
X125576938Y-88170001D01*
X125602974Y-88138277D01*
X125622326Y-88102072D01*
X125818000Y-88102072D01*
X125942482Y-88089812D01*
X126062180Y-88053502D01*
X126172494Y-87994537D01*
X126269185Y-87915185D01*
X126348537Y-87818494D01*
X126407502Y-87708180D01*
X126429513Y-87635620D01*
X126561368Y-87767475D01*
X126804589Y-87929990D01*
X127074842Y-88041932D01*
X127361740Y-88099000D01*
X127654260Y-88099000D01*
X127941158Y-88041932D01*
X128211411Y-87929990D01*
X128454632Y-87767475D01*
X128661475Y-87560632D01*
X128783195Y-87378466D01*
X128852822Y-87495355D01*
X129047731Y-87711588D01*
X129281080Y-87885641D01*
X129543901Y-88010825D01*
X129691110Y-88055476D01*
X129921000Y-87934155D01*
X129921000Y-86741000D01*
X130175000Y-86741000D01*
X130175000Y-87934155D01*
X130404890Y-88055476D01*
X130552099Y-88010825D01*
X130814920Y-87885641D01*
X131048269Y-87711588D01*
X131243178Y-87495355D01*
X131392157Y-87245252D01*
X131489481Y-86970891D01*
X131368814Y-86741000D01*
X130175000Y-86741000D01*
X129921000Y-86741000D01*
X129901000Y-86741000D01*
X129901000Y-86487000D01*
X129921000Y-86487000D01*
X129921000Y-85293845D01*
X130175000Y-85293845D01*
X130175000Y-86487000D01*
X131368814Y-86487000D01*
X131489481Y-86257109D01*
X131392157Y-85982748D01*
X131243178Y-85732645D01*
X131048269Y-85516412D01*
X130814920Y-85342359D01*
X130552099Y-85217175D01*
X130404890Y-85172524D01*
X130175000Y-85293845D01*
X129921000Y-85293845D01*
X129691110Y-85172524D01*
X129543901Y-85217175D01*
X129281080Y-85342359D01*
X129047731Y-85516412D01*
X128852822Y-85732645D01*
X128783195Y-85849534D01*
X128661475Y-85667368D01*
X128454632Y-85460525D01*
X128211411Y-85298010D01*
X127941158Y-85186068D01*
X127654260Y-85129000D01*
X127361740Y-85129000D01*
X127074842Y-85186068D01*
X126804589Y-85298010D01*
X126561368Y-85460525D01*
X126429513Y-85592380D01*
X126407502Y-85519820D01*
X126348537Y-85409506D01*
X126269185Y-85312815D01*
X126255345Y-85301457D01*
X131829003Y-79727799D01*
X131858001Y-79704001D01*
X131884332Y-79671917D01*
X131952974Y-79588277D01*
X132023546Y-79456247D01*
X132067003Y-79312986D01*
X132078000Y-79201333D01*
X132078000Y-79201324D01*
X132081676Y-79164001D01*
X132078000Y-79126678D01*
X132078000Y-66954061D01*
X136633000Y-66954061D01*
X136633000Y-67157939D01*
X136672774Y-67357898D01*
X136750795Y-67546256D01*
X136864063Y-67715774D01*
X136908000Y-67759711D01*
X136908001Y-81592288D01*
X136864063Y-81636226D01*
X136750795Y-81805744D01*
X136672774Y-81994102D01*
X136633000Y-82194061D01*
X136633000Y-82397939D01*
X136672774Y-82597898D01*
X136750795Y-82786256D01*
X136864063Y-82955774D01*
X137008226Y-83099937D01*
X137177744Y-83213205D01*
X137366102Y-83291226D01*
X137566061Y-83331000D01*
X137769939Y-83331000D01*
X137969898Y-83291226D01*
X138158256Y-83213205D01*
X138327774Y-83099937D01*
X138471937Y-82955774D01*
X138585205Y-82786256D01*
X138663226Y-82597898D01*
X138703000Y-82397939D01*
X138703000Y-82194061D01*
X138663226Y-81994102D01*
X138585205Y-81805744D01*
X138471937Y-81636226D01*
X138428000Y-81592289D01*
X138428000Y-69254000D01*
X140497928Y-69254000D01*
X140497928Y-70954000D01*
X140510188Y-71078482D01*
X140546498Y-71198180D01*
X140605463Y-71308494D01*
X140684815Y-71405185D01*
X140781506Y-71484537D01*
X140891820Y-71543502D01*
X140964380Y-71565513D01*
X140832525Y-71697368D01*
X140670010Y-71940589D01*
X140558068Y-72210842D01*
X140501000Y-72497740D01*
X140501000Y-72790260D01*
X140558068Y-73077158D01*
X140670010Y-73347411D01*
X140832525Y-73590632D01*
X141039368Y-73797475D01*
X141213760Y-73914000D01*
X141039368Y-74030525D01*
X140832525Y-74237368D01*
X140670010Y-74480589D01*
X140558068Y-74750842D01*
X140501000Y-75037740D01*
X140501000Y-75330260D01*
X140558068Y-75617158D01*
X140670010Y-75887411D01*
X140832525Y-76130632D01*
X141039368Y-76337475D01*
X141213760Y-76454000D01*
X141039368Y-76570525D01*
X140832525Y-76777368D01*
X140670010Y-77020589D01*
X140558068Y-77290842D01*
X140501000Y-77577740D01*
X140501000Y-77870260D01*
X140558068Y-78157158D01*
X140670010Y-78427411D01*
X140832525Y-78670632D01*
X141039368Y-78877475D01*
X141213760Y-78994000D01*
X141039368Y-79110525D01*
X140832525Y-79317368D01*
X140670010Y-79560589D01*
X140558068Y-79830842D01*
X140501000Y-80117740D01*
X140501000Y-80410260D01*
X140558068Y-80697158D01*
X140670010Y-80967411D01*
X140832525Y-81210632D01*
X141039368Y-81417475D01*
X141282589Y-81579990D01*
X141552842Y-81691932D01*
X141839740Y-81749000D01*
X142132260Y-81749000D01*
X142419158Y-81691932D01*
X142689411Y-81579990D01*
X142932632Y-81417475D01*
X143139475Y-81210632D01*
X143301990Y-80967411D01*
X143413932Y-80697158D01*
X143471000Y-80410260D01*
X143471000Y-80117740D01*
X143413932Y-79830842D01*
X143301990Y-79560589D01*
X143139475Y-79317368D01*
X142932632Y-79110525D01*
X142758240Y-78994000D01*
X142932632Y-78877475D01*
X143139475Y-78670632D01*
X143301990Y-78427411D01*
X143413932Y-78157158D01*
X143471000Y-77870260D01*
X143471000Y-77577740D01*
X143413932Y-77290842D01*
X143301990Y-77020589D01*
X143139475Y-76777368D01*
X142932632Y-76570525D01*
X142758240Y-76454000D01*
X142932632Y-76337475D01*
X143139475Y-76130632D01*
X143301990Y-75887411D01*
X143413932Y-75617158D01*
X143471000Y-75330260D01*
X143471000Y-75037740D01*
X143413932Y-74750842D01*
X143301990Y-74480589D01*
X143139475Y-74237368D01*
X142932632Y-74030525D01*
X142758240Y-73914000D01*
X142932632Y-73797475D01*
X143139475Y-73590632D01*
X143301990Y-73347411D01*
X143413932Y-73077158D01*
X143471000Y-72790260D01*
X143471000Y-72497740D01*
X143413932Y-72210842D01*
X143301990Y-71940589D01*
X143139475Y-71697368D01*
X143007620Y-71565513D01*
X143080180Y-71543502D01*
X143190494Y-71484537D01*
X143287185Y-71405185D01*
X143366537Y-71308494D01*
X143425502Y-71198180D01*
X143461812Y-71078482D01*
X143474072Y-70954000D01*
X143474072Y-69254000D01*
X143461812Y-69129518D01*
X143425502Y-69009820D01*
X143366537Y-68899506D01*
X143287185Y-68802815D01*
X143190494Y-68723463D01*
X143080180Y-68664498D01*
X142960482Y-68628188D01*
X142836000Y-68615928D01*
X141136000Y-68615928D01*
X141011518Y-68628188D01*
X140891820Y-68664498D01*
X140781506Y-68723463D01*
X140684815Y-68802815D01*
X140605463Y-68899506D01*
X140546498Y-69009820D01*
X140510188Y-69129518D01*
X140497928Y-69254000D01*
X138428000Y-69254000D01*
X138428000Y-67759711D01*
X138471937Y-67715774D01*
X138585205Y-67546256D01*
X138663226Y-67357898D01*
X138703000Y-67157939D01*
X138703000Y-66954061D01*
X138663226Y-66754102D01*
X138585205Y-66565744D01*
X138471937Y-66396226D01*
X138327774Y-66252063D01*
X138158256Y-66138795D01*
X137969898Y-66060774D01*
X137769939Y-66021000D01*
X137566061Y-66021000D01*
X137366102Y-66060774D01*
X137177744Y-66138795D01*
X137008226Y-66252063D01*
X136864063Y-66396226D01*
X136750795Y-66565744D01*
X136672774Y-66754102D01*
X136633000Y-66954061D01*
X132078000Y-66954061D01*
X132078000Y-65286178D01*
X132264632Y-65161475D01*
X132396487Y-65029620D01*
X132418498Y-65102180D01*
X132477463Y-65212494D01*
X132556815Y-65309185D01*
X132653506Y-65388537D01*
X132763820Y-65447502D01*
X132883518Y-65483812D01*
X133008000Y-65496072D01*
X134708000Y-65496072D01*
X134832482Y-65483812D01*
X134952180Y-65447502D01*
X135062494Y-65388537D01*
X135159185Y-65309185D01*
X135238537Y-65212494D01*
X135297502Y-65102180D01*
X135333812Y-64982482D01*
X135346072Y-64858000D01*
X135346072Y-63158000D01*
X135333812Y-63033518D01*
X135297502Y-62913820D01*
X135238537Y-62803506D01*
X135159185Y-62706815D01*
X135062494Y-62627463D01*
X134952180Y-62568498D01*
X134832482Y-62532188D01*
X134708000Y-62519928D01*
X133008000Y-62519928D01*
X132883518Y-62532188D01*
X132763820Y-62568498D01*
X132653506Y-62627463D01*
X132556815Y-62706815D01*
X132477463Y-62803506D01*
X132418498Y-62913820D01*
X132396487Y-62986380D01*
X132264632Y-62854525D01*
X132078000Y-62729822D01*
X132078000Y-61824890D01*
X140544524Y-61824890D01*
X140589175Y-61972099D01*
X140714359Y-62234920D01*
X140888412Y-62468269D01*
X141104645Y-62663178D01*
X141354748Y-62812157D01*
X141629109Y-62909481D01*
X141859000Y-62788814D01*
X141859000Y-61595000D01*
X142113000Y-61595000D01*
X142113000Y-62788814D01*
X142342891Y-62909481D01*
X142617252Y-62812157D01*
X142867355Y-62663178D01*
X143083588Y-62468269D01*
X143257641Y-62234920D01*
X143382825Y-61972099D01*
X143427476Y-61824890D01*
X143306155Y-61595000D01*
X142113000Y-61595000D01*
X141859000Y-61595000D01*
X140665845Y-61595000D01*
X140544524Y-61824890D01*
X132078000Y-61824890D01*
X132078000Y-58373333D01*
X132081677Y-58336000D01*
X132067003Y-58187014D01*
X132033935Y-58078000D01*
X140497928Y-58078000D01*
X140497928Y-59778000D01*
X140510188Y-59902482D01*
X140546498Y-60022180D01*
X140605463Y-60132494D01*
X140684815Y-60229185D01*
X140781506Y-60308537D01*
X140891820Y-60367502D01*
X140972466Y-60391966D01*
X140888412Y-60467731D01*
X140714359Y-60701080D01*
X140589175Y-60963901D01*
X140544524Y-61111110D01*
X140665845Y-61341000D01*
X141859000Y-61341000D01*
X141859000Y-61321000D01*
X142113000Y-61321000D01*
X142113000Y-61341000D01*
X143306155Y-61341000D01*
X143427476Y-61111110D01*
X143382825Y-60963901D01*
X143257641Y-60701080D01*
X143083588Y-60467731D01*
X142999534Y-60391966D01*
X143080180Y-60367502D01*
X143190494Y-60308537D01*
X143287185Y-60229185D01*
X143366537Y-60132494D01*
X143425502Y-60022180D01*
X143461812Y-59902482D01*
X143474072Y-59778000D01*
X143474072Y-58078000D01*
X143461812Y-57953518D01*
X143425502Y-57833820D01*
X143366537Y-57723506D01*
X143287185Y-57626815D01*
X143190494Y-57547463D01*
X143080180Y-57488498D01*
X142960482Y-57452188D01*
X142836000Y-57439928D01*
X141136000Y-57439928D01*
X141011518Y-57452188D01*
X140891820Y-57488498D01*
X140781506Y-57547463D01*
X140684815Y-57626815D01*
X140605463Y-57723506D01*
X140546498Y-57833820D01*
X140510188Y-57953518D01*
X140497928Y-58078000D01*
X132033935Y-58078000D01*
X132023546Y-58043753D01*
X131952974Y-57911724D01*
X131881799Y-57824997D01*
X131858001Y-57795999D01*
X131829004Y-57772202D01*
X130441804Y-56385003D01*
X130418001Y-56355999D01*
X130302276Y-56261026D01*
X130266072Y-56241674D01*
X130266072Y-56046000D01*
X130253812Y-55921518D01*
X130217502Y-55801820D01*
X130158537Y-55691506D01*
X130079185Y-55594815D01*
X129982494Y-55515463D01*
X129872180Y-55456498D01*
X129752482Y-55420188D01*
X129628000Y-55407928D01*
X127928000Y-55407928D01*
X127803518Y-55420188D01*
X127683820Y-55456498D01*
X127573506Y-55515463D01*
X127476815Y-55594815D01*
X127397463Y-55691506D01*
X127338498Y-55801820D01*
X127302188Y-55921518D01*
X127289928Y-56046000D01*
X127289928Y-57746000D01*
X127302188Y-57870482D01*
X127338498Y-57990180D01*
X127397463Y-58100494D01*
X127476815Y-58197185D01*
X127573506Y-58276537D01*
X127683820Y-58335502D01*
X127756380Y-58357513D01*
X127624525Y-58489368D01*
X127462010Y-58732589D01*
X127350068Y-59002842D01*
X127293000Y-59289740D01*
X127293000Y-59582260D01*
X127350068Y-59869158D01*
X127462010Y-60139411D01*
X127510001Y-60211235D01*
X127510000Y-70416289D01*
X127466063Y-70460226D01*
X127352795Y-70629744D01*
X127274774Y-70818102D01*
X127235000Y-71018061D01*
X127235000Y-71221939D01*
X127274774Y-71421898D01*
X127352795Y-71610256D01*
X127466063Y-71779774D01*
X127610226Y-71923937D01*
X127779744Y-72037205D01*
X127968102Y-72115226D01*
X128168061Y-72155000D01*
X128371939Y-72155000D01*
X128571898Y-72115226D01*
X128760256Y-72037205D01*
X128929774Y-71923937D01*
X129073937Y-71779774D01*
X129187205Y-71610256D01*
X129265226Y-71421898D01*
X129305000Y-71221939D01*
X129305000Y-71018061D01*
X129265226Y-70818102D01*
X129187205Y-70629744D01*
X129073937Y-70460226D01*
X129030000Y-70416289D01*
X129030000Y-60899967D01*
X129211158Y-60863932D01*
X129481411Y-60751990D01*
X129724632Y-60589475D01*
X129931475Y-60382632D01*
X130093990Y-60139411D01*
X130205932Y-59869158D01*
X130263000Y-59582260D01*
X130263000Y-59289740D01*
X130205932Y-59002842D01*
X130093990Y-58732589D01*
X129931475Y-58489368D01*
X129799620Y-58357513D01*
X129872180Y-58335502D01*
X129982494Y-58276537D01*
X130079185Y-58197185D01*
X130090543Y-58183345D01*
X130558000Y-58650802D01*
X130558000Y-62729821D01*
X130371368Y-62854525D01*
X130164525Y-63061368D01*
X130002010Y-63304589D01*
X129890068Y-63574842D01*
X129833000Y-63861740D01*
X129833000Y-64154260D01*
X129890068Y-64441158D01*
X130002010Y-64711411D01*
X130164525Y-64954632D01*
X130371368Y-65161475D01*
X130558000Y-65286179D01*
X130558001Y-78849197D01*
X124457003Y-84950196D01*
X124427999Y-84973999D01*
X124389729Y-85020632D01*
X124333026Y-85089724D01*
X124313674Y-85125928D01*
X124118000Y-85125928D01*
X123993518Y-85138188D01*
X123873820Y-85174498D01*
X123763506Y-85233463D01*
X123666815Y-85312815D01*
X123587463Y-85409506D01*
X123528498Y-85519820D01*
X123492188Y-85639518D01*
X123479928Y-85764000D01*
X123479928Y-87464000D01*
X123492188Y-87588482D01*
X123528498Y-87708180D01*
X123587463Y-87818494D01*
X123666815Y-87915185D01*
X123680655Y-87926543D01*
X122705199Y-88902000D01*
X114868802Y-88902000D01*
X113430802Y-87464000D01*
X114843928Y-87464000D01*
X114856188Y-87588482D01*
X114892498Y-87708180D01*
X114951463Y-87818494D01*
X115030815Y-87915185D01*
X115127506Y-87994537D01*
X115237820Y-88053502D01*
X115357518Y-88089812D01*
X115482000Y-88102072D01*
X116046250Y-88099000D01*
X116205000Y-87940250D01*
X116205000Y-86741000D01*
X116459000Y-86741000D01*
X116459000Y-87940250D01*
X116617750Y-88099000D01*
X117182000Y-88102072D01*
X117306482Y-88089812D01*
X117426180Y-88053502D01*
X117536494Y-87994537D01*
X117633185Y-87915185D01*
X117712537Y-87818494D01*
X117771502Y-87708180D01*
X117807812Y-87588482D01*
X117820072Y-87464000D01*
X117817000Y-86899750D01*
X117658250Y-86741000D01*
X116459000Y-86741000D01*
X116205000Y-86741000D01*
X115005750Y-86741000D01*
X114847000Y-86899750D01*
X114843928Y-87464000D01*
X113430802Y-87464000D01*
X113282000Y-87315199D01*
X113282000Y-85764000D01*
X114843928Y-85764000D01*
X114847000Y-86328250D01*
X115005750Y-86487000D01*
X116205000Y-86487000D01*
X116205000Y-86467000D01*
X116459000Y-86467000D01*
X116459000Y-86487000D01*
X117658250Y-86487000D01*
X117817000Y-86328250D01*
X117820072Y-85764000D01*
X117807812Y-85639518D01*
X117771502Y-85519820D01*
X117712537Y-85409506D01*
X117633185Y-85312815D01*
X117536494Y-85233463D01*
X117426180Y-85174498D01*
X117353620Y-85152487D01*
X117485475Y-85020632D01*
X117647990Y-84777411D01*
X117759932Y-84507158D01*
X117817000Y-84220260D01*
X117817000Y-83927740D01*
X117773209Y-83707592D01*
X120653003Y-80827799D01*
X120682001Y-80804001D01*
X120776974Y-80688276D01*
X120847546Y-80556247D01*
X120891003Y-80412986D01*
X120902000Y-80301333D01*
X120902000Y-80301325D01*
X120905676Y-80264000D01*
X120902000Y-80226675D01*
X120902000Y-79951711D01*
X120945937Y-79907774D01*
X121059205Y-79738256D01*
X121137226Y-79549898D01*
X121177000Y-79349939D01*
X121177000Y-79146061D01*
X121137226Y-78946102D01*
X121059205Y-78757744D01*
X120945937Y-78588226D01*
X120801774Y-78444063D01*
X120632256Y-78330795D01*
X120443898Y-78252774D01*
X120243939Y-78213000D01*
X120040061Y-78213000D01*
X119840102Y-78252774D01*
X119651744Y-78330795D01*
X119482226Y-78444063D01*
X119338063Y-78588226D01*
X119224795Y-78757744D01*
X119146774Y-78946102D01*
X119107000Y-79146061D01*
X119107000Y-79349939D01*
X119146774Y-79549898D01*
X119224795Y-79738256D01*
X119338063Y-79907774D01*
X119380744Y-79950455D01*
X116698408Y-82632791D01*
X116478260Y-82589000D01*
X116185740Y-82589000D01*
X115898842Y-82646068D01*
X115628589Y-82758010D01*
X115385368Y-82920525D01*
X115178525Y-83127368D01*
X115016010Y-83370589D01*
X114904068Y-83640842D01*
X114847000Y-83927740D01*
X114847000Y-84220260D01*
X114904068Y-84507158D01*
X115016010Y-84777411D01*
X115178525Y-85020632D01*
X115310380Y-85152487D01*
X115237820Y-85174498D01*
X115127506Y-85233463D01*
X115030815Y-85312815D01*
X114951463Y-85409506D01*
X114892498Y-85519820D01*
X114856188Y-85639518D01*
X114843928Y-85764000D01*
X113282000Y-85764000D01*
X113282000Y-81729711D01*
X113325937Y-81685774D01*
X113439205Y-81516256D01*
X113517226Y-81327898D01*
X113557000Y-81127939D01*
X113557000Y-80924061D01*
X113517226Y-80724102D01*
X113439205Y-80535744D01*
X113325937Y-80366226D01*
X113181774Y-80222063D01*
X113012256Y-80108795D01*
X112823898Y-80030774D01*
X112623939Y-79991000D01*
X112420061Y-79991000D01*
X112220102Y-80030774D01*
X112031744Y-80108795D01*
X111862226Y-80222063D01*
X111718063Y-80366226D01*
X111604795Y-80535744D01*
X111526774Y-80724102D01*
X111487000Y-80924061D01*
X110363000Y-80924061D01*
X110363000Y-58596000D01*
X112811928Y-58596000D01*
X112811928Y-60296000D01*
X112824188Y-60420482D01*
X112860498Y-60540180D01*
X112919463Y-60650494D01*
X112998815Y-60747185D01*
X113095506Y-60826537D01*
X113205820Y-60885502D01*
X113325518Y-60921812D01*
X113450000Y-60934072D01*
X115150000Y-60934072D01*
X115274482Y-60921812D01*
X115394180Y-60885502D01*
X115504494Y-60826537D01*
X115601185Y-60747185D01*
X115680537Y-60650494D01*
X115739502Y-60540180D01*
X115775812Y-60420482D01*
X115788072Y-60296000D01*
X115788072Y-60206000D01*
X118907928Y-60206000D01*
X118907928Y-60296000D01*
X118920188Y-60420482D01*
X118956498Y-60540180D01*
X119015463Y-60650494D01*
X119094815Y-60747185D01*
X119191506Y-60826537D01*
X119301820Y-60885502D01*
X119421518Y-60921812D01*
X119546000Y-60934072D01*
X119636001Y-60934072D01*
X119636000Y-75123197D01*
X118557199Y-76202000D01*
X114749711Y-76202000D01*
X114705774Y-76158063D01*
X114536256Y-76044795D01*
X114347898Y-75966774D01*
X114147939Y-75927000D01*
X113944061Y-75927000D01*
X113744102Y-75966774D01*
X113555744Y-76044795D01*
X113386226Y-76158063D01*
X113242063Y-76302226D01*
X113128795Y-76471744D01*
X113050774Y-76660102D01*
X113011000Y-76860061D01*
X113011000Y-77063939D01*
X113050774Y-77263898D01*
X113128795Y-77452256D01*
X113242063Y-77621774D01*
X113386226Y-77765937D01*
X113555744Y-77879205D01*
X113744102Y-77957226D01*
X113944061Y-77997000D01*
X114147939Y-77997000D01*
X114347898Y-77957226D01*
X114536256Y-77879205D01*
X114705774Y-77765937D01*
X114749711Y-77722000D01*
X118834678Y-77722000D01*
X118872000Y-77725676D01*
X118909322Y-77722000D01*
X118909333Y-77722000D01*
X119020986Y-77711003D01*
X119164247Y-77667546D01*
X119296276Y-77596974D01*
X119412001Y-77502001D01*
X119435803Y-77472998D01*
X120907009Y-76001794D01*
X120936001Y-75978001D01*
X120959795Y-75949008D01*
X120959799Y-75949004D01*
X121030973Y-75862277D01*
X121030974Y-75862276D01*
X121101546Y-75730247D01*
X121145003Y-75586986D01*
X121156000Y-75475333D01*
X121156000Y-75475324D01*
X121159676Y-75438001D01*
X121156000Y-75400678D01*
X121156000Y-60934072D01*
X121246000Y-60934072D01*
X121370482Y-60921812D01*
X121490180Y-60885502D01*
X121600494Y-60826537D01*
X121697185Y-60747185D01*
X121776537Y-60650494D01*
X121835502Y-60540180D01*
X121871812Y-60420482D01*
X121884072Y-60296000D01*
X121884072Y-58596000D01*
X121871812Y-58471518D01*
X121835502Y-58351820D01*
X121776537Y-58241506D01*
X121697185Y-58144815D01*
X121600494Y-58065463D01*
X121490180Y-58006498D01*
X121417620Y-57984487D01*
X121549475Y-57852632D01*
X121711990Y-57609411D01*
X121823932Y-57339158D01*
X121881000Y-57052260D01*
X121881000Y-56759740D01*
X121823932Y-56472842D01*
X121711990Y-56202589D01*
X121549475Y-55959368D01*
X121342632Y-55752525D01*
X121160466Y-55630805D01*
X121277355Y-55561178D01*
X121493588Y-55366269D01*
X121667641Y-55132920D01*
X121792825Y-54870099D01*
X121837476Y-54722890D01*
X121716155Y-54493000D01*
X120523000Y-54493000D01*
X120523000Y-54513000D01*
X120269000Y-54513000D01*
X120269000Y-54493000D01*
X119075845Y-54493000D01*
X118954524Y-54722890D01*
X118999175Y-54870099D01*
X119124359Y-55132920D01*
X119298412Y-55366269D01*
X119514645Y-55561178D01*
X119631534Y-55630805D01*
X119449368Y-55752525D01*
X119242525Y-55959368D01*
X119080010Y-56202589D01*
X118968068Y-56472842D01*
X118911000Y-56759740D01*
X118911000Y-57052260D01*
X118968068Y-57339158D01*
X119080010Y-57609411D01*
X119242525Y-57852632D01*
X119374380Y-57984487D01*
X119301820Y-58006498D01*
X119191506Y-58065463D01*
X119094815Y-58144815D01*
X119015463Y-58241506D01*
X118956498Y-58351820D01*
X118920188Y-58471518D01*
X118907928Y-58596000D01*
X118907928Y-58686000D01*
X115788072Y-58686000D01*
X115788072Y-58596000D01*
X115775812Y-58471518D01*
X115739502Y-58351820D01*
X115680537Y-58241506D01*
X115601185Y-58144815D01*
X115504494Y-58065463D01*
X115394180Y-58006498D01*
X115321620Y-57984487D01*
X115453475Y-57852632D01*
X115615990Y-57609411D01*
X115727932Y-57339158D01*
X115785000Y-57052260D01*
X115785000Y-56759740D01*
X115727932Y-56472842D01*
X115615990Y-56202589D01*
X115453475Y-55959368D01*
X115246632Y-55752525D01*
X115064466Y-55630805D01*
X115181355Y-55561178D01*
X115397588Y-55366269D01*
X115571641Y-55132920D01*
X115696825Y-54870099D01*
X115741476Y-54722890D01*
X115620155Y-54493000D01*
X114427000Y-54493000D01*
X114427000Y-54513000D01*
X114173000Y-54513000D01*
X114173000Y-54493000D01*
X112979845Y-54493000D01*
X112858524Y-54722890D01*
X112903175Y-54870099D01*
X113028359Y-55132920D01*
X113202412Y-55366269D01*
X113418645Y-55561178D01*
X113535534Y-55630805D01*
X113353368Y-55752525D01*
X113146525Y-55959368D01*
X112984010Y-56202589D01*
X112872068Y-56472842D01*
X112815000Y-56759740D01*
X112815000Y-57052260D01*
X112872068Y-57339158D01*
X112984010Y-57609411D01*
X113146525Y-57852632D01*
X113278380Y-57984487D01*
X113205820Y-58006498D01*
X113095506Y-58065463D01*
X112998815Y-58144815D01*
X112919463Y-58241506D01*
X112860498Y-58351820D01*
X112824188Y-58471518D01*
X112811928Y-58596000D01*
X110363000Y-58596000D01*
X110363000Y-54009110D01*
X112858524Y-54009110D01*
X112979845Y-54239000D01*
X114173000Y-54239000D01*
X114173000Y-53045186D01*
X114427000Y-53045186D01*
X114427000Y-54239000D01*
X115620155Y-54239000D01*
X115741476Y-54009110D01*
X118954524Y-54009110D01*
X119075845Y-54239000D01*
X120269000Y-54239000D01*
X120269000Y-53045186D01*
X120523000Y-53045186D01*
X120523000Y-54239000D01*
X121716155Y-54239000D01*
X121837476Y-54009110D01*
X121792825Y-53861901D01*
X121667641Y-53599080D01*
X121493588Y-53365731D01*
X121277355Y-53170822D01*
X121027252Y-53021843D01*
X120752891Y-52924519D01*
X120523000Y-53045186D01*
X120269000Y-53045186D01*
X120039109Y-52924519D01*
X119764748Y-53021843D01*
X119514645Y-53170822D01*
X119298412Y-53365731D01*
X119124359Y-53599080D01*
X118999175Y-53861901D01*
X118954524Y-54009110D01*
X115741476Y-54009110D01*
X115696825Y-53861901D01*
X115571641Y-53599080D01*
X115397588Y-53365731D01*
X115181355Y-53170822D01*
X114931252Y-53021843D01*
X114656891Y-52924519D01*
X114427000Y-53045186D01*
X114173000Y-53045186D01*
X113943109Y-52924519D01*
X113668748Y-53021843D01*
X113418645Y-53170822D01*
X113202412Y-53365731D01*
X113028359Y-53599080D01*
X112903175Y-53861901D01*
X112858524Y-54009110D01*
X110363000Y-54009110D01*
X110363000Y-49276328D01*
X110376769Y-49171743D01*
X110413923Y-49082045D01*
X110473024Y-49005024D01*
X110550045Y-48945923D01*
X110612629Y-48920000D01*
X146943371Y-48920000D01*
X147005955Y-48945923D01*
G37*
G04 #@! TD.AperFunction*
M02*
