M48
; DRILL file {KiCad (5.1.8)-1} date 02/17/21 15:43:32
; FORMAT={-:-/ absolute / inch / decimal}
; #@! TF.CreationDate,2021-02-17T15:43:32-07:00
; #@! TF.GenerationSoftware,Kicad,Pcbnew,(5.1.8)-1
; #@! TF.FileFunction,Plated,1,2,PTH
FMAT,2
INCH
T1C0.0157
T2C0.0394
%
G90
G05
T1
X4.43Y-3.19
X4.48Y-2.81
X4.49Y-3.03
X4.5Y-3.21
X4.54Y-2.87
X4.73Y-3.12
X4.8Y-3.24
X4.87Y-2.98
X4.92Y-2.85
X4.99Y-3.18
X5.05Y-2.8
X5.25Y-2.84
X5.42Y-2.64
X5.42Y-3.24
T2
X4.58Y-3.31
X4.58Y-3.41
X5.17Y-2.52
X5.27Y-2.52
X5.07Y-2.24
X5.07Y-2.34
X5.59Y-2.32
X5.59Y-2.42
X4.5Y-2.1404
X4.5Y-2.2404
X4.5Y-2.3404
X5.59Y-2.76
X5.59Y-2.86
X5.59Y-2.96
X5.59Y-3.06
X5.59Y-3.16
X4.74Y-2.1404
X4.74Y-2.2404
X4.74Y-2.3404
X4.92Y-3.41
X5.02Y-3.41
X5.12Y-3.41
T0
M30
