G04 #@! TF.GenerationSoftware,KiCad,Pcbnew,(5.1.5)-2*
G04 #@! TF.CreationDate,2020-04-02T22:08:23-06:00*
G04 #@! TF.ProjectId,AS3935,41533339-3335-42e6-9b69-6361645f7063,rev?*
G04 #@! TF.SameCoordinates,Original*
G04 #@! TF.FileFunction,Copper,L1,Top*
G04 #@! TF.FilePolarity,Positive*
%FSLAX46Y46*%
G04 Gerber Fmt 4.6, Leading zero omitted, Abs format (unit mm)*
G04 Created by KiCad (PCBNEW (5.1.5)-2) date 2020-04-02 22:08:23*
%MOMM*%
%LPD*%
G04 APERTURE LIST*
%ADD10C,0.100000*%
%ADD11R,0.900000X0.800000*%
%ADD12O,1.700000X1.700000*%
%ADD13R,1.700000X1.700000*%
%ADD14R,2.800000X2.800000*%
%ADD15R,0.350000X0.800000*%
%ADD16R,0.800000X0.350000*%
%ADD17R,3.200000X1.300000*%
%ADD18C,0.800000*%
%ADD19C,0.250000*%
%ADD20C,0.254000*%
G04 APERTURE END LIST*
G04 #@! TA.AperFunction,SMDPad,CuDef*
D10*
G36*
X125245691Y-78583053D02*
G01*
X125266926Y-78586203D01*
X125287750Y-78591419D01*
X125307962Y-78598651D01*
X125327368Y-78607830D01*
X125345781Y-78618866D01*
X125363024Y-78631654D01*
X125378930Y-78646070D01*
X125393346Y-78661976D01*
X125406134Y-78679219D01*
X125417170Y-78697632D01*
X125426349Y-78717038D01*
X125433581Y-78737250D01*
X125438797Y-78758074D01*
X125441947Y-78779309D01*
X125443000Y-78800750D01*
X125443000Y-79238250D01*
X125441947Y-79259691D01*
X125438797Y-79280926D01*
X125433581Y-79301750D01*
X125426349Y-79321962D01*
X125417170Y-79341368D01*
X125406134Y-79359781D01*
X125393346Y-79377024D01*
X125378930Y-79392930D01*
X125363024Y-79407346D01*
X125345781Y-79420134D01*
X125327368Y-79431170D01*
X125307962Y-79440349D01*
X125287750Y-79447581D01*
X125266926Y-79452797D01*
X125245691Y-79455947D01*
X125224250Y-79457000D01*
X124711750Y-79457000D01*
X124690309Y-79455947D01*
X124669074Y-79452797D01*
X124648250Y-79447581D01*
X124628038Y-79440349D01*
X124608632Y-79431170D01*
X124590219Y-79420134D01*
X124572976Y-79407346D01*
X124557070Y-79392930D01*
X124542654Y-79377024D01*
X124529866Y-79359781D01*
X124518830Y-79341368D01*
X124509651Y-79321962D01*
X124502419Y-79301750D01*
X124497203Y-79280926D01*
X124494053Y-79259691D01*
X124493000Y-79238250D01*
X124493000Y-78800750D01*
X124494053Y-78779309D01*
X124497203Y-78758074D01*
X124502419Y-78737250D01*
X124509651Y-78717038D01*
X124518830Y-78697632D01*
X124529866Y-78679219D01*
X124542654Y-78661976D01*
X124557070Y-78646070D01*
X124572976Y-78631654D01*
X124590219Y-78618866D01*
X124608632Y-78607830D01*
X124628038Y-78598651D01*
X124648250Y-78591419D01*
X124669074Y-78586203D01*
X124690309Y-78583053D01*
X124711750Y-78582000D01*
X125224250Y-78582000D01*
X125245691Y-78583053D01*
G37*
G04 #@! TD.AperFunction*
G04 #@! TA.AperFunction,SMDPad,CuDef*
G36*
X125245691Y-77008053D02*
G01*
X125266926Y-77011203D01*
X125287750Y-77016419D01*
X125307962Y-77023651D01*
X125327368Y-77032830D01*
X125345781Y-77043866D01*
X125363024Y-77056654D01*
X125378930Y-77071070D01*
X125393346Y-77086976D01*
X125406134Y-77104219D01*
X125417170Y-77122632D01*
X125426349Y-77142038D01*
X125433581Y-77162250D01*
X125438797Y-77183074D01*
X125441947Y-77204309D01*
X125443000Y-77225750D01*
X125443000Y-77663250D01*
X125441947Y-77684691D01*
X125438797Y-77705926D01*
X125433581Y-77726750D01*
X125426349Y-77746962D01*
X125417170Y-77766368D01*
X125406134Y-77784781D01*
X125393346Y-77802024D01*
X125378930Y-77817930D01*
X125363024Y-77832346D01*
X125345781Y-77845134D01*
X125327368Y-77856170D01*
X125307962Y-77865349D01*
X125287750Y-77872581D01*
X125266926Y-77877797D01*
X125245691Y-77880947D01*
X125224250Y-77882000D01*
X124711750Y-77882000D01*
X124690309Y-77880947D01*
X124669074Y-77877797D01*
X124648250Y-77872581D01*
X124628038Y-77865349D01*
X124608632Y-77856170D01*
X124590219Y-77845134D01*
X124572976Y-77832346D01*
X124557070Y-77817930D01*
X124542654Y-77802024D01*
X124529866Y-77784781D01*
X124518830Y-77766368D01*
X124509651Y-77746962D01*
X124502419Y-77726750D01*
X124497203Y-77705926D01*
X124494053Y-77684691D01*
X124493000Y-77663250D01*
X124493000Y-77225750D01*
X124494053Y-77204309D01*
X124497203Y-77183074D01*
X124502419Y-77162250D01*
X124509651Y-77142038D01*
X124518830Y-77122632D01*
X124529866Y-77104219D01*
X124542654Y-77086976D01*
X124557070Y-77071070D01*
X124572976Y-77056654D01*
X124590219Y-77043866D01*
X124608632Y-77032830D01*
X124628038Y-77023651D01*
X124648250Y-77016419D01*
X124669074Y-77011203D01*
X124690309Y-77008053D01*
X124711750Y-77007000D01*
X125224250Y-77007000D01*
X125245691Y-77008053D01*
G37*
G04 #@! TD.AperFunction*
G04 #@! TA.AperFunction,SMDPad,CuDef*
G36*
X136130191Y-66582053D02*
G01*
X136151426Y-66585203D01*
X136172250Y-66590419D01*
X136192462Y-66597651D01*
X136211868Y-66606830D01*
X136230281Y-66617866D01*
X136247524Y-66630654D01*
X136263430Y-66645070D01*
X136277846Y-66660976D01*
X136290634Y-66678219D01*
X136301670Y-66696632D01*
X136310849Y-66716038D01*
X136318081Y-66736250D01*
X136323297Y-66757074D01*
X136326447Y-66778309D01*
X136327500Y-66799750D01*
X136327500Y-67312250D01*
X136326447Y-67333691D01*
X136323297Y-67354926D01*
X136318081Y-67375750D01*
X136310849Y-67395962D01*
X136301670Y-67415368D01*
X136290634Y-67433781D01*
X136277846Y-67451024D01*
X136263430Y-67466930D01*
X136247524Y-67481346D01*
X136230281Y-67494134D01*
X136211868Y-67505170D01*
X136192462Y-67514349D01*
X136172250Y-67521581D01*
X136151426Y-67526797D01*
X136130191Y-67529947D01*
X136108750Y-67531000D01*
X135671250Y-67531000D01*
X135649809Y-67529947D01*
X135628574Y-67526797D01*
X135607750Y-67521581D01*
X135587538Y-67514349D01*
X135568132Y-67505170D01*
X135549719Y-67494134D01*
X135532476Y-67481346D01*
X135516570Y-67466930D01*
X135502154Y-67451024D01*
X135489366Y-67433781D01*
X135478330Y-67415368D01*
X135469151Y-67395962D01*
X135461919Y-67375750D01*
X135456703Y-67354926D01*
X135453553Y-67333691D01*
X135452500Y-67312250D01*
X135452500Y-66799750D01*
X135453553Y-66778309D01*
X135456703Y-66757074D01*
X135461919Y-66736250D01*
X135469151Y-66716038D01*
X135478330Y-66696632D01*
X135489366Y-66678219D01*
X135502154Y-66660976D01*
X135516570Y-66645070D01*
X135532476Y-66630654D01*
X135549719Y-66617866D01*
X135568132Y-66606830D01*
X135587538Y-66597651D01*
X135607750Y-66590419D01*
X135628574Y-66585203D01*
X135649809Y-66582053D01*
X135671250Y-66581000D01*
X136108750Y-66581000D01*
X136130191Y-66582053D01*
G37*
G04 #@! TD.AperFunction*
G04 #@! TA.AperFunction,SMDPad,CuDef*
G36*
X134555191Y-66582053D02*
G01*
X134576426Y-66585203D01*
X134597250Y-66590419D01*
X134617462Y-66597651D01*
X134636868Y-66606830D01*
X134655281Y-66617866D01*
X134672524Y-66630654D01*
X134688430Y-66645070D01*
X134702846Y-66660976D01*
X134715634Y-66678219D01*
X134726670Y-66696632D01*
X134735849Y-66716038D01*
X134743081Y-66736250D01*
X134748297Y-66757074D01*
X134751447Y-66778309D01*
X134752500Y-66799750D01*
X134752500Y-67312250D01*
X134751447Y-67333691D01*
X134748297Y-67354926D01*
X134743081Y-67375750D01*
X134735849Y-67395962D01*
X134726670Y-67415368D01*
X134715634Y-67433781D01*
X134702846Y-67451024D01*
X134688430Y-67466930D01*
X134672524Y-67481346D01*
X134655281Y-67494134D01*
X134636868Y-67505170D01*
X134617462Y-67514349D01*
X134597250Y-67521581D01*
X134576426Y-67526797D01*
X134555191Y-67529947D01*
X134533750Y-67531000D01*
X134096250Y-67531000D01*
X134074809Y-67529947D01*
X134053574Y-67526797D01*
X134032750Y-67521581D01*
X134012538Y-67514349D01*
X133993132Y-67505170D01*
X133974719Y-67494134D01*
X133957476Y-67481346D01*
X133941570Y-67466930D01*
X133927154Y-67451024D01*
X133914366Y-67433781D01*
X133903330Y-67415368D01*
X133894151Y-67395962D01*
X133886919Y-67375750D01*
X133881703Y-67354926D01*
X133878553Y-67333691D01*
X133877500Y-67312250D01*
X133877500Y-66799750D01*
X133878553Y-66778309D01*
X133881703Y-66757074D01*
X133886919Y-66736250D01*
X133894151Y-66716038D01*
X133903330Y-66696632D01*
X133914366Y-66678219D01*
X133927154Y-66660976D01*
X133941570Y-66645070D01*
X133957476Y-66630654D01*
X133974719Y-66617866D01*
X133993132Y-66606830D01*
X134012538Y-66597651D01*
X134032750Y-66590419D01*
X134053574Y-66585203D01*
X134074809Y-66582053D01*
X134096250Y-66581000D01*
X134533750Y-66581000D01*
X134555191Y-66582053D01*
G37*
G04 #@! TD.AperFunction*
D11*
X129270000Y-78232000D03*
X127270000Y-79182000D03*
X127270000Y-77282000D03*
D12*
X131318000Y-64008000D03*
D13*
X133858000Y-64008000D03*
G04 #@! TA.AperFunction,SMDPad,CuDef*
D10*
G36*
X137797504Y-84187204D02*
G01*
X137821773Y-84190804D01*
X137845571Y-84196765D01*
X137868671Y-84205030D01*
X137890849Y-84215520D01*
X137911893Y-84228133D01*
X137931598Y-84242747D01*
X137949777Y-84259223D01*
X137966253Y-84277402D01*
X137980867Y-84297107D01*
X137993480Y-84318151D01*
X138003970Y-84340329D01*
X138012235Y-84363429D01*
X138018196Y-84387227D01*
X138021796Y-84411496D01*
X138023000Y-84436000D01*
X138023000Y-85236000D01*
X138021796Y-85260504D01*
X138018196Y-85284773D01*
X138012235Y-85308571D01*
X138003970Y-85331671D01*
X137993480Y-85353849D01*
X137980867Y-85374893D01*
X137966253Y-85394598D01*
X137949777Y-85412777D01*
X137931598Y-85429253D01*
X137911893Y-85443867D01*
X137890849Y-85456480D01*
X137868671Y-85466970D01*
X137845571Y-85475235D01*
X137821773Y-85481196D01*
X137797504Y-85484796D01*
X137773000Y-85486000D01*
X136948000Y-85486000D01*
X136923496Y-85484796D01*
X136899227Y-85481196D01*
X136875429Y-85475235D01*
X136852329Y-85466970D01*
X136830151Y-85456480D01*
X136809107Y-85443867D01*
X136789402Y-85429253D01*
X136771223Y-85412777D01*
X136754747Y-85394598D01*
X136740133Y-85374893D01*
X136727520Y-85353849D01*
X136717030Y-85331671D01*
X136708765Y-85308571D01*
X136702804Y-85284773D01*
X136699204Y-85260504D01*
X136698000Y-85236000D01*
X136698000Y-84436000D01*
X136699204Y-84411496D01*
X136702804Y-84387227D01*
X136708765Y-84363429D01*
X136717030Y-84340329D01*
X136727520Y-84318151D01*
X136740133Y-84297107D01*
X136754747Y-84277402D01*
X136771223Y-84259223D01*
X136789402Y-84242747D01*
X136809107Y-84228133D01*
X136830151Y-84215520D01*
X136852329Y-84205030D01*
X136875429Y-84196765D01*
X136899227Y-84190804D01*
X136923496Y-84187204D01*
X136948000Y-84186000D01*
X137773000Y-84186000D01*
X137797504Y-84187204D01*
G37*
G04 #@! TD.AperFunction*
G04 #@! TA.AperFunction,SMDPad,CuDef*
G36*
X135872504Y-84187204D02*
G01*
X135896773Y-84190804D01*
X135920571Y-84196765D01*
X135943671Y-84205030D01*
X135965849Y-84215520D01*
X135986893Y-84228133D01*
X136006598Y-84242747D01*
X136024777Y-84259223D01*
X136041253Y-84277402D01*
X136055867Y-84297107D01*
X136068480Y-84318151D01*
X136078970Y-84340329D01*
X136087235Y-84363429D01*
X136093196Y-84387227D01*
X136096796Y-84411496D01*
X136098000Y-84436000D01*
X136098000Y-85236000D01*
X136096796Y-85260504D01*
X136093196Y-85284773D01*
X136087235Y-85308571D01*
X136078970Y-85331671D01*
X136068480Y-85353849D01*
X136055867Y-85374893D01*
X136041253Y-85394598D01*
X136024777Y-85412777D01*
X136006598Y-85429253D01*
X135986893Y-85443867D01*
X135965849Y-85456480D01*
X135943671Y-85466970D01*
X135920571Y-85475235D01*
X135896773Y-85481196D01*
X135872504Y-85484796D01*
X135848000Y-85486000D01*
X135023000Y-85486000D01*
X134998496Y-85484796D01*
X134974227Y-85481196D01*
X134950429Y-85475235D01*
X134927329Y-85466970D01*
X134905151Y-85456480D01*
X134884107Y-85443867D01*
X134864402Y-85429253D01*
X134846223Y-85412777D01*
X134829747Y-85394598D01*
X134815133Y-85374893D01*
X134802520Y-85353849D01*
X134792030Y-85331671D01*
X134783765Y-85308571D01*
X134777804Y-85284773D01*
X134774204Y-85260504D01*
X134773000Y-85236000D01*
X134773000Y-84436000D01*
X134774204Y-84411496D01*
X134777804Y-84387227D01*
X134783765Y-84363429D01*
X134792030Y-84340329D01*
X134802520Y-84318151D01*
X134815133Y-84297107D01*
X134829747Y-84277402D01*
X134846223Y-84259223D01*
X134864402Y-84242747D01*
X134884107Y-84228133D01*
X134905151Y-84215520D01*
X134927329Y-84205030D01*
X134950429Y-84196765D01*
X134974227Y-84190804D01*
X134998496Y-84187204D01*
X135023000Y-84186000D01*
X135848000Y-84186000D01*
X135872504Y-84187204D01*
G37*
G04 #@! TD.AperFunction*
G04 #@! TA.AperFunction,SMDPad,CuDef*
G36*
X128547691Y-73757053D02*
G01*
X128568926Y-73760203D01*
X128589750Y-73765419D01*
X128609962Y-73772651D01*
X128629368Y-73781830D01*
X128647781Y-73792866D01*
X128665024Y-73805654D01*
X128680930Y-73820070D01*
X128695346Y-73835976D01*
X128708134Y-73853219D01*
X128719170Y-73871632D01*
X128728349Y-73891038D01*
X128735581Y-73911250D01*
X128740797Y-73932074D01*
X128743947Y-73953309D01*
X128745000Y-73974750D01*
X128745000Y-74412250D01*
X128743947Y-74433691D01*
X128740797Y-74454926D01*
X128735581Y-74475750D01*
X128728349Y-74495962D01*
X128719170Y-74515368D01*
X128708134Y-74533781D01*
X128695346Y-74551024D01*
X128680930Y-74566930D01*
X128665024Y-74581346D01*
X128647781Y-74594134D01*
X128629368Y-74605170D01*
X128609962Y-74614349D01*
X128589750Y-74621581D01*
X128568926Y-74626797D01*
X128547691Y-74629947D01*
X128526250Y-74631000D01*
X128013750Y-74631000D01*
X127992309Y-74629947D01*
X127971074Y-74626797D01*
X127950250Y-74621581D01*
X127930038Y-74614349D01*
X127910632Y-74605170D01*
X127892219Y-74594134D01*
X127874976Y-74581346D01*
X127859070Y-74566930D01*
X127844654Y-74551024D01*
X127831866Y-74533781D01*
X127820830Y-74515368D01*
X127811651Y-74495962D01*
X127804419Y-74475750D01*
X127799203Y-74454926D01*
X127796053Y-74433691D01*
X127795000Y-74412250D01*
X127795000Y-73974750D01*
X127796053Y-73953309D01*
X127799203Y-73932074D01*
X127804419Y-73911250D01*
X127811651Y-73891038D01*
X127820830Y-73871632D01*
X127831866Y-73853219D01*
X127844654Y-73835976D01*
X127859070Y-73820070D01*
X127874976Y-73805654D01*
X127892219Y-73792866D01*
X127910632Y-73781830D01*
X127930038Y-73772651D01*
X127950250Y-73765419D01*
X127971074Y-73760203D01*
X127992309Y-73757053D01*
X128013750Y-73756000D01*
X128526250Y-73756000D01*
X128547691Y-73757053D01*
G37*
G04 #@! TD.AperFunction*
G04 #@! TA.AperFunction,SMDPad,CuDef*
G36*
X128547691Y-72182053D02*
G01*
X128568926Y-72185203D01*
X128589750Y-72190419D01*
X128609962Y-72197651D01*
X128629368Y-72206830D01*
X128647781Y-72217866D01*
X128665024Y-72230654D01*
X128680930Y-72245070D01*
X128695346Y-72260976D01*
X128708134Y-72278219D01*
X128719170Y-72296632D01*
X128728349Y-72316038D01*
X128735581Y-72336250D01*
X128740797Y-72357074D01*
X128743947Y-72378309D01*
X128745000Y-72399750D01*
X128745000Y-72837250D01*
X128743947Y-72858691D01*
X128740797Y-72879926D01*
X128735581Y-72900750D01*
X128728349Y-72920962D01*
X128719170Y-72940368D01*
X128708134Y-72958781D01*
X128695346Y-72976024D01*
X128680930Y-72991930D01*
X128665024Y-73006346D01*
X128647781Y-73019134D01*
X128629368Y-73030170D01*
X128609962Y-73039349D01*
X128589750Y-73046581D01*
X128568926Y-73051797D01*
X128547691Y-73054947D01*
X128526250Y-73056000D01*
X128013750Y-73056000D01*
X127992309Y-73054947D01*
X127971074Y-73051797D01*
X127950250Y-73046581D01*
X127930038Y-73039349D01*
X127910632Y-73030170D01*
X127892219Y-73019134D01*
X127874976Y-73006346D01*
X127859070Y-72991930D01*
X127844654Y-72976024D01*
X127831866Y-72958781D01*
X127820830Y-72940368D01*
X127811651Y-72920962D01*
X127804419Y-72900750D01*
X127799203Y-72879926D01*
X127796053Y-72858691D01*
X127795000Y-72837250D01*
X127795000Y-72399750D01*
X127796053Y-72378309D01*
X127799203Y-72357074D01*
X127804419Y-72336250D01*
X127811651Y-72316038D01*
X127820830Y-72296632D01*
X127831866Y-72278219D01*
X127844654Y-72260976D01*
X127859070Y-72245070D01*
X127874976Y-72230654D01*
X127892219Y-72217866D01*
X127910632Y-72206830D01*
X127930038Y-72197651D01*
X127950250Y-72190419D01*
X127971074Y-72185203D01*
X127992309Y-72182053D01*
X128013750Y-72181000D01*
X128526250Y-72181000D01*
X128547691Y-72182053D01*
G37*
G04 #@! TD.AperFunction*
G04 #@! TA.AperFunction,SMDPad,CuDef*
G36*
X108735691Y-72233053D02*
G01*
X108756926Y-72236203D01*
X108777750Y-72241419D01*
X108797962Y-72248651D01*
X108817368Y-72257830D01*
X108835781Y-72268866D01*
X108853024Y-72281654D01*
X108868930Y-72296070D01*
X108883346Y-72311976D01*
X108896134Y-72329219D01*
X108907170Y-72347632D01*
X108916349Y-72367038D01*
X108923581Y-72387250D01*
X108928797Y-72408074D01*
X108931947Y-72429309D01*
X108933000Y-72450750D01*
X108933000Y-72888250D01*
X108931947Y-72909691D01*
X108928797Y-72930926D01*
X108923581Y-72951750D01*
X108916349Y-72971962D01*
X108907170Y-72991368D01*
X108896134Y-73009781D01*
X108883346Y-73027024D01*
X108868930Y-73042930D01*
X108853024Y-73057346D01*
X108835781Y-73070134D01*
X108817368Y-73081170D01*
X108797962Y-73090349D01*
X108777750Y-73097581D01*
X108756926Y-73102797D01*
X108735691Y-73105947D01*
X108714250Y-73107000D01*
X108201750Y-73107000D01*
X108180309Y-73105947D01*
X108159074Y-73102797D01*
X108138250Y-73097581D01*
X108118038Y-73090349D01*
X108098632Y-73081170D01*
X108080219Y-73070134D01*
X108062976Y-73057346D01*
X108047070Y-73042930D01*
X108032654Y-73027024D01*
X108019866Y-73009781D01*
X108008830Y-72991368D01*
X107999651Y-72971962D01*
X107992419Y-72951750D01*
X107987203Y-72930926D01*
X107984053Y-72909691D01*
X107983000Y-72888250D01*
X107983000Y-72450750D01*
X107984053Y-72429309D01*
X107987203Y-72408074D01*
X107992419Y-72387250D01*
X107999651Y-72367038D01*
X108008830Y-72347632D01*
X108019866Y-72329219D01*
X108032654Y-72311976D01*
X108047070Y-72296070D01*
X108062976Y-72281654D01*
X108080219Y-72268866D01*
X108098632Y-72257830D01*
X108118038Y-72248651D01*
X108138250Y-72241419D01*
X108159074Y-72236203D01*
X108180309Y-72233053D01*
X108201750Y-72232000D01*
X108714250Y-72232000D01*
X108735691Y-72233053D01*
G37*
G04 #@! TD.AperFunction*
G04 #@! TA.AperFunction,SMDPad,CuDef*
G36*
X108735691Y-70658053D02*
G01*
X108756926Y-70661203D01*
X108777750Y-70666419D01*
X108797962Y-70673651D01*
X108817368Y-70682830D01*
X108835781Y-70693866D01*
X108853024Y-70706654D01*
X108868930Y-70721070D01*
X108883346Y-70736976D01*
X108896134Y-70754219D01*
X108907170Y-70772632D01*
X108916349Y-70792038D01*
X108923581Y-70812250D01*
X108928797Y-70833074D01*
X108931947Y-70854309D01*
X108933000Y-70875750D01*
X108933000Y-71313250D01*
X108931947Y-71334691D01*
X108928797Y-71355926D01*
X108923581Y-71376750D01*
X108916349Y-71396962D01*
X108907170Y-71416368D01*
X108896134Y-71434781D01*
X108883346Y-71452024D01*
X108868930Y-71467930D01*
X108853024Y-71482346D01*
X108835781Y-71495134D01*
X108817368Y-71506170D01*
X108797962Y-71515349D01*
X108777750Y-71522581D01*
X108756926Y-71527797D01*
X108735691Y-71530947D01*
X108714250Y-71532000D01*
X108201750Y-71532000D01*
X108180309Y-71530947D01*
X108159074Y-71527797D01*
X108138250Y-71522581D01*
X108118038Y-71515349D01*
X108098632Y-71506170D01*
X108080219Y-71495134D01*
X108062976Y-71482346D01*
X108047070Y-71467930D01*
X108032654Y-71452024D01*
X108019866Y-71434781D01*
X108008830Y-71416368D01*
X107999651Y-71396962D01*
X107992419Y-71376750D01*
X107987203Y-71355926D01*
X107984053Y-71334691D01*
X107983000Y-71313250D01*
X107983000Y-70875750D01*
X107984053Y-70854309D01*
X107987203Y-70833074D01*
X107992419Y-70812250D01*
X107999651Y-70792038D01*
X108008830Y-70772632D01*
X108019866Y-70754219D01*
X108032654Y-70736976D01*
X108047070Y-70721070D01*
X108062976Y-70706654D01*
X108080219Y-70693866D01*
X108098632Y-70682830D01*
X108118038Y-70673651D01*
X108138250Y-70666419D01*
X108159074Y-70661203D01*
X108180309Y-70658053D01*
X108201750Y-70657000D01*
X108714250Y-70657000D01*
X108735691Y-70658053D01*
G37*
G04 #@! TD.AperFunction*
G04 #@! TA.AperFunction,SMDPad,CuDef*
G36*
X114323691Y-79599053D02*
G01*
X114344926Y-79602203D01*
X114365750Y-79607419D01*
X114385962Y-79614651D01*
X114405368Y-79623830D01*
X114423781Y-79634866D01*
X114441024Y-79647654D01*
X114456930Y-79662070D01*
X114471346Y-79677976D01*
X114484134Y-79695219D01*
X114495170Y-79713632D01*
X114504349Y-79733038D01*
X114511581Y-79753250D01*
X114516797Y-79774074D01*
X114519947Y-79795309D01*
X114521000Y-79816750D01*
X114521000Y-80254250D01*
X114519947Y-80275691D01*
X114516797Y-80296926D01*
X114511581Y-80317750D01*
X114504349Y-80337962D01*
X114495170Y-80357368D01*
X114484134Y-80375781D01*
X114471346Y-80393024D01*
X114456930Y-80408930D01*
X114441024Y-80423346D01*
X114423781Y-80436134D01*
X114405368Y-80447170D01*
X114385962Y-80456349D01*
X114365750Y-80463581D01*
X114344926Y-80468797D01*
X114323691Y-80471947D01*
X114302250Y-80473000D01*
X113789750Y-80473000D01*
X113768309Y-80471947D01*
X113747074Y-80468797D01*
X113726250Y-80463581D01*
X113706038Y-80456349D01*
X113686632Y-80447170D01*
X113668219Y-80436134D01*
X113650976Y-80423346D01*
X113635070Y-80408930D01*
X113620654Y-80393024D01*
X113607866Y-80375781D01*
X113596830Y-80357368D01*
X113587651Y-80337962D01*
X113580419Y-80317750D01*
X113575203Y-80296926D01*
X113572053Y-80275691D01*
X113571000Y-80254250D01*
X113571000Y-79816750D01*
X113572053Y-79795309D01*
X113575203Y-79774074D01*
X113580419Y-79753250D01*
X113587651Y-79733038D01*
X113596830Y-79713632D01*
X113607866Y-79695219D01*
X113620654Y-79677976D01*
X113635070Y-79662070D01*
X113650976Y-79647654D01*
X113668219Y-79634866D01*
X113686632Y-79623830D01*
X113706038Y-79614651D01*
X113726250Y-79607419D01*
X113747074Y-79602203D01*
X113768309Y-79599053D01*
X113789750Y-79598000D01*
X114302250Y-79598000D01*
X114323691Y-79599053D01*
G37*
G04 #@! TD.AperFunction*
G04 #@! TA.AperFunction,SMDPad,CuDef*
G36*
X114323691Y-78024053D02*
G01*
X114344926Y-78027203D01*
X114365750Y-78032419D01*
X114385962Y-78039651D01*
X114405368Y-78048830D01*
X114423781Y-78059866D01*
X114441024Y-78072654D01*
X114456930Y-78087070D01*
X114471346Y-78102976D01*
X114484134Y-78120219D01*
X114495170Y-78138632D01*
X114504349Y-78158038D01*
X114511581Y-78178250D01*
X114516797Y-78199074D01*
X114519947Y-78220309D01*
X114521000Y-78241750D01*
X114521000Y-78679250D01*
X114519947Y-78700691D01*
X114516797Y-78721926D01*
X114511581Y-78742750D01*
X114504349Y-78762962D01*
X114495170Y-78782368D01*
X114484134Y-78800781D01*
X114471346Y-78818024D01*
X114456930Y-78833930D01*
X114441024Y-78848346D01*
X114423781Y-78861134D01*
X114405368Y-78872170D01*
X114385962Y-78881349D01*
X114365750Y-78888581D01*
X114344926Y-78893797D01*
X114323691Y-78896947D01*
X114302250Y-78898000D01*
X113789750Y-78898000D01*
X113768309Y-78896947D01*
X113747074Y-78893797D01*
X113726250Y-78888581D01*
X113706038Y-78881349D01*
X113686632Y-78872170D01*
X113668219Y-78861134D01*
X113650976Y-78848346D01*
X113635070Y-78833930D01*
X113620654Y-78818024D01*
X113607866Y-78800781D01*
X113596830Y-78782368D01*
X113587651Y-78762962D01*
X113580419Y-78742750D01*
X113575203Y-78721926D01*
X113572053Y-78700691D01*
X113571000Y-78679250D01*
X113571000Y-78241750D01*
X113572053Y-78220309D01*
X113575203Y-78199074D01*
X113580419Y-78178250D01*
X113587651Y-78158038D01*
X113596830Y-78138632D01*
X113607866Y-78120219D01*
X113620654Y-78102976D01*
X113635070Y-78087070D01*
X113650976Y-78072654D01*
X113668219Y-78059866D01*
X113686632Y-78048830D01*
X113706038Y-78039651D01*
X113726250Y-78032419D01*
X113747074Y-78027203D01*
X113768309Y-78024053D01*
X113789750Y-78023000D01*
X114302250Y-78023000D01*
X114323691Y-78024053D01*
G37*
G04 #@! TD.AperFunction*
G04 #@! TA.AperFunction,SMDPad,CuDef*
G36*
X111021691Y-69159553D02*
G01*
X111042926Y-69162703D01*
X111063750Y-69167919D01*
X111083962Y-69175151D01*
X111103368Y-69184330D01*
X111121781Y-69195366D01*
X111139024Y-69208154D01*
X111154930Y-69222570D01*
X111169346Y-69238476D01*
X111182134Y-69255719D01*
X111193170Y-69274132D01*
X111202349Y-69293538D01*
X111209581Y-69313750D01*
X111214797Y-69334574D01*
X111217947Y-69355809D01*
X111219000Y-69377250D01*
X111219000Y-69814750D01*
X111217947Y-69836191D01*
X111214797Y-69857426D01*
X111209581Y-69878250D01*
X111202349Y-69898462D01*
X111193170Y-69917868D01*
X111182134Y-69936281D01*
X111169346Y-69953524D01*
X111154930Y-69969430D01*
X111139024Y-69983846D01*
X111121781Y-69996634D01*
X111103368Y-70007670D01*
X111083962Y-70016849D01*
X111063750Y-70024081D01*
X111042926Y-70029297D01*
X111021691Y-70032447D01*
X111000250Y-70033500D01*
X110487750Y-70033500D01*
X110466309Y-70032447D01*
X110445074Y-70029297D01*
X110424250Y-70024081D01*
X110404038Y-70016849D01*
X110384632Y-70007670D01*
X110366219Y-69996634D01*
X110348976Y-69983846D01*
X110333070Y-69969430D01*
X110318654Y-69953524D01*
X110305866Y-69936281D01*
X110294830Y-69917868D01*
X110285651Y-69898462D01*
X110278419Y-69878250D01*
X110273203Y-69857426D01*
X110270053Y-69836191D01*
X110269000Y-69814750D01*
X110269000Y-69377250D01*
X110270053Y-69355809D01*
X110273203Y-69334574D01*
X110278419Y-69313750D01*
X110285651Y-69293538D01*
X110294830Y-69274132D01*
X110305866Y-69255719D01*
X110318654Y-69238476D01*
X110333070Y-69222570D01*
X110348976Y-69208154D01*
X110366219Y-69195366D01*
X110384632Y-69184330D01*
X110404038Y-69175151D01*
X110424250Y-69167919D01*
X110445074Y-69162703D01*
X110466309Y-69159553D01*
X110487750Y-69158500D01*
X111000250Y-69158500D01*
X111021691Y-69159553D01*
G37*
G04 #@! TD.AperFunction*
G04 #@! TA.AperFunction,SMDPad,CuDef*
G36*
X111021691Y-70734553D02*
G01*
X111042926Y-70737703D01*
X111063750Y-70742919D01*
X111083962Y-70750151D01*
X111103368Y-70759330D01*
X111121781Y-70770366D01*
X111139024Y-70783154D01*
X111154930Y-70797570D01*
X111169346Y-70813476D01*
X111182134Y-70830719D01*
X111193170Y-70849132D01*
X111202349Y-70868538D01*
X111209581Y-70888750D01*
X111214797Y-70909574D01*
X111217947Y-70930809D01*
X111219000Y-70952250D01*
X111219000Y-71389750D01*
X111217947Y-71411191D01*
X111214797Y-71432426D01*
X111209581Y-71453250D01*
X111202349Y-71473462D01*
X111193170Y-71492868D01*
X111182134Y-71511281D01*
X111169346Y-71528524D01*
X111154930Y-71544430D01*
X111139024Y-71558846D01*
X111121781Y-71571634D01*
X111103368Y-71582670D01*
X111083962Y-71591849D01*
X111063750Y-71599081D01*
X111042926Y-71604297D01*
X111021691Y-71607447D01*
X111000250Y-71608500D01*
X110487750Y-71608500D01*
X110466309Y-71607447D01*
X110445074Y-71604297D01*
X110424250Y-71599081D01*
X110404038Y-71591849D01*
X110384632Y-71582670D01*
X110366219Y-71571634D01*
X110348976Y-71558846D01*
X110333070Y-71544430D01*
X110318654Y-71528524D01*
X110305866Y-71511281D01*
X110294830Y-71492868D01*
X110285651Y-71473462D01*
X110278419Y-71453250D01*
X110273203Y-71432426D01*
X110270053Y-71411191D01*
X110269000Y-71389750D01*
X110269000Y-70952250D01*
X110270053Y-70930809D01*
X110273203Y-70909574D01*
X110278419Y-70888750D01*
X110285651Y-70868538D01*
X110294830Y-70849132D01*
X110305866Y-70830719D01*
X110318654Y-70813476D01*
X110333070Y-70797570D01*
X110348976Y-70783154D01*
X110366219Y-70770366D01*
X110384632Y-70759330D01*
X110404038Y-70750151D01*
X110424250Y-70742919D01*
X110445074Y-70737703D01*
X110466309Y-70734553D01*
X110487750Y-70733500D01*
X111000250Y-70733500D01*
X111021691Y-70734553D01*
G37*
G04 #@! TD.AperFunction*
G04 #@! TA.AperFunction,SMDPad,CuDef*
G36*
X106576691Y-72233053D02*
G01*
X106597926Y-72236203D01*
X106618750Y-72241419D01*
X106638962Y-72248651D01*
X106658368Y-72257830D01*
X106676781Y-72268866D01*
X106694024Y-72281654D01*
X106709930Y-72296070D01*
X106724346Y-72311976D01*
X106737134Y-72329219D01*
X106748170Y-72347632D01*
X106757349Y-72367038D01*
X106764581Y-72387250D01*
X106769797Y-72408074D01*
X106772947Y-72429309D01*
X106774000Y-72450750D01*
X106774000Y-72888250D01*
X106772947Y-72909691D01*
X106769797Y-72930926D01*
X106764581Y-72951750D01*
X106757349Y-72971962D01*
X106748170Y-72991368D01*
X106737134Y-73009781D01*
X106724346Y-73027024D01*
X106709930Y-73042930D01*
X106694024Y-73057346D01*
X106676781Y-73070134D01*
X106658368Y-73081170D01*
X106638962Y-73090349D01*
X106618750Y-73097581D01*
X106597926Y-73102797D01*
X106576691Y-73105947D01*
X106555250Y-73107000D01*
X106042750Y-73107000D01*
X106021309Y-73105947D01*
X106000074Y-73102797D01*
X105979250Y-73097581D01*
X105959038Y-73090349D01*
X105939632Y-73081170D01*
X105921219Y-73070134D01*
X105903976Y-73057346D01*
X105888070Y-73042930D01*
X105873654Y-73027024D01*
X105860866Y-73009781D01*
X105849830Y-72991368D01*
X105840651Y-72971962D01*
X105833419Y-72951750D01*
X105828203Y-72930926D01*
X105825053Y-72909691D01*
X105824000Y-72888250D01*
X105824000Y-72450750D01*
X105825053Y-72429309D01*
X105828203Y-72408074D01*
X105833419Y-72387250D01*
X105840651Y-72367038D01*
X105849830Y-72347632D01*
X105860866Y-72329219D01*
X105873654Y-72311976D01*
X105888070Y-72296070D01*
X105903976Y-72281654D01*
X105921219Y-72268866D01*
X105939632Y-72257830D01*
X105959038Y-72248651D01*
X105979250Y-72241419D01*
X106000074Y-72236203D01*
X106021309Y-72233053D01*
X106042750Y-72232000D01*
X106555250Y-72232000D01*
X106576691Y-72233053D01*
G37*
G04 #@! TD.AperFunction*
G04 #@! TA.AperFunction,SMDPad,CuDef*
G36*
X106576691Y-70658053D02*
G01*
X106597926Y-70661203D01*
X106618750Y-70666419D01*
X106638962Y-70673651D01*
X106658368Y-70682830D01*
X106676781Y-70693866D01*
X106694024Y-70706654D01*
X106709930Y-70721070D01*
X106724346Y-70736976D01*
X106737134Y-70754219D01*
X106748170Y-70772632D01*
X106757349Y-70792038D01*
X106764581Y-70812250D01*
X106769797Y-70833074D01*
X106772947Y-70854309D01*
X106774000Y-70875750D01*
X106774000Y-71313250D01*
X106772947Y-71334691D01*
X106769797Y-71355926D01*
X106764581Y-71376750D01*
X106757349Y-71396962D01*
X106748170Y-71416368D01*
X106737134Y-71434781D01*
X106724346Y-71452024D01*
X106709930Y-71467930D01*
X106694024Y-71482346D01*
X106676781Y-71495134D01*
X106658368Y-71506170D01*
X106638962Y-71515349D01*
X106618750Y-71522581D01*
X106597926Y-71527797D01*
X106576691Y-71530947D01*
X106555250Y-71532000D01*
X106042750Y-71532000D01*
X106021309Y-71530947D01*
X106000074Y-71527797D01*
X105979250Y-71522581D01*
X105959038Y-71515349D01*
X105939632Y-71506170D01*
X105921219Y-71495134D01*
X105903976Y-71482346D01*
X105888070Y-71467930D01*
X105873654Y-71452024D01*
X105860866Y-71434781D01*
X105849830Y-71416368D01*
X105840651Y-71396962D01*
X105833419Y-71376750D01*
X105828203Y-71355926D01*
X105825053Y-71334691D01*
X105824000Y-71313250D01*
X105824000Y-70875750D01*
X105825053Y-70854309D01*
X105828203Y-70833074D01*
X105833419Y-70812250D01*
X105840651Y-70792038D01*
X105849830Y-70772632D01*
X105860866Y-70754219D01*
X105873654Y-70736976D01*
X105888070Y-70721070D01*
X105903976Y-70706654D01*
X105921219Y-70693866D01*
X105939632Y-70682830D01*
X105959038Y-70673651D01*
X105979250Y-70666419D01*
X106000074Y-70661203D01*
X106021309Y-70658053D01*
X106042750Y-70657000D01*
X106555250Y-70657000D01*
X106576691Y-70658053D01*
G37*
G04 #@! TD.AperFunction*
G04 #@! TA.AperFunction,SMDPad,CuDef*
G36*
X104417691Y-72233053D02*
G01*
X104438926Y-72236203D01*
X104459750Y-72241419D01*
X104479962Y-72248651D01*
X104499368Y-72257830D01*
X104517781Y-72268866D01*
X104535024Y-72281654D01*
X104550930Y-72296070D01*
X104565346Y-72311976D01*
X104578134Y-72329219D01*
X104589170Y-72347632D01*
X104598349Y-72367038D01*
X104605581Y-72387250D01*
X104610797Y-72408074D01*
X104613947Y-72429309D01*
X104615000Y-72450750D01*
X104615000Y-72888250D01*
X104613947Y-72909691D01*
X104610797Y-72930926D01*
X104605581Y-72951750D01*
X104598349Y-72971962D01*
X104589170Y-72991368D01*
X104578134Y-73009781D01*
X104565346Y-73027024D01*
X104550930Y-73042930D01*
X104535024Y-73057346D01*
X104517781Y-73070134D01*
X104499368Y-73081170D01*
X104479962Y-73090349D01*
X104459750Y-73097581D01*
X104438926Y-73102797D01*
X104417691Y-73105947D01*
X104396250Y-73107000D01*
X103883750Y-73107000D01*
X103862309Y-73105947D01*
X103841074Y-73102797D01*
X103820250Y-73097581D01*
X103800038Y-73090349D01*
X103780632Y-73081170D01*
X103762219Y-73070134D01*
X103744976Y-73057346D01*
X103729070Y-73042930D01*
X103714654Y-73027024D01*
X103701866Y-73009781D01*
X103690830Y-72991368D01*
X103681651Y-72971962D01*
X103674419Y-72951750D01*
X103669203Y-72930926D01*
X103666053Y-72909691D01*
X103665000Y-72888250D01*
X103665000Y-72450750D01*
X103666053Y-72429309D01*
X103669203Y-72408074D01*
X103674419Y-72387250D01*
X103681651Y-72367038D01*
X103690830Y-72347632D01*
X103701866Y-72329219D01*
X103714654Y-72311976D01*
X103729070Y-72296070D01*
X103744976Y-72281654D01*
X103762219Y-72268866D01*
X103780632Y-72257830D01*
X103800038Y-72248651D01*
X103820250Y-72241419D01*
X103841074Y-72236203D01*
X103862309Y-72233053D01*
X103883750Y-72232000D01*
X104396250Y-72232000D01*
X104417691Y-72233053D01*
G37*
G04 #@! TD.AperFunction*
G04 #@! TA.AperFunction,SMDPad,CuDef*
G36*
X104417691Y-70658053D02*
G01*
X104438926Y-70661203D01*
X104459750Y-70666419D01*
X104479962Y-70673651D01*
X104499368Y-70682830D01*
X104517781Y-70693866D01*
X104535024Y-70706654D01*
X104550930Y-70721070D01*
X104565346Y-70736976D01*
X104578134Y-70754219D01*
X104589170Y-70772632D01*
X104598349Y-70792038D01*
X104605581Y-70812250D01*
X104610797Y-70833074D01*
X104613947Y-70854309D01*
X104615000Y-70875750D01*
X104615000Y-71313250D01*
X104613947Y-71334691D01*
X104610797Y-71355926D01*
X104605581Y-71376750D01*
X104598349Y-71396962D01*
X104589170Y-71416368D01*
X104578134Y-71434781D01*
X104565346Y-71452024D01*
X104550930Y-71467930D01*
X104535024Y-71482346D01*
X104517781Y-71495134D01*
X104499368Y-71506170D01*
X104479962Y-71515349D01*
X104459750Y-71522581D01*
X104438926Y-71527797D01*
X104417691Y-71530947D01*
X104396250Y-71532000D01*
X103883750Y-71532000D01*
X103862309Y-71530947D01*
X103841074Y-71527797D01*
X103820250Y-71522581D01*
X103800038Y-71515349D01*
X103780632Y-71506170D01*
X103762219Y-71495134D01*
X103744976Y-71482346D01*
X103729070Y-71467930D01*
X103714654Y-71452024D01*
X103701866Y-71434781D01*
X103690830Y-71416368D01*
X103681651Y-71396962D01*
X103674419Y-71376750D01*
X103669203Y-71355926D01*
X103666053Y-71334691D01*
X103665000Y-71313250D01*
X103665000Y-70875750D01*
X103666053Y-70854309D01*
X103669203Y-70833074D01*
X103674419Y-70812250D01*
X103681651Y-70792038D01*
X103690830Y-70772632D01*
X103701866Y-70754219D01*
X103714654Y-70736976D01*
X103729070Y-70721070D01*
X103744976Y-70706654D01*
X103762219Y-70693866D01*
X103780632Y-70682830D01*
X103800038Y-70673651D01*
X103820250Y-70666419D01*
X103841074Y-70661203D01*
X103862309Y-70658053D01*
X103883750Y-70657000D01*
X104396250Y-70657000D01*
X104417691Y-70658053D01*
G37*
G04 #@! TD.AperFunction*
G04 #@! TA.AperFunction,SMDPad,CuDef*
G36*
X111695191Y-75472053D02*
G01*
X111716426Y-75475203D01*
X111737250Y-75480419D01*
X111757462Y-75487651D01*
X111776868Y-75496830D01*
X111795281Y-75507866D01*
X111812524Y-75520654D01*
X111828430Y-75535070D01*
X111842846Y-75550976D01*
X111855634Y-75568219D01*
X111866670Y-75586632D01*
X111875849Y-75606038D01*
X111883081Y-75626250D01*
X111888297Y-75647074D01*
X111891447Y-75668309D01*
X111892500Y-75689750D01*
X111892500Y-76202250D01*
X111891447Y-76223691D01*
X111888297Y-76244926D01*
X111883081Y-76265750D01*
X111875849Y-76285962D01*
X111866670Y-76305368D01*
X111855634Y-76323781D01*
X111842846Y-76341024D01*
X111828430Y-76356930D01*
X111812524Y-76371346D01*
X111795281Y-76384134D01*
X111776868Y-76395170D01*
X111757462Y-76404349D01*
X111737250Y-76411581D01*
X111716426Y-76416797D01*
X111695191Y-76419947D01*
X111673750Y-76421000D01*
X111236250Y-76421000D01*
X111214809Y-76419947D01*
X111193574Y-76416797D01*
X111172750Y-76411581D01*
X111152538Y-76404349D01*
X111133132Y-76395170D01*
X111114719Y-76384134D01*
X111097476Y-76371346D01*
X111081570Y-76356930D01*
X111067154Y-76341024D01*
X111054366Y-76323781D01*
X111043330Y-76305368D01*
X111034151Y-76285962D01*
X111026919Y-76265750D01*
X111021703Y-76244926D01*
X111018553Y-76223691D01*
X111017500Y-76202250D01*
X111017500Y-75689750D01*
X111018553Y-75668309D01*
X111021703Y-75647074D01*
X111026919Y-75626250D01*
X111034151Y-75606038D01*
X111043330Y-75586632D01*
X111054366Y-75568219D01*
X111067154Y-75550976D01*
X111081570Y-75535070D01*
X111097476Y-75520654D01*
X111114719Y-75507866D01*
X111133132Y-75496830D01*
X111152538Y-75487651D01*
X111172750Y-75480419D01*
X111193574Y-75475203D01*
X111214809Y-75472053D01*
X111236250Y-75471000D01*
X111673750Y-75471000D01*
X111695191Y-75472053D01*
G37*
G04 #@! TD.AperFunction*
G04 #@! TA.AperFunction,SMDPad,CuDef*
G36*
X113270191Y-75472053D02*
G01*
X113291426Y-75475203D01*
X113312250Y-75480419D01*
X113332462Y-75487651D01*
X113351868Y-75496830D01*
X113370281Y-75507866D01*
X113387524Y-75520654D01*
X113403430Y-75535070D01*
X113417846Y-75550976D01*
X113430634Y-75568219D01*
X113441670Y-75586632D01*
X113450849Y-75606038D01*
X113458081Y-75626250D01*
X113463297Y-75647074D01*
X113466447Y-75668309D01*
X113467500Y-75689750D01*
X113467500Y-76202250D01*
X113466447Y-76223691D01*
X113463297Y-76244926D01*
X113458081Y-76265750D01*
X113450849Y-76285962D01*
X113441670Y-76305368D01*
X113430634Y-76323781D01*
X113417846Y-76341024D01*
X113403430Y-76356930D01*
X113387524Y-76371346D01*
X113370281Y-76384134D01*
X113351868Y-76395170D01*
X113332462Y-76404349D01*
X113312250Y-76411581D01*
X113291426Y-76416797D01*
X113270191Y-76419947D01*
X113248750Y-76421000D01*
X112811250Y-76421000D01*
X112789809Y-76419947D01*
X112768574Y-76416797D01*
X112747750Y-76411581D01*
X112727538Y-76404349D01*
X112708132Y-76395170D01*
X112689719Y-76384134D01*
X112672476Y-76371346D01*
X112656570Y-76356930D01*
X112642154Y-76341024D01*
X112629366Y-76323781D01*
X112618330Y-76305368D01*
X112609151Y-76285962D01*
X112601919Y-76265750D01*
X112596703Y-76244926D01*
X112593553Y-76223691D01*
X112592500Y-76202250D01*
X112592500Y-75689750D01*
X112593553Y-75668309D01*
X112596703Y-75647074D01*
X112601919Y-75626250D01*
X112609151Y-75606038D01*
X112618330Y-75586632D01*
X112629366Y-75568219D01*
X112642154Y-75550976D01*
X112656570Y-75535070D01*
X112672476Y-75520654D01*
X112689719Y-75507866D01*
X112708132Y-75496830D01*
X112727538Y-75487651D01*
X112747750Y-75480419D01*
X112768574Y-75475203D01*
X112789809Y-75472053D01*
X112811250Y-75471000D01*
X113248750Y-75471000D01*
X113270191Y-75472053D01*
G37*
G04 #@! TD.AperFunction*
D12*
X141986000Y-80264000D03*
X141986000Y-77724000D03*
X141986000Y-75184000D03*
X141986000Y-72644000D03*
D13*
X141986000Y-70104000D03*
D12*
X128778000Y-59436000D03*
D13*
X128778000Y-56896000D03*
D12*
X130048000Y-86614000D03*
X127508000Y-86614000D03*
D13*
X124968000Y-86614000D03*
D12*
X116332000Y-84074000D03*
D13*
X116332000Y-86614000D03*
D12*
X120396000Y-54366000D03*
X120396000Y-56906000D03*
D13*
X120396000Y-59446000D03*
D12*
X114300000Y-54366000D03*
X114300000Y-56906000D03*
D13*
X114300000Y-59446000D03*
D12*
X141986000Y-61468000D03*
D13*
X141986000Y-58928000D03*
D14*
X114554000Y-72136000D03*
D15*
X113579000Y-70136000D03*
X114229000Y-70136000D03*
X114879000Y-70136000D03*
X115529000Y-70136000D03*
D16*
X116554000Y-71161000D03*
X116554000Y-71811000D03*
X116554000Y-72461000D03*
X116554000Y-73111000D03*
D15*
X115529000Y-74136000D03*
X114879000Y-74136000D03*
X114229000Y-74136000D03*
X113579000Y-74136000D03*
D16*
X112554000Y-73111000D03*
X112554000Y-72461000D03*
X112554000Y-71811000D03*
X112554000Y-71161000D03*
D17*
X99060000Y-67740000D03*
X99060000Y-77040000D03*
D18*
X126746000Y-80772000D03*
X114300000Y-81534000D03*
X115316000Y-72898000D03*
X113792000Y-71374000D03*
X133350000Y-72136000D03*
X123698000Y-75692000D03*
X121920000Y-82296000D03*
X124968000Y-72390000D03*
X112522000Y-81026000D03*
X120142000Y-79248000D03*
X128270000Y-71120000D03*
X114046000Y-76962000D03*
X137668000Y-67056000D03*
X137668000Y-82296000D03*
D19*
X99060000Y-67740000D02*
X100252000Y-67740000D01*
X114229000Y-71811000D02*
X114554000Y-72136000D01*
X112554000Y-71811000D02*
X114229000Y-71811000D01*
X113579000Y-73111000D02*
X114554000Y-72136000D01*
X112554000Y-73111000D02*
X113579000Y-73111000D01*
X141854000Y-61600000D02*
X141986000Y-61468000D01*
X111186000Y-71054000D02*
X110744000Y-71054000D01*
X111455000Y-75471000D02*
X111506000Y-75420000D01*
X111455000Y-75946000D02*
X111455000Y-75471000D01*
X111506000Y-75420000D02*
X111506000Y-73406000D01*
X111801000Y-73111000D02*
X112554000Y-73111000D01*
X111506000Y-73406000D02*
X111801000Y-73111000D01*
X114046000Y-81280000D02*
X114300000Y-81534000D01*
X114046000Y-80035500D02*
X114046000Y-81280000D01*
X99060000Y-67740000D02*
X99998000Y-67740000D01*
X103352500Y-71094500D02*
X104140000Y-71094500D01*
X99998000Y-67740000D02*
X103352500Y-71094500D01*
X104140000Y-71094500D02*
X106299000Y-71094500D01*
X106299000Y-71094500D02*
X108458000Y-71094500D01*
X110667500Y-71094500D02*
X110744000Y-71171000D01*
X108458000Y-71094500D02*
X110667500Y-71094500D01*
X111384000Y-71811000D02*
X112554000Y-71811000D01*
X110744000Y-71171000D02*
X111384000Y-71811000D01*
X127107500Y-79019500D02*
X127270000Y-79182000D01*
X124968000Y-79019500D02*
X127107500Y-79019500D01*
X127270000Y-80248000D02*
X126746000Y-80772000D01*
X127270000Y-79182000D02*
X127270000Y-80248000D01*
X99060000Y-77040000D02*
X99998000Y-77040000D01*
X100252000Y-77040000D02*
X99060000Y-77040000D01*
X100584000Y-76708000D02*
X100252000Y-77040000D01*
X108666500Y-72461000D02*
X108458000Y-72669500D01*
X108458000Y-72669500D02*
X106299000Y-72669500D01*
X106299000Y-72669500D02*
X104140000Y-72669500D01*
X99998000Y-76336500D02*
X103665000Y-72669500D01*
X103665000Y-72669500D02*
X104140000Y-72669500D01*
X99998000Y-77040000D02*
X99998000Y-76336500D01*
X108458000Y-72669500D02*
X110210500Y-72669500D01*
X110419000Y-72461000D02*
X112554000Y-72461000D01*
X110210500Y-72669500D02*
X110419000Y-72461000D01*
X141986000Y-57658000D02*
X141224000Y-56896000D01*
X141224000Y-56896000D02*
X139700000Y-56896000D01*
X141986000Y-58928000D02*
X141986000Y-57658000D01*
X140546000Y-56896000D02*
X139700000Y-56896000D01*
X139700000Y-56896000D02*
X128778000Y-56896000D01*
X113579000Y-75397000D02*
X113030000Y-75946000D01*
X113579000Y-74136000D02*
X113579000Y-75397000D01*
X113030000Y-75946000D02*
X113030000Y-77216000D01*
X113030000Y-77216000D02*
X112522000Y-77724000D01*
X112522000Y-77724000D02*
X112522000Y-81026000D01*
X114879000Y-74786000D02*
X117856000Y-77763000D01*
X114879000Y-74136000D02*
X114879000Y-74786000D01*
X117856000Y-77763000D02*
X117856000Y-81280000D01*
X123190000Y-86614000D02*
X124968000Y-86614000D01*
X117856000Y-81280000D02*
X123190000Y-86614000D01*
X112554000Y-70931000D02*
X112554000Y-71161000D01*
X111219000Y-69596000D02*
X112554000Y-70931000D01*
X110744000Y-69596000D02*
X111219000Y-69596000D01*
X113579000Y-70136000D02*
X113579000Y-65319000D01*
X113579000Y-65319000D02*
X111760000Y-63500000D01*
X111760000Y-63500000D02*
X111760000Y-57912000D01*
X112766000Y-56906000D02*
X114300000Y-56906000D01*
X111760000Y-57912000D02*
X112766000Y-56906000D01*
X114229000Y-69486000D02*
X114300000Y-69415000D01*
X114229000Y-70136000D02*
X114229000Y-69486000D01*
X114300000Y-69415000D02*
X114300000Y-64770000D01*
X114300000Y-64770000D02*
X118110000Y-60960000D01*
X118110000Y-60960000D02*
X118110000Y-57912000D01*
X119116000Y-56906000D02*
X120396000Y-56906000D01*
X118110000Y-57912000D02*
X119116000Y-56906000D01*
X115529000Y-69486000D02*
X115927000Y-69088000D01*
X115529000Y-70136000D02*
X115529000Y-69486000D01*
X139870000Y-69088000D02*
X140886000Y-70104000D01*
X140886000Y-70104000D02*
X141986000Y-70104000D01*
X115927000Y-69088000D02*
X139870000Y-69088000D01*
X116554000Y-71161000D02*
X123403000Y-71161000D01*
X123403000Y-71161000D02*
X124460000Y-70104000D01*
X124460000Y-70104000D02*
X136144000Y-70104000D01*
X138684000Y-72644000D02*
X141986000Y-72644000D01*
X136144000Y-70104000D02*
X138684000Y-72644000D01*
X116554000Y-71811000D02*
X120071000Y-71811000D01*
X122453500Y-74193500D02*
X128270000Y-74193500D01*
X120071000Y-71811000D02*
X122453500Y-74193500D01*
X128270000Y-74193500D02*
X136423500Y-74193500D01*
X137414000Y-75184000D02*
X141986000Y-75184000D01*
X136423500Y-74193500D02*
X137414000Y-75184000D01*
X123444000Y-81534000D02*
X127508000Y-85598000D01*
X123444000Y-80426000D02*
X123444000Y-81534000D01*
X116554000Y-73111000D02*
X116554000Y-73536000D01*
X127508000Y-85598000D02*
X127508000Y-86614000D01*
X116554000Y-73536000D02*
X123444000Y-80426000D01*
X117534081Y-84074000D02*
X122936000Y-89475919D01*
X116332000Y-84074000D02*
X117534081Y-84074000D01*
X122936000Y-89475919D02*
X137854081Y-89475919D01*
X137854081Y-89475919D02*
X144272000Y-83058000D01*
X144272000Y-83058000D02*
X144272000Y-80010000D01*
X144272000Y-80010000D02*
X141986000Y-77724000D01*
X115529000Y-74635000D02*
X115529000Y-74136000D01*
X120142000Y-79248000D02*
X115529000Y-74635000D01*
X128270000Y-72618500D02*
X128270000Y-71120000D01*
X114112000Y-76896000D02*
X114046000Y-76962000D01*
X114229000Y-76779000D02*
X114046000Y-76962000D01*
X114229000Y-74136000D02*
X114229000Y-76779000D01*
X114046000Y-76962000D02*
X114046000Y-78460500D01*
X135890000Y-67056000D02*
X137668000Y-67056000D01*
X137668000Y-67056000D02*
X137668000Y-67056000D01*
X137668000Y-84528500D02*
X137360500Y-84836000D01*
X137668000Y-82296000D02*
X137668000Y-84528500D01*
X135435500Y-84186000D02*
X135435500Y-84836000D01*
X135435500Y-83697500D02*
X135435500Y-84186000D01*
X129970000Y-78232000D02*
X135435500Y-83697500D01*
X129270000Y-78232000D02*
X129970000Y-78232000D01*
X117204000Y-72461000D02*
X122213000Y-77470000D01*
X116554000Y-72461000D02*
X117204000Y-72461000D01*
X122238500Y-77444500D02*
X125450500Y-77444500D01*
X122213000Y-77470000D02*
X122238500Y-77444500D01*
X125613000Y-77282000D02*
X127270000Y-77282000D01*
X125450500Y-77444500D02*
X125613000Y-77282000D01*
X127970000Y-77282000D02*
X128798000Y-76454000D01*
X127270000Y-77282000D02*
X127970000Y-77282000D01*
X128798000Y-76454000D02*
X134366000Y-76454000D01*
X138176000Y-80264000D02*
X141986000Y-80264000D01*
X134366000Y-76454000D02*
X138176000Y-80264000D01*
X133858000Y-64008000D02*
X133858000Y-65786000D01*
X134315000Y-66243000D02*
X134315000Y-67056000D01*
X133858000Y-65786000D02*
X134315000Y-66243000D01*
D20*
G36*
X147005955Y-48945923D02*
G01*
X147082976Y-49005024D01*
X147142077Y-49082045D01*
X147168001Y-49144631D01*
X147168000Y-93603371D01*
X147142077Y-93665955D01*
X147082976Y-93742976D01*
X147005955Y-93802077D01*
X146943371Y-93828000D01*
X110612629Y-93828000D01*
X110550045Y-93802077D01*
X110473024Y-93742976D01*
X110413923Y-93665955D01*
X110376769Y-93576257D01*
X110363000Y-93471672D01*
X110363000Y-87464000D01*
X114843928Y-87464000D01*
X114856188Y-87588482D01*
X114892498Y-87708180D01*
X114951463Y-87818494D01*
X115030815Y-87915185D01*
X115127506Y-87994537D01*
X115237820Y-88053502D01*
X115357518Y-88089812D01*
X115482000Y-88102072D01*
X116046250Y-88099000D01*
X116205000Y-87940250D01*
X116205000Y-86741000D01*
X116459000Y-86741000D01*
X116459000Y-87940250D01*
X116617750Y-88099000D01*
X117182000Y-88102072D01*
X117306482Y-88089812D01*
X117426180Y-88053502D01*
X117536494Y-87994537D01*
X117633185Y-87915185D01*
X117712537Y-87818494D01*
X117771502Y-87708180D01*
X117807812Y-87588482D01*
X117820072Y-87464000D01*
X117817000Y-86899750D01*
X117658250Y-86741000D01*
X116459000Y-86741000D01*
X116205000Y-86741000D01*
X115005750Y-86741000D01*
X114847000Y-86899750D01*
X114843928Y-87464000D01*
X110363000Y-87464000D01*
X110363000Y-76421000D01*
X110379428Y-76421000D01*
X110391688Y-76545482D01*
X110427998Y-76665180D01*
X110486963Y-76775494D01*
X110566315Y-76872185D01*
X110663006Y-76951537D01*
X110773320Y-77010502D01*
X110893018Y-77046812D01*
X111017500Y-77059072D01*
X111169250Y-77056000D01*
X111328000Y-76897250D01*
X111328000Y-76073000D01*
X110541250Y-76073000D01*
X110382500Y-76231750D01*
X110379428Y-76421000D01*
X110363000Y-76421000D01*
X110363000Y-75471000D01*
X110379428Y-75471000D01*
X110382500Y-75660250D01*
X110541250Y-75819000D01*
X111328000Y-75819000D01*
X111328000Y-74994750D01*
X111169250Y-74836000D01*
X111017500Y-74832928D01*
X110893018Y-74845188D01*
X110773320Y-74881498D01*
X110663006Y-74940463D01*
X110566315Y-75019815D01*
X110486963Y-75116506D01*
X110427998Y-75226820D01*
X110391688Y-75346518D01*
X110379428Y-75471000D01*
X110363000Y-75471000D01*
X110363000Y-73417437D01*
X110502747Y-73375046D01*
X110634776Y-73304474D01*
X110736489Y-73221000D01*
X111519000Y-73221000D01*
X111519000Y-73238002D01*
X111598748Y-73238002D01*
X111519000Y-73317750D01*
X111531095Y-73424294D01*
X111570044Y-73543160D01*
X111631434Y-73652143D01*
X111712906Y-73747055D01*
X111811328Y-73824249D01*
X111922920Y-73880759D01*
X112043392Y-73914412D01*
X112168114Y-73923916D01*
X112268250Y-73921000D01*
X112427000Y-73762250D01*
X112427000Y-73274072D01*
X112516650Y-73274072D01*
X112515928Y-73536000D01*
X112528188Y-73660482D01*
X112564498Y-73780180D01*
X112623463Y-73890494D01*
X112702815Y-73987185D01*
X112765928Y-74038980D01*
X112765928Y-74536000D01*
X112778188Y-74660482D01*
X112814498Y-74780180D01*
X112819001Y-74788603D01*
X112819001Y-74832928D01*
X112811250Y-74832928D01*
X112644092Y-74849392D01*
X112483358Y-74898150D01*
X112335225Y-74977329D01*
X112313570Y-74995100D01*
X112246994Y-74940463D01*
X112136680Y-74881498D01*
X112016982Y-74845188D01*
X111892500Y-74832928D01*
X111740750Y-74836000D01*
X111582000Y-74994750D01*
X111582000Y-75819000D01*
X111602000Y-75819000D01*
X111602000Y-76073000D01*
X111582000Y-76073000D01*
X111582000Y-76897250D01*
X111740750Y-77056000D01*
X111892500Y-77059072D01*
X112016982Y-77046812D01*
X112136680Y-77010502D01*
X112188275Y-76982923D01*
X112011002Y-77160197D01*
X111981999Y-77183999D01*
X111933991Y-77242498D01*
X111887026Y-77299724D01*
X111852142Y-77364987D01*
X111816454Y-77431754D01*
X111772997Y-77575015D01*
X111762000Y-77686668D01*
X111762000Y-77686678D01*
X111758324Y-77724000D01*
X111762000Y-77761323D01*
X111762001Y-80322288D01*
X111718063Y-80366226D01*
X111604795Y-80535744D01*
X111526774Y-80724102D01*
X111487000Y-80924061D01*
X111487000Y-81127939D01*
X111526774Y-81327898D01*
X111604795Y-81516256D01*
X111718063Y-81685774D01*
X111862226Y-81829937D01*
X112031744Y-81943205D01*
X112220102Y-82021226D01*
X112420061Y-82061000D01*
X112623939Y-82061000D01*
X112823898Y-82021226D01*
X113012256Y-81943205D01*
X113181774Y-81829937D01*
X113325937Y-81685774D01*
X113439205Y-81516256D01*
X113517226Y-81327898D01*
X113557000Y-81127939D01*
X113557000Y-81109693D01*
X113571000Y-81111072D01*
X113760250Y-81108000D01*
X113919000Y-80949250D01*
X113919000Y-80162500D01*
X114173000Y-80162500D01*
X114173000Y-80949250D01*
X114331750Y-81108000D01*
X114521000Y-81111072D01*
X114645482Y-81098812D01*
X114765180Y-81062502D01*
X114875494Y-81003537D01*
X114972185Y-80924185D01*
X115051537Y-80827494D01*
X115110502Y-80717180D01*
X115146812Y-80597482D01*
X115159072Y-80473000D01*
X115156000Y-80321250D01*
X114997250Y-80162500D01*
X114173000Y-80162500D01*
X113919000Y-80162500D01*
X113899000Y-80162500D01*
X113899000Y-79908500D01*
X113919000Y-79908500D01*
X113919000Y-79888500D01*
X114173000Y-79888500D01*
X114173000Y-79908500D01*
X114997250Y-79908500D01*
X115156000Y-79749750D01*
X115159072Y-79598000D01*
X115146812Y-79473518D01*
X115110502Y-79353820D01*
X115051537Y-79243506D01*
X114996900Y-79176930D01*
X115014671Y-79155275D01*
X115093850Y-79007142D01*
X115142608Y-78846408D01*
X115159072Y-78679250D01*
X115159072Y-78241750D01*
X115142608Y-78074592D01*
X115093850Y-77913858D01*
X115014671Y-77765725D01*
X114908115Y-77635885D01*
X114864451Y-77600052D01*
X114963205Y-77452256D01*
X115041226Y-77263898D01*
X115081000Y-77063939D01*
X115081000Y-76860061D01*
X115041226Y-76660102D01*
X114989000Y-76534018D01*
X114989000Y-75970801D01*
X117096000Y-78077802D01*
X117096001Y-81242668D01*
X117092324Y-81280000D01*
X117106998Y-81428985D01*
X117150454Y-81572246D01*
X117221026Y-81704276D01*
X117279071Y-81775003D01*
X117316000Y-81820001D01*
X117344998Y-81843799D01*
X122626201Y-87125003D01*
X122649999Y-87154001D01*
X122678997Y-87177799D01*
X122765723Y-87248974D01*
X122893759Y-87317411D01*
X122897753Y-87319546D01*
X123041014Y-87363003D01*
X123152667Y-87374000D01*
X123152676Y-87374000D01*
X123189999Y-87377676D01*
X123227322Y-87374000D01*
X123479928Y-87374000D01*
X123479928Y-87464000D01*
X123492188Y-87588482D01*
X123528498Y-87708180D01*
X123587463Y-87818494D01*
X123666815Y-87915185D01*
X123763506Y-87994537D01*
X123873820Y-88053502D01*
X123993518Y-88089812D01*
X124118000Y-88102072D01*
X125818000Y-88102072D01*
X125942482Y-88089812D01*
X126062180Y-88053502D01*
X126172494Y-87994537D01*
X126269185Y-87915185D01*
X126348537Y-87818494D01*
X126407502Y-87708180D01*
X126429513Y-87635620D01*
X126561368Y-87767475D01*
X126804589Y-87929990D01*
X127074842Y-88041932D01*
X127361740Y-88099000D01*
X127654260Y-88099000D01*
X127941158Y-88041932D01*
X128211411Y-87929990D01*
X128454632Y-87767475D01*
X128661475Y-87560632D01*
X128783195Y-87378466D01*
X128852822Y-87495355D01*
X129047731Y-87711588D01*
X129281080Y-87885641D01*
X129543901Y-88010825D01*
X129691110Y-88055476D01*
X129921000Y-87934155D01*
X129921000Y-86741000D01*
X130175000Y-86741000D01*
X130175000Y-87934155D01*
X130404890Y-88055476D01*
X130552099Y-88010825D01*
X130814920Y-87885641D01*
X131048269Y-87711588D01*
X131243178Y-87495355D01*
X131392157Y-87245252D01*
X131489481Y-86970891D01*
X131368814Y-86741000D01*
X130175000Y-86741000D01*
X129921000Y-86741000D01*
X129901000Y-86741000D01*
X129901000Y-86487000D01*
X129921000Y-86487000D01*
X129921000Y-85293845D01*
X130175000Y-85293845D01*
X130175000Y-86487000D01*
X131368814Y-86487000D01*
X131489481Y-86257109D01*
X131392157Y-85982748D01*
X131243178Y-85732645D01*
X131048269Y-85516412D01*
X130814920Y-85342359D01*
X130552099Y-85217175D01*
X130404890Y-85172524D01*
X130175000Y-85293845D01*
X129921000Y-85293845D01*
X129691110Y-85172524D01*
X129543901Y-85217175D01*
X129281080Y-85342359D01*
X129047731Y-85516412D01*
X128852822Y-85732645D01*
X128783195Y-85849534D01*
X128661475Y-85667368D01*
X128454632Y-85460525D01*
X128211411Y-85298010D01*
X128208837Y-85296944D01*
X128176262Y-85236000D01*
X128142974Y-85173723D01*
X128071799Y-85086997D01*
X128048001Y-85057999D01*
X128019004Y-85034202D01*
X124204000Y-81219199D01*
X124204000Y-80463322D01*
X124207676Y-80425999D01*
X124204000Y-80388676D01*
X124204000Y-80388667D01*
X124193003Y-80277014D01*
X124149546Y-80133753D01*
X124078974Y-80001724D01*
X124055128Y-79972667D01*
X124007799Y-79914996D01*
X124007795Y-79914992D01*
X123984001Y-79885999D01*
X123955009Y-79862206D01*
X123549803Y-79457000D01*
X123854928Y-79457000D01*
X123867188Y-79581482D01*
X123903498Y-79701180D01*
X123962463Y-79811494D01*
X124041815Y-79908185D01*
X124138506Y-79987537D01*
X124248820Y-80046502D01*
X124368518Y-80082812D01*
X124493000Y-80095072D01*
X124682250Y-80092000D01*
X124841000Y-79933250D01*
X124841000Y-79146500D01*
X125095000Y-79146500D01*
X125095000Y-79933250D01*
X125253750Y-80092000D01*
X125443000Y-80095072D01*
X125567482Y-80082812D01*
X125687180Y-80046502D01*
X125797494Y-79987537D01*
X125894185Y-79908185D01*
X125973537Y-79811494D01*
X126032502Y-79701180D01*
X126068654Y-79582000D01*
X126181928Y-79582000D01*
X126194188Y-79706482D01*
X126230498Y-79826180D01*
X126289463Y-79936494D01*
X126368815Y-80033185D01*
X126465506Y-80112537D01*
X126575820Y-80171502D01*
X126695518Y-80207812D01*
X126820000Y-80220072D01*
X126984250Y-80217000D01*
X127143000Y-80058250D01*
X127143000Y-79309000D01*
X127397000Y-79309000D01*
X127397000Y-80058250D01*
X127555750Y-80217000D01*
X127720000Y-80220072D01*
X127844482Y-80207812D01*
X127964180Y-80171502D01*
X128074494Y-80112537D01*
X128171185Y-80033185D01*
X128250537Y-79936494D01*
X128309502Y-79826180D01*
X128345812Y-79706482D01*
X128358072Y-79582000D01*
X128355000Y-79467750D01*
X128196250Y-79309000D01*
X127397000Y-79309000D01*
X127143000Y-79309000D01*
X126343750Y-79309000D01*
X126185000Y-79467750D01*
X126181928Y-79582000D01*
X126068654Y-79582000D01*
X126068812Y-79581482D01*
X126081072Y-79457000D01*
X126078000Y-79305250D01*
X125919250Y-79146500D01*
X125095000Y-79146500D01*
X124841000Y-79146500D01*
X124016750Y-79146500D01*
X123858000Y-79305250D01*
X123854928Y-79457000D01*
X123549803Y-79457000D01*
X122316304Y-78223502D01*
X122361986Y-78219003D01*
X122409796Y-78204500D01*
X123981343Y-78204500D01*
X123962463Y-78227506D01*
X123903498Y-78337820D01*
X123867188Y-78457518D01*
X123854928Y-78582000D01*
X123858000Y-78733750D01*
X124016750Y-78892500D01*
X124841000Y-78892500D01*
X124841000Y-78872500D01*
X125095000Y-78872500D01*
X125095000Y-78892500D01*
X125919250Y-78892500D01*
X126078000Y-78733750D01*
X126081072Y-78582000D01*
X126068812Y-78457518D01*
X126032502Y-78337820D01*
X125973537Y-78227506D01*
X125918900Y-78160930D01*
X125936671Y-78139275D01*
X125988666Y-78042000D01*
X126293982Y-78042000D01*
X126368815Y-78133185D01*
X126465506Y-78212537D01*
X126501918Y-78232000D01*
X126465506Y-78251463D01*
X126368815Y-78330815D01*
X126289463Y-78427506D01*
X126230498Y-78537820D01*
X126194188Y-78657518D01*
X126181928Y-78782000D01*
X126185000Y-78896250D01*
X126343750Y-79055000D01*
X127143000Y-79055000D01*
X127143000Y-79035000D01*
X127397000Y-79035000D01*
X127397000Y-79055000D01*
X128196250Y-79055000D01*
X128280857Y-78970393D01*
X128289463Y-78986494D01*
X128368815Y-79083185D01*
X128465506Y-79162537D01*
X128575820Y-79221502D01*
X128695518Y-79257812D01*
X128820000Y-79270072D01*
X129720000Y-79270072D01*
X129844482Y-79257812D01*
X129903199Y-79240000D01*
X134436890Y-83773691D01*
X134395038Y-83808038D01*
X134284595Y-83942614D01*
X134202528Y-84096150D01*
X134151992Y-84262746D01*
X134134928Y-84436000D01*
X134134928Y-85236000D01*
X134151992Y-85409254D01*
X134202528Y-85575850D01*
X134284595Y-85729386D01*
X134395038Y-85863962D01*
X134529614Y-85974405D01*
X134683150Y-86056472D01*
X134849746Y-86107008D01*
X135023000Y-86124072D01*
X135848000Y-86124072D01*
X136021254Y-86107008D01*
X136187850Y-86056472D01*
X136341386Y-85974405D01*
X136398000Y-85927943D01*
X136454614Y-85974405D01*
X136608150Y-86056472D01*
X136774746Y-86107008D01*
X136948000Y-86124072D01*
X137773000Y-86124072D01*
X137946254Y-86107008D01*
X138112850Y-86056472D01*
X138266386Y-85974405D01*
X138400962Y-85863962D01*
X138511405Y-85729386D01*
X138593472Y-85575850D01*
X138644008Y-85409254D01*
X138661072Y-85236000D01*
X138661072Y-84436000D01*
X138644008Y-84262746D01*
X138593472Y-84096150D01*
X138511405Y-83942614D01*
X138428000Y-83840984D01*
X138428000Y-82999711D01*
X138471937Y-82955774D01*
X138585205Y-82786256D01*
X138663226Y-82597898D01*
X138703000Y-82397939D01*
X138703000Y-82194061D01*
X138663226Y-81994102D01*
X138585205Y-81805744D01*
X138471937Y-81636226D01*
X138327774Y-81492063D01*
X138158256Y-81378795D01*
X137969898Y-81300774D01*
X137769939Y-81261000D01*
X137566061Y-81261000D01*
X137366102Y-81300774D01*
X137177744Y-81378795D01*
X137008226Y-81492063D01*
X136864063Y-81636226D01*
X136750795Y-81805744D01*
X136672774Y-81994102D01*
X136633000Y-82194061D01*
X136633000Y-82397939D01*
X136672774Y-82597898D01*
X136750795Y-82786256D01*
X136864063Y-82955774D01*
X136908000Y-82999711D01*
X136908001Y-83551868D01*
X136774746Y-83564992D01*
X136608150Y-83615528D01*
X136454614Y-83697595D01*
X136398000Y-83744057D01*
X136341386Y-83697595D01*
X136191284Y-83617364D01*
X136184503Y-83548514D01*
X136141046Y-83405253D01*
X136070474Y-83273224D01*
X135975501Y-83157499D01*
X135946504Y-83133702D01*
X130533804Y-77721003D01*
X130510001Y-77691999D01*
X130394276Y-77597026D01*
X130282482Y-77537270D01*
X130250537Y-77477506D01*
X130171185Y-77380815D01*
X130074494Y-77301463D01*
X129964180Y-77242498D01*
X129870235Y-77214000D01*
X134051199Y-77214000D01*
X137612201Y-80775003D01*
X137635999Y-80804001D01*
X137751724Y-80898974D01*
X137883753Y-80969546D01*
X138027014Y-81013003D01*
X138138667Y-81024000D01*
X138138675Y-81024000D01*
X138176000Y-81027676D01*
X138213325Y-81024000D01*
X140707822Y-81024000D01*
X140832525Y-81210632D01*
X141039368Y-81417475D01*
X141282589Y-81579990D01*
X141552842Y-81691932D01*
X141839740Y-81749000D01*
X142132260Y-81749000D01*
X142419158Y-81691932D01*
X142689411Y-81579990D01*
X142932632Y-81417475D01*
X143139475Y-81210632D01*
X143301990Y-80967411D01*
X143413932Y-80697158D01*
X143471000Y-80410260D01*
X143471000Y-80283802D01*
X143512001Y-80324803D01*
X143512000Y-82743198D01*
X137539280Y-88715919D01*
X123250802Y-88715919D01*
X118097885Y-83563003D01*
X118074082Y-83533999D01*
X117958357Y-83439026D01*
X117826328Y-83368454D01*
X117683067Y-83324997D01*
X117612909Y-83318087D01*
X117485475Y-83127368D01*
X117278632Y-82920525D01*
X117035411Y-82758010D01*
X116765158Y-82646068D01*
X116478260Y-82589000D01*
X116185740Y-82589000D01*
X115898842Y-82646068D01*
X115628589Y-82758010D01*
X115385368Y-82920525D01*
X115178525Y-83127368D01*
X115016010Y-83370589D01*
X114904068Y-83640842D01*
X114847000Y-83927740D01*
X114847000Y-84220260D01*
X114904068Y-84507158D01*
X115016010Y-84777411D01*
X115178525Y-85020632D01*
X115310380Y-85152487D01*
X115237820Y-85174498D01*
X115127506Y-85233463D01*
X115030815Y-85312815D01*
X114951463Y-85409506D01*
X114892498Y-85519820D01*
X114856188Y-85639518D01*
X114843928Y-85764000D01*
X114847000Y-86328250D01*
X115005750Y-86487000D01*
X116205000Y-86487000D01*
X116205000Y-86467000D01*
X116459000Y-86467000D01*
X116459000Y-86487000D01*
X117658250Y-86487000D01*
X117817000Y-86328250D01*
X117820072Y-85764000D01*
X117807812Y-85639518D01*
X117771502Y-85519820D01*
X117712537Y-85409506D01*
X117633185Y-85312815D01*
X117536494Y-85233463D01*
X117426180Y-85174498D01*
X117353620Y-85152487D01*
X117445693Y-85060414D01*
X122372201Y-89986922D01*
X122395999Y-90015920D01*
X122424997Y-90039718D01*
X122511723Y-90110893D01*
X122643753Y-90181465D01*
X122787014Y-90224922D01*
X122898667Y-90235919D01*
X122898676Y-90235919D01*
X122935999Y-90239595D01*
X122973322Y-90235919D01*
X137816759Y-90235919D01*
X137854081Y-90239595D01*
X137891403Y-90235919D01*
X137891414Y-90235919D01*
X138003067Y-90224922D01*
X138146328Y-90181465D01*
X138278357Y-90110893D01*
X138394082Y-90015920D01*
X138417885Y-89986916D01*
X144783004Y-83621798D01*
X144812001Y-83598001D01*
X144839091Y-83564992D01*
X144906974Y-83482277D01*
X144977546Y-83350247D01*
X144989656Y-83310324D01*
X145021003Y-83206986D01*
X145032000Y-83095333D01*
X145032000Y-83095324D01*
X145035676Y-83058001D01*
X145032000Y-83020678D01*
X145032000Y-80047322D01*
X145035676Y-80009999D01*
X145032000Y-79972676D01*
X145032000Y-79972667D01*
X145021003Y-79861014D01*
X144977546Y-79717753D01*
X144906974Y-79585724D01*
X144812001Y-79469999D01*
X144783003Y-79446201D01*
X143427209Y-78090408D01*
X143471000Y-77870260D01*
X143471000Y-77577740D01*
X143413932Y-77290842D01*
X143301990Y-77020589D01*
X143139475Y-76777368D01*
X142932632Y-76570525D01*
X142758240Y-76454000D01*
X142932632Y-76337475D01*
X143139475Y-76130632D01*
X143301990Y-75887411D01*
X143413932Y-75617158D01*
X143471000Y-75330260D01*
X143471000Y-75037740D01*
X143413932Y-74750842D01*
X143301990Y-74480589D01*
X143139475Y-74237368D01*
X142932632Y-74030525D01*
X142758240Y-73914000D01*
X142932632Y-73797475D01*
X143139475Y-73590632D01*
X143301990Y-73347411D01*
X143413932Y-73077158D01*
X143471000Y-72790260D01*
X143471000Y-72497740D01*
X143413932Y-72210842D01*
X143301990Y-71940589D01*
X143139475Y-71697368D01*
X143007620Y-71565513D01*
X143080180Y-71543502D01*
X143190494Y-71484537D01*
X143287185Y-71405185D01*
X143366537Y-71308494D01*
X143425502Y-71198180D01*
X143461812Y-71078482D01*
X143474072Y-70954000D01*
X143474072Y-69254000D01*
X143461812Y-69129518D01*
X143425502Y-69009820D01*
X143366537Y-68899506D01*
X143287185Y-68802815D01*
X143190494Y-68723463D01*
X143080180Y-68664498D01*
X142960482Y-68628188D01*
X142836000Y-68615928D01*
X141136000Y-68615928D01*
X141011518Y-68628188D01*
X140891820Y-68664498D01*
X140781506Y-68723463D01*
X140684815Y-68802815D01*
X140673457Y-68816655D01*
X140433804Y-68577002D01*
X140410001Y-68547999D01*
X140294276Y-68453026D01*
X140162247Y-68382454D01*
X140018986Y-68338997D01*
X139907333Y-68328000D01*
X139907322Y-68328000D01*
X139870000Y-68324324D01*
X139832678Y-68328000D01*
X115964322Y-68328000D01*
X115927000Y-68324324D01*
X115889677Y-68328000D01*
X115889667Y-68328000D01*
X115778014Y-68338997D01*
X115634753Y-68382454D01*
X115502724Y-68453026D01*
X115386999Y-68547999D01*
X115363196Y-68577003D01*
X115060000Y-68880199D01*
X115060000Y-65084801D01*
X116283061Y-63861740D01*
X129833000Y-63861740D01*
X129833000Y-64154260D01*
X129890068Y-64441158D01*
X130002010Y-64711411D01*
X130164525Y-64954632D01*
X130371368Y-65161475D01*
X130614589Y-65323990D01*
X130884842Y-65435932D01*
X131171740Y-65493000D01*
X131464260Y-65493000D01*
X131751158Y-65435932D01*
X132021411Y-65323990D01*
X132264632Y-65161475D01*
X132396487Y-65029620D01*
X132418498Y-65102180D01*
X132477463Y-65212494D01*
X132556815Y-65309185D01*
X132653506Y-65388537D01*
X132763820Y-65447502D01*
X132883518Y-65483812D01*
X133008000Y-65496072D01*
X133098001Y-65496072D01*
X133098001Y-65748668D01*
X133094324Y-65786000D01*
X133108998Y-65934985D01*
X133152454Y-66078246D01*
X133223026Y-66210276D01*
X133293379Y-66296000D01*
X133318000Y-66326001D01*
X133346998Y-66349799D01*
X133361917Y-66364718D01*
X133304650Y-66471858D01*
X133255892Y-66632592D01*
X133239428Y-66799750D01*
X133239428Y-67312250D01*
X133255892Y-67479408D01*
X133304650Y-67640142D01*
X133383829Y-67788275D01*
X133490385Y-67918115D01*
X133620225Y-68024671D01*
X133768358Y-68103850D01*
X133929092Y-68152608D01*
X134096250Y-68169072D01*
X134533750Y-68169072D01*
X134700908Y-68152608D01*
X134861642Y-68103850D01*
X135009775Y-68024671D01*
X135102500Y-67948574D01*
X135195225Y-68024671D01*
X135343358Y-68103850D01*
X135504092Y-68152608D01*
X135671250Y-68169072D01*
X136108750Y-68169072D01*
X136275908Y-68152608D01*
X136436642Y-68103850D01*
X136584775Y-68024671D01*
X136714615Y-67918115D01*
X136798418Y-67816000D01*
X136964289Y-67816000D01*
X137008226Y-67859937D01*
X137177744Y-67973205D01*
X137366102Y-68051226D01*
X137566061Y-68091000D01*
X137769939Y-68091000D01*
X137969898Y-68051226D01*
X138158256Y-67973205D01*
X138327774Y-67859937D01*
X138471937Y-67715774D01*
X138585205Y-67546256D01*
X138663226Y-67357898D01*
X138703000Y-67157939D01*
X138703000Y-66954061D01*
X138663226Y-66754102D01*
X138585205Y-66565744D01*
X138471937Y-66396226D01*
X138327774Y-66252063D01*
X138158256Y-66138795D01*
X137969898Y-66060774D01*
X137769939Y-66021000D01*
X137566061Y-66021000D01*
X137366102Y-66060774D01*
X137177744Y-66138795D01*
X137008226Y-66252063D01*
X136964289Y-66296000D01*
X136798418Y-66296000D01*
X136714615Y-66193885D01*
X136584775Y-66087329D01*
X136436642Y-66008150D01*
X136275908Y-65959392D01*
X136108750Y-65942928D01*
X135671250Y-65942928D01*
X135504092Y-65959392D01*
X135343358Y-66008150D01*
X135195225Y-66087329D01*
X135102500Y-66163426D01*
X135068055Y-66135158D01*
X135064003Y-66094014D01*
X135020546Y-65950753D01*
X134949974Y-65818724D01*
X134923118Y-65786000D01*
X134855001Y-65702999D01*
X134825998Y-65679197D01*
X134642873Y-65496072D01*
X134708000Y-65496072D01*
X134832482Y-65483812D01*
X134952180Y-65447502D01*
X135062494Y-65388537D01*
X135159185Y-65309185D01*
X135238537Y-65212494D01*
X135297502Y-65102180D01*
X135333812Y-64982482D01*
X135346072Y-64858000D01*
X135346072Y-63158000D01*
X135333812Y-63033518D01*
X135297502Y-62913820D01*
X135238537Y-62803506D01*
X135159185Y-62706815D01*
X135062494Y-62627463D01*
X134952180Y-62568498D01*
X134832482Y-62532188D01*
X134708000Y-62519928D01*
X133008000Y-62519928D01*
X132883518Y-62532188D01*
X132763820Y-62568498D01*
X132653506Y-62627463D01*
X132556815Y-62706815D01*
X132477463Y-62803506D01*
X132418498Y-62913820D01*
X132396487Y-62986380D01*
X132264632Y-62854525D01*
X132021411Y-62692010D01*
X131751158Y-62580068D01*
X131464260Y-62523000D01*
X131171740Y-62523000D01*
X130884842Y-62580068D01*
X130614589Y-62692010D01*
X130371368Y-62854525D01*
X130164525Y-63061368D01*
X130002010Y-63304589D01*
X129890068Y-63574842D01*
X129833000Y-63861740D01*
X116283061Y-63861740D01*
X118319911Y-61824890D01*
X140544524Y-61824890D01*
X140589175Y-61972099D01*
X140714359Y-62234920D01*
X140888412Y-62468269D01*
X141104645Y-62663178D01*
X141354748Y-62812157D01*
X141629109Y-62909481D01*
X141859000Y-62788814D01*
X141859000Y-61595000D01*
X142113000Y-61595000D01*
X142113000Y-62788814D01*
X142342891Y-62909481D01*
X142617252Y-62812157D01*
X142867355Y-62663178D01*
X143083588Y-62468269D01*
X143257641Y-62234920D01*
X143382825Y-61972099D01*
X143427476Y-61824890D01*
X143306155Y-61595000D01*
X142113000Y-61595000D01*
X141859000Y-61595000D01*
X140665845Y-61595000D01*
X140544524Y-61824890D01*
X118319911Y-61824890D01*
X118621004Y-61523798D01*
X118650001Y-61500001D01*
X118744974Y-61384276D01*
X118815546Y-61252247D01*
X118859003Y-61108986D01*
X118870000Y-60997333D01*
X118870000Y-60997325D01*
X118873676Y-60960000D01*
X118870000Y-60922675D01*
X118870000Y-58226801D01*
X119243347Y-57853454D01*
X119374380Y-57984487D01*
X119301820Y-58006498D01*
X119191506Y-58065463D01*
X119094815Y-58144815D01*
X119015463Y-58241506D01*
X118956498Y-58351820D01*
X118920188Y-58471518D01*
X118907928Y-58596000D01*
X118907928Y-60296000D01*
X118920188Y-60420482D01*
X118956498Y-60540180D01*
X119015463Y-60650494D01*
X119094815Y-60747185D01*
X119191506Y-60826537D01*
X119301820Y-60885502D01*
X119421518Y-60921812D01*
X119546000Y-60934072D01*
X121246000Y-60934072D01*
X121370482Y-60921812D01*
X121490180Y-60885502D01*
X121600494Y-60826537D01*
X121697185Y-60747185D01*
X121776537Y-60650494D01*
X121835502Y-60540180D01*
X121871812Y-60420482D01*
X121884072Y-60296000D01*
X121884072Y-58596000D01*
X121871812Y-58471518D01*
X121835502Y-58351820D01*
X121776537Y-58241506D01*
X121697185Y-58144815D01*
X121600494Y-58065463D01*
X121490180Y-58006498D01*
X121417620Y-57984487D01*
X121549475Y-57852632D01*
X121711990Y-57609411D01*
X121823932Y-57339158D01*
X121881000Y-57052260D01*
X121881000Y-56759740D01*
X121823932Y-56472842D01*
X121711990Y-56202589D01*
X121607361Y-56046000D01*
X127289928Y-56046000D01*
X127289928Y-57746000D01*
X127302188Y-57870482D01*
X127338498Y-57990180D01*
X127397463Y-58100494D01*
X127476815Y-58197185D01*
X127573506Y-58276537D01*
X127683820Y-58335502D01*
X127756380Y-58357513D01*
X127624525Y-58489368D01*
X127462010Y-58732589D01*
X127350068Y-59002842D01*
X127293000Y-59289740D01*
X127293000Y-59582260D01*
X127350068Y-59869158D01*
X127462010Y-60139411D01*
X127624525Y-60382632D01*
X127831368Y-60589475D01*
X128074589Y-60751990D01*
X128344842Y-60863932D01*
X128631740Y-60921000D01*
X128924260Y-60921000D01*
X129211158Y-60863932D01*
X129481411Y-60751990D01*
X129724632Y-60589475D01*
X129931475Y-60382632D01*
X130093990Y-60139411D01*
X130205932Y-59869158D01*
X130263000Y-59582260D01*
X130263000Y-59289740D01*
X130205932Y-59002842D01*
X130093990Y-58732589D01*
X129931475Y-58489368D01*
X129799620Y-58357513D01*
X129872180Y-58335502D01*
X129982494Y-58276537D01*
X130079185Y-58197185D01*
X130158537Y-58100494D01*
X130217502Y-57990180D01*
X130253812Y-57870482D01*
X130266072Y-57746000D01*
X130266072Y-57656000D01*
X140660864Y-57656000D01*
X140605463Y-57723506D01*
X140546498Y-57833820D01*
X140510188Y-57953518D01*
X140497928Y-58078000D01*
X140497928Y-59778000D01*
X140510188Y-59902482D01*
X140546498Y-60022180D01*
X140605463Y-60132494D01*
X140684815Y-60229185D01*
X140781506Y-60308537D01*
X140891820Y-60367502D01*
X140972466Y-60391966D01*
X140888412Y-60467731D01*
X140714359Y-60701080D01*
X140589175Y-60963901D01*
X140544524Y-61111110D01*
X140665845Y-61341000D01*
X141859000Y-61341000D01*
X141859000Y-61321000D01*
X142113000Y-61321000D01*
X142113000Y-61341000D01*
X143306155Y-61341000D01*
X143427476Y-61111110D01*
X143382825Y-60963901D01*
X143257641Y-60701080D01*
X143083588Y-60467731D01*
X142999534Y-60391966D01*
X143080180Y-60367502D01*
X143190494Y-60308537D01*
X143287185Y-60229185D01*
X143366537Y-60132494D01*
X143425502Y-60022180D01*
X143461812Y-59902482D01*
X143474072Y-59778000D01*
X143474072Y-58078000D01*
X143461812Y-57953518D01*
X143425502Y-57833820D01*
X143366537Y-57723506D01*
X143287185Y-57626815D01*
X143190494Y-57547463D01*
X143080180Y-57488498D01*
X142960482Y-57452188D01*
X142836000Y-57439928D01*
X142714046Y-57439928D01*
X142691546Y-57365753D01*
X142620974Y-57233724D01*
X142526001Y-57117999D01*
X142497002Y-57094201D01*
X141787803Y-56385002D01*
X141764001Y-56355999D01*
X141648276Y-56261026D01*
X141516247Y-56190454D01*
X141372986Y-56146997D01*
X141261333Y-56136000D01*
X141261322Y-56136000D01*
X141224000Y-56132324D01*
X141186678Y-56136000D01*
X130266072Y-56136000D01*
X130266072Y-56046000D01*
X130253812Y-55921518D01*
X130217502Y-55801820D01*
X130158537Y-55691506D01*
X130079185Y-55594815D01*
X129982494Y-55515463D01*
X129872180Y-55456498D01*
X129752482Y-55420188D01*
X129628000Y-55407928D01*
X127928000Y-55407928D01*
X127803518Y-55420188D01*
X127683820Y-55456498D01*
X127573506Y-55515463D01*
X127476815Y-55594815D01*
X127397463Y-55691506D01*
X127338498Y-55801820D01*
X127302188Y-55921518D01*
X127289928Y-56046000D01*
X121607361Y-56046000D01*
X121549475Y-55959368D01*
X121342632Y-55752525D01*
X121160466Y-55630805D01*
X121277355Y-55561178D01*
X121493588Y-55366269D01*
X121667641Y-55132920D01*
X121792825Y-54870099D01*
X121837476Y-54722890D01*
X121716155Y-54493000D01*
X120523000Y-54493000D01*
X120523000Y-54513000D01*
X120269000Y-54513000D01*
X120269000Y-54493000D01*
X119075845Y-54493000D01*
X118954524Y-54722890D01*
X118999175Y-54870099D01*
X119124359Y-55132920D01*
X119298412Y-55366269D01*
X119514645Y-55561178D01*
X119631534Y-55630805D01*
X119449368Y-55752525D01*
X119242525Y-55959368D01*
X119120014Y-56142719D01*
X119116000Y-56142324D01*
X119078677Y-56146000D01*
X119078667Y-56146000D01*
X118967014Y-56156997D01*
X118823753Y-56200454D01*
X118691724Y-56271026D01*
X118575999Y-56365999D01*
X118552201Y-56394997D01*
X117598998Y-57348201D01*
X117570000Y-57371999D01*
X117546202Y-57400997D01*
X117546201Y-57400998D01*
X117475026Y-57487724D01*
X117404454Y-57619754D01*
X117360998Y-57763015D01*
X117346324Y-57912000D01*
X117350001Y-57949332D01*
X117350000Y-60645198D01*
X113788998Y-64206201D01*
X113760000Y-64229999D01*
X113736202Y-64258997D01*
X113736201Y-64258998D01*
X113672013Y-64337210D01*
X112520000Y-63185199D01*
X112520000Y-58226801D01*
X113045446Y-57701356D01*
X113146525Y-57852632D01*
X113278380Y-57984487D01*
X113205820Y-58006498D01*
X113095506Y-58065463D01*
X112998815Y-58144815D01*
X112919463Y-58241506D01*
X112860498Y-58351820D01*
X112824188Y-58471518D01*
X112811928Y-58596000D01*
X112811928Y-60296000D01*
X112824188Y-60420482D01*
X112860498Y-60540180D01*
X112919463Y-60650494D01*
X112998815Y-60747185D01*
X113095506Y-60826537D01*
X113205820Y-60885502D01*
X113325518Y-60921812D01*
X113450000Y-60934072D01*
X115150000Y-60934072D01*
X115274482Y-60921812D01*
X115394180Y-60885502D01*
X115504494Y-60826537D01*
X115601185Y-60747185D01*
X115680537Y-60650494D01*
X115739502Y-60540180D01*
X115775812Y-60420482D01*
X115788072Y-60296000D01*
X115788072Y-58596000D01*
X115775812Y-58471518D01*
X115739502Y-58351820D01*
X115680537Y-58241506D01*
X115601185Y-58144815D01*
X115504494Y-58065463D01*
X115394180Y-58006498D01*
X115321620Y-57984487D01*
X115453475Y-57852632D01*
X115615990Y-57609411D01*
X115727932Y-57339158D01*
X115785000Y-57052260D01*
X115785000Y-56759740D01*
X115727932Y-56472842D01*
X115615990Y-56202589D01*
X115453475Y-55959368D01*
X115246632Y-55752525D01*
X115064466Y-55630805D01*
X115181355Y-55561178D01*
X115397588Y-55366269D01*
X115571641Y-55132920D01*
X115696825Y-54870099D01*
X115741476Y-54722890D01*
X115620155Y-54493000D01*
X114427000Y-54493000D01*
X114427000Y-54513000D01*
X114173000Y-54513000D01*
X114173000Y-54493000D01*
X112979845Y-54493000D01*
X112858524Y-54722890D01*
X112903175Y-54870099D01*
X113028359Y-55132920D01*
X113202412Y-55366269D01*
X113418645Y-55561178D01*
X113535534Y-55630805D01*
X113353368Y-55752525D01*
X113146525Y-55959368D01*
X113021822Y-56146000D01*
X112803323Y-56146000D01*
X112766000Y-56142324D01*
X112728677Y-56146000D01*
X112728667Y-56146000D01*
X112617014Y-56156997D01*
X112473753Y-56200454D01*
X112341724Y-56271026D01*
X112225999Y-56365999D01*
X112202201Y-56394997D01*
X111248998Y-57348201D01*
X111220000Y-57371999D01*
X111196202Y-57400997D01*
X111196201Y-57400998D01*
X111125026Y-57487724D01*
X111054454Y-57619754D01*
X111010998Y-57763015D01*
X110996324Y-57912000D01*
X111000001Y-57949332D01*
X111000000Y-63462677D01*
X110996324Y-63500000D01*
X111000000Y-63537322D01*
X111000000Y-63537332D01*
X111010997Y-63648985D01*
X111031251Y-63715753D01*
X111054454Y-63792246D01*
X111125026Y-63924276D01*
X111163099Y-63970667D01*
X111219999Y-64040001D01*
X111249002Y-64063803D01*
X112819001Y-65633804D01*
X112819000Y-69483397D01*
X112814498Y-69491820D01*
X112778188Y-69611518D01*
X112765928Y-69736000D01*
X112765928Y-70068126D01*
X111811310Y-69113509D01*
X111791850Y-69049358D01*
X111712671Y-68901225D01*
X111606115Y-68771385D01*
X111476275Y-68664829D01*
X111328142Y-68585650D01*
X111167408Y-68536892D01*
X111000250Y-68520428D01*
X110487750Y-68520428D01*
X110363000Y-68532715D01*
X110363000Y-54009110D01*
X112858524Y-54009110D01*
X112979845Y-54239000D01*
X114173000Y-54239000D01*
X114173000Y-53045186D01*
X114427000Y-53045186D01*
X114427000Y-54239000D01*
X115620155Y-54239000D01*
X115741476Y-54009110D01*
X118954524Y-54009110D01*
X119075845Y-54239000D01*
X120269000Y-54239000D01*
X120269000Y-53045186D01*
X120523000Y-53045186D01*
X120523000Y-54239000D01*
X121716155Y-54239000D01*
X121837476Y-54009110D01*
X121792825Y-53861901D01*
X121667641Y-53599080D01*
X121493588Y-53365731D01*
X121277355Y-53170822D01*
X121027252Y-53021843D01*
X120752891Y-52924519D01*
X120523000Y-53045186D01*
X120269000Y-53045186D01*
X120039109Y-52924519D01*
X119764748Y-53021843D01*
X119514645Y-53170822D01*
X119298412Y-53365731D01*
X119124359Y-53599080D01*
X118999175Y-53861901D01*
X118954524Y-54009110D01*
X115741476Y-54009110D01*
X115696825Y-53861901D01*
X115571641Y-53599080D01*
X115397588Y-53365731D01*
X115181355Y-53170822D01*
X114931252Y-53021843D01*
X114656891Y-52924519D01*
X114427000Y-53045186D01*
X114173000Y-53045186D01*
X113943109Y-52924519D01*
X113668748Y-53021843D01*
X113418645Y-53170822D01*
X113202412Y-53365731D01*
X113028359Y-53599080D01*
X112903175Y-53861901D01*
X112858524Y-54009110D01*
X110363000Y-54009110D01*
X110363000Y-49276328D01*
X110376769Y-49171743D01*
X110413923Y-49082045D01*
X110473024Y-49005024D01*
X110550045Y-48945923D01*
X110612629Y-48920000D01*
X146943371Y-48920000D01*
X147005955Y-48945923D01*
G37*
X147005955Y-48945923D02*
X147082976Y-49005024D01*
X147142077Y-49082045D01*
X147168001Y-49144631D01*
X147168000Y-93603371D01*
X147142077Y-93665955D01*
X147082976Y-93742976D01*
X147005955Y-93802077D01*
X146943371Y-93828000D01*
X110612629Y-93828000D01*
X110550045Y-93802077D01*
X110473024Y-93742976D01*
X110413923Y-93665955D01*
X110376769Y-93576257D01*
X110363000Y-93471672D01*
X110363000Y-87464000D01*
X114843928Y-87464000D01*
X114856188Y-87588482D01*
X114892498Y-87708180D01*
X114951463Y-87818494D01*
X115030815Y-87915185D01*
X115127506Y-87994537D01*
X115237820Y-88053502D01*
X115357518Y-88089812D01*
X115482000Y-88102072D01*
X116046250Y-88099000D01*
X116205000Y-87940250D01*
X116205000Y-86741000D01*
X116459000Y-86741000D01*
X116459000Y-87940250D01*
X116617750Y-88099000D01*
X117182000Y-88102072D01*
X117306482Y-88089812D01*
X117426180Y-88053502D01*
X117536494Y-87994537D01*
X117633185Y-87915185D01*
X117712537Y-87818494D01*
X117771502Y-87708180D01*
X117807812Y-87588482D01*
X117820072Y-87464000D01*
X117817000Y-86899750D01*
X117658250Y-86741000D01*
X116459000Y-86741000D01*
X116205000Y-86741000D01*
X115005750Y-86741000D01*
X114847000Y-86899750D01*
X114843928Y-87464000D01*
X110363000Y-87464000D01*
X110363000Y-76421000D01*
X110379428Y-76421000D01*
X110391688Y-76545482D01*
X110427998Y-76665180D01*
X110486963Y-76775494D01*
X110566315Y-76872185D01*
X110663006Y-76951537D01*
X110773320Y-77010502D01*
X110893018Y-77046812D01*
X111017500Y-77059072D01*
X111169250Y-77056000D01*
X111328000Y-76897250D01*
X111328000Y-76073000D01*
X110541250Y-76073000D01*
X110382500Y-76231750D01*
X110379428Y-76421000D01*
X110363000Y-76421000D01*
X110363000Y-75471000D01*
X110379428Y-75471000D01*
X110382500Y-75660250D01*
X110541250Y-75819000D01*
X111328000Y-75819000D01*
X111328000Y-74994750D01*
X111169250Y-74836000D01*
X111017500Y-74832928D01*
X110893018Y-74845188D01*
X110773320Y-74881498D01*
X110663006Y-74940463D01*
X110566315Y-75019815D01*
X110486963Y-75116506D01*
X110427998Y-75226820D01*
X110391688Y-75346518D01*
X110379428Y-75471000D01*
X110363000Y-75471000D01*
X110363000Y-73417437D01*
X110502747Y-73375046D01*
X110634776Y-73304474D01*
X110736489Y-73221000D01*
X111519000Y-73221000D01*
X111519000Y-73238002D01*
X111598748Y-73238002D01*
X111519000Y-73317750D01*
X111531095Y-73424294D01*
X111570044Y-73543160D01*
X111631434Y-73652143D01*
X111712906Y-73747055D01*
X111811328Y-73824249D01*
X111922920Y-73880759D01*
X112043392Y-73914412D01*
X112168114Y-73923916D01*
X112268250Y-73921000D01*
X112427000Y-73762250D01*
X112427000Y-73274072D01*
X112516650Y-73274072D01*
X112515928Y-73536000D01*
X112528188Y-73660482D01*
X112564498Y-73780180D01*
X112623463Y-73890494D01*
X112702815Y-73987185D01*
X112765928Y-74038980D01*
X112765928Y-74536000D01*
X112778188Y-74660482D01*
X112814498Y-74780180D01*
X112819001Y-74788603D01*
X112819001Y-74832928D01*
X112811250Y-74832928D01*
X112644092Y-74849392D01*
X112483358Y-74898150D01*
X112335225Y-74977329D01*
X112313570Y-74995100D01*
X112246994Y-74940463D01*
X112136680Y-74881498D01*
X112016982Y-74845188D01*
X111892500Y-74832928D01*
X111740750Y-74836000D01*
X111582000Y-74994750D01*
X111582000Y-75819000D01*
X111602000Y-75819000D01*
X111602000Y-76073000D01*
X111582000Y-76073000D01*
X111582000Y-76897250D01*
X111740750Y-77056000D01*
X111892500Y-77059072D01*
X112016982Y-77046812D01*
X112136680Y-77010502D01*
X112188275Y-76982923D01*
X112011002Y-77160197D01*
X111981999Y-77183999D01*
X111933991Y-77242498D01*
X111887026Y-77299724D01*
X111852142Y-77364987D01*
X111816454Y-77431754D01*
X111772997Y-77575015D01*
X111762000Y-77686668D01*
X111762000Y-77686678D01*
X111758324Y-77724000D01*
X111762000Y-77761323D01*
X111762001Y-80322288D01*
X111718063Y-80366226D01*
X111604795Y-80535744D01*
X111526774Y-80724102D01*
X111487000Y-80924061D01*
X111487000Y-81127939D01*
X111526774Y-81327898D01*
X111604795Y-81516256D01*
X111718063Y-81685774D01*
X111862226Y-81829937D01*
X112031744Y-81943205D01*
X112220102Y-82021226D01*
X112420061Y-82061000D01*
X112623939Y-82061000D01*
X112823898Y-82021226D01*
X113012256Y-81943205D01*
X113181774Y-81829937D01*
X113325937Y-81685774D01*
X113439205Y-81516256D01*
X113517226Y-81327898D01*
X113557000Y-81127939D01*
X113557000Y-81109693D01*
X113571000Y-81111072D01*
X113760250Y-81108000D01*
X113919000Y-80949250D01*
X113919000Y-80162500D01*
X114173000Y-80162500D01*
X114173000Y-80949250D01*
X114331750Y-81108000D01*
X114521000Y-81111072D01*
X114645482Y-81098812D01*
X114765180Y-81062502D01*
X114875494Y-81003537D01*
X114972185Y-80924185D01*
X115051537Y-80827494D01*
X115110502Y-80717180D01*
X115146812Y-80597482D01*
X115159072Y-80473000D01*
X115156000Y-80321250D01*
X114997250Y-80162500D01*
X114173000Y-80162500D01*
X113919000Y-80162500D01*
X113899000Y-80162500D01*
X113899000Y-79908500D01*
X113919000Y-79908500D01*
X113919000Y-79888500D01*
X114173000Y-79888500D01*
X114173000Y-79908500D01*
X114997250Y-79908500D01*
X115156000Y-79749750D01*
X115159072Y-79598000D01*
X115146812Y-79473518D01*
X115110502Y-79353820D01*
X115051537Y-79243506D01*
X114996900Y-79176930D01*
X115014671Y-79155275D01*
X115093850Y-79007142D01*
X115142608Y-78846408D01*
X115159072Y-78679250D01*
X115159072Y-78241750D01*
X115142608Y-78074592D01*
X115093850Y-77913858D01*
X115014671Y-77765725D01*
X114908115Y-77635885D01*
X114864451Y-77600052D01*
X114963205Y-77452256D01*
X115041226Y-77263898D01*
X115081000Y-77063939D01*
X115081000Y-76860061D01*
X115041226Y-76660102D01*
X114989000Y-76534018D01*
X114989000Y-75970801D01*
X117096000Y-78077802D01*
X117096001Y-81242668D01*
X117092324Y-81280000D01*
X117106998Y-81428985D01*
X117150454Y-81572246D01*
X117221026Y-81704276D01*
X117279071Y-81775003D01*
X117316000Y-81820001D01*
X117344998Y-81843799D01*
X122626201Y-87125003D01*
X122649999Y-87154001D01*
X122678997Y-87177799D01*
X122765723Y-87248974D01*
X122893759Y-87317411D01*
X122897753Y-87319546D01*
X123041014Y-87363003D01*
X123152667Y-87374000D01*
X123152676Y-87374000D01*
X123189999Y-87377676D01*
X123227322Y-87374000D01*
X123479928Y-87374000D01*
X123479928Y-87464000D01*
X123492188Y-87588482D01*
X123528498Y-87708180D01*
X123587463Y-87818494D01*
X123666815Y-87915185D01*
X123763506Y-87994537D01*
X123873820Y-88053502D01*
X123993518Y-88089812D01*
X124118000Y-88102072D01*
X125818000Y-88102072D01*
X125942482Y-88089812D01*
X126062180Y-88053502D01*
X126172494Y-87994537D01*
X126269185Y-87915185D01*
X126348537Y-87818494D01*
X126407502Y-87708180D01*
X126429513Y-87635620D01*
X126561368Y-87767475D01*
X126804589Y-87929990D01*
X127074842Y-88041932D01*
X127361740Y-88099000D01*
X127654260Y-88099000D01*
X127941158Y-88041932D01*
X128211411Y-87929990D01*
X128454632Y-87767475D01*
X128661475Y-87560632D01*
X128783195Y-87378466D01*
X128852822Y-87495355D01*
X129047731Y-87711588D01*
X129281080Y-87885641D01*
X129543901Y-88010825D01*
X129691110Y-88055476D01*
X129921000Y-87934155D01*
X129921000Y-86741000D01*
X130175000Y-86741000D01*
X130175000Y-87934155D01*
X130404890Y-88055476D01*
X130552099Y-88010825D01*
X130814920Y-87885641D01*
X131048269Y-87711588D01*
X131243178Y-87495355D01*
X131392157Y-87245252D01*
X131489481Y-86970891D01*
X131368814Y-86741000D01*
X130175000Y-86741000D01*
X129921000Y-86741000D01*
X129901000Y-86741000D01*
X129901000Y-86487000D01*
X129921000Y-86487000D01*
X129921000Y-85293845D01*
X130175000Y-85293845D01*
X130175000Y-86487000D01*
X131368814Y-86487000D01*
X131489481Y-86257109D01*
X131392157Y-85982748D01*
X131243178Y-85732645D01*
X131048269Y-85516412D01*
X130814920Y-85342359D01*
X130552099Y-85217175D01*
X130404890Y-85172524D01*
X130175000Y-85293845D01*
X129921000Y-85293845D01*
X129691110Y-85172524D01*
X129543901Y-85217175D01*
X129281080Y-85342359D01*
X129047731Y-85516412D01*
X128852822Y-85732645D01*
X128783195Y-85849534D01*
X128661475Y-85667368D01*
X128454632Y-85460525D01*
X128211411Y-85298010D01*
X128208837Y-85296944D01*
X128176262Y-85236000D01*
X128142974Y-85173723D01*
X128071799Y-85086997D01*
X128048001Y-85057999D01*
X128019004Y-85034202D01*
X124204000Y-81219199D01*
X124204000Y-80463322D01*
X124207676Y-80425999D01*
X124204000Y-80388676D01*
X124204000Y-80388667D01*
X124193003Y-80277014D01*
X124149546Y-80133753D01*
X124078974Y-80001724D01*
X124055128Y-79972667D01*
X124007799Y-79914996D01*
X124007795Y-79914992D01*
X123984001Y-79885999D01*
X123955009Y-79862206D01*
X123549803Y-79457000D01*
X123854928Y-79457000D01*
X123867188Y-79581482D01*
X123903498Y-79701180D01*
X123962463Y-79811494D01*
X124041815Y-79908185D01*
X124138506Y-79987537D01*
X124248820Y-80046502D01*
X124368518Y-80082812D01*
X124493000Y-80095072D01*
X124682250Y-80092000D01*
X124841000Y-79933250D01*
X124841000Y-79146500D01*
X125095000Y-79146500D01*
X125095000Y-79933250D01*
X125253750Y-80092000D01*
X125443000Y-80095072D01*
X125567482Y-80082812D01*
X125687180Y-80046502D01*
X125797494Y-79987537D01*
X125894185Y-79908185D01*
X125973537Y-79811494D01*
X126032502Y-79701180D01*
X126068654Y-79582000D01*
X126181928Y-79582000D01*
X126194188Y-79706482D01*
X126230498Y-79826180D01*
X126289463Y-79936494D01*
X126368815Y-80033185D01*
X126465506Y-80112537D01*
X126575820Y-80171502D01*
X126695518Y-80207812D01*
X126820000Y-80220072D01*
X126984250Y-80217000D01*
X127143000Y-80058250D01*
X127143000Y-79309000D01*
X127397000Y-79309000D01*
X127397000Y-80058250D01*
X127555750Y-80217000D01*
X127720000Y-80220072D01*
X127844482Y-80207812D01*
X127964180Y-80171502D01*
X128074494Y-80112537D01*
X128171185Y-80033185D01*
X128250537Y-79936494D01*
X128309502Y-79826180D01*
X128345812Y-79706482D01*
X128358072Y-79582000D01*
X128355000Y-79467750D01*
X128196250Y-79309000D01*
X127397000Y-79309000D01*
X127143000Y-79309000D01*
X126343750Y-79309000D01*
X126185000Y-79467750D01*
X126181928Y-79582000D01*
X126068654Y-79582000D01*
X126068812Y-79581482D01*
X126081072Y-79457000D01*
X126078000Y-79305250D01*
X125919250Y-79146500D01*
X125095000Y-79146500D01*
X124841000Y-79146500D01*
X124016750Y-79146500D01*
X123858000Y-79305250D01*
X123854928Y-79457000D01*
X123549803Y-79457000D01*
X122316304Y-78223502D01*
X122361986Y-78219003D01*
X122409796Y-78204500D01*
X123981343Y-78204500D01*
X123962463Y-78227506D01*
X123903498Y-78337820D01*
X123867188Y-78457518D01*
X123854928Y-78582000D01*
X123858000Y-78733750D01*
X124016750Y-78892500D01*
X124841000Y-78892500D01*
X124841000Y-78872500D01*
X125095000Y-78872500D01*
X125095000Y-78892500D01*
X125919250Y-78892500D01*
X126078000Y-78733750D01*
X126081072Y-78582000D01*
X126068812Y-78457518D01*
X126032502Y-78337820D01*
X125973537Y-78227506D01*
X125918900Y-78160930D01*
X125936671Y-78139275D01*
X125988666Y-78042000D01*
X126293982Y-78042000D01*
X126368815Y-78133185D01*
X126465506Y-78212537D01*
X126501918Y-78232000D01*
X126465506Y-78251463D01*
X126368815Y-78330815D01*
X126289463Y-78427506D01*
X126230498Y-78537820D01*
X126194188Y-78657518D01*
X126181928Y-78782000D01*
X126185000Y-78896250D01*
X126343750Y-79055000D01*
X127143000Y-79055000D01*
X127143000Y-79035000D01*
X127397000Y-79035000D01*
X127397000Y-79055000D01*
X128196250Y-79055000D01*
X128280857Y-78970393D01*
X128289463Y-78986494D01*
X128368815Y-79083185D01*
X128465506Y-79162537D01*
X128575820Y-79221502D01*
X128695518Y-79257812D01*
X128820000Y-79270072D01*
X129720000Y-79270072D01*
X129844482Y-79257812D01*
X129903199Y-79240000D01*
X134436890Y-83773691D01*
X134395038Y-83808038D01*
X134284595Y-83942614D01*
X134202528Y-84096150D01*
X134151992Y-84262746D01*
X134134928Y-84436000D01*
X134134928Y-85236000D01*
X134151992Y-85409254D01*
X134202528Y-85575850D01*
X134284595Y-85729386D01*
X134395038Y-85863962D01*
X134529614Y-85974405D01*
X134683150Y-86056472D01*
X134849746Y-86107008D01*
X135023000Y-86124072D01*
X135848000Y-86124072D01*
X136021254Y-86107008D01*
X136187850Y-86056472D01*
X136341386Y-85974405D01*
X136398000Y-85927943D01*
X136454614Y-85974405D01*
X136608150Y-86056472D01*
X136774746Y-86107008D01*
X136948000Y-86124072D01*
X137773000Y-86124072D01*
X137946254Y-86107008D01*
X138112850Y-86056472D01*
X138266386Y-85974405D01*
X138400962Y-85863962D01*
X138511405Y-85729386D01*
X138593472Y-85575850D01*
X138644008Y-85409254D01*
X138661072Y-85236000D01*
X138661072Y-84436000D01*
X138644008Y-84262746D01*
X138593472Y-84096150D01*
X138511405Y-83942614D01*
X138428000Y-83840984D01*
X138428000Y-82999711D01*
X138471937Y-82955774D01*
X138585205Y-82786256D01*
X138663226Y-82597898D01*
X138703000Y-82397939D01*
X138703000Y-82194061D01*
X138663226Y-81994102D01*
X138585205Y-81805744D01*
X138471937Y-81636226D01*
X138327774Y-81492063D01*
X138158256Y-81378795D01*
X137969898Y-81300774D01*
X137769939Y-81261000D01*
X137566061Y-81261000D01*
X137366102Y-81300774D01*
X137177744Y-81378795D01*
X137008226Y-81492063D01*
X136864063Y-81636226D01*
X136750795Y-81805744D01*
X136672774Y-81994102D01*
X136633000Y-82194061D01*
X136633000Y-82397939D01*
X136672774Y-82597898D01*
X136750795Y-82786256D01*
X136864063Y-82955774D01*
X136908000Y-82999711D01*
X136908001Y-83551868D01*
X136774746Y-83564992D01*
X136608150Y-83615528D01*
X136454614Y-83697595D01*
X136398000Y-83744057D01*
X136341386Y-83697595D01*
X136191284Y-83617364D01*
X136184503Y-83548514D01*
X136141046Y-83405253D01*
X136070474Y-83273224D01*
X135975501Y-83157499D01*
X135946504Y-83133702D01*
X130533804Y-77721003D01*
X130510001Y-77691999D01*
X130394276Y-77597026D01*
X130282482Y-77537270D01*
X130250537Y-77477506D01*
X130171185Y-77380815D01*
X130074494Y-77301463D01*
X129964180Y-77242498D01*
X129870235Y-77214000D01*
X134051199Y-77214000D01*
X137612201Y-80775003D01*
X137635999Y-80804001D01*
X137751724Y-80898974D01*
X137883753Y-80969546D01*
X138027014Y-81013003D01*
X138138667Y-81024000D01*
X138138675Y-81024000D01*
X138176000Y-81027676D01*
X138213325Y-81024000D01*
X140707822Y-81024000D01*
X140832525Y-81210632D01*
X141039368Y-81417475D01*
X141282589Y-81579990D01*
X141552842Y-81691932D01*
X141839740Y-81749000D01*
X142132260Y-81749000D01*
X142419158Y-81691932D01*
X142689411Y-81579990D01*
X142932632Y-81417475D01*
X143139475Y-81210632D01*
X143301990Y-80967411D01*
X143413932Y-80697158D01*
X143471000Y-80410260D01*
X143471000Y-80283802D01*
X143512001Y-80324803D01*
X143512000Y-82743198D01*
X137539280Y-88715919D01*
X123250802Y-88715919D01*
X118097885Y-83563003D01*
X118074082Y-83533999D01*
X117958357Y-83439026D01*
X117826328Y-83368454D01*
X117683067Y-83324997D01*
X117612909Y-83318087D01*
X117485475Y-83127368D01*
X117278632Y-82920525D01*
X117035411Y-82758010D01*
X116765158Y-82646068D01*
X116478260Y-82589000D01*
X116185740Y-82589000D01*
X115898842Y-82646068D01*
X115628589Y-82758010D01*
X115385368Y-82920525D01*
X115178525Y-83127368D01*
X115016010Y-83370589D01*
X114904068Y-83640842D01*
X114847000Y-83927740D01*
X114847000Y-84220260D01*
X114904068Y-84507158D01*
X115016010Y-84777411D01*
X115178525Y-85020632D01*
X115310380Y-85152487D01*
X115237820Y-85174498D01*
X115127506Y-85233463D01*
X115030815Y-85312815D01*
X114951463Y-85409506D01*
X114892498Y-85519820D01*
X114856188Y-85639518D01*
X114843928Y-85764000D01*
X114847000Y-86328250D01*
X115005750Y-86487000D01*
X116205000Y-86487000D01*
X116205000Y-86467000D01*
X116459000Y-86467000D01*
X116459000Y-86487000D01*
X117658250Y-86487000D01*
X117817000Y-86328250D01*
X117820072Y-85764000D01*
X117807812Y-85639518D01*
X117771502Y-85519820D01*
X117712537Y-85409506D01*
X117633185Y-85312815D01*
X117536494Y-85233463D01*
X117426180Y-85174498D01*
X117353620Y-85152487D01*
X117445693Y-85060414D01*
X122372201Y-89986922D01*
X122395999Y-90015920D01*
X122424997Y-90039718D01*
X122511723Y-90110893D01*
X122643753Y-90181465D01*
X122787014Y-90224922D01*
X122898667Y-90235919D01*
X122898676Y-90235919D01*
X122935999Y-90239595D01*
X122973322Y-90235919D01*
X137816759Y-90235919D01*
X137854081Y-90239595D01*
X137891403Y-90235919D01*
X137891414Y-90235919D01*
X138003067Y-90224922D01*
X138146328Y-90181465D01*
X138278357Y-90110893D01*
X138394082Y-90015920D01*
X138417885Y-89986916D01*
X144783004Y-83621798D01*
X144812001Y-83598001D01*
X144839091Y-83564992D01*
X144906974Y-83482277D01*
X144977546Y-83350247D01*
X144989656Y-83310324D01*
X145021003Y-83206986D01*
X145032000Y-83095333D01*
X145032000Y-83095324D01*
X145035676Y-83058001D01*
X145032000Y-83020678D01*
X145032000Y-80047322D01*
X145035676Y-80009999D01*
X145032000Y-79972676D01*
X145032000Y-79972667D01*
X145021003Y-79861014D01*
X144977546Y-79717753D01*
X144906974Y-79585724D01*
X144812001Y-79469999D01*
X144783003Y-79446201D01*
X143427209Y-78090408D01*
X143471000Y-77870260D01*
X143471000Y-77577740D01*
X143413932Y-77290842D01*
X143301990Y-77020589D01*
X143139475Y-76777368D01*
X142932632Y-76570525D01*
X142758240Y-76454000D01*
X142932632Y-76337475D01*
X143139475Y-76130632D01*
X143301990Y-75887411D01*
X143413932Y-75617158D01*
X143471000Y-75330260D01*
X143471000Y-75037740D01*
X143413932Y-74750842D01*
X143301990Y-74480589D01*
X143139475Y-74237368D01*
X142932632Y-74030525D01*
X142758240Y-73914000D01*
X142932632Y-73797475D01*
X143139475Y-73590632D01*
X143301990Y-73347411D01*
X143413932Y-73077158D01*
X143471000Y-72790260D01*
X143471000Y-72497740D01*
X143413932Y-72210842D01*
X143301990Y-71940589D01*
X143139475Y-71697368D01*
X143007620Y-71565513D01*
X143080180Y-71543502D01*
X143190494Y-71484537D01*
X143287185Y-71405185D01*
X143366537Y-71308494D01*
X143425502Y-71198180D01*
X143461812Y-71078482D01*
X143474072Y-70954000D01*
X143474072Y-69254000D01*
X143461812Y-69129518D01*
X143425502Y-69009820D01*
X143366537Y-68899506D01*
X143287185Y-68802815D01*
X143190494Y-68723463D01*
X143080180Y-68664498D01*
X142960482Y-68628188D01*
X142836000Y-68615928D01*
X141136000Y-68615928D01*
X141011518Y-68628188D01*
X140891820Y-68664498D01*
X140781506Y-68723463D01*
X140684815Y-68802815D01*
X140673457Y-68816655D01*
X140433804Y-68577002D01*
X140410001Y-68547999D01*
X140294276Y-68453026D01*
X140162247Y-68382454D01*
X140018986Y-68338997D01*
X139907333Y-68328000D01*
X139907322Y-68328000D01*
X139870000Y-68324324D01*
X139832678Y-68328000D01*
X115964322Y-68328000D01*
X115927000Y-68324324D01*
X115889677Y-68328000D01*
X115889667Y-68328000D01*
X115778014Y-68338997D01*
X115634753Y-68382454D01*
X115502724Y-68453026D01*
X115386999Y-68547999D01*
X115363196Y-68577003D01*
X115060000Y-68880199D01*
X115060000Y-65084801D01*
X116283061Y-63861740D01*
X129833000Y-63861740D01*
X129833000Y-64154260D01*
X129890068Y-64441158D01*
X130002010Y-64711411D01*
X130164525Y-64954632D01*
X130371368Y-65161475D01*
X130614589Y-65323990D01*
X130884842Y-65435932D01*
X131171740Y-65493000D01*
X131464260Y-65493000D01*
X131751158Y-65435932D01*
X132021411Y-65323990D01*
X132264632Y-65161475D01*
X132396487Y-65029620D01*
X132418498Y-65102180D01*
X132477463Y-65212494D01*
X132556815Y-65309185D01*
X132653506Y-65388537D01*
X132763820Y-65447502D01*
X132883518Y-65483812D01*
X133008000Y-65496072D01*
X133098001Y-65496072D01*
X133098001Y-65748668D01*
X133094324Y-65786000D01*
X133108998Y-65934985D01*
X133152454Y-66078246D01*
X133223026Y-66210276D01*
X133293379Y-66296000D01*
X133318000Y-66326001D01*
X133346998Y-66349799D01*
X133361917Y-66364718D01*
X133304650Y-66471858D01*
X133255892Y-66632592D01*
X133239428Y-66799750D01*
X133239428Y-67312250D01*
X133255892Y-67479408D01*
X133304650Y-67640142D01*
X133383829Y-67788275D01*
X133490385Y-67918115D01*
X133620225Y-68024671D01*
X133768358Y-68103850D01*
X133929092Y-68152608D01*
X134096250Y-68169072D01*
X134533750Y-68169072D01*
X134700908Y-68152608D01*
X134861642Y-68103850D01*
X135009775Y-68024671D01*
X135102500Y-67948574D01*
X135195225Y-68024671D01*
X135343358Y-68103850D01*
X135504092Y-68152608D01*
X135671250Y-68169072D01*
X136108750Y-68169072D01*
X136275908Y-68152608D01*
X136436642Y-68103850D01*
X136584775Y-68024671D01*
X136714615Y-67918115D01*
X136798418Y-67816000D01*
X136964289Y-67816000D01*
X137008226Y-67859937D01*
X137177744Y-67973205D01*
X137366102Y-68051226D01*
X137566061Y-68091000D01*
X137769939Y-68091000D01*
X137969898Y-68051226D01*
X138158256Y-67973205D01*
X138327774Y-67859937D01*
X138471937Y-67715774D01*
X138585205Y-67546256D01*
X138663226Y-67357898D01*
X138703000Y-67157939D01*
X138703000Y-66954061D01*
X138663226Y-66754102D01*
X138585205Y-66565744D01*
X138471937Y-66396226D01*
X138327774Y-66252063D01*
X138158256Y-66138795D01*
X137969898Y-66060774D01*
X137769939Y-66021000D01*
X137566061Y-66021000D01*
X137366102Y-66060774D01*
X137177744Y-66138795D01*
X137008226Y-66252063D01*
X136964289Y-66296000D01*
X136798418Y-66296000D01*
X136714615Y-66193885D01*
X136584775Y-66087329D01*
X136436642Y-66008150D01*
X136275908Y-65959392D01*
X136108750Y-65942928D01*
X135671250Y-65942928D01*
X135504092Y-65959392D01*
X135343358Y-66008150D01*
X135195225Y-66087329D01*
X135102500Y-66163426D01*
X135068055Y-66135158D01*
X135064003Y-66094014D01*
X135020546Y-65950753D01*
X134949974Y-65818724D01*
X134923118Y-65786000D01*
X134855001Y-65702999D01*
X134825998Y-65679197D01*
X134642873Y-65496072D01*
X134708000Y-65496072D01*
X134832482Y-65483812D01*
X134952180Y-65447502D01*
X135062494Y-65388537D01*
X135159185Y-65309185D01*
X135238537Y-65212494D01*
X135297502Y-65102180D01*
X135333812Y-64982482D01*
X135346072Y-64858000D01*
X135346072Y-63158000D01*
X135333812Y-63033518D01*
X135297502Y-62913820D01*
X135238537Y-62803506D01*
X135159185Y-62706815D01*
X135062494Y-62627463D01*
X134952180Y-62568498D01*
X134832482Y-62532188D01*
X134708000Y-62519928D01*
X133008000Y-62519928D01*
X132883518Y-62532188D01*
X132763820Y-62568498D01*
X132653506Y-62627463D01*
X132556815Y-62706815D01*
X132477463Y-62803506D01*
X132418498Y-62913820D01*
X132396487Y-62986380D01*
X132264632Y-62854525D01*
X132021411Y-62692010D01*
X131751158Y-62580068D01*
X131464260Y-62523000D01*
X131171740Y-62523000D01*
X130884842Y-62580068D01*
X130614589Y-62692010D01*
X130371368Y-62854525D01*
X130164525Y-63061368D01*
X130002010Y-63304589D01*
X129890068Y-63574842D01*
X129833000Y-63861740D01*
X116283061Y-63861740D01*
X118319911Y-61824890D01*
X140544524Y-61824890D01*
X140589175Y-61972099D01*
X140714359Y-62234920D01*
X140888412Y-62468269D01*
X141104645Y-62663178D01*
X141354748Y-62812157D01*
X141629109Y-62909481D01*
X141859000Y-62788814D01*
X141859000Y-61595000D01*
X142113000Y-61595000D01*
X142113000Y-62788814D01*
X142342891Y-62909481D01*
X142617252Y-62812157D01*
X142867355Y-62663178D01*
X143083588Y-62468269D01*
X143257641Y-62234920D01*
X143382825Y-61972099D01*
X143427476Y-61824890D01*
X143306155Y-61595000D01*
X142113000Y-61595000D01*
X141859000Y-61595000D01*
X140665845Y-61595000D01*
X140544524Y-61824890D01*
X118319911Y-61824890D01*
X118621004Y-61523798D01*
X118650001Y-61500001D01*
X118744974Y-61384276D01*
X118815546Y-61252247D01*
X118859003Y-61108986D01*
X118870000Y-60997333D01*
X118870000Y-60997325D01*
X118873676Y-60960000D01*
X118870000Y-60922675D01*
X118870000Y-58226801D01*
X119243347Y-57853454D01*
X119374380Y-57984487D01*
X119301820Y-58006498D01*
X119191506Y-58065463D01*
X119094815Y-58144815D01*
X119015463Y-58241506D01*
X118956498Y-58351820D01*
X118920188Y-58471518D01*
X118907928Y-58596000D01*
X118907928Y-60296000D01*
X118920188Y-60420482D01*
X118956498Y-60540180D01*
X119015463Y-60650494D01*
X119094815Y-60747185D01*
X119191506Y-60826537D01*
X119301820Y-60885502D01*
X119421518Y-60921812D01*
X119546000Y-60934072D01*
X121246000Y-60934072D01*
X121370482Y-60921812D01*
X121490180Y-60885502D01*
X121600494Y-60826537D01*
X121697185Y-60747185D01*
X121776537Y-60650494D01*
X121835502Y-60540180D01*
X121871812Y-60420482D01*
X121884072Y-60296000D01*
X121884072Y-58596000D01*
X121871812Y-58471518D01*
X121835502Y-58351820D01*
X121776537Y-58241506D01*
X121697185Y-58144815D01*
X121600494Y-58065463D01*
X121490180Y-58006498D01*
X121417620Y-57984487D01*
X121549475Y-57852632D01*
X121711990Y-57609411D01*
X121823932Y-57339158D01*
X121881000Y-57052260D01*
X121881000Y-56759740D01*
X121823932Y-56472842D01*
X121711990Y-56202589D01*
X121607361Y-56046000D01*
X127289928Y-56046000D01*
X127289928Y-57746000D01*
X127302188Y-57870482D01*
X127338498Y-57990180D01*
X127397463Y-58100494D01*
X127476815Y-58197185D01*
X127573506Y-58276537D01*
X127683820Y-58335502D01*
X127756380Y-58357513D01*
X127624525Y-58489368D01*
X127462010Y-58732589D01*
X127350068Y-59002842D01*
X127293000Y-59289740D01*
X127293000Y-59582260D01*
X127350068Y-59869158D01*
X127462010Y-60139411D01*
X127624525Y-60382632D01*
X127831368Y-60589475D01*
X128074589Y-60751990D01*
X128344842Y-60863932D01*
X128631740Y-60921000D01*
X128924260Y-60921000D01*
X129211158Y-60863932D01*
X129481411Y-60751990D01*
X129724632Y-60589475D01*
X129931475Y-60382632D01*
X130093990Y-60139411D01*
X130205932Y-59869158D01*
X130263000Y-59582260D01*
X130263000Y-59289740D01*
X130205932Y-59002842D01*
X130093990Y-58732589D01*
X129931475Y-58489368D01*
X129799620Y-58357513D01*
X129872180Y-58335502D01*
X129982494Y-58276537D01*
X130079185Y-58197185D01*
X130158537Y-58100494D01*
X130217502Y-57990180D01*
X130253812Y-57870482D01*
X130266072Y-57746000D01*
X130266072Y-57656000D01*
X140660864Y-57656000D01*
X140605463Y-57723506D01*
X140546498Y-57833820D01*
X140510188Y-57953518D01*
X140497928Y-58078000D01*
X140497928Y-59778000D01*
X140510188Y-59902482D01*
X140546498Y-60022180D01*
X140605463Y-60132494D01*
X140684815Y-60229185D01*
X140781506Y-60308537D01*
X140891820Y-60367502D01*
X140972466Y-60391966D01*
X140888412Y-60467731D01*
X140714359Y-60701080D01*
X140589175Y-60963901D01*
X140544524Y-61111110D01*
X140665845Y-61341000D01*
X141859000Y-61341000D01*
X141859000Y-61321000D01*
X142113000Y-61321000D01*
X142113000Y-61341000D01*
X143306155Y-61341000D01*
X143427476Y-61111110D01*
X143382825Y-60963901D01*
X143257641Y-60701080D01*
X143083588Y-60467731D01*
X142999534Y-60391966D01*
X143080180Y-60367502D01*
X143190494Y-60308537D01*
X143287185Y-60229185D01*
X143366537Y-60132494D01*
X143425502Y-60022180D01*
X143461812Y-59902482D01*
X143474072Y-59778000D01*
X143474072Y-58078000D01*
X143461812Y-57953518D01*
X143425502Y-57833820D01*
X143366537Y-57723506D01*
X143287185Y-57626815D01*
X143190494Y-57547463D01*
X143080180Y-57488498D01*
X142960482Y-57452188D01*
X142836000Y-57439928D01*
X142714046Y-57439928D01*
X142691546Y-57365753D01*
X142620974Y-57233724D01*
X142526001Y-57117999D01*
X142497002Y-57094201D01*
X141787803Y-56385002D01*
X141764001Y-56355999D01*
X141648276Y-56261026D01*
X141516247Y-56190454D01*
X141372986Y-56146997D01*
X141261333Y-56136000D01*
X141261322Y-56136000D01*
X141224000Y-56132324D01*
X141186678Y-56136000D01*
X130266072Y-56136000D01*
X130266072Y-56046000D01*
X130253812Y-55921518D01*
X130217502Y-55801820D01*
X130158537Y-55691506D01*
X130079185Y-55594815D01*
X129982494Y-55515463D01*
X129872180Y-55456498D01*
X129752482Y-55420188D01*
X129628000Y-55407928D01*
X127928000Y-55407928D01*
X127803518Y-55420188D01*
X127683820Y-55456498D01*
X127573506Y-55515463D01*
X127476815Y-55594815D01*
X127397463Y-55691506D01*
X127338498Y-55801820D01*
X127302188Y-55921518D01*
X127289928Y-56046000D01*
X121607361Y-56046000D01*
X121549475Y-55959368D01*
X121342632Y-55752525D01*
X121160466Y-55630805D01*
X121277355Y-55561178D01*
X121493588Y-55366269D01*
X121667641Y-55132920D01*
X121792825Y-54870099D01*
X121837476Y-54722890D01*
X121716155Y-54493000D01*
X120523000Y-54493000D01*
X120523000Y-54513000D01*
X120269000Y-54513000D01*
X120269000Y-54493000D01*
X119075845Y-54493000D01*
X118954524Y-54722890D01*
X118999175Y-54870099D01*
X119124359Y-55132920D01*
X119298412Y-55366269D01*
X119514645Y-55561178D01*
X119631534Y-55630805D01*
X119449368Y-55752525D01*
X119242525Y-55959368D01*
X119120014Y-56142719D01*
X119116000Y-56142324D01*
X119078677Y-56146000D01*
X119078667Y-56146000D01*
X118967014Y-56156997D01*
X118823753Y-56200454D01*
X118691724Y-56271026D01*
X118575999Y-56365999D01*
X118552201Y-56394997D01*
X117598998Y-57348201D01*
X117570000Y-57371999D01*
X117546202Y-57400997D01*
X117546201Y-57400998D01*
X117475026Y-57487724D01*
X117404454Y-57619754D01*
X117360998Y-57763015D01*
X117346324Y-57912000D01*
X117350001Y-57949332D01*
X117350000Y-60645198D01*
X113788998Y-64206201D01*
X113760000Y-64229999D01*
X113736202Y-64258997D01*
X113736201Y-64258998D01*
X113672013Y-64337210D01*
X112520000Y-63185199D01*
X112520000Y-58226801D01*
X113045446Y-57701356D01*
X113146525Y-57852632D01*
X113278380Y-57984487D01*
X113205820Y-58006498D01*
X113095506Y-58065463D01*
X112998815Y-58144815D01*
X112919463Y-58241506D01*
X112860498Y-58351820D01*
X112824188Y-58471518D01*
X112811928Y-58596000D01*
X112811928Y-60296000D01*
X112824188Y-60420482D01*
X112860498Y-60540180D01*
X112919463Y-60650494D01*
X112998815Y-60747185D01*
X113095506Y-60826537D01*
X113205820Y-60885502D01*
X113325518Y-60921812D01*
X113450000Y-60934072D01*
X115150000Y-60934072D01*
X115274482Y-60921812D01*
X115394180Y-60885502D01*
X115504494Y-60826537D01*
X115601185Y-60747185D01*
X115680537Y-60650494D01*
X115739502Y-60540180D01*
X115775812Y-60420482D01*
X115788072Y-60296000D01*
X115788072Y-58596000D01*
X115775812Y-58471518D01*
X115739502Y-58351820D01*
X115680537Y-58241506D01*
X115601185Y-58144815D01*
X115504494Y-58065463D01*
X115394180Y-58006498D01*
X115321620Y-57984487D01*
X115453475Y-57852632D01*
X115615990Y-57609411D01*
X115727932Y-57339158D01*
X115785000Y-57052260D01*
X115785000Y-56759740D01*
X115727932Y-56472842D01*
X115615990Y-56202589D01*
X115453475Y-55959368D01*
X115246632Y-55752525D01*
X115064466Y-55630805D01*
X115181355Y-55561178D01*
X115397588Y-55366269D01*
X115571641Y-55132920D01*
X115696825Y-54870099D01*
X115741476Y-54722890D01*
X115620155Y-54493000D01*
X114427000Y-54493000D01*
X114427000Y-54513000D01*
X114173000Y-54513000D01*
X114173000Y-54493000D01*
X112979845Y-54493000D01*
X112858524Y-54722890D01*
X112903175Y-54870099D01*
X113028359Y-55132920D01*
X113202412Y-55366269D01*
X113418645Y-55561178D01*
X113535534Y-55630805D01*
X113353368Y-55752525D01*
X113146525Y-55959368D01*
X113021822Y-56146000D01*
X112803323Y-56146000D01*
X112766000Y-56142324D01*
X112728677Y-56146000D01*
X112728667Y-56146000D01*
X112617014Y-56156997D01*
X112473753Y-56200454D01*
X112341724Y-56271026D01*
X112225999Y-56365999D01*
X112202201Y-56394997D01*
X111248998Y-57348201D01*
X111220000Y-57371999D01*
X111196202Y-57400997D01*
X111196201Y-57400998D01*
X111125026Y-57487724D01*
X111054454Y-57619754D01*
X111010998Y-57763015D01*
X110996324Y-57912000D01*
X111000001Y-57949332D01*
X111000000Y-63462677D01*
X110996324Y-63500000D01*
X111000000Y-63537322D01*
X111000000Y-63537332D01*
X111010997Y-63648985D01*
X111031251Y-63715753D01*
X111054454Y-63792246D01*
X111125026Y-63924276D01*
X111163099Y-63970667D01*
X111219999Y-64040001D01*
X111249002Y-64063803D01*
X112819001Y-65633804D01*
X112819000Y-69483397D01*
X112814498Y-69491820D01*
X112778188Y-69611518D01*
X112765928Y-69736000D01*
X112765928Y-70068126D01*
X111811310Y-69113509D01*
X111791850Y-69049358D01*
X111712671Y-68901225D01*
X111606115Y-68771385D01*
X111476275Y-68664829D01*
X111328142Y-68585650D01*
X111167408Y-68536892D01*
X111000250Y-68520428D01*
X110487750Y-68520428D01*
X110363000Y-68532715D01*
X110363000Y-54009110D01*
X112858524Y-54009110D01*
X112979845Y-54239000D01*
X114173000Y-54239000D01*
X114173000Y-53045186D01*
X114427000Y-53045186D01*
X114427000Y-54239000D01*
X115620155Y-54239000D01*
X115741476Y-54009110D01*
X118954524Y-54009110D01*
X119075845Y-54239000D01*
X120269000Y-54239000D01*
X120269000Y-53045186D01*
X120523000Y-53045186D01*
X120523000Y-54239000D01*
X121716155Y-54239000D01*
X121837476Y-54009110D01*
X121792825Y-53861901D01*
X121667641Y-53599080D01*
X121493588Y-53365731D01*
X121277355Y-53170822D01*
X121027252Y-53021843D01*
X120752891Y-52924519D01*
X120523000Y-53045186D01*
X120269000Y-53045186D01*
X120039109Y-52924519D01*
X119764748Y-53021843D01*
X119514645Y-53170822D01*
X119298412Y-53365731D01*
X119124359Y-53599080D01*
X118999175Y-53861901D01*
X118954524Y-54009110D01*
X115741476Y-54009110D01*
X115696825Y-53861901D01*
X115571641Y-53599080D01*
X115397588Y-53365731D01*
X115181355Y-53170822D01*
X114931252Y-53021843D01*
X114656891Y-52924519D01*
X114427000Y-53045186D01*
X114173000Y-53045186D01*
X113943109Y-52924519D01*
X113668748Y-53021843D01*
X113418645Y-53170822D01*
X113202412Y-53365731D01*
X113028359Y-53599080D01*
X112903175Y-53861901D01*
X112858524Y-54009110D01*
X110363000Y-54009110D01*
X110363000Y-49276328D01*
X110376769Y-49171743D01*
X110413923Y-49082045D01*
X110473024Y-49005024D01*
X110550045Y-48945923D01*
X110612629Y-48920000D01*
X146943371Y-48920000D01*
X147005955Y-48945923D01*
G36*
X119107000Y-79287802D02*
G01*
X119107000Y-79349939D01*
X119146774Y-79549898D01*
X119224795Y-79738256D01*
X119338063Y-79907774D01*
X119482226Y-80051937D01*
X119651744Y-80165205D01*
X119840102Y-80243226D01*
X120040061Y-80283000D01*
X120243939Y-80283000D01*
X120443898Y-80243226D01*
X120632256Y-80165205D01*
X120801774Y-80051937D01*
X120945937Y-79907774D01*
X121059205Y-79738256D01*
X121137226Y-79549898D01*
X121177000Y-79349939D01*
X121177000Y-79233802D01*
X122684000Y-80740803D01*
X122684001Y-81496668D01*
X122680324Y-81534000D01*
X122684001Y-81571333D01*
X122690393Y-81636226D01*
X122694998Y-81682985D01*
X122738454Y-81826246D01*
X122809026Y-81958276D01*
X122867071Y-82029003D01*
X122904000Y-82074001D01*
X122932998Y-82097799D01*
X125986843Y-85151645D01*
X125942482Y-85138188D01*
X125818000Y-85125928D01*
X124118000Y-85125928D01*
X123993518Y-85138188D01*
X123873820Y-85174498D01*
X123763506Y-85233463D01*
X123666815Y-85312815D01*
X123587463Y-85409506D01*
X123528498Y-85519820D01*
X123492188Y-85639518D01*
X123479928Y-85764000D01*
X123479928Y-85829126D01*
X118616000Y-80965199D01*
X118616000Y-78796802D01*
X119107000Y-79287802D01*
G37*
X119107000Y-79287802D02*
X119107000Y-79349939D01*
X119146774Y-79549898D01*
X119224795Y-79738256D01*
X119338063Y-79907774D01*
X119482226Y-80051937D01*
X119651744Y-80165205D01*
X119840102Y-80243226D01*
X120040061Y-80283000D01*
X120243939Y-80283000D01*
X120443898Y-80243226D01*
X120632256Y-80165205D01*
X120801774Y-80051937D01*
X120945937Y-79907774D01*
X121059205Y-79738256D01*
X121137226Y-79549898D01*
X121177000Y-79349939D01*
X121177000Y-79233802D01*
X122684000Y-80740803D01*
X122684001Y-81496668D01*
X122680324Y-81534000D01*
X122684001Y-81571333D01*
X122690393Y-81636226D01*
X122694998Y-81682985D01*
X122738454Y-81826246D01*
X122809026Y-81958276D01*
X122867071Y-82029003D01*
X122904000Y-82074001D01*
X122932998Y-82097799D01*
X125986843Y-85151645D01*
X125942482Y-85138188D01*
X125818000Y-85125928D01*
X124118000Y-85125928D01*
X123993518Y-85138188D01*
X123873820Y-85174498D01*
X123763506Y-85233463D01*
X123666815Y-85312815D01*
X123587463Y-85409506D01*
X123528498Y-85519820D01*
X123492188Y-85639518D01*
X123479928Y-85764000D01*
X123479928Y-85829126D01*
X118616000Y-80965199D01*
X118616000Y-78796802D01*
X119107000Y-79287802D01*
G36*
X121889700Y-74704502D02*
G01*
X121913499Y-74733501D01*
X122029224Y-74828474D01*
X122161253Y-74899046D01*
X122304514Y-74942503D01*
X122416167Y-74953500D01*
X122416177Y-74953500D01*
X122453500Y-74957176D01*
X122490823Y-74953500D01*
X127354857Y-74953500D01*
X127407885Y-75018115D01*
X127537725Y-75124671D01*
X127685858Y-75203850D01*
X127846592Y-75252608D01*
X128013750Y-75269072D01*
X128526250Y-75269072D01*
X128693408Y-75252608D01*
X128854142Y-75203850D01*
X129002275Y-75124671D01*
X129132115Y-75018115D01*
X129185143Y-74953500D01*
X136108699Y-74953500D01*
X136850201Y-75695003D01*
X136873999Y-75724001D01*
X136902997Y-75747799D01*
X136989724Y-75818974D01*
X137121753Y-75889546D01*
X137265014Y-75933003D01*
X137414000Y-75947677D01*
X137451333Y-75944000D01*
X140707822Y-75944000D01*
X140832525Y-76130632D01*
X141039368Y-76337475D01*
X141213760Y-76454000D01*
X141039368Y-76570525D01*
X140832525Y-76777368D01*
X140670010Y-77020589D01*
X140558068Y-77290842D01*
X140501000Y-77577740D01*
X140501000Y-77870260D01*
X140558068Y-78157158D01*
X140670010Y-78427411D01*
X140832525Y-78670632D01*
X141039368Y-78877475D01*
X141213760Y-78994000D01*
X141039368Y-79110525D01*
X140832525Y-79317368D01*
X140707822Y-79504000D01*
X138490802Y-79504000D01*
X134929804Y-75943003D01*
X134906001Y-75913999D01*
X134790276Y-75819026D01*
X134658247Y-75748454D01*
X134514986Y-75704997D01*
X134403333Y-75694000D01*
X134403322Y-75694000D01*
X134366000Y-75690324D01*
X134328678Y-75694000D01*
X128835323Y-75694000D01*
X128798000Y-75690324D01*
X128760677Y-75694000D01*
X128760667Y-75694000D01*
X128649014Y-75704997D01*
X128505753Y-75748454D01*
X128373724Y-75819026D01*
X128257999Y-75913999D01*
X128234201Y-75942998D01*
X127903199Y-76274000D01*
X127844482Y-76256188D01*
X127720000Y-76243928D01*
X126820000Y-76243928D01*
X126695518Y-76256188D01*
X126575820Y-76292498D01*
X126465506Y-76351463D01*
X126368815Y-76430815D01*
X126293982Y-76522000D01*
X125710841Y-76522000D01*
X125700275Y-76513329D01*
X125552142Y-76434150D01*
X125391408Y-76385392D01*
X125224250Y-76368928D01*
X124711750Y-76368928D01*
X124544592Y-76385392D01*
X124383858Y-76434150D01*
X124235725Y-76513329D01*
X124105885Y-76619885D01*
X124052857Y-76684500D01*
X122502302Y-76684500D01*
X118388801Y-72571000D01*
X119756199Y-72571000D01*
X121889700Y-74704502D01*
G37*
X121889700Y-74704502D02*
X121913499Y-74733501D01*
X122029224Y-74828474D01*
X122161253Y-74899046D01*
X122304514Y-74942503D01*
X122416167Y-74953500D01*
X122416177Y-74953500D01*
X122453500Y-74957176D01*
X122490823Y-74953500D01*
X127354857Y-74953500D01*
X127407885Y-75018115D01*
X127537725Y-75124671D01*
X127685858Y-75203850D01*
X127846592Y-75252608D01*
X128013750Y-75269072D01*
X128526250Y-75269072D01*
X128693408Y-75252608D01*
X128854142Y-75203850D01*
X129002275Y-75124671D01*
X129132115Y-75018115D01*
X129185143Y-74953500D01*
X136108699Y-74953500D01*
X136850201Y-75695003D01*
X136873999Y-75724001D01*
X136902997Y-75747799D01*
X136989724Y-75818974D01*
X137121753Y-75889546D01*
X137265014Y-75933003D01*
X137414000Y-75947677D01*
X137451333Y-75944000D01*
X140707822Y-75944000D01*
X140832525Y-76130632D01*
X141039368Y-76337475D01*
X141213760Y-76454000D01*
X141039368Y-76570525D01*
X140832525Y-76777368D01*
X140670010Y-77020589D01*
X140558068Y-77290842D01*
X140501000Y-77577740D01*
X140501000Y-77870260D01*
X140558068Y-78157158D01*
X140670010Y-78427411D01*
X140832525Y-78670632D01*
X141039368Y-78877475D01*
X141213760Y-78994000D01*
X141039368Y-79110525D01*
X140832525Y-79317368D01*
X140707822Y-79504000D01*
X138490802Y-79504000D01*
X134929804Y-75943003D01*
X134906001Y-75913999D01*
X134790276Y-75819026D01*
X134658247Y-75748454D01*
X134514986Y-75704997D01*
X134403333Y-75694000D01*
X134403322Y-75694000D01*
X134366000Y-75690324D01*
X134328678Y-75694000D01*
X128835323Y-75694000D01*
X128798000Y-75690324D01*
X128760677Y-75694000D01*
X128760667Y-75694000D01*
X128649014Y-75704997D01*
X128505753Y-75748454D01*
X128373724Y-75819026D01*
X128257999Y-75913999D01*
X128234201Y-75942998D01*
X127903199Y-76274000D01*
X127844482Y-76256188D01*
X127720000Y-76243928D01*
X126820000Y-76243928D01*
X126695518Y-76256188D01*
X126575820Y-76292498D01*
X126465506Y-76351463D01*
X126368815Y-76430815D01*
X126293982Y-76522000D01*
X125710841Y-76522000D01*
X125700275Y-76513329D01*
X125552142Y-76434150D01*
X125391408Y-76385392D01*
X125224250Y-76368928D01*
X124711750Y-76368928D01*
X124544592Y-76385392D01*
X124383858Y-76434150D01*
X124235725Y-76513329D01*
X124105885Y-76619885D01*
X124052857Y-76684500D01*
X122502302Y-76684500D01*
X118388801Y-72571000D01*
X119756199Y-72571000D01*
X121889700Y-74704502D01*
G36*
X138120205Y-73155008D02*
G01*
X138143999Y-73184001D01*
X138172992Y-73207795D01*
X138172996Y-73207799D01*
X138216808Y-73243754D01*
X138259724Y-73278974D01*
X138391753Y-73349546D01*
X138535014Y-73393003D01*
X138646667Y-73404000D01*
X138646676Y-73404000D01*
X138683999Y-73407676D01*
X138721322Y-73404000D01*
X140707822Y-73404000D01*
X140832525Y-73590632D01*
X141039368Y-73797475D01*
X141213760Y-73914000D01*
X141039368Y-74030525D01*
X140832525Y-74237368D01*
X140707822Y-74424000D01*
X137728802Y-74424000D01*
X136987304Y-73682502D01*
X136963501Y-73653499D01*
X136847776Y-73558526D01*
X136715747Y-73487954D01*
X136572486Y-73444497D01*
X136460833Y-73433500D01*
X136460822Y-73433500D01*
X136423500Y-73429824D01*
X136386178Y-73433500D01*
X129185143Y-73433500D01*
X129162574Y-73406000D01*
X129238671Y-73313275D01*
X129317850Y-73165142D01*
X129366608Y-73004408D01*
X129383072Y-72837250D01*
X129383072Y-72399750D01*
X129366608Y-72232592D01*
X129317850Y-72071858D01*
X129238671Y-71923725D01*
X129132115Y-71793885D01*
X129088451Y-71758052D01*
X129187205Y-71610256D01*
X129265226Y-71421898D01*
X129305000Y-71221939D01*
X129305000Y-71018061D01*
X129274356Y-70864000D01*
X135829199Y-70864000D01*
X138120205Y-73155008D01*
G37*
X138120205Y-73155008D02*
X138143999Y-73184001D01*
X138172992Y-73207795D01*
X138172996Y-73207799D01*
X138216808Y-73243754D01*
X138259724Y-73278974D01*
X138391753Y-73349546D01*
X138535014Y-73393003D01*
X138646667Y-73404000D01*
X138646676Y-73404000D01*
X138683999Y-73407676D01*
X138721322Y-73404000D01*
X140707822Y-73404000D01*
X140832525Y-73590632D01*
X141039368Y-73797475D01*
X141213760Y-73914000D01*
X141039368Y-74030525D01*
X140832525Y-74237368D01*
X140707822Y-74424000D01*
X137728802Y-74424000D01*
X136987304Y-73682502D01*
X136963501Y-73653499D01*
X136847776Y-73558526D01*
X136715747Y-73487954D01*
X136572486Y-73444497D01*
X136460833Y-73433500D01*
X136460822Y-73433500D01*
X136423500Y-73429824D01*
X136386178Y-73433500D01*
X129185143Y-73433500D01*
X129162574Y-73406000D01*
X129238671Y-73313275D01*
X129317850Y-73165142D01*
X129366608Y-73004408D01*
X129383072Y-72837250D01*
X129383072Y-72399750D01*
X129366608Y-72232592D01*
X129317850Y-72071858D01*
X129238671Y-71923725D01*
X129132115Y-71793885D01*
X129088451Y-71758052D01*
X129187205Y-71610256D01*
X129265226Y-71421898D01*
X129305000Y-71221939D01*
X129305000Y-71018061D01*
X129274356Y-70864000D01*
X135829199Y-70864000D01*
X138120205Y-73155008D01*
G36*
X127235000Y-71018061D02*
G01*
X127235000Y-71221939D01*
X127274774Y-71421898D01*
X127352795Y-71610256D01*
X127451549Y-71758052D01*
X127407885Y-71793885D01*
X127301329Y-71923725D01*
X127222150Y-72071858D01*
X127173392Y-72232592D01*
X127156928Y-72399750D01*
X127156928Y-72837250D01*
X127173392Y-73004408D01*
X127222150Y-73165142D01*
X127301329Y-73313275D01*
X127377426Y-73406000D01*
X127354857Y-73433500D01*
X122768302Y-73433500D01*
X121255801Y-71921000D01*
X123365678Y-71921000D01*
X123403000Y-71924676D01*
X123440322Y-71921000D01*
X123440333Y-71921000D01*
X123551986Y-71910003D01*
X123695247Y-71866546D01*
X123827276Y-71795974D01*
X123943001Y-71701001D01*
X123966804Y-71671998D01*
X124774802Y-70864000D01*
X127265644Y-70864000D01*
X127235000Y-71018061D01*
G37*
X127235000Y-71018061D02*
X127235000Y-71221939D01*
X127274774Y-71421898D01*
X127352795Y-71610256D01*
X127451549Y-71758052D01*
X127407885Y-71793885D01*
X127301329Y-71923725D01*
X127222150Y-72071858D01*
X127173392Y-72232592D01*
X127156928Y-72399750D01*
X127156928Y-72837250D01*
X127173392Y-73004408D01*
X127222150Y-73165142D01*
X127301329Y-73313275D01*
X127377426Y-73406000D01*
X127354857Y-73433500D01*
X122768302Y-73433500D01*
X121255801Y-71921000D01*
X123365678Y-71921000D01*
X123403000Y-71924676D01*
X123440322Y-71921000D01*
X123440333Y-71921000D01*
X123551986Y-71910003D01*
X123695247Y-71866546D01*
X123827276Y-71795974D01*
X123943001Y-71701001D01*
X123966804Y-71671998D01*
X124774802Y-70864000D01*
X127265644Y-70864000D01*
X127235000Y-71018061D01*
G36*
X114681000Y-72009000D02*
G01*
X114701000Y-72009000D01*
X114701000Y-72263000D01*
X114681000Y-72263000D01*
X114681000Y-72283000D01*
X114427000Y-72283000D01*
X114427000Y-72263000D01*
X114407000Y-72263000D01*
X114407000Y-72009000D01*
X114427000Y-72009000D01*
X114427000Y-71989000D01*
X114681000Y-71989000D01*
X114681000Y-72009000D01*
G37*
X114681000Y-72009000D02*
X114701000Y-72009000D01*
X114701000Y-72263000D01*
X114681000Y-72263000D01*
X114681000Y-72283000D01*
X114427000Y-72283000D01*
X114427000Y-72263000D01*
X114407000Y-72263000D01*
X114407000Y-72009000D01*
X114427000Y-72009000D01*
X114427000Y-71989000D01*
X114681000Y-71989000D01*
X114681000Y-72009000D01*
G36*
X110871000Y-71044000D02*
G01*
X110891000Y-71044000D01*
X110891000Y-71298000D01*
X110871000Y-71298000D01*
X110871000Y-71318000D01*
X110617000Y-71318000D01*
X110617000Y-71298000D01*
X110597000Y-71298000D01*
X110597000Y-71044000D01*
X110617000Y-71044000D01*
X110617000Y-71024000D01*
X110871000Y-71024000D01*
X110871000Y-71044000D01*
G37*
X110871000Y-71044000D02*
X110891000Y-71044000D01*
X110891000Y-71298000D01*
X110871000Y-71298000D01*
X110871000Y-71318000D01*
X110617000Y-71318000D01*
X110617000Y-71298000D01*
X110597000Y-71298000D01*
X110597000Y-71044000D01*
X110617000Y-71044000D01*
X110617000Y-71024000D01*
X110871000Y-71024000D01*
X110871000Y-71044000D01*
M02*
