G04 #@! TF.GenerationSoftware,KiCad,Pcbnew,(5.1.8)-1*
G04 #@! TF.CreationDate,2021-02-17T15:43:10-07:00*
G04 #@! TF.ProjectId,AS3935,41533339-3335-42e6-9b69-6361645f7063,rev?*
G04 #@! TF.SameCoordinates,Original*
G04 #@! TF.FileFunction,Soldermask,Top*
G04 #@! TF.FilePolarity,Negative*
%FSLAX46Y46*%
G04 Gerber Fmt 4.6, Leading zero omitted, Abs format (unit mm)*
G04 Created by KiCad (PCBNEW (5.1.8)-1) date 2021-02-17 15:43:10*
%MOMM*%
%LPD*%
G01*
G04 APERTURE LIST*
%ADD10O,1.800000X1.800000*%
%ADD11C,0.100000*%
G04 APERTURE END LIST*
G36*
G01*
X124686750Y-78532000D02*
X125249250Y-78532000D01*
G75*
G02*
X125493000Y-78775750I0J-243750D01*
G01*
X125493000Y-79263250D01*
G75*
G02*
X125249250Y-79507000I-243750J0D01*
G01*
X124686750Y-79507000D01*
G75*
G02*
X124443000Y-79263250I0J243750D01*
G01*
X124443000Y-78775750D01*
G75*
G02*
X124686750Y-78532000I243750J0D01*
G01*
G37*
G36*
G01*
X124686750Y-76957000D02*
X125249250Y-76957000D01*
G75*
G02*
X125493000Y-77200750I0J-243750D01*
G01*
X125493000Y-77688250D01*
G75*
G02*
X125249250Y-77932000I-243750J0D01*
G01*
X124686750Y-77932000D01*
G75*
G02*
X124443000Y-77688250I0J243750D01*
G01*
X124443000Y-77200750D01*
G75*
G02*
X124686750Y-76957000I243750J0D01*
G01*
G37*
G36*
G01*
X135402500Y-67337250D02*
X135402500Y-66774750D01*
G75*
G02*
X135646250Y-66531000I243750J0D01*
G01*
X136133750Y-66531000D01*
G75*
G02*
X136377500Y-66774750I0J-243750D01*
G01*
X136377500Y-67337250D01*
G75*
G02*
X136133750Y-67581000I-243750J0D01*
G01*
X135646250Y-67581000D01*
G75*
G02*
X135402500Y-67337250I0J243750D01*
G01*
G37*
G36*
G01*
X133827500Y-67337250D02*
X133827500Y-66774750D01*
G75*
G02*
X134071250Y-66531000I243750J0D01*
G01*
X134558750Y-66531000D01*
G75*
G02*
X134802500Y-66774750I0J-243750D01*
G01*
X134802500Y-67337250D01*
G75*
G02*
X134558750Y-67581000I-243750J0D01*
G01*
X134071250Y-67581000D01*
G75*
G02*
X133827500Y-67337250I0J243750D01*
G01*
G37*
G36*
G01*
X128770000Y-78632000D02*
X128770000Y-77832000D01*
G75*
G02*
X128820000Y-77782000I50000J0D01*
G01*
X129720000Y-77782000D01*
G75*
G02*
X129770000Y-77832000I0J-50000D01*
G01*
X129770000Y-78632000D01*
G75*
G02*
X129720000Y-78682000I-50000J0D01*
G01*
X128820000Y-78682000D01*
G75*
G02*
X128770000Y-78632000I0J50000D01*
G01*
G37*
G36*
G01*
X126770000Y-79582000D02*
X126770000Y-78782000D01*
G75*
G02*
X126820000Y-78732000I50000J0D01*
G01*
X127720000Y-78732000D01*
G75*
G02*
X127770000Y-78782000I0J-50000D01*
G01*
X127770000Y-79582000D01*
G75*
G02*
X127720000Y-79632000I-50000J0D01*
G01*
X126820000Y-79632000D01*
G75*
G02*
X126770000Y-79582000I0J50000D01*
G01*
G37*
G36*
G01*
X126770000Y-77682000D02*
X126770000Y-76882000D01*
G75*
G02*
X126820000Y-76832000I50000J0D01*
G01*
X127720000Y-76832000D01*
G75*
G02*
X127770000Y-76882000I0J-50000D01*
G01*
X127770000Y-77682000D01*
G75*
G02*
X127720000Y-77732000I-50000J0D01*
G01*
X126820000Y-77732000D01*
G75*
G02*
X126770000Y-77682000I0J50000D01*
G01*
G37*
D10*
X131318000Y-64008000D03*
G36*
G01*
X133008000Y-63108000D02*
X134708000Y-63108000D01*
G75*
G02*
X134758000Y-63158000I0J-50000D01*
G01*
X134758000Y-64858000D01*
G75*
G02*
X134708000Y-64908000I-50000J0D01*
G01*
X133008000Y-64908000D01*
G75*
G02*
X132958000Y-64858000I0J50000D01*
G01*
X132958000Y-63158000D01*
G75*
G02*
X133008000Y-63108000I50000J0D01*
G01*
G37*
G36*
G01*
X136648000Y-85266771D02*
X136648000Y-84405229D01*
G75*
G02*
X136917229Y-84136000I269229J0D01*
G01*
X137803771Y-84136000D01*
G75*
G02*
X138073000Y-84405229I0J-269229D01*
G01*
X138073000Y-85266771D01*
G75*
G02*
X137803771Y-85536000I-269229J0D01*
G01*
X136917229Y-85536000D01*
G75*
G02*
X136648000Y-85266771I0J269229D01*
G01*
G37*
G36*
G01*
X134723000Y-85266771D02*
X134723000Y-84405229D01*
G75*
G02*
X134992229Y-84136000I269229J0D01*
G01*
X135878771Y-84136000D01*
G75*
G02*
X136148000Y-84405229I0J-269229D01*
G01*
X136148000Y-85266771D01*
G75*
G02*
X135878771Y-85536000I-269229J0D01*
G01*
X134992229Y-85536000D01*
G75*
G02*
X134723000Y-85266771I0J269229D01*
G01*
G37*
G36*
G01*
X127988750Y-73706000D02*
X128551250Y-73706000D01*
G75*
G02*
X128795000Y-73949750I0J-243750D01*
G01*
X128795000Y-74437250D01*
G75*
G02*
X128551250Y-74681000I-243750J0D01*
G01*
X127988750Y-74681000D01*
G75*
G02*
X127745000Y-74437250I0J243750D01*
G01*
X127745000Y-73949750D01*
G75*
G02*
X127988750Y-73706000I243750J0D01*
G01*
G37*
G36*
G01*
X127988750Y-72131000D02*
X128551250Y-72131000D01*
G75*
G02*
X128795000Y-72374750I0J-243750D01*
G01*
X128795000Y-72862250D01*
G75*
G02*
X128551250Y-73106000I-243750J0D01*
G01*
X127988750Y-73106000D01*
G75*
G02*
X127745000Y-72862250I0J243750D01*
G01*
X127745000Y-72374750D01*
G75*
G02*
X127988750Y-72131000I243750J0D01*
G01*
G37*
G36*
G01*
X108176750Y-72182000D02*
X108739250Y-72182000D01*
G75*
G02*
X108983000Y-72425750I0J-243750D01*
G01*
X108983000Y-72913250D01*
G75*
G02*
X108739250Y-73157000I-243750J0D01*
G01*
X108176750Y-73157000D01*
G75*
G02*
X107933000Y-72913250I0J243750D01*
G01*
X107933000Y-72425750D01*
G75*
G02*
X108176750Y-72182000I243750J0D01*
G01*
G37*
G36*
G01*
X108176750Y-70607000D02*
X108739250Y-70607000D01*
G75*
G02*
X108983000Y-70850750I0J-243750D01*
G01*
X108983000Y-71338250D01*
G75*
G02*
X108739250Y-71582000I-243750J0D01*
G01*
X108176750Y-71582000D01*
G75*
G02*
X107933000Y-71338250I0J243750D01*
G01*
X107933000Y-70850750D01*
G75*
G02*
X108176750Y-70607000I243750J0D01*
G01*
G37*
G36*
G01*
X113764750Y-79548000D02*
X114327250Y-79548000D01*
G75*
G02*
X114571000Y-79791750I0J-243750D01*
G01*
X114571000Y-80279250D01*
G75*
G02*
X114327250Y-80523000I-243750J0D01*
G01*
X113764750Y-80523000D01*
G75*
G02*
X113521000Y-80279250I0J243750D01*
G01*
X113521000Y-79791750D01*
G75*
G02*
X113764750Y-79548000I243750J0D01*
G01*
G37*
G36*
G01*
X113764750Y-77973000D02*
X114327250Y-77973000D01*
G75*
G02*
X114571000Y-78216750I0J-243750D01*
G01*
X114571000Y-78704250D01*
G75*
G02*
X114327250Y-78948000I-243750J0D01*
G01*
X113764750Y-78948000D01*
G75*
G02*
X113521000Y-78704250I0J243750D01*
G01*
X113521000Y-78216750D01*
G75*
G02*
X113764750Y-77973000I243750J0D01*
G01*
G37*
G36*
G01*
X111025250Y-70083500D02*
X110462750Y-70083500D01*
G75*
G02*
X110219000Y-69839750I0J243750D01*
G01*
X110219000Y-69352250D01*
G75*
G02*
X110462750Y-69108500I243750J0D01*
G01*
X111025250Y-69108500D01*
G75*
G02*
X111269000Y-69352250I0J-243750D01*
G01*
X111269000Y-69839750D01*
G75*
G02*
X111025250Y-70083500I-243750J0D01*
G01*
G37*
G36*
G01*
X111025250Y-71658500D02*
X110462750Y-71658500D01*
G75*
G02*
X110219000Y-71414750I0J243750D01*
G01*
X110219000Y-70927250D01*
G75*
G02*
X110462750Y-70683500I243750J0D01*
G01*
X111025250Y-70683500D01*
G75*
G02*
X111269000Y-70927250I0J-243750D01*
G01*
X111269000Y-71414750D01*
G75*
G02*
X111025250Y-71658500I-243750J0D01*
G01*
G37*
G36*
G01*
X106017750Y-72182000D02*
X106580250Y-72182000D01*
G75*
G02*
X106824000Y-72425750I0J-243750D01*
G01*
X106824000Y-72913250D01*
G75*
G02*
X106580250Y-73157000I-243750J0D01*
G01*
X106017750Y-73157000D01*
G75*
G02*
X105774000Y-72913250I0J243750D01*
G01*
X105774000Y-72425750D01*
G75*
G02*
X106017750Y-72182000I243750J0D01*
G01*
G37*
G36*
G01*
X106017750Y-70607000D02*
X106580250Y-70607000D01*
G75*
G02*
X106824000Y-70850750I0J-243750D01*
G01*
X106824000Y-71338250D01*
G75*
G02*
X106580250Y-71582000I-243750J0D01*
G01*
X106017750Y-71582000D01*
G75*
G02*
X105774000Y-71338250I0J243750D01*
G01*
X105774000Y-70850750D01*
G75*
G02*
X106017750Y-70607000I243750J0D01*
G01*
G37*
G36*
G01*
X103858750Y-72182000D02*
X104421250Y-72182000D01*
G75*
G02*
X104665000Y-72425750I0J-243750D01*
G01*
X104665000Y-72913250D01*
G75*
G02*
X104421250Y-73157000I-243750J0D01*
G01*
X103858750Y-73157000D01*
G75*
G02*
X103615000Y-72913250I0J243750D01*
G01*
X103615000Y-72425750D01*
G75*
G02*
X103858750Y-72182000I243750J0D01*
G01*
G37*
G36*
G01*
X103858750Y-70607000D02*
X104421250Y-70607000D01*
G75*
G02*
X104665000Y-70850750I0J-243750D01*
G01*
X104665000Y-71338250D01*
G75*
G02*
X104421250Y-71582000I-243750J0D01*
G01*
X103858750Y-71582000D01*
G75*
G02*
X103615000Y-71338250I0J243750D01*
G01*
X103615000Y-70850750D01*
G75*
G02*
X103858750Y-70607000I243750J0D01*
G01*
G37*
G36*
G01*
X111942500Y-75664750D02*
X111942500Y-76227250D01*
G75*
G02*
X111698750Y-76471000I-243750J0D01*
G01*
X111211250Y-76471000D01*
G75*
G02*
X110967500Y-76227250I0J243750D01*
G01*
X110967500Y-75664750D01*
G75*
G02*
X111211250Y-75421000I243750J0D01*
G01*
X111698750Y-75421000D01*
G75*
G02*
X111942500Y-75664750I0J-243750D01*
G01*
G37*
G36*
G01*
X113517500Y-75664750D02*
X113517500Y-76227250D01*
G75*
G02*
X113273750Y-76471000I-243750J0D01*
G01*
X112786250Y-76471000D01*
G75*
G02*
X112542500Y-76227250I0J243750D01*
G01*
X112542500Y-75664750D01*
G75*
G02*
X112786250Y-75421000I243750J0D01*
G01*
X113273750Y-75421000D01*
G75*
G02*
X113517500Y-75664750I0J-243750D01*
G01*
G37*
X141986000Y-80264000D03*
X141986000Y-77724000D03*
X141986000Y-75184000D03*
X141986000Y-72644000D03*
G36*
G01*
X141086000Y-70954000D02*
X141086000Y-69254000D01*
G75*
G02*
X141136000Y-69204000I50000J0D01*
G01*
X142836000Y-69204000D01*
G75*
G02*
X142886000Y-69254000I0J-50000D01*
G01*
X142886000Y-70954000D01*
G75*
G02*
X142836000Y-71004000I-50000J0D01*
G01*
X141136000Y-71004000D01*
G75*
G02*
X141086000Y-70954000I0J50000D01*
G01*
G37*
X128778000Y-59436000D03*
G36*
G01*
X127878000Y-57746000D02*
X127878000Y-56046000D01*
G75*
G02*
X127928000Y-55996000I50000J0D01*
G01*
X129628000Y-55996000D01*
G75*
G02*
X129678000Y-56046000I0J-50000D01*
G01*
X129678000Y-57746000D01*
G75*
G02*
X129628000Y-57796000I-50000J0D01*
G01*
X127928000Y-57796000D01*
G75*
G02*
X127878000Y-57746000I0J50000D01*
G01*
G37*
X130048000Y-86614000D03*
X127508000Y-86614000D03*
G36*
G01*
X125818000Y-87514000D02*
X124118000Y-87514000D01*
G75*
G02*
X124068000Y-87464000I0J50000D01*
G01*
X124068000Y-85764000D01*
G75*
G02*
X124118000Y-85714000I50000J0D01*
G01*
X125818000Y-85714000D01*
G75*
G02*
X125868000Y-85764000I0J-50000D01*
G01*
X125868000Y-87464000D01*
G75*
G02*
X125818000Y-87514000I-50000J0D01*
G01*
G37*
X116332000Y-84074000D03*
G36*
G01*
X117232000Y-85764000D02*
X117232000Y-87464000D01*
G75*
G02*
X117182000Y-87514000I-50000J0D01*
G01*
X115482000Y-87514000D01*
G75*
G02*
X115432000Y-87464000I0J50000D01*
G01*
X115432000Y-85764000D01*
G75*
G02*
X115482000Y-85714000I50000J0D01*
G01*
X117182000Y-85714000D01*
G75*
G02*
X117232000Y-85764000I0J-50000D01*
G01*
G37*
X120396000Y-54366000D03*
X120396000Y-56906000D03*
G36*
G01*
X121296000Y-58596000D02*
X121296000Y-60296000D01*
G75*
G02*
X121246000Y-60346000I-50000J0D01*
G01*
X119546000Y-60346000D01*
G75*
G02*
X119496000Y-60296000I0J50000D01*
G01*
X119496000Y-58596000D01*
G75*
G02*
X119546000Y-58546000I50000J0D01*
G01*
X121246000Y-58546000D01*
G75*
G02*
X121296000Y-58596000I0J-50000D01*
G01*
G37*
X114300000Y-54366000D03*
X114300000Y-56906000D03*
G36*
G01*
X115200000Y-58596000D02*
X115200000Y-60296000D01*
G75*
G02*
X115150000Y-60346000I-50000J0D01*
G01*
X113450000Y-60346000D01*
G75*
G02*
X113400000Y-60296000I0J50000D01*
G01*
X113400000Y-58596000D01*
G75*
G02*
X113450000Y-58546000I50000J0D01*
G01*
X115150000Y-58546000D01*
G75*
G02*
X115200000Y-58596000I0J-50000D01*
G01*
G37*
X141986000Y-61468000D03*
G36*
G01*
X141086000Y-59778000D02*
X141086000Y-58078000D01*
G75*
G02*
X141136000Y-58028000I50000J0D01*
G01*
X142836000Y-58028000D01*
G75*
G02*
X142886000Y-58078000I0J-50000D01*
G01*
X142886000Y-59778000D01*
G75*
G02*
X142836000Y-59828000I-50000J0D01*
G01*
X141136000Y-59828000D01*
G75*
G02*
X141086000Y-59778000I0J50000D01*
G01*
G37*
G36*
G01*
X113104000Y-73536000D02*
X113104000Y-70736000D01*
G75*
G02*
X113154000Y-70686000I50000J0D01*
G01*
X115954000Y-70686000D01*
G75*
G02*
X116004000Y-70736000I0J-50000D01*
G01*
X116004000Y-73536000D01*
G75*
G02*
X115954000Y-73586000I-50000J0D01*
G01*
X113154000Y-73586000D01*
G75*
G02*
X113104000Y-73536000I0J50000D01*
G01*
G37*
G36*
G01*
X113354000Y-70536000D02*
X113354000Y-69736000D01*
G75*
G02*
X113404000Y-69686000I50000J0D01*
G01*
X113754000Y-69686000D01*
G75*
G02*
X113804000Y-69736000I0J-50000D01*
G01*
X113804000Y-70536000D01*
G75*
G02*
X113754000Y-70586000I-50000J0D01*
G01*
X113404000Y-70586000D01*
G75*
G02*
X113354000Y-70536000I0J50000D01*
G01*
G37*
G36*
G01*
X114004000Y-70536000D02*
X114004000Y-69736000D01*
G75*
G02*
X114054000Y-69686000I50000J0D01*
G01*
X114404000Y-69686000D01*
G75*
G02*
X114454000Y-69736000I0J-50000D01*
G01*
X114454000Y-70536000D01*
G75*
G02*
X114404000Y-70586000I-50000J0D01*
G01*
X114054000Y-70586000D01*
G75*
G02*
X114004000Y-70536000I0J50000D01*
G01*
G37*
G36*
G01*
X114654000Y-70536000D02*
X114654000Y-69736000D01*
G75*
G02*
X114704000Y-69686000I50000J0D01*
G01*
X115054000Y-69686000D01*
G75*
G02*
X115104000Y-69736000I0J-50000D01*
G01*
X115104000Y-70536000D01*
G75*
G02*
X115054000Y-70586000I-50000J0D01*
G01*
X114704000Y-70586000D01*
G75*
G02*
X114654000Y-70536000I0J50000D01*
G01*
G37*
G36*
G01*
X115304000Y-70536000D02*
X115304000Y-69736000D01*
G75*
G02*
X115354000Y-69686000I50000J0D01*
G01*
X115704000Y-69686000D01*
G75*
G02*
X115754000Y-69736000I0J-50000D01*
G01*
X115754000Y-70536000D01*
G75*
G02*
X115704000Y-70586000I-50000J0D01*
G01*
X115354000Y-70586000D01*
G75*
G02*
X115304000Y-70536000I0J50000D01*
G01*
G37*
G36*
G01*
X116954000Y-71386000D02*
X116154000Y-71386000D01*
G75*
G02*
X116104000Y-71336000I0J50000D01*
G01*
X116104000Y-70986000D01*
G75*
G02*
X116154000Y-70936000I50000J0D01*
G01*
X116954000Y-70936000D01*
G75*
G02*
X117004000Y-70986000I0J-50000D01*
G01*
X117004000Y-71336000D01*
G75*
G02*
X116954000Y-71386000I-50000J0D01*
G01*
G37*
G36*
G01*
X116954000Y-72036000D02*
X116154000Y-72036000D01*
G75*
G02*
X116104000Y-71986000I0J50000D01*
G01*
X116104000Y-71636000D01*
G75*
G02*
X116154000Y-71586000I50000J0D01*
G01*
X116954000Y-71586000D01*
G75*
G02*
X117004000Y-71636000I0J-50000D01*
G01*
X117004000Y-71986000D01*
G75*
G02*
X116954000Y-72036000I-50000J0D01*
G01*
G37*
G36*
G01*
X116954000Y-72686000D02*
X116154000Y-72686000D01*
G75*
G02*
X116104000Y-72636000I0J50000D01*
G01*
X116104000Y-72286000D01*
G75*
G02*
X116154000Y-72236000I50000J0D01*
G01*
X116954000Y-72236000D01*
G75*
G02*
X117004000Y-72286000I0J-50000D01*
G01*
X117004000Y-72636000D01*
G75*
G02*
X116954000Y-72686000I-50000J0D01*
G01*
G37*
G36*
G01*
X116954000Y-73336000D02*
X116154000Y-73336000D01*
G75*
G02*
X116104000Y-73286000I0J50000D01*
G01*
X116104000Y-72936000D01*
G75*
G02*
X116154000Y-72886000I50000J0D01*
G01*
X116954000Y-72886000D01*
G75*
G02*
X117004000Y-72936000I0J-50000D01*
G01*
X117004000Y-73286000D01*
G75*
G02*
X116954000Y-73336000I-50000J0D01*
G01*
G37*
G36*
G01*
X115304000Y-74536000D02*
X115304000Y-73736000D01*
G75*
G02*
X115354000Y-73686000I50000J0D01*
G01*
X115704000Y-73686000D01*
G75*
G02*
X115754000Y-73736000I0J-50000D01*
G01*
X115754000Y-74536000D01*
G75*
G02*
X115704000Y-74586000I-50000J0D01*
G01*
X115354000Y-74586000D01*
G75*
G02*
X115304000Y-74536000I0J50000D01*
G01*
G37*
G36*
G01*
X114654000Y-74536000D02*
X114654000Y-73736000D01*
G75*
G02*
X114704000Y-73686000I50000J0D01*
G01*
X115054000Y-73686000D01*
G75*
G02*
X115104000Y-73736000I0J-50000D01*
G01*
X115104000Y-74536000D01*
G75*
G02*
X115054000Y-74586000I-50000J0D01*
G01*
X114704000Y-74586000D01*
G75*
G02*
X114654000Y-74536000I0J50000D01*
G01*
G37*
G36*
G01*
X114004000Y-74536000D02*
X114004000Y-73736000D01*
G75*
G02*
X114054000Y-73686000I50000J0D01*
G01*
X114404000Y-73686000D01*
G75*
G02*
X114454000Y-73736000I0J-50000D01*
G01*
X114454000Y-74536000D01*
G75*
G02*
X114404000Y-74586000I-50000J0D01*
G01*
X114054000Y-74586000D01*
G75*
G02*
X114004000Y-74536000I0J50000D01*
G01*
G37*
G36*
G01*
X113354000Y-74536000D02*
X113354000Y-73736000D01*
G75*
G02*
X113404000Y-73686000I50000J0D01*
G01*
X113754000Y-73686000D01*
G75*
G02*
X113804000Y-73736000I0J-50000D01*
G01*
X113804000Y-74536000D01*
G75*
G02*
X113754000Y-74586000I-50000J0D01*
G01*
X113404000Y-74586000D01*
G75*
G02*
X113354000Y-74536000I0J50000D01*
G01*
G37*
G36*
G01*
X112954000Y-73336000D02*
X112154000Y-73336000D01*
G75*
G02*
X112104000Y-73286000I0J50000D01*
G01*
X112104000Y-72936000D01*
G75*
G02*
X112154000Y-72886000I50000J0D01*
G01*
X112954000Y-72886000D01*
G75*
G02*
X113004000Y-72936000I0J-50000D01*
G01*
X113004000Y-73286000D01*
G75*
G02*
X112954000Y-73336000I-50000J0D01*
G01*
G37*
G36*
G01*
X112954000Y-72686000D02*
X112154000Y-72686000D01*
G75*
G02*
X112104000Y-72636000I0J50000D01*
G01*
X112104000Y-72286000D01*
G75*
G02*
X112154000Y-72236000I50000J0D01*
G01*
X112954000Y-72236000D01*
G75*
G02*
X113004000Y-72286000I0J-50000D01*
G01*
X113004000Y-72636000D01*
G75*
G02*
X112954000Y-72686000I-50000J0D01*
G01*
G37*
G36*
G01*
X112954000Y-72036000D02*
X112154000Y-72036000D01*
G75*
G02*
X112104000Y-71986000I0J50000D01*
G01*
X112104000Y-71636000D01*
G75*
G02*
X112154000Y-71586000I50000J0D01*
G01*
X112954000Y-71586000D01*
G75*
G02*
X113004000Y-71636000I0J-50000D01*
G01*
X113004000Y-71986000D01*
G75*
G02*
X112954000Y-72036000I-50000J0D01*
G01*
G37*
G36*
G01*
X112954000Y-71386000D02*
X112154000Y-71386000D01*
G75*
G02*
X112104000Y-71336000I0J50000D01*
G01*
X112104000Y-70986000D01*
G75*
G02*
X112154000Y-70936000I50000J0D01*
G01*
X112954000Y-70936000D01*
G75*
G02*
X113004000Y-70986000I0J-50000D01*
G01*
X113004000Y-71336000D01*
G75*
G02*
X112954000Y-71386000I-50000J0D01*
G01*
G37*
G36*
G01*
X100660000Y-68440000D02*
X97460000Y-68440000D01*
G75*
G02*
X97410000Y-68390000I0J50000D01*
G01*
X97410000Y-67090000D01*
G75*
G02*
X97460000Y-67040000I50000J0D01*
G01*
X100660000Y-67040000D01*
G75*
G02*
X100710000Y-67090000I0J-50000D01*
G01*
X100710000Y-68390000D01*
G75*
G02*
X100660000Y-68440000I-50000J0D01*
G01*
G37*
G36*
G01*
X100660000Y-77740000D02*
X97460000Y-77740000D01*
G75*
G02*
X97410000Y-77690000I0J50000D01*
G01*
X97410000Y-76390000D01*
G75*
G02*
X97460000Y-76340000I50000J0D01*
G01*
X100660000Y-76340000D01*
G75*
G02*
X100710000Y-76390000I0J-50000D01*
G01*
X100710000Y-77690000D01*
G75*
G02*
X100660000Y-77740000I-50000J0D01*
G01*
G37*
D11*
G36*
X113904000Y-73584001D02*
G01*
X113904001Y-73584000D01*
X114553999Y-73584000D01*
X114554000Y-73584001D01*
X114554001Y-73584000D01*
X115203999Y-73584000D01*
X115204000Y-73584001D01*
X115204001Y-73584000D01*
X115853999Y-73584000D01*
X115855731Y-73585000D01*
X115855731Y-73587000D01*
X115854195Y-73587990D01*
X115834885Y-73589891D01*
X115816500Y-73595469D01*
X115799559Y-73604524D01*
X115784710Y-73616710D01*
X115772524Y-73631559D01*
X115763469Y-73648500D01*
X115757891Y-73666885D01*
X115755990Y-73686195D01*
X115755893Y-73686185D01*
X115755000Y-73687732D01*
X115754000Y-73688000D01*
X115304000Y-73688000D01*
X115302268Y-73687000D01*
X115302051Y-73686191D01*
X115302010Y-73686195D01*
X115300109Y-73666885D01*
X115294531Y-73648500D01*
X115285476Y-73631559D01*
X115273290Y-73616710D01*
X115258441Y-73604524D01*
X115241500Y-73595469D01*
X115223115Y-73589891D01*
X115204000Y-73588009D01*
X115184885Y-73589891D01*
X115166500Y-73595469D01*
X115149559Y-73604524D01*
X115134710Y-73616710D01*
X115122524Y-73631559D01*
X115113469Y-73648500D01*
X115107891Y-73666885D01*
X115105990Y-73686195D01*
X115105893Y-73686185D01*
X115105000Y-73687732D01*
X115104000Y-73688000D01*
X114654000Y-73688000D01*
X114652268Y-73687000D01*
X114652051Y-73686191D01*
X114652010Y-73686195D01*
X114650109Y-73666885D01*
X114644531Y-73648500D01*
X114635476Y-73631559D01*
X114623290Y-73616710D01*
X114608441Y-73604524D01*
X114591500Y-73595469D01*
X114573115Y-73589891D01*
X114554000Y-73588009D01*
X114534885Y-73589891D01*
X114516500Y-73595469D01*
X114499559Y-73604524D01*
X114484710Y-73616710D01*
X114472524Y-73631559D01*
X114463469Y-73648500D01*
X114457891Y-73666885D01*
X114455990Y-73686195D01*
X114455893Y-73686185D01*
X114455000Y-73687732D01*
X114454000Y-73688000D01*
X114004000Y-73688000D01*
X114002268Y-73687000D01*
X114002051Y-73686191D01*
X114002010Y-73686195D01*
X114000109Y-73666885D01*
X113994531Y-73648500D01*
X113985476Y-73631559D01*
X113973290Y-73616710D01*
X113958441Y-73604524D01*
X113941500Y-73595469D01*
X113923115Y-73589891D01*
X113904000Y-73588009D01*
X113884885Y-73589891D01*
X113866500Y-73595469D01*
X113849559Y-73604524D01*
X113834710Y-73616710D01*
X113822524Y-73631559D01*
X113813469Y-73648500D01*
X113807891Y-73666885D01*
X113805990Y-73686195D01*
X113805893Y-73686185D01*
X113805000Y-73687732D01*
X113804000Y-73688000D01*
X113354000Y-73688000D01*
X113352268Y-73687000D01*
X113352051Y-73686191D01*
X113352010Y-73686195D01*
X113350109Y-73666885D01*
X113344531Y-73648500D01*
X113335476Y-73631559D01*
X113323290Y-73616710D01*
X113308441Y-73604524D01*
X113291500Y-73595469D01*
X113273115Y-73589891D01*
X113253805Y-73587990D01*
X113252179Y-73586825D01*
X113252375Y-73584835D01*
X113254001Y-73584000D01*
X113903999Y-73584000D01*
X113904000Y-73584001D01*
G37*
G36*
X116005990Y-70835805D02*
G01*
X116007891Y-70855115D01*
X116013469Y-70873500D01*
X116022524Y-70890441D01*
X116034710Y-70905290D01*
X116049559Y-70917476D01*
X116066500Y-70926531D01*
X116084885Y-70932109D01*
X116104195Y-70934010D01*
X116104185Y-70934107D01*
X116105732Y-70935000D01*
X116106000Y-70936000D01*
X116106000Y-71386000D01*
X116105000Y-71387732D01*
X116104191Y-71387949D01*
X116104195Y-71387990D01*
X116084885Y-71389891D01*
X116066500Y-71395469D01*
X116049559Y-71404524D01*
X116034710Y-71416710D01*
X116022524Y-71431559D01*
X116013469Y-71448500D01*
X116007891Y-71466885D01*
X116006009Y-71485999D01*
X116007891Y-71505115D01*
X116013469Y-71523500D01*
X116022524Y-71540441D01*
X116034710Y-71555290D01*
X116049559Y-71567476D01*
X116066500Y-71576531D01*
X116084885Y-71582109D01*
X116104195Y-71584010D01*
X116104185Y-71584107D01*
X116105732Y-71585000D01*
X116106000Y-71586000D01*
X116106000Y-72036000D01*
X116105000Y-72037732D01*
X116104191Y-72037949D01*
X116104195Y-72037990D01*
X116084885Y-72039891D01*
X116066500Y-72045469D01*
X116049559Y-72054524D01*
X116034710Y-72066710D01*
X116022524Y-72081559D01*
X116013469Y-72098500D01*
X116007891Y-72116885D01*
X116006009Y-72135999D01*
X116007891Y-72155115D01*
X116013469Y-72173500D01*
X116022524Y-72190441D01*
X116034710Y-72205290D01*
X116049559Y-72217476D01*
X116066500Y-72226531D01*
X116084885Y-72232109D01*
X116104195Y-72234010D01*
X116104185Y-72234107D01*
X116105732Y-72235000D01*
X116106000Y-72236000D01*
X116106000Y-72686000D01*
X116105000Y-72687732D01*
X116104191Y-72687949D01*
X116104195Y-72687990D01*
X116084885Y-72689891D01*
X116066500Y-72695469D01*
X116049559Y-72704524D01*
X116034710Y-72716710D01*
X116022524Y-72731559D01*
X116013469Y-72748500D01*
X116007891Y-72766885D01*
X116006009Y-72785999D01*
X116007891Y-72805115D01*
X116013469Y-72823500D01*
X116022524Y-72840441D01*
X116034710Y-72855290D01*
X116049559Y-72867476D01*
X116066500Y-72876531D01*
X116084885Y-72882109D01*
X116104195Y-72884010D01*
X116104185Y-72884107D01*
X116105732Y-72885000D01*
X116106000Y-72886000D01*
X116106000Y-73336000D01*
X116105000Y-73337732D01*
X116104191Y-73337949D01*
X116104195Y-73337990D01*
X116084885Y-73339891D01*
X116066500Y-73345469D01*
X116049559Y-73354524D01*
X116034710Y-73366710D01*
X116022524Y-73381559D01*
X116013469Y-73398500D01*
X116007891Y-73416885D01*
X116005990Y-73436195D01*
X116004825Y-73437821D01*
X116002835Y-73437625D01*
X116002000Y-73435999D01*
X116002000Y-72786001D01*
X116002001Y-72786000D01*
X116002000Y-72785999D01*
X116002000Y-72136001D01*
X116002001Y-72136000D01*
X116002000Y-72135999D01*
X116002000Y-71486001D01*
X116002001Y-71486000D01*
X116002000Y-71485999D01*
X116002000Y-70836001D01*
X116003000Y-70834269D01*
X116005000Y-70834269D01*
X116005990Y-70835805D01*
G37*
G36*
X113105165Y-70834375D02*
G01*
X113106000Y-70836001D01*
X113106000Y-71485999D01*
X113105999Y-71486000D01*
X113106000Y-71486001D01*
X113106000Y-72135999D01*
X113105999Y-72136000D01*
X113106000Y-72136001D01*
X113106000Y-72785999D01*
X113105999Y-72786000D01*
X113106000Y-72786001D01*
X113106000Y-73435999D01*
X113105000Y-73437731D01*
X113103000Y-73437731D01*
X113102010Y-73436195D01*
X113100109Y-73416885D01*
X113094531Y-73398500D01*
X113085476Y-73381559D01*
X113073290Y-73366710D01*
X113058441Y-73354524D01*
X113041500Y-73345469D01*
X113023115Y-73339891D01*
X113003805Y-73337990D01*
X113003815Y-73337893D01*
X113002268Y-73337000D01*
X113002000Y-73336000D01*
X113002000Y-72886000D01*
X113003000Y-72884268D01*
X113003809Y-72884051D01*
X113003805Y-72884010D01*
X113023115Y-72882109D01*
X113041500Y-72876531D01*
X113058441Y-72867476D01*
X113073290Y-72855290D01*
X113085476Y-72840441D01*
X113094531Y-72823500D01*
X113100109Y-72805115D01*
X113101991Y-72785999D01*
X113100109Y-72766885D01*
X113094531Y-72748500D01*
X113085476Y-72731559D01*
X113073290Y-72716710D01*
X113058441Y-72704524D01*
X113041500Y-72695469D01*
X113023115Y-72689891D01*
X113003805Y-72687990D01*
X113003815Y-72687893D01*
X113002268Y-72687000D01*
X113002000Y-72686000D01*
X113002000Y-72236000D01*
X113003000Y-72234268D01*
X113003809Y-72234051D01*
X113003805Y-72234010D01*
X113023115Y-72232109D01*
X113041500Y-72226531D01*
X113058441Y-72217476D01*
X113073290Y-72205290D01*
X113085476Y-72190441D01*
X113094531Y-72173500D01*
X113100109Y-72155115D01*
X113101991Y-72135999D01*
X113100109Y-72116885D01*
X113094531Y-72098500D01*
X113085476Y-72081559D01*
X113073290Y-72066710D01*
X113058441Y-72054524D01*
X113041500Y-72045469D01*
X113023115Y-72039891D01*
X113003805Y-72037990D01*
X113003815Y-72037893D01*
X113002268Y-72037000D01*
X113002000Y-72036000D01*
X113002000Y-71586000D01*
X113003000Y-71584268D01*
X113003809Y-71584051D01*
X113003805Y-71584010D01*
X113023115Y-71582109D01*
X113041500Y-71576531D01*
X113058441Y-71567476D01*
X113073290Y-71555290D01*
X113085476Y-71540441D01*
X113094531Y-71523500D01*
X113100109Y-71505115D01*
X113101991Y-71485999D01*
X113100109Y-71466885D01*
X113094531Y-71448500D01*
X113085476Y-71431559D01*
X113073290Y-71416710D01*
X113058441Y-71404524D01*
X113041500Y-71395469D01*
X113023115Y-71389891D01*
X113003805Y-71387990D01*
X113003815Y-71387893D01*
X113002268Y-71387000D01*
X113002000Y-71386000D01*
X113002000Y-70936000D01*
X113003000Y-70934268D01*
X113003809Y-70934051D01*
X113003805Y-70934010D01*
X113023115Y-70932109D01*
X113041500Y-70926531D01*
X113058441Y-70917476D01*
X113073290Y-70905290D01*
X113085476Y-70890441D01*
X113094531Y-70873500D01*
X113100109Y-70855115D01*
X113102010Y-70835805D01*
X113103175Y-70834179D01*
X113105165Y-70834375D01*
G37*
G36*
X113805732Y-70585000D02*
G01*
X113805949Y-70585809D01*
X113805990Y-70585805D01*
X113807891Y-70605115D01*
X113813469Y-70623500D01*
X113822524Y-70640441D01*
X113834710Y-70655290D01*
X113849559Y-70667476D01*
X113866500Y-70676531D01*
X113884885Y-70682109D01*
X113904000Y-70683991D01*
X113923115Y-70682109D01*
X113941500Y-70676531D01*
X113958441Y-70667476D01*
X113973290Y-70655290D01*
X113985476Y-70640441D01*
X113994531Y-70623500D01*
X114000109Y-70605115D01*
X114002010Y-70585805D01*
X114002107Y-70585815D01*
X114003000Y-70584268D01*
X114004000Y-70584000D01*
X114454000Y-70584000D01*
X114455732Y-70585000D01*
X114455949Y-70585809D01*
X114455990Y-70585805D01*
X114457891Y-70605115D01*
X114463469Y-70623500D01*
X114472524Y-70640441D01*
X114484710Y-70655290D01*
X114499559Y-70667476D01*
X114516500Y-70676531D01*
X114534885Y-70682109D01*
X114554000Y-70683991D01*
X114573115Y-70682109D01*
X114591500Y-70676531D01*
X114608441Y-70667476D01*
X114623290Y-70655290D01*
X114635476Y-70640441D01*
X114644531Y-70623500D01*
X114650109Y-70605115D01*
X114652010Y-70585805D01*
X114652107Y-70585815D01*
X114653000Y-70584268D01*
X114654000Y-70584000D01*
X115104000Y-70584000D01*
X115105732Y-70585000D01*
X115105949Y-70585809D01*
X115105990Y-70585805D01*
X115107891Y-70605115D01*
X115113469Y-70623500D01*
X115122524Y-70640441D01*
X115134710Y-70655290D01*
X115149559Y-70667476D01*
X115166500Y-70676531D01*
X115184885Y-70682109D01*
X115204000Y-70683991D01*
X115223115Y-70682109D01*
X115241500Y-70676531D01*
X115258441Y-70667476D01*
X115273290Y-70655290D01*
X115285476Y-70640441D01*
X115294531Y-70623500D01*
X115300109Y-70605115D01*
X115302010Y-70585805D01*
X115302107Y-70585815D01*
X115303000Y-70584268D01*
X115304000Y-70584000D01*
X115754000Y-70584000D01*
X115755732Y-70585000D01*
X115755949Y-70585809D01*
X115755990Y-70585805D01*
X115757891Y-70605115D01*
X115763469Y-70623500D01*
X115772524Y-70640441D01*
X115784710Y-70655290D01*
X115799559Y-70667476D01*
X115816500Y-70676531D01*
X115834885Y-70682109D01*
X115854195Y-70684010D01*
X115855821Y-70685175D01*
X115855625Y-70687165D01*
X115853999Y-70688000D01*
X115204001Y-70688000D01*
X115204000Y-70687999D01*
X115203999Y-70688000D01*
X113904001Y-70688000D01*
X113904000Y-70687999D01*
X113903999Y-70688000D01*
X113254001Y-70688000D01*
X113252269Y-70687000D01*
X113252269Y-70685000D01*
X113253805Y-70684010D01*
X113273115Y-70682109D01*
X113291500Y-70676531D01*
X113308441Y-70667476D01*
X113323290Y-70655290D01*
X113335476Y-70640441D01*
X113344531Y-70623500D01*
X113350109Y-70605115D01*
X113352010Y-70585805D01*
X113352107Y-70585815D01*
X113353000Y-70584268D01*
X113354000Y-70584000D01*
X113804000Y-70584000D01*
X113805732Y-70585000D01*
G37*
M02*
