G04 #@! TF.GenerationSoftware,KiCad,Pcbnew,(5.1.8)-1*
G04 #@! TF.CreationDate,2021-02-15T13:06:31-07:00*
G04 #@! TF.ProjectId,AS3935,41533339-3335-42e6-9b69-6361645f7063,rev?*
G04 #@! TF.SameCoordinates,Original*
G04 #@! TF.FileFunction,Soldermask,Top*
G04 #@! TF.FilePolarity,Negative*
%FSLAX46Y46*%
G04 Gerber Fmt 4.6, Leading zero omitted, Abs format (unit mm)*
G04 Created by KiCad (PCBNEW (5.1.8)-1) date 2021-02-15 13:06:31*
%MOMM*%
%LPD*%
G01*
G04 APERTURE LIST*
%ADD10O,1.802000X1.802000*%
%ADD11C,0.100000*%
G04 APERTURE END LIST*
G36*
G01*
X124686250Y-78531000D02*
X125249750Y-78531000D01*
G75*
G02*
X125494000Y-78775250I0J-244250D01*
G01*
X125494000Y-79263750D01*
G75*
G02*
X125249750Y-79508000I-244250J0D01*
G01*
X124686250Y-79508000D01*
G75*
G02*
X124442000Y-79263750I0J244250D01*
G01*
X124442000Y-78775250D01*
G75*
G02*
X124686250Y-78531000I244250J0D01*
G01*
G37*
G36*
G01*
X124686250Y-76956000D02*
X125249750Y-76956000D01*
G75*
G02*
X125494000Y-77200250I0J-244250D01*
G01*
X125494000Y-77688750D01*
G75*
G02*
X125249750Y-77933000I-244250J0D01*
G01*
X124686250Y-77933000D01*
G75*
G02*
X124442000Y-77688750I0J244250D01*
G01*
X124442000Y-77200250D01*
G75*
G02*
X124686250Y-76956000I244250J0D01*
G01*
G37*
G36*
G01*
X135401500Y-67337750D02*
X135401500Y-66774250D01*
G75*
G02*
X135645750Y-66530000I244250J0D01*
G01*
X136134250Y-66530000D01*
G75*
G02*
X136378500Y-66774250I0J-244250D01*
G01*
X136378500Y-67337750D01*
G75*
G02*
X136134250Y-67582000I-244250J0D01*
G01*
X135645750Y-67582000D01*
G75*
G02*
X135401500Y-67337750I0J244250D01*
G01*
G37*
G36*
G01*
X133826500Y-67337750D02*
X133826500Y-66774250D01*
G75*
G02*
X134070750Y-66530000I244250J0D01*
G01*
X134559250Y-66530000D01*
G75*
G02*
X134803500Y-66774250I0J-244250D01*
G01*
X134803500Y-67337750D01*
G75*
G02*
X134559250Y-67582000I-244250J0D01*
G01*
X134070750Y-67582000D01*
G75*
G02*
X133826500Y-67337750I0J244250D01*
G01*
G37*
G36*
G01*
X128769000Y-78632000D02*
X128769000Y-77832000D01*
G75*
G02*
X128820000Y-77781000I51000J0D01*
G01*
X129720000Y-77781000D01*
G75*
G02*
X129771000Y-77832000I0J-51000D01*
G01*
X129771000Y-78632000D01*
G75*
G02*
X129720000Y-78683000I-51000J0D01*
G01*
X128820000Y-78683000D01*
G75*
G02*
X128769000Y-78632000I0J51000D01*
G01*
G37*
G36*
G01*
X126769000Y-79582000D02*
X126769000Y-78782000D01*
G75*
G02*
X126820000Y-78731000I51000J0D01*
G01*
X127720000Y-78731000D01*
G75*
G02*
X127771000Y-78782000I0J-51000D01*
G01*
X127771000Y-79582000D01*
G75*
G02*
X127720000Y-79633000I-51000J0D01*
G01*
X126820000Y-79633000D01*
G75*
G02*
X126769000Y-79582000I0J51000D01*
G01*
G37*
G36*
G01*
X126769000Y-77682000D02*
X126769000Y-76882000D01*
G75*
G02*
X126820000Y-76831000I51000J0D01*
G01*
X127720000Y-76831000D01*
G75*
G02*
X127771000Y-76882000I0J-51000D01*
G01*
X127771000Y-77682000D01*
G75*
G02*
X127720000Y-77733000I-51000J0D01*
G01*
X126820000Y-77733000D01*
G75*
G02*
X126769000Y-77682000I0J51000D01*
G01*
G37*
D10*
X131318000Y-64008000D03*
G36*
G01*
X133008000Y-63107000D02*
X134708000Y-63107000D01*
G75*
G02*
X134759000Y-63158000I0J-51000D01*
G01*
X134759000Y-64858000D01*
G75*
G02*
X134708000Y-64909000I-51000J0D01*
G01*
X133008000Y-64909000D01*
G75*
G02*
X132957000Y-64858000I0J51000D01*
G01*
X132957000Y-63158000D01*
G75*
G02*
X133008000Y-63107000I51000J0D01*
G01*
G37*
G36*
G01*
X136647000Y-85267385D02*
X136647000Y-84404615D01*
G75*
G02*
X136916615Y-84135000I269615J0D01*
G01*
X137804385Y-84135000D01*
G75*
G02*
X138074000Y-84404615I0J-269615D01*
G01*
X138074000Y-85267385D01*
G75*
G02*
X137804385Y-85537000I-269615J0D01*
G01*
X136916615Y-85537000D01*
G75*
G02*
X136647000Y-85267385I0J269615D01*
G01*
G37*
G36*
G01*
X134722000Y-85267385D02*
X134722000Y-84404615D01*
G75*
G02*
X134991615Y-84135000I269615J0D01*
G01*
X135879385Y-84135000D01*
G75*
G02*
X136149000Y-84404615I0J-269615D01*
G01*
X136149000Y-85267385D01*
G75*
G02*
X135879385Y-85537000I-269615J0D01*
G01*
X134991615Y-85537000D01*
G75*
G02*
X134722000Y-85267385I0J269615D01*
G01*
G37*
G36*
G01*
X127988250Y-73705000D02*
X128551750Y-73705000D01*
G75*
G02*
X128796000Y-73949250I0J-244250D01*
G01*
X128796000Y-74437750D01*
G75*
G02*
X128551750Y-74682000I-244250J0D01*
G01*
X127988250Y-74682000D01*
G75*
G02*
X127744000Y-74437750I0J244250D01*
G01*
X127744000Y-73949250D01*
G75*
G02*
X127988250Y-73705000I244250J0D01*
G01*
G37*
G36*
G01*
X127988250Y-72130000D02*
X128551750Y-72130000D01*
G75*
G02*
X128796000Y-72374250I0J-244250D01*
G01*
X128796000Y-72862750D01*
G75*
G02*
X128551750Y-73107000I-244250J0D01*
G01*
X127988250Y-73107000D01*
G75*
G02*
X127744000Y-72862750I0J244250D01*
G01*
X127744000Y-72374250D01*
G75*
G02*
X127988250Y-72130000I244250J0D01*
G01*
G37*
G36*
G01*
X108176250Y-72181000D02*
X108739750Y-72181000D01*
G75*
G02*
X108984000Y-72425250I0J-244250D01*
G01*
X108984000Y-72913750D01*
G75*
G02*
X108739750Y-73158000I-244250J0D01*
G01*
X108176250Y-73158000D01*
G75*
G02*
X107932000Y-72913750I0J244250D01*
G01*
X107932000Y-72425250D01*
G75*
G02*
X108176250Y-72181000I244250J0D01*
G01*
G37*
G36*
G01*
X108176250Y-70606000D02*
X108739750Y-70606000D01*
G75*
G02*
X108984000Y-70850250I0J-244250D01*
G01*
X108984000Y-71338750D01*
G75*
G02*
X108739750Y-71583000I-244250J0D01*
G01*
X108176250Y-71583000D01*
G75*
G02*
X107932000Y-71338750I0J244250D01*
G01*
X107932000Y-70850250D01*
G75*
G02*
X108176250Y-70606000I244250J0D01*
G01*
G37*
G36*
G01*
X113764250Y-79547000D02*
X114327750Y-79547000D01*
G75*
G02*
X114572000Y-79791250I0J-244250D01*
G01*
X114572000Y-80279750D01*
G75*
G02*
X114327750Y-80524000I-244250J0D01*
G01*
X113764250Y-80524000D01*
G75*
G02*
X113520000Y-80279750I0J244250D01*
G01*
X113520000Y-79791250D01*
G75*
G02*
X113764250Y-79547000I244250J0D01*
G01*
G37*
G36*
G01*
X113764250Y-77972000D02*
X114327750Y-77972000D01*
G75*
G02*
X114572000Y-78216250I0J-244250D01*
G01*
X114572000Y-78704750D01*
G75*
G02*
X114327750Y-78949000I-244250J0D01*
G01*
X113764250Y-78949000D01*
G75*
G02*
X113520000Y-78704750I0J244250D01*
G01*
X113520000Y-78216250D01*
G75*
G02*
X113764250Y-77972000I244250J0D01*
G01*
G37*
G36*
G01*
X111025750Y-70084500D02*
X110462250Y-70084500D01*
G75*
G02*
X110218000Y-69840250I0J244250D01*
G01*
X110218000Y-69351750D01*
G75*
G02*
X110462250Y-69107500I244250J0D01*
G01*
X111025750Y-69107500D01*
G75*
G02*
X111270000Y-69351750I0J-244250D01*
G01*
X111270000Y-69840250D01*
G75*
G02*
X111025750Y-70084500I-244250J0D01*
G01*
G37*
G36*
G01*
X111025750Y-71659500D02*
X110462250Y-71659500D01*
G75*
G02*
X110218000Y-71415250I0J244250D01*
G01*
X110218000Y-70926750D01*
G75*
G02*
X110462250Y-70682500I244250J0D01*
G01*
X111025750Y-70682500D01*
G75*
G02*
X111270000Y-70926750I0J-244250D01*
G01*
X111270000Y-71415250D01*
G75*
G02*
X111025750Y-71659500I-244250J0D01*
G01*
G37*
G36*
G01*
X106017250Y-72181000D02*
X106580750Y-72181000D01*
G75*
G02*
X106825000Y-72425250I0J-244250D01*
G01*
X106825000Y-72913750D01*
G75*
G02*
X106580750Y-73158000I-244250J0D01*
G01*
X106017250Y-73158000D01*
G75*
G02*
X105773000Y-72913750I0J244250D01*
G01*
X105773000Y-72425250D01*
G75*
G02*
X106017250Y-72181000I244250J0D01*
G01*
G37*
G36*
G01*
X106017250Y-70606000D02*
X106580750Y-70606000D01*
G75*
G02*
X106825000Y-70850250I0J-244250D01*
G01*
X106825000Y-71338750D01*
G75*
G02*
X106580750Y-71583000I-244250J0D01*
G01*
X106017250Y-71583000D01*
G75*
G02*
X105773000Y-71338750I0J244250D01*
G01*
X105773000Y-70850250D01*
G75*
G02*
X106017250Y-70606000I244250J0D01*
G01*
G37*
G36*
G01*
X103858250Y-72181000D02*
X104421750Y-72181000D01*
G75*
G02*
X104666000Y-72425250I0J-244250D01*
G01*
X104666000Y-72913750D01*
G75*
G02*
X104421750Y-73158000I-244250J0D01*
G01*
X103858250Y-73158000D01*
G75*
G02*
X103614000Y-72913750I0J244250D01*
G01*
X103614000Y-72425250D01*
G75*
G02*
X103858250Y-72181000I244250J0D01*
G01*
G37*
G36*
G01*
X103858250Y-70606000D02*
X104421750Y-70606000D01*
G75*
G02*
X104666000Y-70850250I0J-244250D01*
G01*
X104666000Y-71338750D01*
G75*
G02*
X104421750Y-71583000I-244250J0D01*
G01*
X103858250Y-71583000D01*
G75*
G02*
X103614000Y-71338750I0J244250D01*
G01*
X103614000Y-70850250D01*
G75*
G02*
X103858250Y-70606000I244250J0D01*
G01*
G37*
G36*
G01*
X111943500Y-75664250D02*
X111943500Y-76227750D01*
G75*
G02*
X111699250Y-76472000I-244250J0D01*
G01*
X111210750Y-76472000D01*
G75*
G02*
X110966500Y-76227750I0J244250D01*
G01*
X110966500Y-75664250D01*
G75*
G02*
X111210750Y-75420000I244250J0D01*
G01*
X111699250Y-75420000D01*
G75*
G02*
X111943500Y-75664250I0J-244250D01*
G01*
G37*
G36*
G01*
X113518500Y-75664250D02*
X113518500Y-76227750D01*
G75*
G02*
X113274250Y-76472000I-244250J0D01*
G01*
X112785750Y-76472000D01*
G75*
G02*
X112541500Y-76227750I0J244250D01*
G01*
X112541500Y-75664250D01*
G75*
G02*
X112785750Y-75420000I244250J0D01*
G01*
X113274250Y-75420000D01*
G75*
G02*
X113518500Y-75664250I0J-244250D01*
G01*
G37*
X141986000Y-80264000D03*
X141986000Y-77724000D03*
X141986000Y-75184000D03*
X141986000Y-72644000D03*
G36*
G01*
X141085000Y-70954000D02*
X141085000Y-69254000D01*
G75*
G02*
X141136000Y-69203000I51000J0D01*
G01*
X142836000Y-69203000D01*
G75*
G02*
X142887000Y-69254000I0J-51000D01*
G01*
X142887000Y-70954000D01*
G75*
G02*
X142836000Y-71005000I-51000J0D01*
G01*
X141136000Y-71005000D01*
G75*
G02*
X141085000Y-70954000I0J51000D01*
G01*
G37*
X128778000Y-59436000D03*
G36*
G01*
X127877000Y-57746000D02*
X127877000Y-56046000D01*
G75*
G02*
X127928000Y-55995000I51000J0D01*
G01*
X129628000Y-55995000D01*
G75*
G02*
X129679000Y-56046000I0J-51000D01*
G01*
X129679000Y-57746000D01*
G75*
G02*
X129628000Y-57797000I-51000J0D01*
G01*
X127928000Y-57797000D01*
G75*
G02*
X127877000Y-57746000I0J51000D01*
G01*
G37*
X130048000Y-86614000D03*
X127508000Y-86614000D03*
G36*
G01*
X125818000Y-87515000D02*
X124118000Y-87515000D01*
G75*
G02*
X124067000Y-87464000I0J51000D01*
G01*
X124067000Y-85764000D01*
G75*
G02*
X124118000Y-85713000I51000J0D01*
G01*
X125818000Y-85713000D01*
G75*
G02*
X125869000Y-85764000I0J-51000D01*
G01*
X125869000Y-87464000D01*
G75*
G02*
X125818000Y-87515000I-51000J0D01*
G01*
G37*
X116332000Y-84074000D03*
G36*
G01*
X117233000Y-85764000D02*
X117233000Y-87464000D01*
G75*
G02*
X117182000Y-87515000I-51000J0D01*
G01*
X115482000Y-87515000D01*
G75*
G02*
X115431000Y-87464000I0J51000D01*
G01*
X115431000Y-85764000D01*
G75*
G02*
X115482000Y-85713000I51000J0D01*
G01*
X117182000Y-85713000D01*
G75*
G02*
X117233000Y-85764000I0J-51000D01*
G01*
G37*
X120396000Y-54366000D03*
X120396000Y-56906000D03*
G36*
G01*
X121297000Y-58596000D02*
X121297000Y-60296000D01*
G75*
G02*
X121246000Y-60347000I-51000J0D01*
G01*
X119546000Y-60347000D01*
G75*
G02*
X119495000Y-60296000I0J51000D01*
G01*
X119495000Y-58596000D01*
G75*
G02*
X119546000Y-58545000I51000J0D01*
G01*
X121246000Y-58545000D01*
G75*
G02*
X121297000Y-58596000I0J-51000D01*
G01*
G37*
X114300000Y-54366000D03*
X114300000Y-56906000D03*
G36*
G01*
X115201000Y-58596000D02*
X115201000Y-60296000D01*
G75*
G02*
X115150000Y-60347000I-51000J0D01*
G01*
X113450000Y-60347000D01*
G75*
G02*
X113399000Y-60296000I0J51000D01*
G01*
X113399000Y-58596000D01*
G75*
G02*
X113450000Y-58545000I51000J0D01*
G01*
X115150000Y-58545000D01*
G75*
G02*
X115201000Y-58596000I0J-51000D01*
G01*
G37*
X141986000Y-61468000D03*
G36*
G01*
X141085000Y-59778000D02*
X141085000Y-58078000D01*
G75*
G02*
X141136000Y-58027000I51000J0D01*
G01*
X142836000Y-58027000D01*
G75*
G02*
X142887000Y-58078000I0J-51000D01*
G01*
X142887000Y-59778000D01*
G75*
G02*
X142836000Y-59829000I-51000J0D01*
G01*
X141136000Y-59829000D01*
G75*
G02*
X141085000Y-59778000I0J51000D01*
G01*
G37*
G36*
G01*
X113103000Y-73536000D02*
X113103000Y-70736000D01*
G75*
G02*
X113154000Y-70685000I51000J0D01*
G01*
X115954000Y-70685000D01*
G75*
G02*
X116005000Y-70736000I0J-51000D01*
G01*
X116005000Y-73536000D01*
G75*
G02*
X115954000Y-73587000I-51000J0D01*
G01*
X113154000Y-73587000D01*
G75*
G02*
X113103000Y-73536000I0J51000D01*
G01*
G37*
G36*
G01*
X113353000Y-70536000D02*
X113353000Y-69736000D01*
G75*
G02*
X113404000Y-69685000I51000J0D01*
G01*
X113754000Y-69685000D01*
G75*
G02*
X113805000Y-69736000I0J-51000D01*
G01*
X113805000Y-70536000D01*
G75*
G02*
X113754000Y-70587000I-51000J0D01*
G01*
X113404000Y-70587000D01*
G75*
G02*
X113353000Y-70536000I0J51000D01*
G01*
G37*
G36*
G01*
X114003000Y-70536000D02*
X114003000Y-69736000D01*
G75*
G02*
X114054000Y-69685000I51000J0D01*
G01*
X114404000Y-69685000D01*
G75*
G02*
X114455000Y-69736000I0J-51000D01*
G01*
X114455000Y-70536000D01*
G75*
G02*
X114404000Y-70587000I-51000J0D01*
G01*
X114054000Y-70587000D01*
G75*
G02*
X114003000Y-70536000I0J51000D01*
G01*
G37*
G36*
G01*
X114653000Y-70536000D02*
X114653000Y-69736000D01*
G75*
G02*
X114704000Y-69685000I51000J0D01*
G01*
X115054000Y-69685000D01*
G75*
G02*
X115105000Y-69736000I0J-51000D01*
G01*
X115105000Y-70536000D01*
G75*
G02*
X115054000Y-70587000I-51000J0D01*
G01*
X114704000Y-70587000D01*
G75*
G02*
X114653000Y-70536000I0J51000D01*
G01*
G37*
G36*
G01*
X115303000Y-70536000D02*
X115303000Y-69736000D01*
G75*
G02*
X115354000Y-69685000I51000J0D01*
G01*
X115704000Y-69685000D01*
G75*
G02*
X115755000Y-69736000I0J-51000D01*
G01*
X115755000Y-70536000D01*
G75*
G02*
X115704000Y-70587000I-51000J0D01*
G01*
X115354000Y-70587000D01*
G75*
G02*
X115303000Y-70536000I0J51000D01*
G01*
G37*
G36*
G01*
X116954000Y-71387000D02*
X116154000Y-71387000D01*
G75*
G02*
X116103000Y-71336000I0J51000D01*
G01*
X116103000Y-70986000D01*
G75*
G02*
X116154000Y-70935000I51000J0D01*
G01*
X116954000Y-70935000D01*
G75*
G02*
X117005000Y-70986000I0J-51000D01*
G01*
X117005000Y-71336000D01*
G75*
G02*
X116954000Y-71387000I-51000J0D01*
G01*
G37*
G36*
G01*
X116954000Y-72037000D02*
X116154000Y-72037000D01*
G75*
G02*
X116103000Y-71986000I0J51000D01*
G01*
X116103000Y-71636000D01*
G75*
G02*
X116154000Y-71585000I51000J0D01*
G01*
X116954000Y-71585000D01*
G75*
G02*
X117005000Y-71636000I0J-51000D01*
G01*
X117005000Y-71986000D01*
G75*
G02*
X116954000Y-72037000I-51000J0D01*
G01*
G37*
G36*
G01*
X116954000Y-72687000D02*
X116154000Y-72687000D01*
G75*
G02*
X116103000Y-72636000I0J51000D01*
G01*
X116103000Y-72286000D01*
G75*
G02*
X116154000Y-72235000I51000J0D01*
G01*
X116954000Y-72235000D01*
G75*
G02*
X117005000Y-72286000I0J-51000D01*
G01*
X117005000Y-72636000D01*
G75*
G02*
X116954000Y-72687000I-51000J0D01*
G01*
G37*
G36*
G01*
X116954000Y-73337000D02*
X116154000Y-73337000D01*
G75*
G02*
X116103000Y-73286000I0J51000D01*
G01*
X116103000Y-72936000D01*
G75*
G02*
X116154000Y-72885000I51000J0D01*
G01*
X116954000Y-72885000D01*
G75*
G02*
X117005000Y-72936000I0J-51000D01*
G01*
X117005000Y-73286000D01*
G75*
G02*
X116954000Y-73337000I-51000J0D01*
G01*
G37*
G36*
G01*
X115303000Y-74536000D02*
X115303000Y-73736000D01*
G75*
G02*
X115354000Y-73685000I51000J0D01*
G01*
X115704000Y-73685000D01*
G75*
G02*
X115755000Y-73736000I0J-51000D01*
G01*
X115755000Y-74536000D01*
G75*
G02*
X115704000Y-74587000I-51000J0D01*
G01*
X115354000Y-74587000D01*
G75*
G02*
X115303000Y-74536000I0J51000D01*
G01*
G37*
G36*
G01*
X114653000Y-74536000D02*
X114653000Y-73736000D01*
G75*
G02*
X114704000Y-73685000I51000J0D01*
G01*
X115054000Y-73685000D01*
G75*
G02*
X115105000Y-73736000I0J-51000D01*
G01*
X115105000Y-74536000D01*
G75*
G02*
X115054000Y-74587000I-51000J0D01*
G01*
X114704000Y-74587000D01*
G75*
G02*
X114653000Y-74536000I0J51000D01*
G01*
G37*
G36*
G01*
X114003000Y-74536000D02*
X114003000Y-73736000D01*
G75*
G02*
X114054000Y-73685000I51000J0D01*
G01*
X114404000Y-73685000D01*
G75*
G02*
X114455000Y-73736000I0J-51000D01*
G01*
X114455000Y-74536000D01*
G75*
G02*
X114404000Y-74587000I-51000J0D01*
G01*
X114054000Y-74587000D01*
G75*
G02*
X114003000Y-74536000I0J51000D01*
G01*
G37*
G36*
G01*
X113353000Y-74536000D02*
X113353000Y-73736000D01*
G75*
G02*
X113404000Y-73685000I51000J0D01*
G01*
X113754000Y-73685000D01*
G75*
G02*
X113805000Y-73736000I0J-51000D01*
G01*
X113805000Y-74536000D01*
G75*
G02*
X113754000Y-74587000I-51000J0D01*
G01*
X113404000Y-74587000D01*
G75*
G02*
X113353000Y-74536000I0J51000D01*
G01*
G37*
G36*
G01*
X112954000Y-73337000D02*
X112154000Y-73337000D01*
G75*
G02*
X112103000Y-73286000I0J51000D01*
G01*
X112103000Y-72936000D01*
G75*
G02*
X112154000Y-72885000I51000J0D01*
G01*
X112954000Y-72885000D01*
G75*
G02*
X113005000Y-72936000I0J-51000D01*
G01*
X113005000Y-73286000D01*
G75*
G02*
X112954000Y-73337000I-51000J0D01*
G01*
G37*
G36*
G01*
X112954000Y-72687000D02*
X112154000Y-72687000D01*
G75*
G02*
X112103000Y-72636000I0J51000D01*
G01*
X112103000Y-72286000D01*
G75*
G02*
X112154000Y-72235000I51000J0D01*
G01*
X112954000Y-72235000D01*
G75*
G02*
X113005000Y-72286000I0J-51000D01*
G01*
X113005000Y-72636000D01*
G75*
G02*
X112954000Y-72687000I-51000J0D01*
G01*
G37*
G36*
G01*
X112954000Y-72037000D02*
X112154000Y-72037000D01*
G75*
G02*
X112103000Y-71986000I0J51000D01*
G01*
X112103000Y-71636000D01*
G75*
G02*
X112154000Y-71585000I51000J0D01*
G01*
X112954000Y-71585000D01*
G75*
G02*
X113005000Y-71636000I0J-51000D01*
G01*
X113005000Y-71986000D01*
G75*
G02*
X112954000Y-72037000I-51000J0D01*
G01*
G37*
G36*
G01*
X112954000Y-71387000D02*
X112154000Y-71387000D01*
G75*
G02*
X112103000Y-71336000I0J51000D01*
G01*
X112103000Y-70986000D01*
G75*
G02*
X112154000Y-70935000I51000J0D01*
G01*
X112954000Y-70935000D01*
G75*
G02*
X113005000Y-70986000I0J-51000D01*
G01*
X113005000Y-71336000D01*
G75*
G02*
X112954000Y-71387000I-51000J0D01*
G01*
G37*
G36*
G01*
X100660000Y-68441000D02*
X97460000Y-68441000D01*
G75*
G02*
X97409000Y-68390000I0J51000D01*
G01*
X97409000Y-67090000D01*
G75*
G02*
X97460000Y-67039000I51000J0D01*
G01*
X100660000Y-67039000D01*
G75*
G02*
X100711000Y-67090000I0J-51000D01*
G01*
X100711000Y-68390000D01*
G75*
G02*
X100660000Y-68441000I-51000J0D01*
G01*
G37*
G36*
G01*
X100660000Y-77741000D02*
X97460000Y-77741000D01*
G75*
G02*
X97409000Y-77690000I0J51000D01*
G01*
X97409000Y-76390000D01*
G75*
G02*
X97460000Y-76339000I51000J0D01*
G01*
X100660000Y-76339000D01*
G75*
G02*
X100711000Y-76390000I0J-51000D01*
G01*
X100711000Y-77690000D01*
G75*
G02*
X100660000Y-77741000I-51000J0D01*
G01*
G37*
D11*
G36*
X115881731Y-73586000D02*
G01*
X115881731Y-73588000D01*
X115880195Y-73588990D01*
X115856008Y-73591372D01*
X115832933Y-73598372D01*
X115811669Y-73609737D01*
X115793032Y-73625032D01*
X115777737Y-73643669D01*
X115766372Y-73664933D01*
X115759372Y-73688008D01*
X115756990Y-73712195D01*
X115755825Y-73713821D01*
X115753835Y-73713625D01*
X115753000Y-73711999D01*
X115753000Y-73687000D01*
X115305000Y-73687000D01*
X115305000Y-74587000D01*
X115304000Y-74588732D01*
X115303000Y-74589000D01*
X115105000Y-74589000D01*
X115103268Y-74588000D01*
X115103000Y-74587000D01*
X115103000Y-73687000D01*
X114655000Y-73687000D01*
X114655000Y-74587000D01*
X114654000Y-74588732D01*
X114653000Y-74589000D01*
X114455000Y-74589000D01*
X114453268Y-74588000D01*
X114453000Y-74587000D01*
X114453000Y-73687000D01*
X114005000Y-73687000D01*
X114005000Y-74587000D01*
X114004000Y-74588732D01*
X114003000Y-74589000D01*
X113805000Y-74589000D01*
X113803268Y-74588000D01*
X113803000Y-74587000D01*
X113803000Y-73687000D01*
X113355000Y-73687000D01*
X113355000Y-73711999D01*
X113354000Y-73713731D01*
X113352000Y-73713731D01*
X113351010Y-73712195D01*
X113348628Y-73688008D01*
X113341628Y-73664933D01*
X113330263Y-73643669D01*
X113314968Y-73625032D01*
X113296331Y-73609737D01*
X113275067Y-73598372D01*
X113251992Y-73591372D01*
X113227805Y-73588990D01*
X113226179Y-73587825D01*
X113226375Y-73585835D01*
X113228001Y-73585000D01*
X115879999Y-73585000D01*
X115881731Y-73586000D01*
G37*
G36*
X116006990Y-70809805D02*
G01*
X116009372Y-70833992D01*
X116016372Y-70857067D01*
X116027737Y-70878331D01*
X116043032Y-70896968D01*
X116061669Y-70912263D01*
X116082933Y-70923628D01*
X116106008Y-70930628D01*
X116130195Y-70933010D01*
X116131821Y-70934175D01*
X116131625Y-70936165D01*
X116129999Y-70937000D01*
X116105000Y-70937000D01*
X116105000Y-71385000D01*
X117005000Y-71385000D01*
X117006732Y-71386000D01*
X117007000Y-71387000D01*
X117007000Y-71585000D01*
X117006000Y-71586732D01*
X117005000Y-71587000D01*
X116105000Y-71587000D01*
X116105000Y-72035000D01*
X117005000Y-72035000D01*
X117006732Y-72036000D01*
X117007000Y-72037000D01*
X117007000Y-72235000D01*
X117006000Y-72236732D01*
X117005000Y-72237000D01*
X116105000Y-72237000D01*
X116105000Y-72685000D01*
X117005000Y-72685000D01*
X117006732Y-72686000D01*
X117007000Y-72687000D01*
X117007000Y-72885000D01*
X117006000Y-72886732D01*
X117005000Y-72887000D01*
X116105000Y-72887000D01*
X116105000Y-73335000D01*
X116129999Y-73335000D01*
X116131731Y-73336000D01*
X116131731Y-73338000D01*
X116130195Y-73338990D01*
X116106008Y-73341372D01*
X116082933Y-73348372D01*
X116061669Y-73359737D01*
X116043032Y-73375032D01*
X116027737Y-73393669D01*
X116016372Y-73414933D01*
X116009372Y-73438008D01*
X116006990Y-73462195D01*
X116005825Y-73463821D01*
X116003835Y-73463625D01*
X116003000Y-73461999D01*
X116003000Y-70810001D01*
X116004000Y-70808269D01*
X116006000Y-70808269D01*
X116006990Y-70809805D01*
G37*
G36*
X113104165Y-70808375D02*
G01*
X113105000Y-70810001D01*
X113105000Y-73461999D01*
X113104000Y-73463731D01*
X113102000Y-73463731D01*
X113101010Y-73462195D01*
X113098628Y-73438008D01*
X113091628Y-73414933D01*
X113080263Y-73393669D01*
X113064968Y-73375032D01*
X113046331Y-73359737D01*
X113025067Y-73348372D01*
X113001992Y-73341372D01*
X112977805Y-73338990D01*
X112976179Y-73337825D01*
X112976375Y-73335835D01*
X112978001Y-73335000D01*
X113003000Y-73335000D01*
X113003000Y-72887000D01*
X112103000Y-72887000D01*
X112101268Y-72886000D01*
X112101000Y-72885000D01*
X112101000Y-72687000D01*
X112102000Y-72685268D01*
X112103000Y-72685000D01*
X113003000Y-72685000D01*
X113003000Y-72237000D01*
X112103000Y-72237000D01*
X112101268Y-72236000D01*
X112101000Y-72235000D01*
X112101000Y-72037000D01*
X112102000Y-72035268D01*
X112103000Y-72035000D01*
X113003000Y-72035000D01*
X113003000Y-71587000D01*
X112103000Y-71587000D01*
X112101268Y-71586000D01*
X112101000Y-71585000D01*
X112101000Y-71387000D01*
X112102000Y-71385268D01*
X112103000Y-71385000D01*
X113003000Y-71385000D01*
X113003000Y-70937000D01*
X112978001Y-70937000D01*
X112976269Y-70936000D01*
X112976269Y-70934000D01*
X112977805Y-70933010D01*
X113001992Y-70930628D01*
X113025067Y-70923628D01*
X113046331Y-70912263D01*
X113064968Y-70896968D01*
X113080263Y-70878331D01*
X113091628Y-70857067D01*
X113098628Y-70833992D01*
X113101010Y-70809805D01*
X113102175Y-70808179D01*
X113104165Y-70808375D01*
G37*
G36*
X115304732Y-69684000D02*
G01*
X115305000Y-69685000D01*
X115305000Y-70585000D01*
X115753000Y-70585000D01*
X115753000Y-70560001D01*
X115754000Y-70558269D01*
X115756000Y-70558269D01*
X115756990Y-70559805D01*
X115759372Y-70583992D01*
X115766372Y-70607067D01*
X115777737Y-70628331D01*
X115793032Y-70646968D01*
X115811669Y-70662263D01*
X115832933Y-70673628D01*
X115856008Y-70680628D01*
X115880195Y-70683010D01*
X115881821Y-70684175D01*
X115881625Y-70686165D01*
X115879999Y-70687000D01*
X113228001Y-70687000D01*
X113226269Y-70686000D01*
X113226269Y-70684000D01*
X113227805Y-70683010D01*
X113251992Y-70680628D01*
X113275067Y-70673628D01*
X113296331Y-70662263D01*
X113314968Y-70646968D01*
X113330263Y-70628331D01*
X113341628Y-70607067D01*
X113348628Y-70583992D01*
X113351010Y-70559805D01*
X113352175Y-70558179D01*
X113354165Y-70558375D01*
X113355000Y-70560001D01*
X113355000Y-70585000D01*
X113803000Y-70585000D01*
X113803000Y-69687000D01*
X114005000Y-69687000D01*
X114005000Y-70585000D01*
X114453000Y-70585000D01*
X114453000Y-69687000D01*
X114655000Y-69687000D01*
X114655000Y-70585000D01*
X115103000Y-70585000D01*
X115103000Y-69687000D01*
X114655000Y-69687000D01*
X114453000Y-69687000D01*
X114005000Y-69687000D01*
X113803000Y-69687000D01*
X113803000Y-69685000D01*
X113804000Y-69683268D01*
X113805000Y-69683000D01*
X115303000Y-69683000D01*
X115304732Y-69684000D01*
G37*
M02*
