G04 #@! TF.GenerationSoftware,KiCad,Pcbnew,(5.1.8)-1*
G04 #@! TF.CreationDate,2021-02-17T15:43:10-07:00*
G04 #@! TF.ProjectId,AS3935,41533339-3335-42e6-9b69-6361645f7063,rev?*
G04 #@! TF.SameCoordinates,Original*
G04 #@! TF.FileFunction,Legend,Bot*
G04 #@! TF.FilePolarity,Positive*
%FSLAX46Y46*%
G04 Gerber Fmt 4.6, Leading zero omitted, Abs format (unit mm)*
G04 Created by KiCad (PCBNEW (5.1.8)-1) date 2021-02-17 15:43:10*
%MOMM*%
%LPD*%
G01*
G04 APERTURE LIST*
%ADD10C,0.153000*%
%ADD11C,0.180000*%
%ADD12C,0.300000*%
%ADD13C,0.500000*%
G04 APERTURE END LIST*
D10*
X145427238Y-92525904D02*
X145427238Y-93097333D01*
X145465333Y-93211619D01*
X145541523Y-93287809D01*
X145655809Y-93325904D01*
X145732000Y-93325904D01*
X144665333Y-93325904D02*
X145046285Y-93325904D01*
X145046285Y-92525904D01*
X143941523Y-93249714D02*
X143979619Y-93287809D01*
X144093904Y-93325904D01*
X144170095Y-93325904D01*
X144284380Y-93287809D01*
X144360571Y-93211619D01*
X144398666Y-93135428D01*
X144436761Y-92983047D01*
X144436761Y-92868761D01*
X144398666Y-92716380D01*
X144360571Y-92640190D01*
X144284380Y-92564000D01*
X144170095Y-92525904D01*
X144093904Y-92525904D01*
X143979619Y-92564000D01*
X143941523Y-92602095D01*
X143370095Y-92525904D02*
X143370095Y-93097333D01*
X143408190Y-93211619D01*
X143484380Y-93287809D01*
X143598666Y-93325904D01*
X143674857Y-93325904D01*
X142608190Y-93325904D02*
X142989142Y-93325904D01*
X142989142Y-92525904D01*
X141884380Y-93249714D02*
X141922476Y-93287809D01*
X142036761Y-93325904D01*
X142112952Y-93325904D01*
X142227238Y-93287809D01*
X142303428Y-93211619D01*
X142341523Y-93135428D01*
X142379619Y-92983047D01*
X142379619Y-92868761D01*
X142341523Y-92716380D01*
X142303428Y-92640190D01*
X142227238Y-92564000D01*
X142112952Y-92525904D01*
X142036761Y-92525904D01*
X141922476Y-92564000D01*
X141884380Y-92602095D01*
X141312952Y-92525904D02*
X141312952Y-93097333D01*
X141351047Y-93211619D01*
X141427238Y-93287809D01*
X141541523Y-93325904D01*
X141617714Y-93325904D01*
X140551047Y-93325904D02*
X140932000Y-93325904D01*
X140932000Y-92525904D01*
X139827238Y-93249714D02*
X139865333Y-93287809D01*
X139979619Y-93325904D01*
X140055809Y-93325904D01*
X140170095Y-93287809D01*
X140246285Y-93211619D01*
X140284380Y-93135428D01*
X140322476Y-92983047D01*
X140322476Y-92868761D01*
X140284380Y-92716380D01*
X140246285Y-92640190D01*
X140170095Y-92564000D01*
X140055809Y-92525904D01*
X139979619Y-92525904D01*
X139865333Y-92564000D01*
X139827238Y-92602095D01*
X139255809Y-92525904D02*
X139255809Y-93097333D01*
X139293904Y-93211619D01*
X139370095Y-93287809D01*
X139484380Y-93325904D01*
X139560571Y-93325904D01*
X138493904Y-93325904D02*
X138874857Y-93325904D01*
X138874857Y-92525904D01*
X137770095Y-93249714D02*
X137808190Y-93287809D01*
X137922476Y-93325904D01*
X137998666Y-93325904D01*
X138112952Y-93287809D01*
X138189142Y-93211619D01*
X138227238Y-93135428D01*
X138265333Y-92983047D01*
X138265333Y-92868761D01*
X138227238Y-92716380D01*
X138189142Y-92640190D01*
X138112952Y-92564000D01*
X137998666Y-92525904D01*
X137922476Y-92525904D01*
X137808190Y-92564000D01*
X137770095Y-92602095D01*
D11*
X103163333Y-92749619D02*
X103258571Y-92702000D01*
X103353809Y-92606761D01*
X103496666Y-92463904D01*
X103591904Y-92416285D01*
X103687142Y-92416285D01*
X103639523Y-92654380D02*
X103734761Y-92606761D01*
X103830000Y-92511523D01*
X103877619Y-92321047D01*
X103877619Y-91987714D01*
X103830000Y-91797238D01*
X103734761Y-91702000D01*
X103639523Y-91654380D01*
X103449047Y-91654380D01*
X103353809Y-91702000D01*
X103258571Y-91797238D01*
X103210952Y-91987714D01*
X103210952Y-92321047D01*
X103258571Y-92511523D01*
X103353809Y-92606761D01*
X103449047Y-92654380D01*
X103639523Y-92654380D01*
X102782380Y-92130571D02*
X102449047Y-92130571D01*
X102306190Y-92654380D02*
X102782380Y-92654380D01*
X102782380Y-91654380D01*
X102306190Y-91654380D01*
X101925238Y-92606761D02*
X101782380Y-92654380D01*
X101544285Y-92654380D01*
X101449047Y-92606761D01*
X101401428Y-92559142D01*
X101353809Y-92463904D01*
X101353809Y-92368666D01*
X101401428Y-92273428D01*
X101449047Y-92225809D01*
X101544285Y-92178190D01*
X101734761Y-92130571D01*
X101830000Y-92082952D01*
X101877619Y-92035333D01*
X101925238Y-91940095D01*
X101925238Y-91844857D01*
X101877619Y-91749619D01*
X101830000Y-91702000D01*
X101734761Y-91654380D01*
X101496666Y-91654380D01*
X101353809Y-91702000D01*
X100210952Y-91749619D02*
X100163333Y-91702000D01*
X100068095Y-91654380D01*
X99830000Y-91654380D01*
X99734761Y-91702000D01*
X99687142Y-91749619D01*
X99639523Y-91844857D01*
X99639523Y-91940095D01*
X99687142Y-92082952D01*
X100258571Y-92654380D01*
X99639523Y-92654380D01*
X99020476Y-91654380D02*
X98925238Y-91654380D01*
X98830000Y-91702000D01*
X98782380Y-91749619D01*
X98734761Y-91844857D01*
X98687142Y-92035333D01*
X98687142Y-92273428D01*
X98734761Y-92463904D01*
X98782380Y-92559142D01*
X98830000Y-92606761D01*
X98925238Y-92654380D01*
X99020476Y-92654380D01*
X99115714Y-92606761D01*
X99163333Y-92559142D01*
X99210952Y-92463904D01*
X99258571Y-92273428D01*
X99258571Y-92035333D01*
X99210952Y-91844857D01*
X99163333Y-91749619D01*
X99115714Y-91702000D01*
X99020476Y-91654380D01*
X98306190Y-91749619D02*
X98258571Y-91702000D01*
X98163333Y-91654380D01*
X97925238Y-91654380D01*
X97830000Y-91702000D01*
X97782380Y-91749619D01*
X97734761Y-91844857D01*
X97734761Y-91940095D01*
X97782380Y-92082952D01*
X98353809Y-92654380D01*
X97734761Y-92654380D01*
X97115714Y-91654380D02*
X97020476Y-91654380D01*
X96925238Y-91702000D01*
X96877619Y-91749619D01*
X96830000Y-91844857D01*
X96782380Y-92035333D01*
X96782380Y-92273428D01*
X96830000Y-92463904D01*
X96877619Y-92559142D01*
X96925238Y-92606761D01*
X97020476Y-92654380D01*
X97115714Y-92654380D01*
X97210952Y-92606761D01*
X97258571Y-92559142D01*
X97306190Y-92463904D01*
X97353809Y-92273428D01*
X97353809Y-92035333D01*
X97306190Y-91844857D01*
X97258571Y-91749619D01*
X97210952Y-91702000D01*
X97115714Y-91654380D01*
D12*
X111759619Y-55292761D02*
X111092952Y-57292761D01*
X110426285Y-55292761D01*
X108712000Y-57292761D02*
X109854857Y-57292761D01*
X109283428Y-57292761D02*
X109283428Y-55292761D01*
X109473904Y-55578476D01*
X109664380Y-55768952D01*
X109854857Y-55864190D01*
X107854857Y-57102285D02*
X107759619Y-57197523D01*
X107854857Y-57292761D01*
X107950095Y-57197523D01*
X107854857Y-57102285D01*
X107854857Y-57292761D01*
X106521523Y-55292761D02*
X106331047Y-55292761D01*
X106140571Y-55388000D01*
X106045333Y-55483238D01*
X105950095Y-55673714D01*
X105854857Y-56054666D01*
X105854857Y-56530857D01*
X105950095Y-56911809D01*
X106045333Y-57102285D01*
X106140571Y-57197523D01*
X106331047Y-57292761D01*
X106521523Y-57292761D01*
X106712000Y-57197523D01*
X106807238Y-57102285D01*
X106902476Y-56911809D01*
X106997714Y-56530857D01*
X106997714Y-56054666D01*
X106902476Y-55673714D01*
X106807238Y-55483238D01*
X106712000Y-55388000D01*
X106521523Y-55292761D01*
D13*
X111489142Y-52570000D02*
X110060571Y-52570000D01*
X111774857Y-53427142D02*
X110774857Y-50427142D01*
X109774857Y-53427142D01*
X108917714Y-53284285D02*
X108489142Y-53427142D01*
X107774857Y-53427142D01*
X107489142Y-53284285D01*
X107346285Y-53141428D01*
X107203428Y-52855714D01*
X107203428Y-52570000D01*
X107346285Y-52284285D01*
X107489142Y-52141428D01*
X107774857Y-51998571D01*
X108346285Y-51855714D01*
X108632000Y-51712857D01*
X108774857Y-51570000D01*
X108917714Y-51284285D01*
X108917714Y-50998571D01*
X108774857Y-50712857D01*
X108632000Y-50570000D01*
X108346285Y-50427142D01*
X107632000Y-50427142D01*
X107203428Y-50570000D01*
X106203428Y-50427142D02*
X104346285Y-50427142D01*
X105346285Y-51570000D01*
X104917714Y-51570000D01*
X104632000Y-51712857D01*
X104489142Y-51855714D01*
X104346285Y-52141428D01*
X104346285Y-52855714D01*
X104489142Y-53141428D01*
X104632000Y-53284285D01*
X104917714Y-53427142D01*
X105774857Y-53427142D01*
X106060571Y-53284285D01*
X106203428Y-53141428D01*
X102917714Y-53427142D02*
X102346285Y-53427142D01*
X102060571Y-53284285D01*
X101917714Y-53141428D01*
X101632000Y-52712857D01*
X101489142Y-52141428D01*
X101489142Y-50998571D01*
X101632000Y-50712857D01*
X101774857Y-50570000D01*
X102060571Y-50427142D01*
X102632000Y-50427142D01*
X102917714Y-50570000D01*
X103060571Y-50712857D01*
X103203428Y-50998571D01*
X103203428Y-51712857D01*
X103060571Y-51998571D01*
X102917714Y-52141428D01*
X102632000Y-52284285D01*
X102060571Y-52284285D01*
X101774857Y-52141428D01*
X101632000Y-51998571D01*
X101489142Y-51712857D01*
X100489142Y-50427142D02*
X98632000Y-50427142D01*
X99632000Y-51570000D01*
X99203428Y-51570000D01*
X98917714Y-51712857D01*
X98774857Y-51855714D01*
X98632000Y-52141428D01*
X98632000Y-52855714D01*
X98774857Y-53141428D01*
X98917714Y-53284285D01*
X99203428Y-53427142D01*
X100060571Y-53427142D01*
X100346285Y-53284285D01*
X100489142Y-53141428D01*
X95917714Y-50427142D02*
X97346285Y-50427142D01*
X97489142Y-51855714D01*
X97346285Y-51712857D01*
X97060571Y-51570000D01*
X96346285Y-51570000D01*
X96060571Y-51712857D01*
X95917714Y-51855714D01*
X95774857Y-52141428D01*
X95774857Y-52855714D01*
X95917714Y-53141428D01*
X96060571Y-53284285D01*
X96346285Y-53427142D01*
X97060571Y-53427142D01*
X97346285Y-53284285D01*
X97489142Y-53141428D01*
M02*
